<svg width="154" height="248" viewBox="0 0 154 248" fill="none" xmlns="http://www.w3.org/2000/svg">
<path d="M133.21 189.779C135.103 189.878 136.729 188.422 136.696 186.527C136.448 172.538 130.244 158.979 119.174 148.446C107.202 137.054 90.5188 130.135 72.7954 129.211C55.072 128.287 37.7601 133.434 24.668 143.52C12.5635 152.845 4.98298 165.686 3.28266 179.573C3.05232 181.455 4.51902 183.072 6.41176 183.17L10.7017 183.394C12.5945 183.493 14.1941 182.035 14.4507 180.157C16.0017 168.803 22.2753 158.326 32.1962 150.684C43.105 142.28 57.5299 137.991 72.2977 138.761C87.0654 139.53 100.966 145.295 110.942 154.788C120.015 163.421 125.165 174.493 125.528 185.946C125.588 187.841 127.027 189.457 128.92 189.556L133.21 189.779Z" fill="#867CF9"/>
<path d="M35.0683 1.175C23.2385 0.558425 13.1828 8.99293 12.6084 20.014C12.0339 31.0351 34.1671 137.514 34.1671 137.514L49.7066 132.407L55.4482 22.2468C56.0226 11.2257 46.8982 1.79157 35.0683 1.175Z" fill="#867CF9"/>
<path d="M35.7176 9.32255C27.2395 8.88067 19.9564 16.3937 19.4504 26.1035C18.9443 35.8132 37.8979 133.472 37.8979 133.472L44.7795 130.788L50.1522 27.7036C50.6583 17.9939 44.1957 9.76443 35.7176 9.32255Z" fill="#FFAD93"/>
<path d="M87.9936 132.027L93.1646 32.814C100.803 28.204 120.064 22.1966 136.004 35.0468C135.487 44.9726 102.949 138.135 102.949 138.135L87.9936 132.027Z" fill="#867CF9"/>
<path d="M91.985 131.005L96.8851 36.9906L127.524 39.7951C127.069 48.5371 98.5661 134.088 98.5661 134.088L91.985 131.005Z" fill="#FFAD93"/>
<path d="M129.045 71.2651C117.216 70.6486 115.268 59.7253 108.666 50.1933C102.063 40.6613 96.7841 36.6275 96.7841 36.6275L136.08 34.738L151.505 52.4261C150.931 63.4472 140.875 71.8817 129.045 71.2651Z" fill="#867CF9"/>
</svg>
