<svg width="224" height="267" viewBox="0 0 224 267" fill="none" xmlns="http://www.w3.org/2000/svg">
<path d="M171.21 206.78C173.103 206.879 174.729 205.423 174.696 203.528C174.448 189.539 168.244 175.98 157.174 165.447C145.202 154.055 128.519 147.135 110.795 146.212C93.072 145.288 75.7601 150.435 62.668 160.521C50.5635 169.846 42.983 182.687 41.2827 196.574C41.0523 198.455 42.519 200.073 44.4118 200.171L48.7017 200.395C50.5945 200.493 52.1941 199.035 52.4507 197.158C54.0017 185.804 60.2753 175.327 70.1962 167.684C81.105 159.28 95.5299 154.992 110.298 155.761C125.065 156.531 138.966 162.296 148.942 171.789C158.015 180.421 163.165 191.494 163.528 202.947C163.588 204.841 165.027 206.458 166.92 206.556L171.21 206.78Z" fill="#867CF9"/>
<path d="M73.0683 18.1757C61.2385 17.5592 51.1828 25.9937 50.6084 37.0147C50.0339 48.0358 72.1671 154.515 72.1671 154.515L87.7066 149.408L93.4482 39.2475C94.0226 28.2265 84.8982 18.7923 73.0683 18.1757Z" fill="#867CF9"/>
<path d="M73.7179 26.323C65.2398 25.8812 57.9567 33.3942 57.4506 43.104C56.9446 52.8137 75.8981 150.473 75.8981 150.473L82.7797 147.789L88.1525 44.7041C88.6585 34.9944 82.196 26.7649 73.7179 26.323Z" fill="#FFAD93"/>
<path d="M125.994 149.027L131.165 49.8145C138.803 45.2045 158.065 39.1971 174.005 52.0473C173.487 61.9731 140.949 155.135 140.949 155.135L125.994 149.027Z" fill="#867CF9"/>
<path d="M129.985 148.006L134.885 53.9911L165.524 56.7956C165.069 65.5376 136.566 151.088 136.566 151.088L129.985 148.006Z" fill="#FFAD93"/>
<path d="M167.045 88.2654C155.216 87.6488 153.268 76.7256 146.666 67.1936C140.063 57.6616 134.784 53.6278 134.784 53.6278L174.08 51.7382L189.505 69.4264C188.931 80.4474 178.875 88.8819 167.045 88.2654Z" fill="#867CF9"/>
</svg>
