<svg width="165" height="71" viewBox="0 0 165 71" fill="none" xmlns="http://www.w3.org/2000/svg">
<path d="M0 35.5C0 15.8939 15.8939 0 35.5 0H165V31C165 53.0914 147.091 71 125 71H35.5C15.8939 71 0 55.1061 0 35.5Z" fill="#867CF9"/>
<path d="M38.85 43L38.825 30.25L32.5 40.875H31.35L25.025 30.325V43H22.625V25.5H24.675L31.975 37.8L39.175 25.5H41.225L41.25 43H38.85ZM51.827 43.15C50.5103 43.15 49.327 42.8583 48.277 42.275C47.227 41.6917 46.402 40.8917 45.802 39.875C45.2186 38.8417 44.927 37.675 44.927 36.375C44.927 35.075 45.2186 33.9167 45.802 32.9C46.402 31.8667 47.227 31.0667 48.277 30.5C49.327 29.9167 50.5103 29.625 51.827 29.625C53.1436 29.625 54.3186 29.9167 55.352 30.5C56.402 31.0667 57.2186 31.8667 57.802 32.9C58.402 33.9167 58.702 35.075 58.702 36.375C58.702 37.675 58.402 38.8417 57.802 39.875C57.2186 40.8917 56.402 41.6917 55.352 42.275C54.3186 42.8583 53.1436 43.15 51.827 43.15ZM51.827 41.05C52.677 41.05 53.4353 40.8583 54.102 40.475C54.7853 40.075 55.3186 39.525 55.702 38.825C56.0853 38.1083 56.277 37.2917 56.277 36.375C56.277 35.4583 56.0853 34.65 55.702 33.95C55.3186 33.2333 54.7853 32.6833 54.102 32.3C53.4353 31.9167 52.677 31.725 51.827 31.725C50.977 31.725 50.2103 31.9167 49.527 32.3C48.8603 32.6833 48.327 33.2333 47.927 33.95C47.5436 34.65 47.352 35.4583 47.352 36.375C47.352 37.2917 47.5436 38.1083 47.927 38.825C48.327 39.525 48.8603 40.075 49.527 40.475C50.2103 40.8583 50.977 41.05 51.827 41.05ZM64.3211 31.975C64.7378 31.2083 65.3544 30.625 66.1711 30.225C66.9878 29.825 67.9794 29.625 69.1461 29.625V31.95C69.0128 31.9333 68.8294 31.925 68.5961 31.925C67.2961 31.925 66.2711 32.3167 65.5211 33.1C64.7878 33.8667 64.4211 34.9667 64.4211 36.4V43H62.0211V29.75H64.3211V31.975ZM83.957 36.45C83.957 36.6333 83.9404 36.875 83.907 37.175H73.157C73.307 38.3417 73.8154 39.2833 74.682 40C75.5654 40.7 76.657 41.05 77.957 41.05C79.5404 41.05 80.8154 40.5167 81.782 39.45L83.107 41C82.507 41.7 81.757 42.2333 80.857 42.6C79.9737 42.9667 78.982 43.15 77.882 43.15C76.482 43.15 75.2404 42.8667 74.157 42.3C73.0737 41.7167 72.232 40.9083 71.632 39.875C71.0487 38.8417 70.757 37.675 70.757 36.375C70.757 35.0917 71.0404 33.9333 71.607 32.9C72.1904 31.8667 72.982 31.0667 73.982 30.5C74.9987 29.9167 76.1404 29.625 77.407 29.625C78.6737 29.625 79.7987 29.9167 80.782 30.5C81.782 31.0667 82.557 31.8667 83.107 32.9C83.6737 33.9333 83.957 35.1167 83.957 36.45ZM77.407 31.65C76.257 31.65 75.2904 32 74.507 32.7C73.7404 33.4 73.2904 34.3167 73.157 35.45H81.657C81.5237 34.3333 81.0654 33.425 80.282 32.725C79.5154 32.0083 78.557 31.65 77.407 31.65Z" fill="white"/>
<path d="M132 35.25L122.043 29.4031L121.958 40.9498L132 35.25ZM97.9926 36L122.993 36.1838L123.008 34.1839L98.0074 34L97.9926 36Z" fill="white"/>
</svg>
