<svg width="138" height="148" viewBox="0 0 138 148" fill="none" xmlns="http://www.w3.org/2000/svg">
<path d="M28.5576 97.0144C13.9532 90.964 14.779 76.916 20.7042 71.3525L17.5673 58.4172C0.837165 67.0964 1.8828 83.7314 4.49688 90.964C9.09767 106.653 25.5838 110.576 33.2518 110.576L28.5576 97.0144Z" fill="#7C71FE" stroke="#7C71FE" stroke-width="4.17266"/>
<path d="M37.7881 132.816L18.6475 55.2878H134.439L119.217 132.816C82.7209 154.883 49.7244 142.01 37.7881 132.816Z" fill="#7C71FE" stroke="#7C71FE" stroke-width="4.17266"/>
<path d="M135.482 46.4209C135.482 58.4408 129.027 69.4777 118.285 77.5797C107.542 85.6826 92.6065 90.7554 76.0214 90.7554C59.4362 90.7554 44.5006 85.6826 33.7576 77.5797C23.0155 69.4777 16.5609 58.4408 16.5609 46.4209C16.5609 34.401 23.0155 23.3641 33.7576 15.262C44.5006 7.15921 59.4362 2.08633 76.0214 2.08633C92.6065 2.08633 107.542 7.15921 118.285 15.262C129.027 23.3641 135.482 34.401 135.482 46.4209Z" fill="#7C71FE" stroke="#7C71FE" stroke-width="4.17266"/>
<ellipse cx="75.9415" cy="45.3778" rx="54.1644" ry="39.1187" fill="#FFAD93"/>
<path d="M69.3361 32.8122C73.4577 38.3551 75.8949 47.1585 75.8949 47.1585C75.8949 47.1585 65.4074 47.1616 61.4896 42.9043C57.9491 39.057 55.7739 31.3958 57.9292 29.5799C60.0844 27.764 65.2144 27.2692 69.3361 32.8122Z" fill="white"/>
<path d="M82.6193 32.8122C78.4976 38.3551 76.0605 47.1585 76.0605 47.1585C76.0605 47.1585 86.5479 47.1616 90.4657 42.9043C94.0062 39.057 96.1814 31.3958 94.0262 29.5799C91.8709 27.764 86.7409 27.2692 82.6193 32.8122Z" fill="white"/>
<path d="M59.4288 44.3023C66.0009 50.8545 75.9626 56.4989 75.9626 56.4989C75.9626 56.4989 56.7789 58.9289 50.654 54.1401C45.1188 49.8124 41.8575 43.2029 44.7252 39.9214C47.5929 36.64 52.8568 37.7501 59.4288 44.3023Z" fill="white"/>
<path d="M92.4755 44.3023C85.9034 50.8545 75.9417 56.4989 75.9417 56.4989C75.9417 56.4989 95.1254 58.9289 101.25 54.1401C106.785 49.8124 110.047 43.2029 107.179 39.9214C104.311 36.64 99.0475 37.7501 92.4755 44.3023Z" fill="white"/>
<path d="M71.0515 15.2864C68.2678 15.2864 66.0112 17.6489 66.0112 20.5632C66.2104 24.2669 68.0853 27.1167 76.0918 34.2439C84.0983 27.1167 85.9733 24.2669 86.1724 20.5632C86.1724 17.6489 83.9158 15.2864 81.1321 15.2864C78.3484 15.2864 76.0918 17.6489 76.0918 20.5632C76.0918 17.6489 73.8352 15.2864 71.0515 15.2864Z" fill="white"/>
<path d="M43.4335 51.2455C49.5722 64.0043 68.3181 62.4796 75.9412 60.1225V66.4417C55.118 72.4599 41.8165 66.6701 37.5657 51.9978C34.1126 40.0794 43.3685 27.197 51.4086 22.6627C51.7012 22.4977 51.9509 22.8555 51.7164 23.0961C39.1756 35.9613 40.9033 47.1583 43.4335 51.2455Z" fill="white"/>
<path d="M108.45 51.2455C102.311 64.0043 83.565 62.4796 75.9418 60.1225V66.4417C96.765 72.4599 110.067 66.6701 114.317 51.9978C117.77 40.0794 108.515 27.197 100.474 22.6627C100.182 22.4977 99.9322 22.8555 100.167 23.0961C112.707 35.9613 110.98 47.1583 108.45 51.2455Z" fill="white"/>
</svg>
