<svg width="201" height="201" viewBox="0 0 201 201" fill="none" xmlns="http://www.w3.org/2000/svg">
<path d="M55.5576 129.016C40.9532 122.966 41.779 108.918 47.7042 103.354L44.5673 90.4189C27.8372 99.0981 28.8828 115.733 31.4969 122.966C36.0977 138.655 52.5838 142.577 60.2518 142.577L55.5576 129.016Z" fill="#7C71FE" stroke="#7C71FE" stroke-width="4.17266"/>
<path d="M64.7881 164.818L45.6475 87.2896H161.439L146.217 164.818C109.721 186.884 76.7244 174.012 64.7881 164.818Z" fill="#7C71FE" stroke="#7C71FE" stroke-width="4.17266"/>
<path d="M162.482 78.4228C162.482 90.4427 156.027 101.48 145.285 109.582C134.542 117.685 119.607 122.757 103.021 122.757C86.4362 122.757 71.5006 117.685 60.7576 109.582C50.0155 101.48 43.5609 90.4427 43.5609 78.4228C43.5609 66.4029 50.0155 55.366 60.7576 47.264C71.5006 39.1612 86.4362 34.0883 103.021 34.0883C119.607 34.0883 134.542 39.1612 145.285 47.264C156.027 55.366 162.482 66.4029 162.482 78.4228Z" fill="#7C71FE" stroke="#7C71FE" stroke-width="4.17266"/>
<ellipse cx="102.941" cy="77.3795" rx="54.1644" ry="39.1187" fill="#FFAD93"/>
<path d="M96.3361 64.8139C100.458 70.3568 102.895 79.1602 102.895 79.1602C102.895 79.1602 92.4074 79.1633 88.4896 74.9061C84.9491 71.0587 82.7739 63.3975 84.9292 61.5816C87.0844 59.7657 92.2144 59.2709 96.3361 64.8139Z" fill="white"/>
<path d="M109.619 64.8139C105.498 70.3568 103.06 79.1602 103.06 79.1602C103.06 79.1602 113.548 79.1633 117.466 74.9061C121.006 71.0587 123.181 63.3975 121.026 61.5816C118.871 59.7657 113.741 59.2709 109.619 64.8139Z" fill="white"/>
<path d="M86.4288 76.304C93.0009 82.8562 102.963 88.5006 102.963 88.5006C102.963 88.5006 83.7789 90.9306 77.654 86.1418C72.1188 81.8141 68.8575 75.2046 71.7252 71.9231C74.5929 68.6417 79.8568 69.7518 86.4288 76.304Z" fill="white"/>
<path d="M119.475 76.304C112.903 82.8562 102.942 88.5006 102.942 88.5006C102.942 88.5006 122.125 90.9306 128.25 86.1418C133.785 81.8141 137.047 75.2046 134.179 71.9231C131.311 68.6417 126.047 69.7518 119.475 76.304Z" fill="white"/>
<path d="M98.0515 47.2881C95.2678 47.2881 93.0112 49.6506 93.0112 52.5649C93.2104 56.2686 95.0853 59.1184 103.092 66.2456C111.098 59.1184 112.973 56.2686 113.172 52.5649C113.172 49.6506 110.916 47.2881 108.132 47.2881C105.348 47.2881 103.092 49.6506 103.092 52.5649C103.092 49.6506 100.835 47.2881 98.0515 47.2881Z" fill="white"/>
<path d="M70.4335 83.2473C76.5722 96.006 95.3181 94.4813 102.941 92.1242V98.4434C82.118 104.462 68.8165 98.6718 64.5657 83.9995C61.1126 72.0811 70.3685 59.1987 78.4086 54.6644C78.7012 54.4994 78.9509 54.8572 78.7164 55.0978C66.1756 67.963 67.9033 79.16 70.4335 83.2473Z" fill="white"/>
<path d="M135.45 83.2473C129.311 96.006 110.565 94.4813 102.942 92.1242V98.4434C123.765 104.462 137.067 98.6718 141.317 83.9995C144.77 72.0811 135.515 59.1987 127.474 54.6644C127.182 54.4994 126.932 54.8572 127.167 55.0978C139.707 67.963 137.98 79.16 135.45 83.2473Z" fill="white"/>
</svg>
