<svg width="189" height="228" viewBox="0 0 189 228" fill="none" xmlns="http://www.w3.org/2000/svg">
<rect x="-0.259417" y="0.657802" width="124.111" height="181.9" rx="11.7212" transform="matrix(-0.917218 0.398385 0.398385 0.917218 114.93 10.0909)" stroke="#7D704E"/>
<rect x="-0.259417" y="0.657802" width="112.517" height="148.766" transform="matrix(-0.917218 0.398385 0.398385 0.917218 113.963 22.5277)" stroke="#7D704E"/>
<path d="M121.649 193.285C122.814 195.967 125.825 197.205 128.352 196.108C130.879 195.01 132.03 191.965 130.864 189.282C129.699 186.599 126.688 185.361 124.161 186.459C121.634 187.556 120.484 190.602 121.649 193.285Z" stroke="#7D704E"/>
<path d="M118.842 102.318L163.742 6.03805C162.505 4.51932 161.43 3.61614 160.216 3.0721C159 2.52679 157.596 2.32059 155.658 2.28223L110.766 98.5446L110.856 109.278L118.842 102.318Z" fill="white" stroke="#7D704E"/>
</svg>
