<svg width="502" height="264" viewBox="0 0 502 264" fill="none" xmlns="http://www.w3.org/2000/svg">
<path d="M333.873 157.178L363.507 156.457L359.396 171.435L359.334 171.661L359.441 171.87L366.767 186.123L358.8 183.279L358.61 183.211L358.417 183.272L347.909 186.574L338.556 183.989L338.394 183.944L338.231 183.99L330.068 186.308L335.043 171.79L335.083 171.67L335.073 171.544L333.873 157.178Z" stroke="#7D704E" stroke-width="1.20466"/>
<path d="M317.792 105.852L317.792 105.852L317.791 105.843C317.319 100.163 319.432 95.755 323.103 92.6276C326.794 89.483 332.092 87.6107 337.983 87.1207C343.874 86.6308 349.123 87.6254 352.999 90.1289C356.854 92.6182 359.411 96.6356 359.886 102.342L359.891 102.402L359.907 102.46C366.654 125.76 366.72 142.425 364.106 153.769C361.514 165.015 356.3 170.998 352.371 173.114C349.87 173.192 346.978 171.669 344.294 169.579C341.591 167.476 339.225 164.897 337.879 163.172L337.783 163.049L337.641 162.988C336.416 162.465 335.28 161.05 334.271 158.9C333.275 156.777 332.459 154.059 331.803 151.117C330.492 145.237 329.844 138.564 329.652 134.216L329.64 133.945L329.429 133.775C325.357 130.474 322.552 125.165 320.709 119.798C318.87 114.443 318.015 109.111 317.792 105.852Z" fill="white" stroke="#7D704E" stroke-width="1.20466"/>
<path d="M332.956 101.263C332.515 100.317 330.953 98.7294 328.23 99.9393" stroke="#7D704E" stroke-width="1.20466"/>
<path d="M343.07 101.263C343.511 100.317 345.074 98.7294 347.796 99.9393" stroke="#7D704E" stroke-width="1.20466"/>
<path d="M337.453 95.1129L337.643 95.1703L337.829 95.1042C342.747 93.363 347.197 93.623 350.466 95.1913C353.727 96.7554 355.843 99.6286 356.142 103.226C356.441 106.824 354.794 110.284 351.804 112.971C348.813 115.658 344.502 117.542 339.576 117.951C334.65 118.361 330.087 117.215 326.693 115.059C323.3 112.904 321.104 109.763 320.804 106.165C320.208 98.9931 327.595 92.1238 337.453 95.1129Z" stroke="#7D704E" stroke-width="1.20466"/>
<path d="M350.872 127.029C351.182 122.719 354.781 119.426 359.159 119.026C364.449 118.542 369.13 122.44 369.614 127.731L373.482 170.067C364.34 161.952 358.463 155.258 354.975 148.687C351.357 141.871 350.288 135.147 350.872 127.029Z" fill="white" stroke="#7D704E" stroke-width="1.20466"/>
<path d="M337.17 112.959C337.697 114.201 339.457 114.201 339.984 112.959L340.996 110.575C341.424 109.567 340.684 108.449 339.589 108.449H337.566C336.471 108.449 335.731 109.567 336.159 110.575L337.17 112.959Z" stroke="#7D704E" stroke-width="1.20466"/>
<ellipse cx="329.549" cy="103.706" rx="2.49044" ry="2.24542" fill="#7D704E"/>
<ellipse cx="347.036" cy="103.706" rx="2.49044" ry="2.24542" fill="#7D704E"/>
<path d="M378.114 103.39V108.441" stroke="#7D704E" stroke-width="1.20466"/>
<path d="M390.646 183.519C390.646 183.716 390.498 184.043 389.88 184.45C389.287 184.842 388.388 185.218 387.223 185.544C384.902 186.192 381.661 186.6 378.057 186.6C374.452 186.6 371.211 186.192 368.89 185.544C367.725 185.218 366.827 184.842 366.233 184.45C365.615 184.043 365.467 183.716 365.467 183.519C365.467 183.323 365.615 182.996 366.233 182.588C366.827 182.196 367.725 181.82 368.89 181.495C371.211 180.847 374.452 180.438 378.057 180.438C381.661 180.438 384.902 180.847 387.223 181.495C388.388 181.82 389.287 182.196 389.88 182.588C390.498 182.996 390.646 183.323 390.646 183.519Z" fill="white" stroke="#7D704E" stroke-width="1.20466"/>
<path d="M374.811 146.236C374.809 146.15 374.855 146.101 374.889 146.087C375.989 145.618 376.871 145.359 377.821 145.337C378.774 145.315 379.847 145.531 381.321 146.099C381.357 146.113 381.407 146.165 381.402 146.253C381.33 147.598 381.496 148.884 381.652 150.07L381.656 150.098C381.813 151.294 381.955 152.376 381.886 153.42C381.885 153.424 381.884 153.433 381.879 153.447C378.979 161.874 379.986 170.729 381.234 181.698C381.274 182.054 381.315 182.413 381.356 182.774C381.365 182.851 381.304 182.917 381.229 182.917H374.972C374.9 182.917 374.839 182.854 374.845 182.777C374.941 181.607 375.037 180.47 375.131 179.362C375.548 174.431 375.914 170.095 375.961 166.205C376.018 161.433 375.596 157.278 374.173 153.447C374.167 153.431 374.166 153.421 374.166 153.415C374.116 152.355 374.285 151.257 374.472 150.048L374.472 150.048C374.656 148.86 374.854 147.575 374.811 146.236Z" fill="white" stroke="#7D704E" stroke-width="1.20466"/>
<path d="M390.646 143.982C390.646 144.178 390.498 144.505 389.88 144.913C389.287 145.305 388.388 145.681 387.223 146.006C384.902 146.654 381.661 147.063 378.057 147.063C374.452 147.063 371.211 146.654 368.89 146.006C367.725 145.681 366.827 145.305 366.233 144.913C365.615 144.505 365.467 144.178 365.467 143.982C365.467 143.785 365.615 143.458 366.233 143.051C366.827 142.659 367.725 142.282 368.89 141.957C371.211 141.309 374.452 140.901 378.057 140.901C381.661 140.901 384.902 141.309 387.223 141.957C388.388 142.282 389.287 142.659 389.88 143.051C390.498 143.458 390.646 143.785 390.646 143.982Z" fill="white" stroke="#7D704E" stroke-width="1.20466"/>
<path d="M374.783 109.658C374.783 109.604 374.815 109.563 374.853 109.547C375.965 109.107 376.858 108.861 377.823 108.841C378.79 108.821 379.878 109.027 381.37 109.563C381.41 109.577 381.444 109.62 381.444 109.674V143.465C381.444 143.536 381.387 143.593 381.316 143.593H374.911C374.84 143.593 374.783 143.536 374.783 143.465V109.658Z" fill="white" stroke="#7D704E" stroke-width="1.20466"/>
<path d="M374.443 98.8669C373.432 102.075 376.806 103.289 378.027 103.536C379.09 104.288 380.468 103.536 380.816 103.536C381.165 103.536 381.819 101.487 381.47 99.3076C381.191 97.564 379.959 94.5128 379.378 93.2051L378.898 94.5564C379.058 96.4016 379.054 97.564 378.67 99.3076C378.287 101.051 377.693 101.313 377.329 99.7435L377.068 96.7794L376.806 93.8153L374.443 98.8669Z" stroke="#7D704E" stroke-width="1.20466"/>
<path d="M405.887 93.0283V98.6084" stroke="#7D704E" stroke-width="1.20466"/>
<path d="M419.796 181.556C419.796 181.805 419.608 182.183 418.921 182.637C418.257 183.075 417.257 183.493 415.967 183.853C413.396 184.571 409.809 185.023 405.823 185.023C401.837 185.023 398.25 184.571 395.679 183.853C394.389 183.493 393.389 183.075 392.725 182.637C392.038 182.183 391.85 181.805 391.85 181.556C391.85 181.306 392.038 180.928 392.725 180.474C393.389 180.036 394.389 179.618 395.679 179.258C398.25 178.54 401.837 178.089 405.823 178.089C409.809 178.089 413.396 178.54 415.967 179.258C417.257 179.618 418.257 180.036 418.921 180.474C419.608 180.928 419.796 181.306 419.796 181.556Z" fill="white" stroke="#7D704E" stroke-width="1.20466"/>
<path d="M402.175 140.367C402.171 140.248 402.235 140.169 402.299 140.142C403.517 139.622 404.501 139.333 405.562 139.309C406.625 139.284 407.82 139.526 409.452 140.155C409.52 140.181 409.589 140.265 409.582 140.387C409.503 141.866 409.686 143.281 409.858 144.593L409.863 144.627C410.036 145.945 410.193 147.146 410.117 148.305C410.116 148.316 410.113 148.332 410.106 148.352C406.907 157.648 408.018 167.418 409.397 179.544C409.441 179.935 409.486 180.328 409.531 180.724C409.545 180.847 409.449 180.953 409.328 180.953H402.416C402.299 180.953 402.202 180.851 402.212 180.73C402.318 179.438 402.424 178.18 402.528 176.957C402.989 171.509 403.393 166.721 403.445 162.426C403.508 157.157 403.042 152.576 401.474 148.353C401.465 148.33 401.462 148.312 401.462 148.299C401.406 147.122 401.594 145.904 401.8 144.571L401.801 144.567C402.004 143.253 402.221 141.839 402.175 140.367Z" fill="white" stroke="#7D704E" stroke-width="1.20466"/>
<path d="M419.796 137.874C419.796 138.124 419.608 138.501 418.921 138.955C418.257 139.393 417.257 139.811 415.967 140.171C413.396 140.889 409.809 141.341 405.823 141.341C401.837 141.341 398.25 140.889 395.679 140.171C394.389 139.811 393.389 139.393 392.725 138.955C392.038 138.501 391.85 138.124 391.85 137.874C391.85 137.624 392.038 137.247 392.725 136.793C393.389 136.355 394.389 135.937 395.679 135.577C398.25 134.859 401.837 134.407 405.823 134.407C409.809 134.407 413.396 134.859 415.967 135.577C417.257 135.937 418.257 136.355 418.921 136.793C419.608 137.247 419.796 137.624 419.796 137.874Z" fill="white" stroke="#7D704E" stroke-width="1.20466"/>
<path d="M402.143 99.9526C402.143 99.8676 402.194 99.7986 402.261 99.772C403.492 99.2837 404.487 99.01 405.564 98.9876C406.643 98.9652 407.853 99.1947 409.505 99.7883C409.576 99.8135 409.629 99.8845 409.629 99.9707V137.303C409.629 137.416 409.537 137.508 409.424 137.508H402.348C402.235 137.508 402.143 137.416 402.143 137.303V99.9526Z" fill="white" stroke="#7D704E" stroke-width="1.20466"/>
<path d="M401.831 88.0311C400.714 91.5755 404.442 92.9164 405.79 93.1893C406.965 94.0202 409.383 94.6432 410.89 88.518C414.324 74.5557 407.11 88.0319 407.9 85.7248C408.741 83.2688 407.925 83.2206 407.283 81.7759L406.753 83.2688C406.93 85.3075 406.501 85.7248 406.501 88.518C406.501 90.4904 403.909 91.0472 403.508 89.3135L404.73 85.7248L403.508 83.8941L401.831 88.0311Z" stroke="#7D704E" stroke-width="1.20466"/>
<path d="M297.927 84.5978C298.801 85.5521 299.659 86.5107 300.503 87.4736C301.356 88.427 302.129 89.3868 302.821 90.3532C303.524 91.31 304.111 92.2667 304.582 93.2233C305.064 94.1704 305.365 95.1095 305.485 96.0406C305.605 96.9718 305.514 97.8936 305.212 98.8062C304.91 99.7188 304.338 100.609 303.495 101.478L300.568 104.535L300.035 103.953C300.286 103.722 300.497 103.51 300.666 103.316C300.826 103.112 300.931 102.91 300.98 102.711C301.019 102.501 300.994 102.284 300.903 102.059C300.812 101.833 300.632 101.574 300.363 101.28L282.614 81.645C282.287 81.2885 281.995 81.0643 281.738 80.9725C281.491 80.871 281.255 80.8556 281.03 80.9263C280.806 80.9969 280.578 81.1378 280.347 81.3491C280.127 81.5508 279.886 81.7716 279.624 82.0117L279.091 81.4297L282.378 78.4193C283.28 77.5934 284.175 77.0441 285.062 76.7711C285.95 76.4982 286.833 76.4414 287.712 76.6008C288.581 76.7497 289.442 77.0794 290.295 77.5899C291.148 78.1004 292.001 78.7267 292.854 79.4687C293.708 80.1905 294.558 81.0028 295.404 81.9055C296.25 82.7881 297.092 83.6856 297.927 84.5978ZM296.092 85.8154C294.45 84.0223 293.007 82.5096 291.763 81.2775C290.509 80.0348 289.377 79.1145 288.367 78.5166C287.347 77.9081 286.408 77.6304 285.551 77.6832C284.693 77.7361 283.834 78.1562 282.974 78.9436L302.87 100.922C303.761 100.106 304.195 99.1791 304.17 98.1415C304.155 97.0942 303.804 95.9415 303.114 94.6834C302.426 93.4052 301.465 92.0295 300.231 90.5563C299.008 89.0735 297.629 87.4931 296.092 85.8154Z" fill="#7D704E"/>
<path d="M397.43 50.7158L389.775 36.6838C389.535 36.2356 389.196 35.957 388.758 35.848C388.317 35.7249 387.858 35.7061 387.382 35.7916L387.281 35.2248L393.053 34.1881L393.155 34.7549L392.63 34.8492C392.393 34.8919 392.189 35.0441 392.019 35.3057C391.847 35.5533 391.781 35.7891 391.821 36.013C391.826 36.041 391.928 36.2466 392.127 36.6298C392.323 36.999 392.576 37.4809 392.885 38.0755C393.208 38.6676 393.567 39.3399 393.962 40.0923C394.369 40.8283 394.778 41.5782 395.189 42.3422C395.601 43.1061 396.002 43.8503 396.392 44.5748C396.78 45.2853 397.123 45.9098 397.422 46.4484C397.44 44.6973 397.46 43.2418 397.483 42.082C397.503 40.9082 397.521 39.9589 397.535 39.234C397.549 38.5091 397.56 37.9655 397.567 37.6031C397.574 37.2406 397.579 36.9869 397.582 36.8419C397.599 36.6945 397.609 36.6277 397.611 36.6417C397.611 36.6417 397.61 36.6347 397.607 36.6207C397.582 36.4808 397.528 36.3389 397.444 36.195C397.358 36.0371 397.254 35.897 397.13 35.7746C397.007 35.6522 396.868 35.5616 396.713 35.5028C396.57 35.4275 396.414 35.4049 396.246 35.435L395.175 35.6273L395.077 35.0815L400.829 34.0486L400.927 34.5944L400.067 34.7489C399.885 34.7816 399.712 34.8633 399.547 34.9939C399.394 35.108 399.262 35.2546 399.149 35.4337C399.049 35.5963 398.964 35.7703 398.897 35.9558C398.829 36.1414 398.789 36.3219 398.777 36.4974L398.35 63.6821C398.341 64.276 398.287 64.8996 398.187 65.5531C398.091 66.2206 397.914 66.8446 397.657 67.4252C397.403 68.0199 397.054 68.5304 396.61 68.9567C396.169 69.397 395.592 69.6813 394.878 69.8095C394.388 69.8974 393.93 69.8786 393.503 69.7531C393.076 69.6275 392.693 69.4289 392.356 69.1573C392.004 68.8882 391.713 68.5575 391.484 68.1653C391.255 67.7731 391.1 67.3531 391.019 66.9053C390.957 66.5554 390.939 66.1758 390.967 65.7663C390.983 65.3734 391.056 64.9774 391.187 64.5784C391.32 64.1933 391.513 63.8192 391.765 63.456C392.02 63.1068 392.357 62.8081 392.774 62.5597L393.323 62.7211C392.819 63.1296 392.502 63.656 392.372 64.3005C392.228 64.9475 392.211 65.5789 392.322 66.1947C392.382 66.5305 392.486 66.8659 392.633 67.2007C392.782 67.5495 392.974 67.8545 393.209 68.1157C393.429 68.3794 393.696 68.5771 394.009 68.7088C394.321 68.8404 394.68 68.8698 395.086 68.797C395.618 68.7015 396.024 68.4696 396.305 68.1014C396.585 67.7332 396.783 67.3076 396.899 66.8246C397.028 66.3391 397.104 65.8343 397.125 65.3104C397.147 64.7865 397.163 64.3141 397.174 63.8932L397.43 50.7158Z" fill="#7D704E"/>
<path d="M368.154 37.4646L367.343 37.6482L366.234 33.3289C366.132 32.9438 365.983 32.5403 365.785 32.1185C365.584 31.6828 365.331 31.3029 365.024 30.9787C364.728 30.6374 364.386 30.3797 363.996 30.2054C363.621 30.028 363.197 29.9926 362.726 30.0993C362.185 30.2218 361.791 30.4785 361.544 30.8697C361.312 31.2577 361.167 31.7132 361.11 32.2363C361.054 32.7593 361.069 33.3098 361.156 33.8878C361.24 34.452 361.335 34.9698 361.442 35.4413C361.634 36.2872 361.916 37.0179 362.288 37.6333C362.671 38.2318 363.089 38.7568 363.541 39.2085C364.004 39.6431 364.474 40.0106 364.95 40.311C365.437 40.5944 365.88 40.8441 366.278 41.06C366.926 41.4091 367.49 41.777 367.971 42.1637C368.466 42.5474 368.881 42.9637 369.216 43.4127C369.565 43.8586 369.851 44.3479 370.073 44.8806C370.307 45.3964 370.492 45.9593 370.63 46.5695C370.819 47.4016 370.88 48.1894 370.816 48.933C370.761 49.6596 370.583 50.3196 370.28 50.913C369.987 51.4894 369.574 51.9838 369.041 52.3961C368.518 52.7915 367.875 53.0754 367.113 53.2481C366.558 53.3736 366.017 53.4012 365.491 53.3308C364.965 53.2603 364.477 53.1011 364.027 52.853C363.591 52.6018 363.211 52.2725 362.885 51.8651C362.571 51.4406 362.347 50.9372 362.215 50.3548C362.106 49.8694 362.088 49.4068 362.164 48.967C362.25 48.5101 362.412 48.1016 362.652 47.7413C362.905 47.3779 363.215 47.0744 363.583 46.8308C363.961 46.5702 364.393 46.385 364.878 46.2751C365.211 46.1998 365.546 46.1676 365.884 46.1787L365.841 46.9538C365.69 46.9297 365.543 46.9264 365.401 46.944C365.256 46.9476 365.122 46.9636 364.997 46.9918C364.22 47.1676 363.637 47.5547 363.248 48.153C362.872 48.7483 362.771 49.4272 362.943 50.19C363.038 50.606 363.203 50.984 363.441 51.3239C363.675 51.6499 363.955 51.9218 364.281 52.1395C364.621 52.3541 364.991 52.5038 365.389 52.5886C365.784 52.6595 366.19 52.6479 366.606 52.5537C367.174 52.425 367.61 52.1588 367.912 51.7551C368.211 51.3376 368.409 50.8625 368.508 50.3301C368.617 49.7806 368.65 49.2191 368.607 48.6456C368.576 48.055 368.505 47.5171 368.395 47.0317C368.188 46.1164 367.855 45.3535 367.396 44.7431C366.948 44.1156 366.453 43.6371 365.912 43.3077C365.235 42.8924 364.543 42.4733 363.835 42.0504C363.137 41.6105 362.479 41.118 361.86 40.573C361.255 40.0248 360.717 39.3884 360.247 38.6638C359.777 37.9393 359.429 37.0778 359.203 36.0793C358.773 34.1794 358.829 32.6578 359.372 31.5144C359.912 30.3571 360.813 29.6357 362.075 29.3501C362.755 29.1963 363.389 29.2277 363.977 29.4444C364.576 29.6441 365.103 30.006 365.557 30.5301L364.767 27.4287L365.569 27.2034L368.154 37.4646Z" fill="#7D704E"/>
<path d="M329.897 44.247C330.037 43.7833 330.282 43.3668 330.633 42.9974C330.992 42.6093 331.38 42.3247 331.797 42.1436C332.215 41.9625 332.642 41.8934 333.079 41.9362C333.529 41.9734 333.95 42.0854 334.341 42.2722C334.381 41.542 334.575 40.884 334.926 40.298C335.276 39.7121 335.751 39.2889 336.351 39.0286C336.821 38.8248 337.288 38.7228 337.753 38.7226C338.212 38.7094 338.65 38.7905 339.067 38.966C339.479 39.1284 339.848 39.3713 340.174 39.6947C340.5 40.0181 340.765 40.4146 340.969 40.8842C341.297 41.6407 341.642 42.4522 342.002 43.3188C342.37 44.1666 342.731 45.0331 343.084 45.9184C343.444 46.7849 343.802 47.6449 344.157 48.4984C344.512 49.3519 344.84 50.1626 345.142 50.9305C345.457 51.6927 345.744 52.3896 346.003 53.0214C346.275 53.6475 346.501 54.1692 346.682 54.5866C346.818 54.8997 346.975 55.1183 347.153 55.2426C347.344 55.3613 347.541 55.4229 347.745 55.4276C347.961 55.4266 348.183 55.3845 348.41 55.3014C348.638 55.2182 348.866 55.1192 349.095 55.0042L349.392 55.689L343.503 58.2444L343.206 57.5596L344.165 57.1436C344.493 56.9704 344.684 56.7324 344.738 56.4297C344.806 56.1213 344.782 55.7984 344.667 55.461C344.493 55.0249 344.28 54.4975 344.027 53.8788C343.774 53.2601 343.501 52.5957 343.209 51.8857C342.91 51.1627 342.6 50.4294 342.277 49.6859C341.962 48.9237 341.654 48.197 341.355 47.5057C341.062 46.7956 340.785 46.1406 340.525 45.5406C340.278 44.935 340.076 44.4336 339.919 44.0367C339.604 43.2745 339.312 42.6186 339.042 42.069C338.786 41.5138 338.526 41.0763 338.263 40.7563C337.995 40.4233 337.71 40.2136 337.409 40.1272C337.108 40.0408 336.762 40.0825 336.371 40.2523C336.136 40.3542 335.94 40.5091 335.782 40.7171C335.631 40.9063 335.511 41.129 335.421 41.3852C335.325 41.6283 335.26 41.8891 335.225 42.1674C335.186 42.4327 335.169 42.6802 335.176 42.9098C335.346 43.0528 335.503 43.2173 335.645 43.4034C335.788 43.5894 335.905 43.7868 335.995 43.9955L339.109 51.3861C339.226 51.6917 339.374 51.9067 339.552 52.031C339.743 52.1496 339.94 52.2113 340.143 52.216C340.36 52.215 340.585 52.1795 340.818 52.1093C341.058 52.0205 341.296 51.9251 341.531 51.8233L341.828 52.5081L335.939 55.0634L335.625 54.3395C335.878 54.245 336.122 54.1468 336.357 54.0449C336.605 53.9374 336.806 53.8114 336.96 53.667C337.109 53.5095 337.205 53.3205 337.249 53.1C337.293 52.8795 337.241 52.5996 337.094 52.2605L333.904 44.6938C333.813 44.4851 333.681 44.2869 333.506 44.0991C333.326 43.8983 333.125 43.7377 332.902 43.6173C332.692 43.4913 332.464 43.4121 332.217 43.3796C331.978 43.3284 331.741 43.3537 331.506 43.4556C331.167 43.6027 330.885 43.8803 330.659 44.2884C330.446 44.6907 330.413 45.1856 330.559 45.7731L334.687 55.6067C334.804 55.9124 334.951 56.1274 335.129 56.2517C335.314 56.3573 335.515 56.4096 335.732 56.4086C335.962 56.402 336.193 56.3636 336.426 56.2935C336.666 56.2046 336.897 56.1121 337.119 56.0159L337.416 56.7007L331.508 59.2645L331.21 58.5797C331.458 58.4722 331.706 58.3647 331.954 58.2571C332.196 58.1365 332.394 58.004 332.549 57.8596C332.697 57.7021 332.794 57.5131 332.837 57.2926C332.881 57.0721 332.832 56.7988 332.691 56.4727L328.13 45.6412C327.955 45.2368 327.777 44.9342 327.597 44.7334C327.43 44.5269 327.24 44.3924 327.027 44.3299C326.814 44.2674 326.568 44.2731 326.29 44.3472C326.026 44.4156 325.708 44.5225 325.337 44.668L325.04 43.9832L329.121 42.3517L329.897 44.247Z" fill="#7D704E"/>
<path d="M306.871 56.004C307.087 56.3038 307.169 56.6481 307.116 57.0368C307.064 57.4254 306.887 57.7279 306.587 57.9442C306.288 58.1604 305.939 58.2364 305.542 58.1721C305.145 58.1079 304.839 57.9258 304.622 57.626C304.406 57.3261 304.338 56.9893 304.419 56.6153C304.492 56.2299 304.678 55.929 304.978 55.7128C305.278 55.4965 305.616 55.4189 305.993 55.48C306.362 55.5295 306.655 55.7042 306.871 56.004ZM320.1 71.3917L320.537 71.9972L315.589 75.5655L315.128 74.9254L316.754 73.7526L309.128 63.1068C308.978 62.8993 308.811 62.7042 308.627 62.5215C308.434 62.3274 308.229 62.1771 308.012 62.0707C307.787 61.9527 307.552 61.8943 307.307 61.8954C307.074 61.8882 306.832 61.9662 306.582 62.1293L305.838 62.6658L305.414 62.0777L309.252 59.4145L318.484 72.505L320.1 71.3917Z" fill="#7D704E"/>
<path d="M412.828 49.0859C429.059 56.4808 442.828 68.377 452.501 83.3629C462.174 98.3487 467.344 115.795 467.399 133.631M313.654 204.811C300.089 193.23 290.131 178 284.962 160.929C279.793 143.858 279.63 125.663 284.493 108.502" stroke="#7D704E" stroke-width="1.20466"/>
<path d="M307.271 132.363C307.741 135.16 308.305 137.026 311.341 137.958H303.201C305.955 137.305 306.989 135.16 307.271 132.363Z" fill="#7D704E"/>
<path d="M307.393 143.553C307.863 140.756 308.427 138.891 311.463 137.958H303.323C306.077 138.611 307.111 140.756 307.393 143.553Z" fill="#7D704E"/>
<path d="M304.886 148.748C305.153 150.52 305.474 151.701 307.201 152.292H302.571C304.138 151.878 304.726 150.52 304.886 148.748Z" fill="#7D704E"/>
<path d="M304.955 155.835C305.223 154.064 305.544 152.882 307.27 152.292H302.641C304.207 152.705 304.795 154.064 304.955 155.835Z" fill="#7D704E"/>
<path d="M314.796 155.835C315.181 158.027 315.643 159.488 318.13 160.218H311.463C313.719 159.707 314.565 158.027 314.796 155.835Z" fill="#7D704E"/>
<path d="M314.897 164.602C315.282 162.41 315.744 160.949 318.23 160.219H311.563C313.819 160.73 314.666 162.41 314.897 164.602Z" fill="#7D704E"/>
<path d="M429.131 91.3174C430.547 93.7761 431.297 95.5744 429.545 98.2238L435.829 93.0509C433.288 94.2971 431.127 93.2982 429.131 91.3174Z" fill="#7D704E"/>
<path d="M436.149 100.035C434.008 98.1739 432.387 97.0923 429.451 98.3018L435.735 93.1288C434.024 95.383 434.589 97.6961 436.149 100.035Z" fill="#7D704E"/>
<path d="M441.387 102.453C442.306 103.99 442.809 105.106 441.852 106.66L445.426 103.717C443.954 104.394 442.637 103.719 441.387 102.453Z" fill="#7D704E"/>
<path d="M445.837 107.968C444.504 106.77 443.506 106.062 441.797 106.704L445.372 103.761C444.425 105.076 444.835 106.498 445.837 107.968Z" fill="#7D704E"/>
<path d="M438.24 114.221C439.335 116.158 439.907 117.579 438.452 119.724L443.599 115.486C441.533 116.525 439.811 115.766 438.24 114.221Z" fill="#7D704E"/>
<path d="M443.734 121.053C442.044 119.606 440.759 118.771 438.375 119.788L443.522 115.551C442.106 117.379 442.52 119.214 443.734 121.053Z" fill="#7D704E"/>
<path d="M338.095 223.687C337.014 223.398 336.055 222.943 335.217 222.32C334.394 221.702 333.701 220.957 333.139 220.086C332.579 219.2 332.188 218.23 331.967 217.174C331.748 216.104 331.723 214.985 331.893 213.819C332.06 212.668 332.394 211.653 332.896 210.775C333.411 209.901 334.053 209.191 334.821 208.645C335.603 208.103 336.47 207.752 337.421 207.592C338.387 207.436 339.403 207.5 340.469 207.785C341.233 207.989 341.937 208.293 342.582 208.695C343.227 209.097 343.803 209.566 344.309 210.1C344.83 210.637 345.261 211.228 345.602 211.871L344.661 212.471C344.145 211.596 343.519 210.854 342.784 210.244C342.049 209.634 341.221 209.205 340.299 208.959C339.405 208.72 338.552 208.668 337.739 208.804C336.926 208.939 336.194 209.242 335.542 209.712C334.892 210.167 334.348 210.772 333.909 211.529C333.486 212.275 333.203 213.142 333.06 214.131C332.916 215.12 332.936 216.068 333.119 216.976C333.316 217.887 333.651 218.72 334.126 219.476C334.602 220.216 335.197 220.858 335.912 221.402C336.643 221.935 337.469 222.324 338.391 222.571C338.997 222.732 339.577 222.811 340.131 222.805C340.7 222.804 341.235 222.725 341.737 222.568C342.253 222.414 342.727 222.196 343.157 221.912L343.646 223.032C343.197 223.341 342.668 223.583 342.059 223.757C341.466 223.921 340.834 223.998 340.162 223.987C339.49 223.976 338.801 223.876 338.095 223.687Z" fill="#7D704E"/>
<path d="M354.51 226.402L354.182 210.745L360.137 211.215C361 211.283 361.762 211.537 362.425 211.976C363.102 212.417 363.633 212.994 364.019 213.71C364.42 214.426 364.63 215.232 364.649 216.126C364.668 217.036 364.492 217.841 364.121 218.541C363.764 219.242 363.256 219.775 362.596 220.14C361.95 220.506 361.196 220.655 360.334 220.587L355.539 220.209L355.67 226.494L354.51 226.402ZM364.034 227.154L359.944 220.043L361.164 219.826L365.439 227.265L364.034 227.154ZM355.515 219.068L360.488 219.46C361.083 219.507 361.608 219.392 362.062 219.116C362.516 218.839 362.864 218.434 363.105 217.903C363.346 217.356 363.459 216.725 363.444 216.009C363.43 215.338 363.277 214.738 362.983 214.209C362.705 213.665 362.317 213.233 361.821 212.911C361.324 212.589 360.749 212.402 360.094 212.35L355.366 211.977L355.515 219.068Z" fill="#7D704E"/>
<path d="M375.938 226.832L373.248 211.404L382.352 210.485L382.548 211.609L374.602 212.411L376.9 225.591L384.735 224.8L384.931 225.924L375.938 226.832ZM375.226 219.368L375.03 218.244L382.286 217.512L382.482 218.636L375.226 219.368Z" fill="#7D704E"/>
<path d="M393.889 224.296L394.723 207.746L396.032 207.362L406.751 220.532L405.506 220.897L398.265 211.95C398.189 211.864 398.042 211.682 397.824 211.404C397.616 211.108 397.365 210.777 397.071 210.413C396.772 210.035 396.476 209.663 396.182 209.299C395.883 208.92 395.627 208.599 395.414 208.336L395.743 208.263C395.742 208.542 395.733 208.894 395.717 209.318C395.715 209.738 395.704 210.176 395.683 210.633C395.662 211.089 395.646 211.513 395.635 211.905C395.619 212.282 395.606 212.573 395.596 212.778L395.092 223.944L393.889 224.296ZM394.704 219.166L394.745 217.943L402.11 215.787L402.949 216.753L394.704 219.166Z" fill="#7D704E"/>
<path d="M417.962 215.59L411.515 202.58L407.348 204.651L406.841 203.629L416.238 198.96L416.744 199.982L412.557 202.063L419.004 215.073L417.962 215.59Z" fill="#7D704E"/>
<path d="M429.896 208.938L429.296 208.021L431.584 206.413L424.213 195.141L421.924 196.749L421.324 195.832L426.871 191.935L427.471 192.852L425.183 194.46L432.554 205.732L434.842 204.124L435.442 205.042L429.896 208.938Z" fill="#7D704E"/>
<path d="M447.891 194.716C447.106 195.512 446.254 196.099 445.337 196.477C444.421 196.833 443.48 196.993 442.514 196.955C441.558 196.907 440.628 196.652 439.724 196.19C438.811 195.718 437.964 195.04 437.184 194.157C436.404 193.274 435.819 192.33 435.43 191.327C435.04 190.324 434.849 189.31 434.857 188.285C434.866 187.238 435.067 186.241 435.46 185.292C435.853 184.321 436.443 183.438 437.229 182.642C438.015 181.846 438.871 181.264 439.798 180.897C440.715 180.519 441.656 180.36 442.622 180.42C443.578 180.468 444.512 180.729 445.426 181.201C446.35 181.663 447.197 182.33 447.967 183.202C448.747 184.085 449.326 185.034 449.706 186.047C450.095 187.051 450.286 188.065 450.278 189.09C450.27 190.115 450.069 191.112 449.675 192.083C449.272 193.042 448.677 193.92 447.891 194.716ZM447.136 193.861C447.807 193.181 448.306 192.432 448.634 191.612C448.963 190.793 449.129 189.947 449.133 189.074C449.127 188.191 448.957 187.324 448.624 186.475C448.292 185.627 447.794 184.828 447.133 184.078C446.472 183.329 445.754 182.753 444.981 182.35C444.199 181.936 443.396 181.701 442.572 181.645C441.749 181.59 440.946 181.715 440.164 182.02C439.381 182.325 438.655 182.818 437.984 183.497C437.324 184.166 436.83 184.91 436.502 185.73C436.173 186.549 436.012 187.401 436.018 188.285C436.024 189.168 436.199 190.04 436.541 190.9C436.874 191.749 437.371 192.548 438.033 193.297C438.911 194.292 439.89 194.985 440.969 195.374C442.058 195.754 443.141 195.822 444.217 195.579C445.283 195.325 446.256 194.752 447.136 193.861Z" fill="#7D704E"/>
<path d="M459.844 181.139L447.58 171.399L448.16 170.495L464.805 170.725L464.778 170.931C464.462 170.737 464.109 170.504 463.719 170.232C463.33 169.961 462.844 169.604 462.264 169.162C461.692 168.707 460.979 168.141 460.127 167.464L453.487 162.191L454.115 161.211L466.378 170.952L465.799 171.855L449.011 171.683L449.093 171.35C449.518 171.649 449.933 171.951 450.338 172.253C450.739 172.534 451.119 172.808 451.478 173.074C451.844 173.327 452.185 173.579 452.501 173.829C452.804 174.07 453.085 174.293 453.342 174.497L460.472 180.16L459.844 181.139Z" fill="#7D704E"/>
<path d="M474.039 156.596C473.548 157.797 472.9 158.734 472.097 159.406C471.299 160.065 470.375 160.467 469.323 160.613L468.823 159.37C469.882 159.246 470.756 158.909 471.445 158.359C472.14 157.796 472.699 156.996 473.122 155.961C473.405 155.271 473.548 154.588 473.552 153.913C473.543 153.231 473.411 152.616 473.155 152.068C472.886 151.512 472.49 151.09 471.969 150.801C471.642 150.62 471.327 150.53 471.023 150.531C470.711 150.511 470.407 150.57 470.109 150.711C469.799 150.843 469.485 151.042 469.169 151.307C468.852 151.572 468.536 151.896 468.219 152.28C467.889 152.656 467.546 153.084 467.19 153.563C466.738 154.16 466.293 154.659 465.857 155.06C465.426 155.448 464.985 155.746 464.532 155.952C464.072 156.137 463.607 156.218 463.137 156.195C462.659 156.15 462.159 155.983 461.637 155.694C460.932 155.304 460.394 154.743 460.021 154.012C459.635 153.273 459.435 152.451 459.421 151.546C459.394 150.633 459.564 149.729 459.932 148.831C460.389 147.713 460.956 146.876 461.632 146.319C462.307 145.762 463.081 145.437 463.951 145.343L464.342 146.5C463.561 146.609 462.884 146.894 462.312 147.356C461.731 147.796 461.255 148.472 460.882 149.383C460.6 150.074 460.46 150.767 460.463 151.463C460.459 152.138 460.592 152.753 460.861 153.308C461.135 153.85 461.54 154.269 462.075 154.565C462.466 154.782 462.843 154.898 463.205 154.912C463.567 154.926 463.922 154.843 464.268 154.662C464.601 154.474 464.939 154.213 465.284 153.879C465.634 153.532 465.993 153.104 466.361 152.596C466.866 151.911 467.362 151.322 467.851 150.831C468.333 150.319 468.814 149.925 469.295 149.65C469.776 149.374 470.26 149.228 470.747 149.21C471.221 149.185 471.713 149.313 472.222 149.595C472.979 150.014 473.559 150.59 473.964 151.322C474.355 152.047 474.562 152.873 474.583 153.799C474.61 154.711 474.429 155.643 474.039 156.596Z" fill="#7D704E"/>
<path d="M31.5382 145.582C31.5382 148.898 31.5018 152.195 31.4289 155.474C31.3925 158.753 31.1921 161.904 30.8278 164.928C30.4999 167.952 29.9534 170.775 29.1884 173.398C28.4597 176.022 27.4032 178.317 26.0187 180.284C24.6343 182.252 22.8674 183.836 20.7179 185.039C18.5683 186.241 15.9452 186.933 12.8485 187.115L2.02809 187.826V185.804C2.90246 185.804 3.66754 185.767 4.32332 185.694C4.9791 185.585 5.52559 185.385 5.96277 185.093C6.39996 184.765 6.72785 184.31 6.94645 183.727C7.16504 183.144 7.27434 182.343 7.27434 181.323L7.71152 113.504C7.71152 112.265 7.54758 111.336 7.21969 110.717C6.92823 110.097 6.50926 109.66 5.96277 109.405C5.41629 109.15 4.74229 109.023 3.94078 109.023C3.1757 109.023 2.33776 109.023 1.42695 109.023V107.001H12.8485C15.9817 107.001 18.623 107.511 20.7725 108.531C22.922 109.551 24.689 110.972 26.0734 112.793C27.4578 114.579 28.5144 116.692 29.243 119.133C29.9717 121.574 30.4999 124.233 30.8278 127.111C31.1921 129.953 31.3925 132.959 31.4289 136.128C31.5018 139.261 31.5382 142.413 31.5382 145.582ZM25.9641 144.708C25.9641 138.478 25.8548 133.123 25.6362 128.641C25.4176 124.124 24.8711 120.426 23.9968 117.548C23.1224 114.633 21.829 112.484 20.1167 111.099C18.4044 109.715 16.0545 109.023 13.0671 109.023L12.6299 184.984C15.7266 184.984 18.1494 183.982 19.8981 181.978C21.6833 179.975 23.0131 177.187 23.8875 173.617C24.7983 170.01 25.363 165.748 25.5816 160.829C25.8366 155.911 25.9641 150.537 25.9641 144.708ZM69.5801 119.078C69.5801 120.025 69.234 120.863 68.5418 121.592C67.8496 122.32 67.0299 122.685 66.0826 122.685C65.1354 122.685 64.2974 122.32 63.5688 121.592C62.8401 120.863 62.4758 120.025 62.4758 119.078C62.4758 118.131 62.8401 117.329 63.5688 116.673C64.2974 115.981 65.1354 115.635 66.0826 115.635C67.0299 115.635 67.8496 115.981 68.5418 116.673C69.234 117.329 69.5801 118.131 69.5801 119.078ZM74.0066 170.885V172.797H58.3772V170.775H63.5141L63.6234 137.221C63.6234 136.565 63.5688 135.91 63.4595 135.254C63.3502 134.562 63.1498 133.942 62.8584 133.396C62.5669 132.813 62.1661 132.339 61.6561 131.975C61.1825 131.611 60.5631 131.41 59.798 131.374H57.4482V129.516L69.4162 129.734L68.979 170.775L74.0066 170.885ZM108.715 140.227C109.516 139.28 110.518 138.551 111.721 138.041C112.959 137.494 114.162 137.221 115.327 137.221C116.493 137.221 117.568 137.494 118.552 138.041C119.572 138.587 120.446 139.28 121.175 140.118C122.013 138.442 123.142 137.094 124.563 136.074C125.984 135.054 127.532 134.543 129.208 134.543C130.52 134.543 131.722 134.78 132.815 135.254C133.908 135.691 134.855 136.329 135.657 137.167C136.458 137.968 137.077 138.915 137.515 140.008C137.952 141.101 138.17 142.304 138.17 143.615C138.17 145.728 138.152 147.987 138.116 150.392C138.116 152.76 138.079 155.164 138.007 157.605C137.97 160.01 137.934 162.396 137.897 164.764C137.861 167.132 137.806 169.373 137.733 171.486C137.697 173.599 137.66 175.53 137.624 177.279C137.624 179.027 137.624 180.485 137.624 181.65C137.624 182.525 137.77 183.199 138.061 183.672C138.389 184.146 138.79 184.492 139.263 184.711C139.773 184.929 140.338 185.057 140.958 185.093C141.577 185.13 142.214 185.13 142.87 185.093V187.006H126.421V185.093H129.099C130.046 185.02 130.738 184.656 131.175 184C131.649 183.345 131.922 182.561 131.995 181.65C132.032 180.448 132.068 178.991 132.104 177.279C132.141 175.566 132.177 173.726 132.214 171.759C132.25 169.755 132.268 167.715 132.268 165.638C132.305 163.525 132.323 161.503 132.323 159.572C132.36 157.605 132.378 155.783 132.378 154.108C132.414 152.432 132.451 151.047 132.487 149.954C132.523 147.841 132.505 146.001 132.432 144.435C132.396 142.868 132.232 141.575 131.941 140.555C131.649 139.498 131.194 138.715 130.574 138.205C129.955 137.695 129.099 137.44 128.006 137.44C127.35 137.44 126.731 137.604 126.148 137.932C125.601 138.223 125.091 138.624 124.618 139.134C124.144 139.608 123.725 140.154 123.361 140.773C122.996 141.356 122.705 141.921 122.486 142.467C122.741 142.978 122.942 143.524 123.087 144.107C123.233 144.69 123.306 145.273 123.306 145.856L123.087 166.403C123.051 167.241 123.179 167.897 123.47 168.371C123.798 168.844 124.199 169.191 124.672 169.409C125.182 169.628 125.747 169.773 126.366 169.846C127.022 169.883 127.678 169.901 128.334 169.901V171.814H111.885V169.792C112.577 169.828 113.251 169.846 113.907 169.846C114.599 169.846 115.2 169.755 115.71 169.573C116.22 169.355 116.639 169.008 116.967 168.535C117.295 168.061 117.459 167.351 117.459 166.403L117.677 145.364C117.677 144.781 117.568 144.18 117.349 143.56C117.131 142.905 116.821 142.322 116.42 141.812C116.056 141.302 115.601 140.883 115.054 140.555C114.544 140.19 113.961 140.008 113.305 140.008C112.358 140.008 111.411 140.373 110.464 141.101C109.553 141.83 108.97 142.959 108.715 144.489L108.387 171.814C108.351 172.652 108.478 173.307 108.77 173.781C109.097 174.218 109.516 174.546 110.027 174.765C110.573 174.983 111.156 175.129 111.775 175.202C112.431 175.238 113.069 175.257 113.688 175.257V177.169H97.1841V175.257C97.8763 175.257 98.5686 175.257 99.2608 175.257C99.953 175.22 100.554 175.111 101.064 174.929C101.574 174.71 101.993 174.364 102.321 173.89C102.649 173.417 102.813 172.724 102.813 171.814L103.141 141.702C103.141 140.573 103.032 139.68 102.813 139.025C102.631 138.369 102.321 137.859 101.884 137.494C101.447 137.13 100.864 136.893 100.135 136.784C99.4429 136.675 98.5868 136.602 97.5667 136.565V134.653L108.824 134.981L108.715 140.227ZM188.071 146.73H185.94L185.612 135.309C185.575 134.288 185.43 133.195 185.175 132.03C184.92 130.827 184.501 129.734 183.918 128.751C183.371 127.731 182.661 126.893 181.786 126.237C180.949 125.581 179.91 125.253 178.672 125.253C177.251 125.253 176.121 125.672 175.283 126.51C174.482 127.348 173.862 128.405 173.425 129.68C172.988 130.955 172.715 132.339 172.606 133.833C172.496 135.29 172.442 136.638 172.442 137.877C172.442 140.099 172.733 142.085 173.316 143.834C173.935 145.546 174.682 147.094 175.557 148.479C176.467 149.827 177.433 151.011 178.453 152.031C179.509 153.015 180.475 153.889 181.349 154.654C182.77 155.893 183.972 157.131 184.956 158.37C185.976 159.609 186.778 160.884 187.361 162.196C187.98 163.507 188.417 164.892 188.672 166.349C188.964 167.77 189.109 169.282 189.109 170.885C189.109 173.071 188.818 175.074 188.235 176.896C187.688 178.681 186.869 180.23 185.776 181.541C184.719 182.816 183.408 183.818 181.841 184.547C180.311 185.239 178.544 185.585 176.54 185.585C175.083 185.585 173.717 185.348 172.442 184.875C171.166 184.401 170.037 183.727 169.053 182.853C168.106 181.978 167.341 180.94 166.758 179.738C166.212 178.499 165.938 177.115 165.938 175.584C165.938 174.309 166.157 173.143 166.594 172.087C167.068 170.994 167.705 170.065 168.507 169.3C169.345 168.535 170.292 167.952 171.349 167.551C172.442 167.114 173.626 166.895 174.901 166.895C175.775 166.895 176.631 167.005 177.469 167.223L176.923 169.136C176.558 168.99 176.194 168.899 175.83 168.863C175.465 168.79 175.119 168.753 174.791 168.753C172.751 168.753 171.075 169.391 169.764 170.666C168.489 171.941 167.851 173.581 167.851 175.584C167.851 176.677 168.051 177.716 168.452 178.699C168.853 179.647 169.399 180.485 170.092 181.213C170.82 181.942 171.658 182.525 172.606 182.962C173.553 183.363 174.573 183.563 175.666 183.563C177.16 183.563 178.398 183.144 179.382 182.306C180.366 181.432 181.131 180.357 181.677 179.082C182.26 177.77 182.661 176.386 182.879 174.929C183.134 173.435 183.262 172.051 183.262 170.775C183.262 168.371 182.861 166.276 182.06 164.491C181.295 162.669 180.329 161.194 179.163 160.064C177.706 158.643 176.212 157.204 174.682 155.747C173.188 154.253 171.822 152.65 170.584 150.938C169.381 149.226 168.398 147.331 167.633 145.255C166.867 143.178 166.485 140.828 166.485 138.205C166.485 133.214 167.487 129.443 169.491 126.893C171.494 124.306 174.154 123.013 177.469 123.013C179.254 123.013 180.821 123.45 182.169 124.324C183.553 125.162 184.665 126.364 185.503 127.931L185.284 119.734L187.415 119.624L188.071 146.73ZM227.37 163.07L214.418 124.215C214.017 122.976 213.289 122.12 212.232 121.646C211.176 121.136 210.028 120.881 208.789 120.881V119.406H223.818V120.881H222.451C221.832 120.881 221.249 121.173 220.703 121.756C220.156 122.302 219.883 122.867 219.883 123.45C219.883 123.523 220.047 124.087 220.375 125.144C220.703 126.164 221.122 127.494 221.632 129.133C222.178 130.773 222.779 132.631 223.435 134.707C224.127 136.748 224.82 138.824 225.512 140.937C226.204 143.05 226.878 145.109 227.534 147.113C228.19 149.08 228.772 150.81 229.283 152.304C230.12 147.896 230.831 144.234 231.414 141.32C231.997 138.369 232.47 135.983 232.835 134.161C233.199 132.339 233.472 130.973 233.654 130.062C233.837 129.151 233.964 128.514 234.037 128.15C234.146 127.785 234.201 127.621 234.201 127.658C234.201 127.658 234.201 127.64 234.201 127.603C234.201 127.239 234.128 126.856 233.982 126.455C233.837 126.018 233.636 125.618 233.381 125.253C233.126 124.889 232.816 124.597 232.452 124.379C232.124 124.124 231.742 123.996 231.304 123.996H228.517V122.575H243.491V123.996H241.251C240.777 123.996 240.303 124.124 239.83 124.379C239.392 124.597 238.992 124.907 238.627 125.308C238.299 125.672 238.008 126.073 237.753 126.51C237.498 126.947 237.316 127.385 237.207 127.822L223.818 196.187C223.526 197.681 223.107 199.229 222.561 200.832C222.014 202.471 221.286 203.965 220.375 205.313C219.464 206.698 218.353 207.827 217.041 208.701C215.73 209.612 214.145 210.068 212.287 210.068C211.012 210.068 209.864 209.813 208.844 209.303C207.824 208.792 206.95 208.118 206.221 207.281C205.456 206.443 204.873 205.477 204.472 204.384C204.071 203.291 203.871 202.162 203.871 200.996C203.871 200.085 203.998 199.12 204.254 198.1C204.472 197.116 204.836 196.15 205.346 195.203C205.857 194.292 206.512 193.436 207.314 192.635C208.115 191.87 209.099 191.269 210.265 190.831L211.576 191.487C210.119 192.289 209.081 193.473 208.461 195.039C207.806 196.606 207.478 198.191 207.478 199.794C207.478 200.668 207.587 201.561 207.806 202.471C208.024 203.419 208.37 204.275 208.844 205.04C209.281 205.805 209.864 206.424 210.593 206.898C211.321 207.372 212.214 207.608 213.271 207.608C214.655 207.608 215.784 207.208 216.659 206.406C217.533 205.605 218.225 204.621 218.735 203.455C219.282 202.289 219.701 201.051 219.992 199.739C220.284 198.427 220.539 197.243 220.757 196.187L227.37 163.07Z" fill="#7D704E"/>
</svg>
