<svg width="243" height="104" viewBox="0 0 243 104" fill="none" xmlns="http://www.w3.org/2000/svg">
<path d="M30.2526 38.6205C30.2526 41.9359 30.2162 45.233 30.1433 48.5119C30.1069 51.7908 29.9065 54.9422 29.5422 57.9661C29.2143 60.99 28.6678 63.8135 27.9027 66.4366C27.1741 69.0597 26.1175 71.3549 24.7331 73.3223C23.3487 75.2896 21.5817 76.8744 19.4322 78.0767C17.2827 79.279 14.6596 79.9712 11.5628 80.1533L0.742441 80.8638V78.8418C1.61682 78.8418 2.38189 78.8053 3.03768 78.7325C3.69346 78.6232 4.23994 78.4228 4.67713 78.1313C5.11432 77.8035 5.44221 77.3481 5.6608 76.7651C5.87939 76.1822 5.98869 75.3807 5.98869 74.3606L6.42588 6.5419C6.42588 5.3032 6.26193 4.37417 5.93404 3.75483C5.64258 3.13548 5.22361 2.69829 4.67713 2.44326C4.13064 2.18824 3.45665 2.06072 2.65514 2.06072C1.89006 2.06072 1.05212 2.06072 0.141309 2.06072V0.0387318H11.5628C14.696 0.0387318 17.3373 0.548784 19.4869 1.56889C21.6364 2.58899 23.4033 4.00985 24.7878 5.83147C26.1722 7.61665 27.2287 9.72972 27.9574 12.1707C28.686 14.6116 29.2143 17.2712 29.5422 20.1494C29.9065 22.9911 30.1069 25.9967 30.1433 29.1663C30.2162 32.2995 30.2526 35.4509 30.2526 38.6205ZM24.6785 37.7462C24.6785 31.5162 24.5692 26.1607 24.3506 21.6795C24.132 17.1619 23.5855 13.464 22.7111 10.5859C21.8367 7.6713 20.5434 5.52179 18.8311 4.13736C17.1188 2.75294 14.7689 2.06072 11.7814 2.06072L11.3442 78.0221C14.441 78.0221 16.8637 77.0202 18.6125 75.0164C20.3977 73.0126 21.7274 70.2255 22.6018 66.6552C23.5126 63.0484 24.0773 58.7858 24.2959 53.8674C24.5509 48.9491 24.6785 43.5753 24.6785 37.7462ZM68.2945 12.116C68.2945 13.0633 67.9484 13.9012 67.2561 14.6299C66.5639 15.3585 65.7442 15.7228 64.797 15.7228C63.8497 15.7228 63.0118 15.3585 62.2831 14.6299C61.5545 13.9012 61.1902 13.0633 61.1902 12.116C61.1902 11.1688 61.5545 10.3673 62.2831 9.71151C63.0118 9.01929 63.8497 8.67318 64.797 8.67318C65.7442 8.67318 66.5639 9.01929 67.2561 9.71151C67.9484 10.3673 68.2945 11.1688 68.2945 12.116ZM72.721 63.9228V65.8354H57.0915V63.8135H62.2285L62.3378 30.2593C62.3378 29.6035 62.2831 28.9478 62.1738 28.292C62.0645 27.5998 61.8642 26.9804 61.5727 26.4339C61.2813 25.851 60.8805 25.3774 60.3704 25.0131C59.8968 24.6487 59.2775 24.4484 58.5124 24.4119H56.1625V22.5539L68.1305 22.7725L67.6933 63.8135L72.721 63.9228ZM107.429 33.265C108.231 32.3177 109.233 31.5891 110.435 31.079C111.674 30.5326 112.876 30.2593 114.042 30.2593C115.208 30.2593 116.282 30.5326 117.266 31.079C118.286 31.6255 119.16 32.3177 119.889 33.1557C120.727 31.4798 121.856 30.1318 123.277 29.1117C124.698 28.0916 126.247 27.5815 127.922 27.5815C129.234 27.5815 130.436 27.8184 131.529 28.292C132.622 28.7292 133.569 29.3667 134.371 30.2047C135.172 31.0062 135.792 31.9534 136.229 33.0464C136.666 34.1394 136.885 35.3416 136.885 36.6532C136.885 38.7663 136.867 41.0251 136.83 43.4296C136.83 45.7977 136.794 48.2022 136.721 50.6432C136.684 53.0477 136.648 55.434 136.612 57.8021C136.575 60.1702 136.52 62.4108 136.448 64.5239C136.411 66.637 136.375 68.5679 136.338 70.3166C136.338 72.0654 136.338 73.5227 136.338 74.6885C136.338 75.5629 136.484 76.2369 136.776 76.7105C137.103 77.1841 137.504 77.5302 137.978 77.7488C138.488 77.9674 139.053 78.0949 139.672 78.1313C140.291 78.1678 140.929 78.1678 141.585 78.1313V80.044H125.135V78.1313H127.813C128.76 78.0585 129.453 77.6942 129.89 77.0384C130.363 76.3826 130.637 75.5993 130.71 74.6885C130.746 73.4862 130.782 72.0289 130.819 70.3166C130.855 68.6043 130.892 66.7645 130.928 64.7971C130.965 62.7934 130.983 60.7531 130.983 58.6765C131.019 56.5634 131.037 54.5414 131.037 52.6105C131.074 50.6432 131.092 48.8216 131.092 47.1457C131.129 45.4698 131.165 44.0854 131.201 42.9924C131.238 40.8793 131.22 39.0395 131.147 37.4729C131.11 35.9063 130.946 34.613 130.655 33.5929C130.363 32.5363 129.908 31.753 129.289 31.243C128.669 30.7329 127.813 30.4779 126.72 30.4779C126.064 30.4779 125.445 30.6419 124.862 30.9697C124.316 31.2612 123.806 31.662 123.332 32.172C122.858 32.6456 122.439 33.1921 122.075 33.8115C121.711 34.3944 121.419 34.9591 121.201 35.5056C121.456 36.0156 121.656 36.5621 121.802 37.145C121.948 37.7279 122.02 38.3109 122.02 38.8938L121.802 59.4416C121.765 60.2795 121.893 60.9353 122.184 61.4089C122.512 61.8825 122.913 62.2287 123.387 62.4472C123.897 62.6658 124.461 62.8116 125.081 62.8844C125.737 62.9209 126.392 62.9391 127.048 62.9391V64.8518H110.599V62.8298C111.291 62.8662 111.965 62.8844 112.621 62.8844C113.313 62.8844 113.914 62.7934 114.424 62.6112C114.934 62.3926 115.353 62.0465 115.681 61.5729C116.009 61.0993 116.173 60.3888 116.173 59.4416L116.392 38.4019C116.392 37.819 116.282 37.2179 116.064 36.5985C115.845 35.9428 115.535 35.3598 115.135 34.8498C114.77 34.3397 114.315 33.9208 113.769 33.5929C113.258 33.2285 112.676 33.0464 112.02 33.0464C111.073 33.0464 110.125 33.4107 109.178 34.1394C108.267 34.868 107.684 35.9974 107.429 37.5276L107.101 64.8518C107.065 65.6897 107.192 66.3455 107.484 66.8191C107.812 67.2563 108.231 67.5842 108.741 67.8028C109.287 68.0214 109.87 68.1671 110.49 68.24C111.145 68.2764 111.783 68.2946 112.402 68.2946V70.2073H95.8985V68.2946C96.5907 68.2946 97.2829 68.2946 97.9751 68.2946C98.6673 68.2582 99.2685 68.1489 99.7785 67.9667C100.289 67.7481 100.708 67.402 101.035 66.9284C101.363 66.4548 101.527 65.7626 101.527 64.8518L101.855 34.7405C101.855 33.6111 101.746 32.7185 101.527 32.0627C101.345 31.4069 101.035 30.8969 100.598 30.5326C100.161 30.1682 99.5781 29.9314 98.8495 29.8221C98.1573 29.7128 97.3011 29.64 96.281 29.6035V27.6908L107.539 28.0187L107.429 33.265ZM186.785 39.7681H184.654L184.326 28.3466C184.29 27.3265 184.144 26.2335 183.889 25.0677C183.634 23.8655 183.215 22.7725 182.632 21.7888C182.086 20.7687 181.375 19.9308 180.501 19.275C179.663 18.6192 178.625 18.2913 177.386 18.2913C175.965 18.2913 174.836 18.7103 173.998 19.5482C173.196 20.3862 172.577 21.4427 172.14 22.7178C171.702 23.993 171.429 25.3774 171.32 26.8711C171.211 28.3284 171.156 29.6764 171.156 30.9151C171.156 33.1375 171.447 35.123 172.03 36.8718C172.65 38.5841 173.397 40.1325 174.271 41.5169C175.182 42.8649 176.147 44.0489 177.167 45.069C178.224 46.0527 179.189 46.9271 180.064 47.6922C181.484 48.9309 182.687 50.1696 183.67 51.4083C184.691 52.647 185.492 53.9221 186.075 55.2337C186.694 56.5452 187.131 57.9296 187.387 59.3869C187.678 60.8078 187.824 62.3197 187.824 63.9228C187.824 66.1087 187.532 68.1125 186.949 69.9341C186.403 71.7193 185.583 73.2676 184.49 74.5792C183.434 75.8543 182.122 76.8562 180.555 77.5849C179.025 78.2771 177.258 78.6232 175.255 78.6232C173.797 78.6232 172.431 78.3864 171.156 77.9128C169.881 77.4391 168.751 76.7651 167.768 75.8908C166.82 75.0164 166.055 73.9781 165.473 72.7758C164.926 71.5371 164.653 70.1527 164.653 68.6225C164.653 67.3474 164.871 66.1816 165.309 65.125C165.782 64.0321 166.42 63.103 167.221 62.3379C168.059 61.5729 169.006 60.99 170.063 60.5892C171.156 60.152 172.34 59.9334 173.615 59.9334C174.489 59.9334 175.346 60.0427 176.184 60.2613L175.637 62.174C175.273 62.0283 174.908 61.9372 174.544 61.9008C174.18 61.8279 173.834 61.7915 173.506 61.7915C171.466 61.7915 169.79 62.429 168.478 63.7042C167.203 64.9793 166.565 66.6187 166.565 68.6225C166.565 69.7155 166.766 70.7538 167.167 71.7375C167.567 72.6847 168.114 73.5227 168.806 74.2513C169.535 74.98 170.373 75.5629 171.32 76.0001C172.267 76.4008 173.287 76.6012 174.38 76.6012C175.874 76.6012 177.113 76.1822 178.096 75.3443C179.08 74.4699 179.845 73.3951 180.392 72.12C180.974 70.8085 181.375 69.424 181.594 67.9667C181.849 66.473 181.976 65.0886 181.976 63.8135C181.976 61.4089 181.576 59.3141 180.774 57.5289C180.009 55.7073 179.044 54.2318 177.878 53.1024C176.42 51.6815 174.927 50.2424 173.397 48.7851C171.903 47.2914 170.537 45.6884 169.298 43.9761C168.096 42.2638 167.112 40.3693 166.347 38.2926C165.582 36.216 165.199 33.8661 165.199 31.243C165.199 26.2518 166.201 22.481 168.205 19.9308C170.209 17.3441 172.868 16.0507 176.184 16.0507C177.969 16.0507 179.535 16.4879 180.883 17.3623C182.268 18.2002 183.379 19.4025 184.217 20.9691L183.998 12.7718L186.13 12.6625L186.785 39.7681ZM226.084 56.108L213.132 17.253C212.732 16.0143 212.003 15.1581 210.947 14.6845C209.89 14.1745 208.742 13.9194 207.504 13.9194V12.4439H222.532V13.9194H221.166C220.546 13.9194 219.964 14.2109 219.417 14.7938C218.871 15.3403 218.597 15.905 218.597 16.4879C218.597 16.5608 218.761 17.1255 219.089 18.182C219.417 19.2021 219.836 20.5319 220.346 22.1713C220.893 23.8108 221.494 25.6688 222.149 27.7455C222.842 29.7857 223.534 31.8623 224.226 33.9754C224.918 36.0885 225.592 38.1469 226.248 40.1507C226.904 42.118 227.487 43.8486 227.997 45.3423C228.835 40.934 229.545 37.2725 230.128 34.3579C230.711 31.4069 231.185 29.0206 231.549 27.199C231.913 25.3774 232.187 24.0112 232.369 23.1004C232.551 22.1896 232.678 21.552 232.751 21.1877C232.861 20.8234 232.915 20.6594 232.915 20.6958C232.915 20.6958 232.915 20.6776 232.915 20.6412C232.915 20.2769 232.842 19.8943 232.697 19.4936C232.551 19.0564 232.351 18.6556 232.095 18.2913C231.84 17.927 231.531 17.6355 231.166 17.4169C230.839 17.1619 230.456 17.0344 230.019 17.0344H227.232V15.6135H242.205V17.0344H239.965C239.491 17.0344 239.018 17.1619 238.544 17.4169C238.107 17.6355 237.706 17.9452 237.342 18.346C237.014 18.7103 236.722 19.111 236.467 19.5482C236.212 19.9854 236.03 20.4226 235.921 20.8598L222.532 89.225C222.241 90.7187 221.822 92.2671 221.275 93.8701C220.729 95.5096 220 97.0033 219.089 98.3513C218.178 99.7357 217.067 100.865 215.756 101.739C214.444 102.65 212.859 103.106 211.001 103.106C209.726 103.106 208.578 102.851 207.558 102.341C206.538 101.831 205.664 101.157 204.935 100.319C204.17 99.4807 203.587 98.5152 203.186 97.4222C202.786 96.3293 202.585 95.1999 202.585 94.034C202.585 93.1232 202.713 92.1578 202.968 91.1377C203.186 90.154 203.551 89.1885 204.061 88.2413C204.571 87.3305 205.227 86.4743 206.028 85.6728C206.83 84.9078 207.813 84.3066 208.979 83.8694L210.291 84.5252C208.833 85.3267 207.795 86.5108 207.176 88.0774C206.52 89.644 206.192 91.2288 206.192 92.8318C206.192 93.7062 206.301 94.5987 206.52 95.5096C206.739 96.4568 207.085 97.3129 207.558 98.078C207.996 98.8431 208.578 99.4625 209.307 99.9361C210.036 100.41 210.928 100.647 211.985 100.647C213.369 100.647 214.499 100.246 215.373 99.4442C216.247 98.6427 216.94 97.6591 217.45 96.4932C217.996 95.3274 218.415 94.0887 218.707 92.7771C218.998 91.4656 219.253 90.2815 219.472 89.225L226.084 56.108Z" fill="#7D704E"/>
</svg>
