<svg width="272" height="237" viewBox="0 0 272 237" fill="none" xmlns="http://www.w3.org/2000/svg">
<rect x="-0.665057" y="0.240206" width="32.074" height="145.054" transform="matrix(-0.905263 -0.424851 -0.424851 0.905263 182.147 55.3366)" stroke="#7D704E"/>
<path d="M269.296 99.3171L182.266 58.4728L122.747 185.294L205.272 235.738L269.296 99.3171Z" stroke="#7D704E"/>
<path d="M64.9648 3.50563L151.995 44.35L92.33 171.483L0.783902 140.261L64.9648 3.50563Z" stroke="#7D704E"/>
<path d="M263.638 99.9858L166.221 54.2669L110.131 173.783L202.893 229.418L263.638 99.9858Z" fill="white" stroke="#7D704E"/>
<path d="M253.905 95.4184L166.22 54.2668L110.128 173.787L193.164 224.845L253.905 95.4184Z" fill="white" stroke="#7D704E"/>
<path d="M68.8183 8.55446L166.235 54.2734L110.145 173.789L8.07402 137.987L68.8183 8.55446Z" fill="white" stroke="#7D704E"/>
<path d="M78.5498 13.1218L166.235 54.2735L110.142 173.794L17.8081 142.549L78.5498 13.1218Z" fill="white" stroke="#7D704E"/>
<path d="M229.157 109.969L181.488 86.6419" stroke="#7D704E"/>
<path d="M224.13 120.31L176.461 96.9834" stroke="#7D704E"/>
<path d="M217.97 130.202L170.301 106.875" stroke="#7D704E"/>
</svg>
