<svg width="972" height="356" viewBox="0 0 972 356" fill="none" xmlns="http://www.w3.org/2000/svg">
<path d="M486.003 272.365L549.448 270.823L540.63 302.951L540.579 303.139L540.668 303.312L556.773 334.649L538.412 328.095L538.254 328.039L538.094 328.089L516.026 335.023L496.36 329.587L496.225 329.549L496.09 329.588L477.727 334.803L488.54 303.246L488.574 303.146L488.565 303.042L486.003 272.365Z" stroke="#7D704E"/>
<path d="M452.623 166.4L452.623 166.4L452.623 166.393C451.619 154.328 456.118 144.927 463.932 138.271C471.762 131.601 482.946 127.668 495.307 126.64C507.668 125.612 518.765 127.691 527.009 133.015C535.235 138.327 540.668 146.9 541.673 158.986L541.678 159.036L541.691 159.084C555.748 207.632 555.908 242.425 550.434 266.178C544.978 289.852 533.935 302.528 525.495 306.99C519.968 307.239 513.698 303.897 508.032 299.487C502.354 295.066 497.389 289.656 494.559 286.028L494.479 285.927L494.361 285.876C491.547 284.673 489.083 281.508 486.968 277C484.863 272.515 483.15 266.802 481.78 260.657C479.041 248.372 477.691 234.446 477.289 225.375L477.279 225.15L477.104 225.009C468.474 218.013 462.582 206.814 458.73 195.599C454.881 184.393 453.091 173.237 452.623 166.4Z" fill="white" stroke="#7D704E"/>
<path d="M484.914 156.803C483.997 154.837 480.747 151.535 475.085 154.051" stroke="#7D704E"/>
<path d="M505.95 156.803C506.867 154.837 510.117 151.535 515.779 154.051" stroke="#7D704E"/>
<path d="M494.487 143.292L494.644 143.34L494.799 143.285C505.181 139.609 514.648 140.133 521.659 143.497C528.664 146.857 533.242 153.057 533.888 160.825C534.534 168.593 530.972 176.007 524.618 181.715C518.264 187.422 509.139 191.399 498.745 192.264C488.351 193.128 478.694 190.713 471.485 186.134C464.276 181.555 459.537 174.831 458.891 167.062C457.601 151.545 473.543 136.942 494.487 143.292Z" stroke="#7D704E"/>
<path d="M521.427 210.34C522.102 200.963 529.92 193.86 539.344 192.999C550.763 191.956 560.865 200.366 561.908 211.785L570.125 301.725C550.273 284.26 537.544 269.916 530.047 255.793C522.442 241.467 520.204 227.336 521.427 210.34Z" fill="white" stroke="#7D704E"/>
<path d="M492.987 181.424C494.342 184.618 498.87 184.618 500.225 181.424L502.33 176.465C503.43 173.872 501.527 170.998 498.71 170.998H494.502C491.685 170.998 489.783 173.872 490.883 176.465L492.987 181.424Z" stroke="#7D704E"/>
<ellipse cx="477.827" cy="161.886" rx="5.17975" ry="4.67015" fill="#7D704E"/>
<ellipse cx="514.197" cy="161.886" rx="5.17975" ry="4.67015" fill="#7D704E"/>
<rect x="-0.665055" y="0.240205" width="28.2645" height="128.231" transform="matrix(-0.905262 -0.424855 -0.424848 0.905264 160.948 194.874)" stroke="#7D704E"/>
<path d="M238.117 233.847L161.216 197.756L108.599 309.871L181.52 354.444L238.117 233.847Z" stroke="#7D704E"/>
<path d="M57.4258 149.12L134.327 185.211L81.5812 297.602L0.689436 270.013L57.4258 149.12Z" stroke="#7D704E"/>
<path d="M233.11 234.438L147.019 194.034L97.4358 299.685L179.415 348.853L233.11 234.438Z" fill="white" stroke="#7D704E"/>
<path d="M224.499 230.398L147.018 194.035L97.4327 299.69L170.805 344.807L224.499 230.398Z" fill="white" stroke="#7D704E"/>
<path d="M60.8349 153.588L146.927 193.992L97.3438 299.643L7.13912 268.002L60.8349 153.588Z" fill="white" stroke="#7D704E"/>
<path d="M69.4453 157.629L146.926 193.992L97.3408 299.647L15.7516 272.038L69.4453 157.629Z" fill="white" stroke="#7D704E"/>
<path d="M202.678 243.244L160.499 222.605" stroke="#7D704E"/>
<path d="M198.229 252.395L156.05 231.755" stroke="#7D704E"/>
<path d="M192.78 261.148L150.601 240.507" stroke="#7D704E"/>
<rect x="-0.259416" y="0.657801" width="110.677" height="162.261" rx="10.4089" transform="matrix(-0.917219 0.398384 0.398386 0.917218 358.058 156.957)" stroke="#7D704E"/>
<rect x="-0.259417" y="0.657803" width="100.328" height="132.685" transform="matrix(-0.917218 0.398386 0.398384 0.917219 357.195 168.057)" stroke="#7D704E"/>
<path d="M364.186 320.44C365.215 322.81 367.872 323.9 370.099 322.933C372.325 321.966 373.343 319.28 372.313 316.91C371.284 314.541 368.627 313.451 366.4 314.418C364.174 315.385 363.157 318.071 364.186 320.44Z" stroke="#7D704E"/>
<path d="M361.586 239.23L401.646 153.329C400.553 151.993 399.605 151.201 398.539 150.723C397.47 150.244 396.236 150.059 394.527 150.023L354.475 235.907L354.554 245.358L361.586 239.23Z" fill="white" stroke="#7D704E"/>
<rect x="601.074" y="9.49902" width="370.03" height="60.1282" fill="#7D704E"/>
<path d="M715.049 48.063V34.063H720.749C721.509 34.063 722.196 34.2563 722.809 34.643C723.436 35.0163 723.936 35.5297 724.309 36.183C724.682 36.8363 724.869 37.563 724.869 38.363C724.869 39.163 724.682 39.8897 724.309 40.543C723.936 41.1963 723.436 41.723 722.809 42.123C722.196 42.5097 721.509 42.703 720.749 42.703H717.209V48.063H715.049ZM717.209 40.623H720.709C721.069 40.623 721.396 40.523 721.689 40.323C721.982 40.1097 722.216 39.8363 722.389 39.503C722.576 39.1563 722.669 38.7763 722.669 38.363C722.669 37.9497 722.576 37.5763 722.389 37.243C722.216 36.9097 721.982 36.643 721.689 36.443C721.396 36.243 721.069 36.143 720.709 36.143H717.209V40.623ZM727.205 48.063V37.563H729.285V40.863L729.085 40.063C729.231 39.5563 729.478 39.0963 729.825 38.683C730.185 38.2697 730.591 37.943 731.045 37.703C731.511 37.463 731.991 37.343 732.485 37.343C732.711 37.343 732.925 37.363 733.125 37.403C733.338 37.443 733.505 37.4897 733.625 37.543L733.085 39.783C732.925 39.7163 732.745 39.663 732.545 39.623C732.358 39.5697 732.171 39.543 731.985 39.543C731.625 39.543 731.278 39.6163 730.945 39.763C730.625 39.8963 730.338 40.0897 730.085 40.343C729.845 40.583 729.651 40.8697 729.505 41.203C729.358 41.523 729.285 41.8763 729.285 42.263V48.063H727.205ZM735.611 48.063V37.563H737.671V48.063H735.611ZM736.611 35.243C736.171 35.243 735.831 35.1297 735.591 34.903C735.351 34.6763 735.231 34.3563 735.231 33.943C735.231 33.5563 735.351 33.243 735.591 33.003C735.844 32.763 736.184 32.643 736.611 32.643C737.051 32.643 737.391 32.7563 737.631 32.983C737.871 33.2097 737.991 33.5297 737.991 33.943C737.991 34.3297 737.864 34.643 737.611 34.883C737.371 35.123 737.038 35.243 736.611 35.243ZM740.797 48.063V37.563H742.877V39.803L742.497 40.043C742.604 39.6963 742.771 39.363 742.997 39.043C743.237 38.723 743.524 38.443 743.857 38.203C744.204 37.9497 744.571 37.7497 744.957 37.603C745.357 37.4563 745.764 37.383 746.177 37.383C746.777 37.383 747.304 37.483 747.757 37.683C748.211 37.883 748.584 38.183 748.877 38.583C749.171 38.983 749.384 39.483 749.517 40.083L749.197 40.003L749.337 39.663C749.484 39.3563 749.684 39.0697 749.937 38.803C750.204 38.523 750.504 38.2763 750.837 38.063C751.171 37.8497 751.524 37.683 751.897 37.563C752.271 37.443 752.637 37.383 752.997 37.383C753.784 37.383 754.431 37.543 754.937 37.863C755.457 38.183 755.844 38.6697 756.097 39.323C756.364 39.9763 756.497 40.7897 756.497 41.763V48.063H754.417V41.883C754.417 40.9897 754.244 40.3363 753.897 39.923C753.564 39.4963 753.037 39.283 752.317 39.283C751.944 39.283 751.591 39.3497 751.257 39.483C750.937 39.603 750.657 39.7763 750.417 40.003C750.177 40.2297 749.991 40.4963 749.857 40.803C749.724 41.0963 749.657 41.423 749.657 41.783V48.063H747.577V41.843C747.577 41.0163 747.397 40.383 747.037 39.943C746.691 39.503 746.184 39.283 745.517 39.283C745.144 39.283 744.797 39.3497 744.477 39.483C744.157 39.603 743.877 39.7763 743.637 40.003C743.397 40.2163 743.211 40.4763 743.077 40.783C742.944 41.0763 742.877 41.3963 742.877 41.743V48.063H740.797ZM765.475 48.063V41.223C765.475 40.6363 765.262 40.163 764.835 39.803C764.422 39.4297 763.895 39.243 763.255 39.243C762.669 39.243 762.135 39.363 761.655 39.603C761.189 39.843 760.762 40.2097 760.375 40.703L759.035 39.363C759.662 38.683 760.335 38.1763 761.055 37.843C761.789 37.5097 762.575 37.343 763.415 37.343C764.215 37.343 764.909 37.4763 765.495 37.743C766.082 38.0097 766.535 38.403 766.855 38.923C767.175 39.4297 767.335 40.0497 767.335 40.783V48.063H765.475ZM762.335 48.263C761.655 48.263 761.049 48.1297 760.515 47.863C759.982 47.5963 759.555 47.2297 759.235 46.763C758.929 46.283 758.775 45.723 758.775 45.083C758.775 44.523 758.875 44.0297 759.075 43.603C759.275 43.1763 759.569 42.823 759.955 42.543C760.355 42.263 760.849 42.0497 761.435 41.903C762.035 41.7563 762.722 41.683 763.495 41.683H766.415L766.235 43.323H763.235C762.835 43.323 762.475 43.363 762.155 43.443C761.849 43.5097 761.582 43.623 761.355 43.783C761.142 43.9297 760.982 44.1097 760.875 44.323C760.769 44.523 760.715 44.763 760.715 45.043C760.715 45.3363 760.789 45.5963 760.935 45.823C761.082 46.0363 761.282 46.203 761.535 46.323C761.789 46.443 762.082 46.503 762.415 46.503C762.895 46.503 763.349 46.423 763.775 46.263C764.215 46.0897 764.602 45.8563 764.935 45.563C765.282 45.2697 765.549 44.943 765.735 44.583L766.215 45.923C765.935 46.3897 765.589 46.7963 765.175 47.143C764.762 47.4897 764.315 47.763 763.835 47.963C763.355 48.163 762.855 48.263 762.335 48.263ZM769.939 48.063V37.563H772.019V40.863L771.819 40.063C771.966 39.5563 772.212 39.0963 772.559 38.683C772.919 38.2697 773.326 37.943 773.779 37.703C774.246 37.463 774.726 37.343 775.219 37.343C775.446 37.343 775.659 37.363 775.859 37.403C776.072 37.443 776.239 37.4897 776.359 37.543L775.819 39.783C775.659 39.7163 775.479 39.663 775.279 39.623C775.092 39.5697 774.906 39.543 774.719 39.543C774.359 39.543 774.012 39.6163 773.679 39.763C773.359 39.8963 773.072 40.0897 772.819 40.343C772.579 40.583 772.386 40.8697 772.239 41.203C772.092 41.523 772.019 41.8763 772.019 42.263V48.063H769.939ZM779.765 52.663L781.885 47.763L781.905 49.403L776.665 37.563H779.065L782.345 45.283C782.412 45.4163 782.492 45.623 782.585 45.903C782.679 46.1697 782.759 46.4363 782.825 46.703L782.305 46.823C782.412 46.543 782.512 46.263 782.605 45.983C782.712 45.703 782.812 45.423 782.905 45.143L785.645 37.563H788.085L783.765 48.063L781.985 52.663H779.765ZM795.752 48.063V34.063H801.592C802.485 34.063 803.239 34.1963 803.852 34.463C804.465 34.7297 804.925 35.1297 805.232 35.663C805.552 36.183 805.712 36.823 805.712 37.583C805.712 38.343 805.499 38.9897 805.072 39.523C804.659 40.0563 804.079 40.423 803.332 40.623V40.223C803.959 40.3563 804.505 40.5963 804.972 40.943C805.439 41.2763 805.799 41.6963 806.052 42.203C806.319 42.7097 806.452 43.2897 806.452 43.943C806.452 44.6097 806.345 45.203 806.132 45.723C805.932 46.2297 805.625 46.6563 805.212 47.003C804.812 47.3497 804.325 47.6163 803.752 47.803C803.179 47.9763 802.525 48.063 801.792 48.063H795.752ZM797.912 45.983H801.672C802.485 45.983 803.119 45.803 803.572 45.443C804.025 45.083 804.252 44.5697 804.252 43.903C804.252 43.4897 804.139 43.1363 803.912 42.843C803.699 42.5497 803.392 42.3297 802.992 42.183C802.592 42.023 802.119 41.943 801.572 41.943H797.912V45.983ZM797.912 39.863H801.472C801.872 39.863 802.225 39.783 802.532 39.623C802.852 39.463 803.099 39.243 803.272 38.963C803.459 38.683 803.552 38.363 803.552 38.003C803.552 37.403 803.352 36.943 802.952 36.623C802.552 36.303 801.979 36.143 801.232 36.143H797.912V39.863ZM812.525 48.263C811.779 48.263 811.125 48.0897 810.565 47.743C810.019 47.3963 809.592 46.9097 809.285 46.283C808.992 45.6563 808.845 44.9097 808.845 44.043V37.563H810.905V43.483C810.905 44.403 811.119 45.1297 811.545 45.663C811.985 46.1963 812.592 46.463 813.365 46.463C813.752 46.463 814.105 46.403 814.425 46.283C814.745 46.1497 815.019 45.9697 815.245 45.743C815.485 45.5163 815.672 45.243 815.805 44.923C815.939 44.603 816.005 44.2563 816.005 43.883V37.563H818.065V48.063H816.005V45.863L816.365 45.623C816.205 46.1163 815.932 46.563 815.545 46.963C815.172 47.363 814.725 47.683 814.205 47.923C813.685 48.1497 813.125 48.263 812.525 48.263ZM822.255 48.063V34.883H824.315V48.063H822.255ZM820.075 39.563V37.563H826.755V39.563H820.075ZM829.93 48.063V34.883H831.99V48.063H829.93ZM827.75 39.563V37.563H834.43V39.563H827.75ZM840.929 48.263C839.902 48.263 838.982 48.0297 838.169 47.563C837.369 47.083 836.735 46.4363 836.269 45.623C835.802 44.7963 835.569 43.8563 835.569 42.803C835.569 41.7497 835.802 40.8163 836.269 40.003C836.735 39.1763 837.369 38.5297 838.169 38.063C838.982 37.583 839.902 37.343 840.929 37.343C841.942 37.343 842.849 37.583 843.649 38.063C844.462 38.5297 845.102 39.1763 845.569 40.003C846.035 40.8163 846.269 41.7497 846.269 42.803C846.269 43.8563 846.035 44.7963 845.569 45.623C845.102 46.4363 844.462 47.083 843.649 47.563C842.849 48.0297 841.942 48.263 840.929 48.263ZM840.929 46.383C841.555 46.383 842.115 46.2297 842.609 45.923C843.102 45.603 843.489 45.1763 843.769 44.643C844.049 44.0963 844.182 43.483 844.169 42.803C844.182 42.1097 844.049 41.4963 843.769 40.963C843.489 40.4163 843.102 39.9897 842.609 39.683C842.115 39.3763 841.555 39.223 840.929 39.223C840.302 39.223 839.735 39.383 839.229 39.703C838.735 40.0097 838.349 40.4363 838.069 40.983C837.789 41.5163 837.655 42.123 837.669 42.803C837.655 43.483 837.789 44.0963 838.069 44.643C838.349 45.1763 838.735 45.603 839.229 45.923C839.735 46.2297 840.302 46.383 840.929 46.383ZM848.513 48.063V37.563H850.573V39.723L850.213 39.963C850.347 39.4963 850.607 39.0697 850.993 38.683C851.38 38.283 851.84 37.963 852.373 37.723C852.907 37.4697 853.453 37.343 854.013 37.343C854.813 37.343 855.48 37.503 856.013 37.823C856.547 38.1297 856.947 38.603 857.213 39.243C857.48 39.883 857.613 40.6897 857.613 41.663V48.063H855.553V41.803C855.553 41.203 855.473 40.7097 855.313 40.323C855.153 39.923 854.907 39.6363 854.573 39.463C854.24 39.2763 853.827 39.1963 853.333 39.223C852.933 39.223 852.567 39.2897 852.233 39.423C851.9 39.543 851.607 39.7163 851.353 39.943C851.113 40.1697 850.92 40.4363 850.773 40.743C850.64 41.0363 850.573 41.3563 850.573 41.703V48.063H849.553C849.38 48.063 849.207 48.063 849.033 48.063C848.86 48.063 848.687 48.063 848.513 48.063Z" fill="white"/>
<rect x="601.074" y="98.6274" width="370.03" height="60.1282" fill="black"/>
<path d="M715.049 137.191V123.191H720.749C721.509 123.191 722.196 123.385 722.809 123.771C723.436 124.145 723.936 124.658 724.309 125.311C724.682 125.965 724.869 126.691 724.869 127.491C724.869 128.291 724.682 129.018 724.309 129.671C723.936 130.325 723.436 130.851 722.809 131.251C722.196 131.638 721.509 131.831 720.749 131.831H717.209V137.191H715.049ZM717.209 129.751H720.709C721.069 129.751 721.396 129.651 721.689 129.451C721.982 129.238 722.216 128.965 722.389 128.631C722.576 128.285 722.669 127.905 722.669 127.491C722.669 127.078 722.576 126.705 722.389 126.371C722.216 126.038 721.982 125.771 721.689 125.571C721.396 125.371 721.069 125.271 720.709 125.271H717.209V129.751ZM727.205 137.191V126.691H729.285V129.991L729.085 129.191C729.231 128.685 729.478 128.225 729.825 127.811C730.185 127.398 730.591 127.071 731.045 126.831C731.511 126.591 731.991 126.471 732.485 126.471C732.711 126.471 732.925 126.491 733.125 126.531C733.338 126.571 733.505 126.618 733.625 126.671L733.085 128.911C732.925 128.845 732.745 128.791 732.545 128.751C732.358 128.698 732.171 128.671 731.985 128.671C731.625 128.671 731.278 128.745 730.945 128.891C730.625 129.025 730.338 129.218 730.085 129.471C729.845 129.711 729.651 129.998 729.505 130.331C729.358 130.651 729.285 131.005 729.285 131.391V137.191H727.205ZM735.611 137.191V126.691H737.671V137.191H735.611ZM736.611 124.371C736.171 124.371 735.831 124.258 735.591 124.031C735.351 123.805 735.231 123.485 735.231 123.071C735.231 122.685 735.351 122.371 735.591 122.131C735.844 121.891 736.184 121.771 736.611 121.771C737.051 121.771 737.391 121.885 737.631 122.111C737.871 122.338 737.991 122.658 737.991 123.071C737.991 123.458 737.864 123.771 737.611 124.011C737.371 124.251 737.038 124.371 736.611 124.371ZM740.797 137.191V126.691H742.877V128.931L742.497 129.171C742.604 128.825 742.771 128.491 742.997 128.171C743.237 127.851 743.524 127.571 743.857 127.331C744.204 127.078 744.571 126.878 744.957 126.731C745.357 126.585 745.764 126.511 746.177 126.511C746.777 126.511 747.304 126.611 747.757 126.811C748.211 127.011 748.584 127.311 748.877 127.711C749.171 128.111 749.384 128.611 749.517 129.211L749.197 129.131L749.337 128.791C749.484 128.485 749.684 128.198 749.937 127.931C750.204 127.651 750.504 127.405 750.837 127.191C751.171 126.978 751.524 126.811 751.897 126.691C752.271 126.571 752.637 126.511 752.997 126.511C753.784 126.511 754.431 126.671 754.937 126.991C755.457 127.311 755.844 127.798 756.097 128.451C756.364 129.105 756.497 129.918 756.497 130.891V137.191H754.417V131.011C754.417 130.118 754.244 129.465 753.897 129.051C753.564 128.625 753.037 128.411 752.317 128.411C751.944 128.411 751.591 128.478 751.257 128.611C750.937 128.731 750.657 128.905 750.417 129.131C750.177 129.358 749.991 129.625 749.857 129.931C749.724 130.225 749.657 130.551 749.657 130.911V137.191H747.577V130.971C747.577 130.145 747.397 129.511 747.037 129.071C746.691 128.631 746.184 128.411 745.517 128.411C745.144 128.411 744.797 128.478 744.477 128.611C744.157 128.731 743.877 128.905 743.637 129.131C743.397 129.345 743.211 129.605 743.077 129.911C742.944 130.205 742.877 130.525 742.877 130.871V137.191H740.797ZM765.475 137.191V130.351C765.475 129.765 765.262 129.291 764.835 128.931C764.422 128.558 763.895 128.371 763.255 128.371C762.669 128.371 762.135 128.491 761.655 128.731C761.189 128.971 760.762 129.338 760.375 129.831L759.035 128.491C759.662 127.811 760.335 127.305 761.055 126.971C761.789 126.638 762.575 126.471 763.415 126.471C764.215 126.471 764.909 126.605 765.495 126.871C766.082 127.138 766.535 127.531 766.855 128.051C767.175 128.558 767.335 129.178 767.335 129.911V137.191H765.475ZM762.335 137.391C761.655 137.391 761.049 137.258 760.515 136.991C759.982 136.725 759.555 136.358 759.235 135.891C758.929 135.411 758.775 134.851 758.775 134.211C758.775 133.651 758.875 133.158 759.075 132.731C759.275 132.305 759.569 131.951 759.955 131.671C760.355 131.391 760.849 131.178 761.435 131.031C762.035 130.885 762.722 130.811 763.495 130.811H766.415L766.235 132.451H763.235C762.835 132.451 762.475 132.491 762.155 132.571C761.849 132.638 761.582 132.751 761.355 132.911C761.142 133.058 760.982 133.238 760.875 133.451C760.769 133.651 760.715 133.891 760.715 134.171C760.715 134.465 760.789 134.725 760.935 134.951C761.082 135.165 761.282 135.331 761.535 135.451C761.789 135.571 762.082 135.631 762.415 135.631C762.895 135.631 763.349 135.551 763.775 135.391C764.215 135.218 764.602 134.985 764.935 134.691C765.282 134.398 765.549 134.071 765.735 133.711L766.215 135.051C765.935 135.518 765.589 135.925 765.175 136.271C764.762 136.618 764.315 136.891 763.835 137.091C763.355 137.291 762.855 137.391 762.335 137.391ZM769.939 137.191V126.691H772.019V129.991L771.819 129.191C771.966 128.685 772.212 128.225 772.559 127.811C772.919 127.398 773.326 127.071 773.779 126.831C774.246 126.591 774.726 126.471 775.219 126.471C775.446 126.471 775.659 126.491 775.859 126.531C776.072 126.571 776.239 126.618 776.359 126.671L775.819 128.911C775.659 128.845 775.479 128.791 775.279 128.751C775.092 128.698 774.906 128.671 774.719 128.671C774.359 128.671 774.012 128.745 773.679 128.891C773.359 129.025 773.072 129.218 772.819 129.471C772.579 129.711 772.386 129.998 772.239 130.331C772.092 130.651 772.019 131.005 772.019 131.391V137.191H769.939ZM779.765 141.791L781.885 136.891L781.905 138.531L776.665 126.691H779.065L782.345 134.411C782.412 134.545 782.492 134.751 782.585 135.031C782.679 135.298 782.759 135.565 782.825 135.831L782.305 135.951C782.412 135.671 782.512 135.391 782.605 135.111C782.712 134.831 782.812 134.551 782.905 134.271L785.645 126.691H788.085L783.765 137.191L781.985 141.791H779.765ZM795.752 137.191V123.191H801.592C802.485 123.191 803.239 123.325 803.852 123.591C804.465 123.858 804.925 124.258 805.232 124.791C805.552 125.311 805.712 125.951 805.712 126.711C805.712 127.471 805.499 128.118 805.072 128.651C804.659 129.185 804.079 129.551 803.332 129.751V129.351C803.959 129.485 804.505 129.725 804.972 130.071C805.439 130.405 805.799 130.825 806.052 131.331C806.319 131.838 806.452 132.418 806.452 133.071C806.452 133.738 806.345 134.331 806.132 134.851C805.932 135.358 805.625 135.785 805.212 136.131C804.812 136.478 804.325 136.745 803.752 136.931C803.179 137.105 802.525 137.191 801.792 137.191H795.752ZM797.912 135.111H801.672C802.485 135.111 803.119 134.931 803.572 134.571C804.025 134.211 804.252 133.698 804.252 133.031C804.252 132.618 804.139 132.265 803.912 131.971C803.699 131.678 803.392 131.458 802.992 131.311C802.592 131.151 802.119 131.071 801.572 131.071H797.912V135.111ZM797.912 128.991H801.472C801.872 128.991 802.225 128.911 802.532 128.751C802.852 128.591 803.099 128.371 803.272 128.091C803.459 127.811 803.552 127.491 803.552 127.131C803.552 126.531 803.352 126.071 802.952 125.751C802.552 125.431 801.979 125.271 801.232 125.271H797.912V128.991ZM812.525 137.391C811.779 137.391 811.125 137.218 810.565 136.871C810.019 136.525 809.592 136.038 809.285 135.411C808.992 134.785 808.845 134.038 808.845 133.171V126.691H810.905V132.611C810.905 133.531 811.119 134.258 811.545 134.791C811.985 135.325 812.592 135.591 813.365 135.591C813.752 135.591 814.105 135.531 814.425 135.411C814.745 135.278 815.019 135.098 815.245 134.871C815.485 134.645 815.672 134.371 815.805 134.051C815.939 133.731 816.005 133.385 816.005 133.011V126.691H818.065V137.191H816.005V134.991L816.365 134.751C816.205 135.245 815.932 135.691 815.545 136.091C815.172 136.491 814.725 136.811 814.205 137.051C813.685 137.278 813.125 137.391 812.525 137.391ZM822.255 137.191V124.011H824.315V137.191H822.255ZM820.075 128.691V126.691H826.755V128.691H820.075ZM829.93 137.191V124.011H831.99V137.191H829.93ZM827.75 128.691V126.691H834.43V128.691H827.75ZM840.929 137.391C839.902 137.391 838.982 137.158 838.169 136.691C837.369 136.211 836.735 135.565 836.269 134.751C835.802 133.925 835.569 132.985 835.569 131.931C835.569 130.878 835.802 129.945 836.269 129.131C836.735 128.305 837.369 127.658 838.169 127.191C838.982 126.711 839.902 126.471 840.929 126.471C841.942 126.471 842.849 126.711 843.649 127.191C844.462 127.658 845.102 128.305 845.569 129.131C846.035 129.945 846.269 130.878 846.269 131.931C846.269 132.985 846.035 133.925 845.569 134.751C845.102 135.565 844.462 136.211 843.649 136.691C842.849 137.158 841.942 137.391 840.929 137.391ZM840.929 135.511C841.555 135.511 842.115 135.358 842.609 135.051C843.102 134.731 843.489 134.305 843.769 133.771C844.049 133.225 844.182 132.611 844.169 131.931C844.182 131.238 844.049 130.625 843.769 130.091C843.489 129.545 843.102 129.118 842.609 128.811C842.115 128.505 841.555 128.351 840.929 128.351C840.302 128.351 839.735 128.511 839.229 128.831C838.735 129.138 838.349 129.565 838.069 130.111C837.789 130.645 837.655 131.251 837.669 131.931C837.655 132.611 837.789 133.225 838.069 133.771C838.349 134.305 838.735 134.731 839.229 135.051C839.735 135.358 840.302 135.511 840.929 135.511ZM848.513 137.191V126.691H850.573V128.851L850.213 129.091C850.347 128.625 850.607 128.198 850.993 127.811C851.38 127.411 851.84 127.091 852.373 126.851C852.907 126.598 853.453 126.471 854.013 126.471C854.813 126.471 855.48 126.631 856.013 126.951C856.547 127.258 856.947 127.731 857.213 128.371C857.48 129.011 857.613 129.818 857.613 130.791V137.191H855.553V130.931C855.553 130.331 855.473 129.838 855.313 129.451C855.153 129.051 854.907 128.765 854.573 128.591C854.24 128.405 853.827 128.325 853.333 128.351C852.933 128.351 852.567 128.418 852.233 128.551C851.9 128.671 851.607 128.845 851.353 129.071C851.113 129.298 850.92 129.565 850.773 129.871C850.64 130.165 850.573 130.485 850.573 130.831V137.191H849.553C849.38 137.191 849.207 137.191 849.033 137.191C848.86 137.191 848.687 137.191 848.513 137.191Z" fill="white"/>
<rect x="601.574" y="188.255" width="369.03" height="59.1282" stroke="black"/>
<path d="M706.369 226.519C705.222 226.519 704.209 226.293 703.329 225.839C702.462 225.386 701.716 224.706 701.089 223.799L702.569 222.099C703.222 223.033 703.849 223.679 704.449 224.039C705.049 224.399 705.762 224.579 706.589 224.579C707.096 224.579 707.556 224.499 707.969 224.339C708.382 224.179 708.709 223.959 708.949 223.679C709.189 223.399 709.309 223.079 709.309 222.719C709.309 222.479 709.269 222.253 709.189 222.039C709.109 221.826 708.982 221.633 708.809 221.459C708.649 221.286 708.436 221.126 708.169 220.979C707.916 220.833 707.616 220.706 707.269 220.599C706.922 220.479 706.522 220.379 706.069 220.299C705.349 220.153 704.722 219.959 704.189 219.719C703.656 219.479 703.209 219.179 702.849 218.819C702.489 218.459 702.222 218.053 702.049 217.599C701.876 217.133 701.789 216.613 701.789 216.039C701.789 215.279 702.002 214.606 702.429 214.019C702.856 213.433 703.429 212.973 704.149 212.639C704.882 212.293 705.702 212.119 706.609 212.119C707.689 212.119 708.629 212.333 709.429 212.759C710.242 213.173 710.882 213.779 711.349 214.579L709.829 216.079C709.429 215.426 708.949 214.926 708.389 214.579C707.842 214.233 707.229 214.059 706.549 214.059C706.029 214.059 705.576 214.139 705.189 214.299C704.802 214.459 704.496 214.686 704.269 214.979C704.056 215.259 703.949 215.593 703.949 215.979C703.949 216.259 704.002 216.519 704.109 216.759C704.216 216.986 704.376 217.193 704.589 217.379C704.816 217.553 705.116 217.713 705.489 217.859C705.862 217.993 706.309 218.113 706.829 218.219C707.562 218.379 708.216 218.586 708.789 218.839C709.362 219.079 709.849 219.366 710.249 219.699C710.649 220.033 710.949 220.406 711.149 220.819C711.362 221.233 711.469 221.679 711.469 222.159C711.469 223.053 711.262 223.826 710.849 224.479C710.436 225.133 709.849 225.639 709.089 225.999C708.329 226.346 707.422 226.519 706.369 226.519ZM718.909 226.519C717.829 226.519 716.869 226.293 716.029 225.839C715.203 225.373 714.549 224.739 714.069 223.939C713.603 223.139 713.369 222.219 713.369 221.179C713.369 220.353 713.503 219.599 713.769 218.919C714.036 218.239 714.403 217.653 714.869 217.159C715.349 216.653 715.916 216.266 716.569 215.999C717.236 215.719 717.956 215.579 718.729 215.579C719.409 215.579 720.043 215.713 720.629 215.979C721.216 216.233 721.723 216.586 722.149 217.039C722.589 217.493 722.923 218.033 723.149 218.659C723.389 219.273 723.503 219.946 723.489 220.679L723.469 221.559H714.889L714.429 219.919H721.689L721.389 220.259V219.779C721.349 219.339 721.203 218.946 720.949 218.599C720.696 218.253 720.376 217.979 719.989 217.779C719.603 217.579 719.183 217.479 718.729 217.479C718.009 217.479 717.403 217.619 716.909 217.899C716.416 218.166 716.043 218.566 715.789 219.099C715.536 219.619 715.409 220.266 715.409 221.039C715.409 221.773 715.563 222.413 715.869 222.959C716.176 223.493 716.609 223.906 717.169 224.199C717.729 224.493 718.376 224.639 719.109 224.639C719.629 224.639 720.109 224.553 720.549 224.379C721.003 224.206 721.489 223.893 722.009 223.439L723.049 224.899C722.729 225.219 722.336 225.499 721.869 225.739C721.416 225.979 720.929 226.173 720.409 226.319C719.903 226.453 719.403 226.519 718.909 226.519ZM730.188 226.519C729.215 226.519 728.341 226.279 727.568 225.799C726.808 225.319 726.201 224.666 725.748 223.839C725.308 223.013 725.088 222.086 725.088 221.059C725.088 220.033 725.308 219.106 725.748 218.279C726.201 217.453 726.808 216.799 727.568 216.319C728.341 215.839 729.215 215.599 730.188 215.599C731.121 215.599 731.968 215.793 732.728 216.179C733.501 216.553 734.088 217.066 734.488 217.719L733.348 219.119C733.135 218.813 732.861 218.533 732.528 218.279C732.195 218.026 731.841 217.826 731.468 217.679C731.095 217.533 730.735 217.459 730.388 217.459C729.748 217.459 729.175 217.619 728.668 217.939C728.175 218.246 727.781 218.673 727.488 219.219C727.195 219.766 727.048 220.379 727.048 221.059C727.048 221.739 727.201 222.353 727.508 222.899C727.815 223.433 728.221 223.859 728.728 224.179C729.235 224.499 729.795 224.659 730.408 224.659C730.768 224.659 731.115 224.599 731.448 224.479C731.795 224.359 732.128 224.179 732.448 223.939C732.768 223.699 733.068 223.406 733.348 223.059L734.488 224.459C734.061 225.059 733.448 225.553 732.648 225.939C731.861 226.326 731.041 226.519 730.188 226.519ZM741.151 226.519C740.125 226.519 739.205 226.286 738.391 225.819C737.591 225.339 736.958 224.693 736.491 223.879C736.025 223.053 735.791 222.113 735.791 221.059C735.791 220.006 736.025 219.073 736.491 218.259C736.958 217.433 737.591 216.786 738.391 216.319C739.205 215.839 740.125 215.599 741.151 215.599C742.165 215.599 743.071 215.839 743.871 216.319C744.685 216.786 745.325 217.433 745.791 218.259C746.258 219.073 746.491 220.006 746.491 221.059C746.491 222.113 746.258 223.053 745.791 223.879C745.325 224.693 744.685 225.339 743.871 225.819C743.071 226.286 742.165 226.519 741.151 226.519ZM741.151 224.639C741.778 224.639 742.338 224.486 742.831 224.179C743.325 223.859 743.711 223.433 743.991 222.899C744.271 222.353 744.405 221.739 744.391 221.059C744.405 220.366 744.271 219.753 743.991 219.219C743.711 218.673 743.325 218.246 742.831 217.939C742.338 217.633 741.778 217.479 741.151 217.479C740.525 217.479 739.958 217.639 739.451 217.959C738.958 218.266 738.571 218.693 738.291 219.239C738.011 219.773 737.878 220.379 737.891 221.059C737.878 221.739 738.011 222.353 738.291 222.899C738.571 223.433 738.958 223.859 739.451 224.179C739.958 224.486 740.525 224.639 741.151 224.639ZM748.736 226.319V215.819H750.796V217.979L750.436 218.219C750.569 217.753 750.829 217.326 751.216 216.939C751.603 216.539 752.063 216.219 752.596 215.979C753.129 215.726 753.676 215.599 754.236 215.599C755.036 215.599 755.703 215.759 756.236 216.079C756.769 216.386 757.169 216.859 757.436 217.499C757.703 218.139 757.836 218.946 757.836 219.919V226.319H755.776V220.059C755.776 219.459 755.696 218.966 755.536 218.579C755.376 218.179 755.129 217.893 754.796 217.719C754.463 217.533 754.049 217.453 753.556 217.479C753.156 217.479 752.789 217.546 752.456 217.679C752.123 217.799 751.829 217.973 751.576 218.199C751.336 218.426 751.143 218.693 750.996 218.999C750.863 219.293 750.796 219.613 750.796 219.959V226.319H749.776C749.603 226.319 749.429 226.319 749.256 226.319C749.083 226.319 748.909 226.319 748.736 226.319ZM765.01 226.519C764.05 226.519 763.19 226.286 762.43 225.819C761.684 225.339 761.09 224.693 760.65 223.879C760.21 223.053 759.99 222.113 759.99 221.059C759.99 220.006 760.204 219.073 760.63 218.259C761.07 217.433 761.664 216.786 762.41 216.319C763.157 215.839 764.004 215.599 764.95 215.599C765.47 215.599 765.97 215.686 766.45 215.859C766.944 216.019 767.384 216.246 767.77 216.539C768.157 216.819 768.457 217.133 768.67 217.479C768.897 217.813 769.01 218.153 769.01 218.499L768.41 218.539V211.519H770.47V226.319H768.41V223.819H768.81C768.81 224.139 768.704 224.459 768.49 224.779C768.277 225.086 767.99 225.373 767.63 225.639C767.284 225.906 766.877 226.119 766.41 226.279C765.957 226.439 765.49 226.519 765.01 226.519ZM765.29 224.739C765.917 224.739 766.47 224.579 766.95 224.259C767.43 223.939 767.804 223.506 768.07 222.959C768.35 222.399 768.49 221.766 768.49 221.059C768.49 220.353 768.35 219.726 768.07 219.179C767.804 218.619 767.43 218.179 766.95 217.859C766.47 217.539 765.917 217.379 765.29 217.379C764.664 217.379 764.11 217.539 763.63 217.859C763.15 218.179 762.77 218.619 762.49 219.179C762.224 219.726 762.09 220.353 762.09 221.059C762.09 221.766 762.224 222.399 762.49 222.959C762.77 223.506 763.15 223.939 763.63 224.259C764.11 224.579 764.664 224.739 765.29 224.739ZM779.526 226.319V219.479C779.526 218.893 779.313 218.419 778.886 218.059C778.473 217.686 777.946 217.499 777.306 217.499C776.72 217.499 776.186 217.619 775.706 217.859C775.24 218.099 774.813 218.466 774.426 218.959L773.086 217.619C773.713 216.939 774.386 216.433 775.106 216.099C775.84 215.766 776.626 215.599 777.466 215.599C778.266 215.599 778.96 215.733 779.546 215.999C780.133 216.266 780.586 216.659 780.906 217.179C781.226 217.686 781.386 218.306 781.386 219.039V226.319H779.526ZM776.386 226.519C775.706 226.519 775.1 226.386 774.566 226.119C774.033 225.853 773.606 225.486 773.286 225.019C772.98 224.539 772.826 223.979 772.826 223.339C772.826 222.779 772.926 222.286 773.126 221.859C773.326 221.433 773.62 221.079 774.006 220.799C774.406 220.519 774.9 220.306 775.486 220.159C776.086 220.013 776.773 219.939 777.546 219.939H780.466L780.286 221.579H777.286C776.886 221.579 776.526 221.619 776.206 221.699C775.9 221.766 775.633 221.879 775.406 222.039C775.193 222.186 775.033 222.366 774.926 222.579C774.82 222.779 774.766 223.019 774.766 223.299C774.766 223.593 774.84 223.853 774.986 224.079C775.133 224.293 775.333 224.459 775.586 224.579C775.84 224.699 776.133 224.759 776.466 224.759C776.946 224.759 777.4 224.679 777.826 224.519C778.266 224.346 778.653 224.113 778.986 223.819C779.333 223.526 779.6 223.199 779.786 222.839L780.266 224.179C779.986 224.646 779.64 225.053 779.226 225.399C778.813 225.746 778.366 226.019 777.886 226.219C777.406 226.419 776.906 226.519 776.386 226.519ZM783.99 226.319V215.819H786.07V219.119L785.87 218.319C786.016 217.813 786.263 217.353 786.61 216.939C786.97 216.526 787.376 216.199 787.83 215.959C788.296 215.719 788.776 215.599 789.27 215.599C789.496 215.599 789.71 215.619 789.91 215.659C790.123 215.699 790.29 215.746 790.41 215.799L789.87 218.039C789.71 217.973 789.53 217.919 789.33 217.879C789.143 217.826 788.956 217.799 788.77 217.799C788.41 217.799 788.063 217.873 787.73 218.019C787.41 218.153 787.123 218.346 786.87 218.599C786.63 218.839 786.436 219.126 786.29 219.459C786.143 219.779 786.07 220.133 786.07 220.519V226.319H783.99ZM793.816 230.919L795.936 226.019L795.956 227.659L790.716 215.819H793.116L796.396 223.539C796.463 223.673 796.543 223.879 796.636 224.159C796.73 224.426 796.81 224.693 796.876 224.959L796.356 225.079C796.463 224.799 796.563 224.519 796.656 224.239C796.763 223.959 796.863 223.679 796.956 223.399L799.696 215.819H802.136L797.816 226.319L796.036 230.919H793.816ZM809.803 226.319V212.319H815.643C816.536 212.319 817.289 212.453 817.903 212.719C818.516 212.986 818.976 213.386 819.283 213.919C819.603 214.439 819.763 215.079 819.763 215.839C819.763 216.599 819.549 217.246 819.123 217.779C818.709 218.313 818.129 218.679 817.383 218.879V218.479C818.009 218.613 818.556 218.853 819.023 219.199C819.489 219.533 819.849 219.953 820.103 220.459C820.369 220.966 820.503 221.546 820.503 222.199C820.503 222.866 820.396 223.459 820.183 223.979C819.983 224.486 819.676 224.913 819.263 225.259C818.863 225.606 818.376 225.873 817.803 226.059C817.229 226.233 816.576 226.319 815.843 226.319H809.803ZM811.963 224.239H815.723C816.536 224.239 817.169 224.059 817.623 223.699C818.076 223.339 818.303 222.826 818.303 222.159C818.303 221.746 818.189 221.393 817.963 221.099C817.749 220.806 817.443 220.586 817.043 220.439C816.643 220.279 816.169 220.199 815.623 220.199H811.963V224.239ZM811.963 218.119H815.523C815.923 218.119 816.276 218.039 816.583 217.879C816.903 217.719 817.149 217.499 817.323 217.219C817.509 216.939 817.603 216.619 817.603 216.259C817.603 215.659 817.403 215.199 817.003 214.879C816.603 214.559 816.029 214.399 815.283 214.399H811.963V218.119ZM826.576 226.519C825.829 226.519 825.176 226.346 824.616 225.999C824.069 225.653 823.643 225.166 823.336 224.539C823.043 223.913 822.896 223.166 822.896 222.299V215.819H824.956V221.739C824.956 222.659 825.169 223.386 825.596 223.919C826.036 224.453 826.643 224.719 827.416 224.719C827.803 224.719 828.156 224.659 828.476 224.539C828.796 224.406 829.069 224.226 829.296 223.999C829.536 223.773 829.723 223.499 829.856 223.179C829.989 222.859 830.056 222.513 830.056 222.139V215.819H832.116V226.319H830.056V224.119L830.416 223.879C830.256 224.373 829.983 224.819 829.596 225.219C829.223 225.619 828.776 225.939 828.256 226.179C827.736 226.406 827.176 226.519 826.576 226.519ZM836.305 226.319V213.139H838.365V226.319H836.305ZM834.125 217.819V215.819H840.805V217.819H834.125ZM843.981 226.319V213.139H846.041V226.319H843.981ZM841.801 217.819V215.819H848.481V217.819H841.801ZM854.979 226.519C853.953 226.519 853.033 226.286 852.219 225.819C851.419 225.339 850.786 224.693 850.319 223.879C849.853 223.053 849.619 222.113 849.619 221.059C849.619 220.006 849.853 219.073 850.319 218.259C850.786 217.433 851.419 216.786 852.219 216.319C853.033 215.839 853.953 215.599 854.979 215.599C855.993 215.599 856.899 215.839 857.699 216.319C858.513 216.786 859.153 217.433 859.619 218.259C860.086 219.073 860.319 220.006 860.319 221.059C860.319 222.113 860.086 223.053 859.619 223.879C859.153 224.693 858.513 225.339 857.699 225.819C856.899 226.286 855.993 226.519 854.979 226.519ZM854.979 224.639C855.606 224.639 856.166 224.486 856.659 224.179C857.153 223.859 857.539 223.433 857.819 222.899C858.099 222.353 858.233 221.739 858.219 221.059C858.233 220.366 858.099 219.753 857.819 219.219C857.539 218.673 857.153 218.246 856.659 217.939C856.166 217.633 855.606 217.479 854.979 217.479C854.353 217.479 853.786 217.639 853.279 217.959C852.786 218.266 852.399 218.693 852.119 219.239C851.839 219.773 851.706 220.379 851.719 221.059C851.706 221.739 851.839 222.353 852.119 222.899C852.399 223.433 852.786 223.859 853.279 224.179C853.786 224.486 854.353 224.639 854.979 224.639ZM862.564 226.319V215.819H864.624V217.979L864.264 218.219C864.397 217.753 864.657 217.326 865.044 216.939C865.431 216.539 865.891 216.219 866.424 215.979C866.957 215.726 867.504 215.599 868.064 215.599C868.864 215.599 869.531 215.759 870.064 216.079C870.597 216.386 870.997 216.859 871.264 217.499C871.531 218.139 871.664 218.946 871.664 219.919V226.319H869.604V220.059C869.604 219.459 869.524 218.966 869.364 218.579C869.204 218.179 868.957 217.893 868.624 217.719C868.291 217.533 867.877 217.453 867.384 217.479C866.984 217.479 866.617 217.546 866.284 217.679C865.951 217.799 865.657 217.973 865.404 218.199C865.164 218.426 864.971 218.693 864.824 218.999C864.691 219.293 864.624 219.613 864.624 219.959V226.319H863.604C863.431 226.319 863.257 226.319 863.084 226.319C862.911 226.319 862.737 226.319 862.564 226.319Z" fill="black"/>
<rect x="601.074" y="276.884" width="370.03" height="60.1282" fill="#E5E5E5"/>
<path d="M712.529 315.448V313.448H714.789V303.448H712.529V301.448H719.209V303.448H716.949V313.448H719.209V315.448H712.529ZM722.08 315.448V304.948H724.14V307.108L723.78 307.348C723.913 306.881 724.173 306.454 724.56 306.068C724.946 305.668 725.406 305.348 725.94 305.108C726.473 304.854 727.02 304.728 727.58 304.728C728.38 304.728 729.046 304.888 729.58 305.208C730.113 305.514 730.513 305.988 730.78 306.628C731.046 307.268 731.18 308.074 731.18 309.048V315.448H729.12V309.188C729.12 308.588 729.04 308.094 728.88 307.708C728.72 307.308 728.473 307.021 728.14 306.848C727.806 306.661 727.393 306.581 726.9 306.608C726.5 306.608 726.133 306.674 725.8 306.808C725.466 306.928 725.173 307.101 724.92 307.328C724.68 307.554 724.486 307.821 724.34 308.128C724.206 308.421 724.14 308.741 724.14 309.088V315.448H723.12C722.946 315.448 722.773 315.448 722.6 315.448C722.426 315.448 722.253 315.448 722.08 315.448ZM740.194 315.448V308.608C740.194 308.021 739.981 307.548 739.554 307.188C739.141 306.814 738.614 306.628 737.974 306.628C737.388 306.628 736.854 306.748 736.374 306.988C735.908 307.228 735.481 307.594 735.094 308.088L733.754 306.748C734.381 306.068 735.054 305.561 735.774 305.228C736.508 304.894 737.294 304.728 738.134 304.728C738.934 304.728 739.628 304.861 740.214 305.128C740.801 305.394 741.254 305.788 741.574 306.308C741.894 306.814 742.054 307.434 742.054 308.168V315.448H740.194ZM737.054 315.648C736.374 315.648 735.768 315.514 735.234 315.248C734.701 314.981 734.274 314.614 733.954 314.148C733.648 313.668 733.494 313.108 733.494 312.468C733.494 311.908 733.594 311.414 733.794 310.988C733.994 310.561 734.288 310.208 734.674 309.928C735.074 309.648 735.568 309.434 736.154 309.288C736.754 309.141 737.441 309.068 738.214 309.068H741.134L740.954 310.708H737.954C737.554 310.708 737.194 310.748 736.874 310.828C736.568 310.894 736.301 311.008 736.074 311.168C735.861 311.314 735.701 311.494 735.594 311.708C735.488 311.908 735.434 312.148 735.434 312.428C735.434 312.721 735.508 312.981 735.654 313.208C735.801 313.421 736.001 313.588 736.254 313.708C736.508 313.828 736.801 313.888 737.134 313.888C737.614 313.888 738.068 313.808 738.494 313.648C738.934 313.474 739.321 313.241 739.654 312.948C740.001 312.654 740.268 312.328 740.454 311.968L740.934 313.308C740.654 313.774 740.308 314.181 739.894 314.528C739.481 314.874 739.034 315.148 738.554 315.348C738.074 315.548 737.574 315.648 737.054 315.648ZM749.118 315.648C748.144 315.648 747.271 315.408 746.498 314.928C745.738 314.448 745.131 313.794 744.678 312.968C744.238 312.141 744.018 311.214 744.018 310.188C744.018 309.161 744.238 308.234 744.678 307.408C745.131 306.581 745.738 305.928 746.498 305.448C747.271 304.968 748.144 304.728 749.118 304.728C750.051 304.728 750.898 304.921 751.658 305.308C752.431 305.681 753.018 306.194 753.418 306.848L752.278 308.248C752.064 307.941 751.791 307.661 751.458 307.408C751.124 307.154 750.771 306.954 750.398 306.808C750.024 306.661 749.664 306.588 749.318 306.588C748.678 306.588 748.104 306.748 747.598 307.068C747.104 307.374 746.711 307.801 746.418 308.348C746.124 308.894 745.978 309.508 745.978 310.188C745.978 310.868 746.131 311.481 746.438 312.028C746.744 312.561 747.151 312.988 747.658 313.308C748.164 313.628 748.724 313.788 749.338 313.788C749.698 313.788 750.044 313.728 750.378 313.608C750.724 313.488 751.058 313.308 751.378 313.068C751.698 312.828 751.998 312.534 752.278 312.188L753.418 313.588C752.991 314.188 752.378 314.681 751.578 315.068C750.791 315.454 749.971 315.648 749.118 315.648ZM756.661 315.448V302.268H758.721V315.448H756.661ZM754.481 306.948V304.948H761.161V306.948H754.481ZM763.377 315.448V304.948H765.437V315.448H763.377ZM764.377 302.628C763.937 302.628 763.597 302.514 763.357 302.288C763.117 302.061 762.997 301.741 762.997 301.328C762.997 300.941 763.117 300.628 763.357 300.388C763.61 300.148 763.95 300.028 764.377 300.028C764.817 300.028 765.157 300.141 765.397 300.368C765.637 300.594 765.757 300.914 765.757 301.328C765.757 301.714 765.63 302.028 765.377 302.268C765.137 302.508 764.803 302.628 764.377 302.628ZM772.043 315.448L767.603 304.948H769.823L773.023 312.808L772.643 312.988L776.063 304.948H778.183L773.523 315.448H772.043ZM784.675 315.648C783.595 315.648 782.635 315.421 781.795 314.968C780.968 314.501 780.315 313.868 779.835 313.068C779.368 312.268 779.135 311.348 779.135 310.308C779.135 309.481 779.268 308.728 779.535 308.048C779.802 307.368 780.168 306.781 780.635 306.288C781.115 305.781 781.682 305.394 782.335 305.128C783.002 304.848 783.722 304.708 784.495 304.708C785.175 304.708 785.808 304.841 786.395 305.108C786.982 305.361 787.488 305.714 787.915 306.168C788.355 306.621 788.688 307.161 788.915 307.788C789.155 308.401 789.268 309.074 789.255 309.808L789.235 310.688H780.655L780.195 309.048H787.455L787.155 309.388V308.908C787.115 308.468 786.968 308.074 786.715 307.728C786.462 307.381 786.142 307.108 785.755 306.908C785.368 306.708 784.948 306.608 784.495 306.608C783.775 306.608 783.168 306.748 782.675 307.028C782.182 307.294 781.808 307.694 781.555 308.228C781.302 308.748 781.175 309.394 781.175 310.168C781.175 310.901 781.328 311.541 781.635 312.088C781.942 312.621 782.375 313.034 782.935 313.328C783.495 313.621 784.142 313.768 784.875 313.768C785.395 313.768 785.875 313.681 786.315 313.508C786.768 313.334 787.255 313.021 787.775 312.568L788.815 314.028C788.495 314.348 788.102 314.628 787.635 314.868C787.182 315.108 786.695 315.301 786.175 315.448C785.668 315.581 785.168 315.648 784.675 315.648ZM797.619 315.448V301.448H803.459C804.353 301.448 805.106 301.581 805.719 301.848C806.333 302.114 806.793 302.514 807.099 303.048C807.419 303.568 807.579 304.208 807.579 304.968C807.579 305.728 807.366 306.374 806.939 306.908C806.526 307.441 805.946 307.808 805.199 308.008V307.608C805.826 307.741 806.373 307.981 806.839 308.328C807.306 308.661 807.666 309.081 807.919 309.588C808.186 310.094 808.319 310.674 808.319 311.328C808.319 311.994 808.213 312.588 807.999 313.108C807.799 313.614 807.493 314.041 807.079 314.388C806.679 314.734 806.193 315.001 805.619 315.188C805.046 315.361 804.393 315.448 803.659 315.448H797.619ZM799.779 313.368H803.539C804.353 313.368 804.986 313.188 805.439 312.828C805.893 312.468 806.119 311.954 806.119 311.288C806.119 310.874 806.006 310.521 805.779 310.228C805.566 309.934 805.259 309.714 804.859 309.568C804.459 309.408 803.986 309.328 803.439 309.328H799.779V313.368ZM799.779 307.248H803.339C803.739 307.248 804.093 307.168 804.399 307.008C804.719 306.848 804.966 306.628 805.139 306.348C805.326 306.068 805.419 305.748 805.419 305.388C805.419 304.788 805.219 304.328 804.819 304.008C804.419 303.688 803.846 303.528 803.099 303.528H799.779V307.248ZM814.392 315.648C813.646 315.648 812.992 315.474 812.432 315.128C811.886 314.781 811.459 314.294 811.152 313.668C810.859 313.041 810.712 312.294 810.712 311.428V304.948H812.772V310.868C812.772 311.788 812.986 312.514 813.412 313.048C813.852 313.581 814.459 313.848 815.232 313.848C815.619 313.848 815.972 313.788 816.292 313.668C816.612 313.534 816.886 313.354 817.112 313.128C817.352 312.901 817.539 312.628 817.672 312.308C817.806 311.988 817.872 311.641 817.872 311.268V304.948H819.932V315.448H817.872V313.248L818.232 313.008C818.072 313.501 817.799 313.948 817.412 314.348C817.039 314.748 816.592 315.068 816.072 315.308C815.552 315.534 814.992 315.648 814.392 315.648ZM824.122 315.448V302.268H826.182V315.448H824.122ZM821.942 306.948V304.948H828.622V306.948H821.942ZM831.798 315.448V302.268H833.858V315.448H831.798ZM829.618 306.948V304.948H836.298V306.948H829.618ZM842.796 315.648C841.769 315.648 840.849 315.414 840.036 314.948C839.236 314.468 838.602 313.821 838.136 313.008C837.669 312.181 837.436 311.241 837.436 310.188C837.436 309.134 837.669 308.201 838.136 307.388C838.602 306.561 839.236 305.914 840.036 305.448C840.849 304.968 841.769 304.728 842.796 304.728C843.809 304.728 844.716 304.968 845.516 305.448C846.329 305.914 846.969 306.561 847.436 307.388C847.902 308.201 848.136 309.134 848.136 310.188C848.136 311.241 847.902 312.181 847.436 313.008C846.969 313.821 846.329 314.468 845.516 314.948C844.716 315.414 843.809 315.648 842.796 315.648ZM842.796 313.768C843.422 313.768 843.982 313.614 844.476 313.308C844.969 312.988 845.356 312.561 845.636 312.028C845.916 311.481 846.049 310.868 846.036 310.188C846.049 309.494 845.916 308.881 845.636 308.348C845.356 307.801 844.969 307.374 844.476 307.068C843.982 306.761 843.422 306.608 842.796 306.608C842.169 306.608 841.602 306.768 841.096 307.088C840.602 307.394 840.216 307.821 839.936 308.368C839.656 308.901 839.522 309.508 839.536 310.188C839.522 310.868 839.656 311.481 839.936 312.028C840.216 312.561 840.602 312.988 841.096 313.308C841.602 313.614 842.169 313.768 842.796 313.768ZM850.38 315.448V304.948H852.44V307.108L852.08 307.348C852.214 306.881 852.474 306.454 852.86 306.068C853.247 305.668 853.707 305.348 854.24 305.108C854.774 304.854 855.32 304.728 855.88 304.728C856.68 304.728 857.347 304.888 857.88 305.208C858.414 305.514 858.814 305.988 859.08 306.628C859.347 307.268 859.48 308.074 859.48 309.048V315.448H857.42V309.188C857.42 308.588 857.34 308.094 857.18 307.708C857.02 307.308 856.774 307.021 856.44 306.848C856.107 306.661 855.694 306.581 855.2 306.608C854.8 306.608 854.434 306.674 854.1 306.808C853.767 306.928 853.474 307.101 853.22 307.328C852.98 307.554 852.787 307.821 852.64 308.128C852.507 308.421 852.44 308.741 852.44 309.088V315.448H851.42C851.247 315.448 851.074 315.448 850.9 315.448C850.727 315.448 850.554 315.448 850.38 315.448Z" fill="#878788"/>
<g clip-path="url(#clip0_875_912)">
<path d="M401.759 9.49902H341.794C341.784 9.49902 341.776 9.50689 341.776 9.5166V69.4814C341.776 69.4912 341.784 69.499 341.794 69.499H401.759C401.768 69.499 401.776 69.4912 401.776 69.4814V9.5166C401.776 9.50689 401.768 9.49902 401.759 9.49902Z" fill="#7D704E"/>
<path d="M367.323 25.5537C367.323 25.085 367.558 24.8506 368.261 24.8506H379.276C381.269 24.8506 382.206 26.4912 382.909 29.5381L383.495 31.8818H385.37C385.604 24.9678 385.956 21.8037 385.956 21.8037C385.956 21.8037 381.269 22.3896 378.456 22.3896H364.511L357.011 22.1553V24.1475L359.589 24.6162C361.464 24.8506 361.815 25.3193 361.933 26.96C361.933 26.96 362.05 31.7646 362.05 39.6162C362.05 47.4678 361.933 52.2725 361.933 52.2725C361.933 53.6787 361.347 54.2646 359.589 54.499L357.011 54.9678V56.96L364.511 56.7256H377.05C379.862 56.7256 386.542 56.96 386.542 56.96C386.659 55.3193 387.714 47.3506 387.831 46.5303H385.956L384.081 50.749C382.558 54.1475 380.448 54.2646 377.987 54.2646H370.839C368.495 54.2646 367.323 53.3271 367.323 51.335V40.4365C367.323 40.4365 372.714 40.4365 374.354 40.5537C375.761 40.6475 376.464 41.0225 376.933 42.8975L377.519 45.4756H379.628L379.511 39.2646L379.745 32.9365H377.636L376.933 35.749C376.464 37.624 376.229 37.8584 374.354 38.0928C372.011 38.3271 367.323 38.21 367.323 38.21V25.3193" fill="white"/>
</g>
<g clip-path="url(#clip1_875_912)">
<path d="M441.991 69.2868C438.423 69.1245 436.484 68.5307 435.195 68.0279C433.487 67.3627 432.269 66.571 430.987 65.2906C429.704 64.0103 428.911 62.7923 428.249 61.084C427.746 59.7947 427.153 57.8564 426.99 54.2882C426.812 50.4311 426.776 49.2737 426.776 39.5017C426.776 29.7297 426.816 28.5741 426.989 24.7135C427.151 21.1452 427.748 19.2104 428.248 17.9176C428.913 16.2093 429.706 14.9913 430.985 13.7074C432.265 12.4271 433.483 11.6318 435.193 10.9702C436.482 10.4673 438.421 9.8735 441.989 9.71123C445.848 9.53469 447.007 9.49902 456.775 9.49902C466.548 9.49902 467.703 9.53825 471.564 9.71123C475.132 9.8735 477.067 10.4709 478.36 10.9702C480.068 11.6318 481.286 12.4271 482.568 13.7074C483.85 14.9878 484.64 16.2075 485.305 17.9158C485.808 19.2051 486.402 21.1434 486.564 24.7117C486.741 28.5723 486.776 29.7279 486.776 39.4999C486.776 49.2684 486.741 50.4275 486.564 54.2882C486.402 57.8564 485.805 59.7947 485.305 61.084C484.64 62.7923 483.848 64.0103 482.568 65.2906C481.288 66.571 480.068 67.3627 478.36 68.0279C477.07 68.5307 475.132 69.1245 471.564 69.2868C467.707 69.4634 466.548 69.499 456.775 69.499C447.007 69.499 445.848 69.4651 441.991 69.2868Z" fill="#7D704E"/>
<path d="M450.04 39.4992C450.04 35.7777 453.056 32.76 456.777 32.76C460.499 32.76 463.517 35.7777 463.517 39.4992C463.517 43.2207 460.499 46.2384 456.777 46.2384C453.056 46.2384 450.04 43.2207 450.04 39.4992ZM446.397 39.4992C446.397 45.2324 451.044 49.8798 456.777 49.8798C462.511 49.8798 467.158 45.2324 467.158 39.4992C467.158 33.7659 462.511 29.1185 456.777 29.1185C451.044 29.1185 446.397 33.7656 446.397 39.4992ZM465.143 28.7069C465.143 29.1867 465.285 29.6558 465.552 30.0549C465.818 30.4539 466.197 30.765 466.64 30.9488C467.083 31.1326 467.571 31.1808 468.042 31.0874C468.512 30.994 468.945 30.7631 469.284 30.424C469.623 30.0848 469.855 29.6527 469.948 29.1821C470.042 28.7116 469.994 28.2238 469.811 27.7804C469.627 27.3371 469.317 26.9581 468.918 26.6914C468.519 26.4246 468.05 26.2822 467.57 26.282C466.927 26.2823 466.309 26.5378 465.855 26.9925C465.4 27.4472 465.144 28.0638 465.143 28.7069ZM448.61 55.9547C446.639 55.8649 445.568 55.5366 444.856 55.2592C443.912 54.8918 443.239 54.4542 442.531 53.7471C441.823 53.04 441.384 52.3672 441.019 51.4234C440.741 50.7118 440.413 49.6402 440.323 47.6692C440.225 45.5383 440.206 44.8981 440.206 39.4995C440.206 34.1009 440.227 33.4625 440.323 31.3298C440.413 29.3588 440.744 28.2893 441.019 27.5756C441.386 26.6318 441.824 25.9584 442.531 25.2503C443.238 24.5423 443.911 24.104 444.856 23.7382C445.568 23.4606 446.639 23.1323 448.61 23.0427C450.741 22.9447 451.381 22.9252 456.777 22.9252C462.174 22.9252 462.814 22.946 464.947 23.0431C466.918 23.1328 467.988 23.4635 468.701 23.7385C469.645 24.1043 470.319 24.5436 471.027 25.2506C471.735 25.9577 472.171 26.6321 472.539 27.576C472.816 28.2876 473.145 29.3592 473.234 31.3301C473.332 33.4629 473.352 34.1012 473.352 39.4998C473.352 44.8985 473.332 45.5368 473.234 47.6695C473.145 49.6405 472.815 50.7118 472.539 51.4237C472.171 52.3675 471.734 53.041 471.027 53.7474C470.32 54.4538 469.645 54.8921 468.701 55.2596C467.99 55.5371 466.918 55.8654 464.947 55.955C462.816 56.053 462.176 56.0726 456.777 56.0726C451.379 56.0726 450.741 56.0527 448.61 55.9547ZM448.443 19.4056C446.291 19.5036 444.82 19.8449 443.536 20.3446C442.207 20.8607 441.08 21.5531 439.955 22.6764C438.83 23.7998 438.139 24.9267 437.623 26.2576C437.123 27.5426 436.782 29.0124 436.684 31.1645C436.584 33.32 436.562 34.0092 436.562 39.4992C436.562 44.9892 436.584 45.6783 436.684 47.8338C436.782 49.9861 437.123 51.4557 437.623 52.7408C438.139 54.0701 438.83 55.1991 439.955 56.3219C441.08 57.4448 442.205 58.1362 443.536 58.6537C444.823 59.1535 446.291 59.4947 448.443 59.5927C450.599 59.6907 451.287 59.7152 456.777 59.7152C462.268 59.7152 462.957 59.6924 465.112 59.5927C467.264 59.4947 468.734 59.1535 470.019 58.6537C471.348 58.1362 472.475 57.4453 473.6 56.3219C474.725 55.1986 475.415 54.0701 475.932 52.7408C476.432 51.4557 476.775 49.9859 476.871 47.8338C476.969 45.6767 476.992 44.9892 476.992 39.4992C476.992 34.0092 476.969 33.32 476.871 31.1645C476.773 29.0123 476.432 27.5418 475.932 26.2576C475.415 24.9283 474.724 23.8016 473.6 22.6764C472.477 21.5513 471.348 20.8607 470.021 20.3446C468.734 19.8449 467.264 19.502 465.114 19.4056C462.958 19.3071 462.269 19.2832 456.78 19.2832C451.291 19.2832 450.599 19.306 448.443 19.4056Z" fill="white"/>
</g>
<path d="M526.991 69.2868C523.423 69.1245 521.484 68.5307 520.195 68.0279C518.487 67.3627 517.269 66.571 515.987 65.2906C514.704 64.0103 513.911 62.7923 513.249 61.084C512.746 59.7947 512.153 57.8564 511.99 54.2882C511.812 50.4311 511.776 49.2737 511.776 39.5017C511.776 29.7297 511.816 28.5741 511.989 24.7135C512.151 21.1452 512.748 19.2104 513.248 17.9176C513.913 16.2093 514.706 14.9913 515.985 13.7074C517.265 12.4271 518.483 11.6318 520.193 10.9702C521.482 10.4673 523.421 9.8735 526.989 9.71123C530.848 9.53469 532.007 9.49902 541.775 9.49902C551.548 9.49902 552.703 9.53825 556.564 9.71123C560.132 9.8735 562.067 10.4709 563.36 10.9702C565.068 11.6318 566.286 12.4271 567.568 13.7074C568.85 14.9878 569.64 16.2075 570.305 17.9158C570.808 19.2051 571.402 21.1434 571.564 24.7117C571.741 28.5723 571.776 29.7279 571.776 39.4999C571.776 49.2684 571.741 50.4275 571.564 54.2882C571.402 57.8564 570.805 59.7947 570.305 61.084C569.64 62.7923 568.848 64.0103 567.568 65.2906C566.288 66.571 565.068 67.3627 563.36 68.0279C562.07 68.5307 560.132 69.1245 556.564 69.2868C552.707 69.4634 551.548 69.499 541.775 69.499C532.007 69.499 530.848 69.4651 526.991 69.2868Z" fill="#7D704E"/>
<path d="M559.792 34.809C556.25 34.8175 552.795 33.7129 549.915 31.6514V46.0289C549.914 48.6918 549.1 51.2909 547.582 53.4787C546.064 55.6665 543.914 57.3387 541.42 58.2718C538.926 59.2048 536.207 59.3542 533.626 58.6999C531.044 58.0457 528.724 56.619 526.976 54.6106C525.227 52.6023 524.134 50.1079 523.841 47.4612C523.548 44.8145 524.071 42.1415 525.338 39.7996C526.606 37.4578 528.558 35.5587 530.934 34.3564C533.31 33.154 535.996 32.7057 538.634 33.0713V40.3027C537.427 39.923 536.131 39.9345 534.931 40.3354C533.731 40.7363 532.688 41.5061 531.951 42.535C531.215 43.5639 530.822 44.7991 530.83 46.0644C530.837 47.3297 531.244 48.5602 531.993 49.5804C532.741 50.6005 533.793 51.358 534.998 51.7447C536.203 52.1315 537.499 52.1276 538.701 51.7338C539.904 51.3399 540.951 50.5762 541.693 49.5517C542.436 48.5272 542.836 47.2942 542.836 46.0289V17.9224H549.915C549.91 18.5202 549.96 19.1172 550.065 19.7059C550.311 21.02 550.822 22.27 551.568 23.3797C552.314 24.4893 553.278 25.4351 554.402 26.1593C556 27.2165 557.875 27.7799 559.792 27.7795V34.809Z" fill="white"/>
<path d="M26.8457 14.9443H63.63V41.9714C63.63 45.4232 60.8318 48.2214 57.38 48.2214H33.0957C29.6439 48.2214 26.8457 45.4232 26.8457 41.9714V14.9443Z" stroke="#7D704E" stroke-width="1.5"/>
<path d="M37.4805 14.8332C38.1856 -0.469213 50.5754 -5.56995 52.9929 14.8332" stroke="#7D704E" stroke-width="1.5"/>
<path d="M45.1363 41.1636C43.5697 41.1636 42.2363 40.8052 41.1363 40.0886C40.0363 39.3719 39.1947 38.3469 38.6113 37.0136C38.028 35.6636 37.7363 34.0469 37.7363 32.1636C37.7363 30.2802 38.028 28.6719 38.6113 27.3386C39.1947 25.9886 40.0363 24.9552 41.1363 24.2386C42.2363 23.5219 43.5697 23.1636 45.1363 23.1636C46.703 23.1636 48.0363 23.5219 49.1363 24.2386C50.2363 24.9552 51.078 25.9886 51.6613 27.3386C52.2447 28.6719 52.5363 30.2802 52.5363 32.1636C52.5363 34.0469 52.2447 35.6636 51.6613 37.0136C51.078 38.3469 50.2363 39.3719 49.1363 40.0886C48.0363 40.8052 46.703 41.1636 45.1363 41.1636ZM45.1363 37.5386C46.203 37.5386 47.0197 37.0719 47.5863 36.1386C48.1697 35.2052 48.4613 33.8802 48.4613 32.1636C48.4613 30.3802 48.1697 29.0136 47.5863 28.0636C47.0197 27.1136 46.203 26.6386 45.1363 26.6386C44.0697 26.6386 43.2447 27.1136 42.6613 28.0636C42.078 29.0136 41.7863 30.3802 41.7863 32.1636C41.7863 33.8802 42.078 35.2052 42.6613 36.1386C43.2447 37.0719 44.0697 37.5386 45.1363 37.5386Z" fill="#7D704E"/>
<path d="M87.6875 15.1035H124.472V42.1306C124.472 45.5824 121.674 48.3806 118.222 48.3806H93.9375C90.4857 48.3806 87.6875 45.5824 87.6875 42.1306V15.1035Z" stroke="#7D704E" stroke-width="1.5"/>
<path d="M98.3223 14.9924C99.0274 -0.310034 111.417 -5.41077 113.835 14.9924" stroke="#7D704E" stroke-width="1.5"/>
<path d="M103.878 39.8228V25.6978L104.828 27.7978L101.103 29.5478L100.353 25.7728L105.353 23.3228H108.078V39.8228H103.878ZM100.703 41.0728V37.2978H111.353V41.0728H100.703Z" fill="#7D704E"/>
<circle cx="123.319" cy="16.833" r="8.5" fill="#DA3E3E"/>
<circle cx="43.1416" cy="101.021" r="16.25" stroke="#7D704E" stroke-width="1.5"/>
<path d="M52.6416 112.521L66.6416 128.021" stroke="#7D704E" stroke-width="1.5"/>
<path d="M103.185 81.4523C103.26 81.2219 103.586 81.2219 103.661 81.4523L108.659 96.8363C108.893 97.5573 109.565 98.0455 110.324 98.0455H126.499C126.741 98.0455 126.842 98.3554 126.646 98.4977L113.56 108.006C112.946 108.451 112.69 109.241 112.924 109.962L117.923 125.346C117.997 125.576 117.734 125.768 117.538 125.626L104.451 116.118C103.838 115.672 103.008 115.672 102.394 116.118L89.3078 125.626C89.1119 125.768 88.8483 125.576 88.9231 125.346L93.9217 109.962C94.156 109.241 93.8993 108.451 93.2859 108.006L80.1995 98.4977C80.0036 98.3554 80.1043 98.0455 80.3465 98.0455H96.5222C97.2803 98.0455 97.9522 97.5573 98.1865 96.8363L103.185 81.4523Z" stroke="#7D704E" stroke-width="1.5"/>
<path d="M162.639 81.4523C162.714 81.2219 163.04 81.2219 163.115 81.4523L168.113 96.8363C168.348 97.5573 169.019 98.0455 169.778 98.0455H185.953C186.196 98.0455 186.296 98.3554 186.1 98.4977L173.014 108.006C172.401 108.451 172.144 109.241 172.378 109.962L177.377 125.346C177.452 125.576 177.188 125.768 176.992 125.626L163.906 116.118C163.292 115.672 162.462 115.672 161.848 116.118L148.762 125.626C148.566 125.768 148.302 125.576 148.377 125.346L153.376 109.962C153.61 109.241 153.353 108.451 152.74 108.006L139.654 98.4977C139.458 98.3554 139.558 98.0455 139.801 98.0455H155.976C156.734 98.0455 157.406 97.5573 157.641 96.8363L162.639 81.4523Z" fill="#7D704E" stroke="#7D704E" stroke-width="1.5"/>
<path d="M152.301 17.4861C152.301 15.4969 154.072 13.9744 156.039 14.273L186.039 18.8276C187.627 19.0688 188.801 20.4342 188.801 22.0408V33.833C188.801 35.6279 187.346 37.083 185.551 37.083H155.551C153.756 37.083 152.301 35.6279 152.301 33.833V17.4861Z" stroke="#7D704E" stroke-width="1.5"/>
<path d="M155.551 36.333V44.833H186.551" stroke="#7D704E" stroke-width="1.5" stroke-linecap="round" stroke-linejoin="round"/>
<ellipse cx="160.051" cy="48.833" rx="3.5" ry="4" fill="#7D704E"/>
<ellipse cx="183.051" cy="48.833" rx="3.5" ry="4" fill="#7D704E"/>
<path d="M154.551 14.833V7.83301H147.551" stroke="#7D704E" stroke-width="1.5" stroke-linecap="round" stroke-linejoin="round"/>
<path d="M169.365 34.1136C168.111 34.1136 167.045 33.8269 166.165 33.2536C165.285 32.6802 164.611 31.8602 164.145 30.7936C163.678 29.7136 163.445 28.4202 163.445 26.9136C163.445 25.4069 163.678 24.1202 164.145 23.0536C164.611 21.9736 165.285 21.1469 166.165 20.5736C167.045 20.0002 168.111 19.7136 169.365 19.7136C170.618 19.7136 171.685 20.0002 172.565 20.5736C173.445 21.1469 174.118 21.9736 174.585 23.0536C175.051 24.1202 175.285 25.4069 175.285 26.9136C175.285 28.4202 175.051 29.7136 174.585 30.7936C174.118 31.8602 173.445 32.6802 172.565 33.2536C171.685 33.8269 170.618 34.1136 169.365 34.1136ZM169.365 31.2136C170.218 31.2136 170.871 30.8402 171.325 30.0936C171.791 29.3469 172.025 28.2869 172.025 26.9136C172.025 25.4869 171.791 24.3936 171.325 23.6336C170.871 22.8736 170.218 22.4936 169.365 22.4936C168.511 22.4936 167.851 22.8736 167.385 23.6336C166.918 24.3936 166.685 25.4869 166.685 26.9136C166.685 28.2869 166.918 29.3469 167.385 30.0936C167.851 30.8402 168.511 31.2136 169.365 31.2136Z" fill="#7D704E"/>
<path d="M213.021 17.4861C213.021 15.4969 214.793 13.9744 216.759 14.273L246.759 18.8276C248.348 19.0688 249.521 20.4342 249.521 22.0408V33.833C249.521 35.6279 248.066 37.083 246.271 37.083H216.271C214.477 37.083 213.021 35.6279 213.021 33.833V17.4861Z" fill="#7D704E" stroke="#7D704E" stroke-width="1.5"/>
<path d="M216.271 36.333V44.833H247.271" stroke="#7D704E" stroke-width="1.5" stroke-linecap="round" stroke-linejoin="round"/>
<ellipse cx="220.771" cy="48.833" rx="3.5" ry="4" fill="#7D704E"/>
<ellipse cx="243.771" cy="48.833" rx="3.5" ry="4" fill="#7D704E"/>
<path d="M215.271 14.833V7.83301H208.271" stroke="#7D704E" stroke-width="1.5" stroke-linecap="round" stroke-linejoin="round"/>
<circle cx="248.771" cy="16.5044" r="8.5" fill="#DA3E3E"/>
<path d="M229.511 33.1738V21.8738L230.271 23.5538L227.291 24.9538L226.691 21.9338L230.691 19.9738H232.871V33.1738H229.511ZM226.971 34.1738V31.1538H235.491V34.1738H226.971Z" fill="white"/>
<rect x="278.021" y="15.9087" width="28.65" height="36.1744" rx="3.25" stroke="#7D704E" stroke-width="1.5"/>
<path d="M286.763 50.74V17.7749" stroke="#7D704E" stroke-width="1.5" stroke-linecap="round"/>
<path d="M297.371 51.2635V18.2983" stroke="#7D704E" stroke-width="1.5" stroke-linecap="round"/>
<rect x="283.721" y="8.58301" width="16.3667" height="8.96512" rx="3.25" stroke="#7D704E" stroke-width="1.5" stroke-linejoin="round"/>
<path d="M275.596 16.7285H309.096" stroke="#7D704E" stroke-width="1.5" stroke-linecap="round"/>
<path d="M262.325 99.265V99.2851L262.326 99.3053C262.701 106.282 266.312 111.572 280.613 124.303L281.111 124.746L281.61 124.303C295.911 111.572 299.521 106.282 299.896 99.3053L299.897 99.2851V99.265C299.897 93.6693 295.556 89.0737 290.129 89.0737C286.047 89.0737 282.579 91.6741 281.111 95.3446C279.643 91.6741 276.175 89.0737 272.093 89.0737C266.666 89.0737 262.325 93.6693 262.325 99.265Z" fill="white" stroke="#7D704E" stroke-width="1.5"/>
<path d="M207.754 99.265V99.2851L207.755 99.3053C208.13 106.282 211.74 111.572 226.041 124.303L226.54 124.746L227.039 124.303C241.34 111.572 244.95 106.282 245.325 99.3053L245.326 99.2851V99.265C245.326 93.6693 240.985 89.0737 235.558 89.0737C231.476 89.0737 228.008 91.6741 226.54 95.3446C225.072 91.6741 221.604 89.0737 217.522 89.0737C212.095 89.0737 207.754 93.6693 207.754 99.265Z" fill="#9B5757" stroke="#9B5757" stroke-width="1.5"/>
<defs>
<clipPath id="clip0_875_912">
<rect x="341.776" y="9.49902" width="60" height="60" rx="10.0383" fill="white"/>
</clipPath>
<clipPath id="clip1_875_912">
<rect width="60" height="60" fill="white" transform="translate(426.776 9.49902)"/>
</clipPath>
</defs>
</svg>
