<svg width="579" height="214" viewBox="0 0 579 214" fill="none" xmlns="http://www.w3.org/2000/svg">
<path d="M51.39 121.772C53.19 121.772 54.09 122.852 54.09 125.012V187.832C54.09 189.992 53.16 191.072 51.3 191.072C50.04 191.072 48.63 190.562 47.07 189.542C45.51 188.462 44.13 187.022 42.93 185.222C41.31 187.142 39.03 188.762 36.09 190.082C33.15 191.342 29.97 191.972 26.55 191.972C19.53 191.972 13.8 189.662 9.36 185.042C4.92 180.362 2.7 174.422 2.7 167.222C2.7 160.142 4.92 154.262 9.36 149.582C13.86 144.842 19.59 142.472 26.55 142.472C31.53 142.472 35.91 143.792 39.69 146.432V139.772C39.69 134.432 40.89 130.112 43.29 126.812C45.75 123.452 48.45 121.772 51.39 121.772ZM20.52 175.772C22.68 177.932 25.35 179.012 28.53 179.012C31.71 179.012 34.35 177.932 36.45 175.772C38.61 173.552 39.69 170.702 39.69 167.222C39.69 163.742 38.61 160.922 36.45 158.762C34.35 156.542 31.71 155.432 28.53 155.432C25.35 155.432 22.68 156.542 20.52 158.762C18.36 160.922 17.28 163.742 17.28 167.222C17.28 170.702 18.36 173.552 20.52 175.772ZM107.284 144.272C109.024 144.272 110.254 144.662 110.974 145.442C111.694 146.162 112.054 147.362 112.054 149.042V187.832C112.054 189.992 111.124 191.072 109.264 191.072C108.004 191.072 106.594 190.562 105.034 189.542C103.474 188.462 102.094 186.992 100.894 185.132C96.9935 189.692 91.9235 191.972 85.6835 191.972C79.7435 191.972 74.8235 190.112 70.9235 186.392C66.5435 182.192 64.3535 175.622 64.3535 166.682V149.042C64.3535 147.302 64.7135 146.072 65.4335 145.352C66.2135 144.632 67.4435 144.272 69.1235 144.272H73.9835C75.6635 144.272 76.8635 144.632 77.5835 145.352C78.3635 146.072 78.7535 147.302 78.7535 149.042V165.332C78.7535 170.372 79.6835 173.852 81.5435 175.772C83.1035 177.452 85.2635 178.292 88.0235 178.292C90.9035 178.292 93.2135 177.332 94.9535 175.412C96.7535 173.432 97.6535 170.222 97.6535 165.782V149.042C97.6535 147.362 98.0135 146.162 98.7335 145.442C99.4535 144.662 100.684 144.272 102.424 144.272H107.284ZM164.303 184.952C159.443 189.632 153.353 191.972 146.033 191.972C138.713 191.972 132.623 189.632 127.763 184.952C122.903 180.272 120.473 174.362 120.473 167.222C120.473 160.022 122.903 154.112 127.763 149.492C132.623 144.812 138.713 142.472 146.033 142.472C153.353 142.472 159.443 144.812 164.303 149.492C169.163 154.112 171.593 160.022 171.593 167.222C171.593 174.362 169.163 180.272 164.303 184.952ZM138.023 175.772C140.003 177.932 142.673 179.012 146.033 179.012C149.393 179.012 152.063 177.932 154.043 175.772C156.023 173.552 157.013 170.702 157.013 167.222C157.013 163.742 156.023 160.922 154.043 158.762C152.063 156.542 149.393 155.432 146.033 155.432C142.673 155.432 140.003 156.542 138.023 158.762C136.043 160.922 135.053 163.742 135.053 167.222C135.053 170.702 136.043 173.552 138.023 175.772ZM184.817 190.172C183.077 190.172 181.847 189.812 181.127 189.092C180.407 188.312 180.047 187.082 180.047 185.402V139.772C180.047 134.432 181.247 130.112 183.647 126.812C186.107 123.452 188.807 121.772 191.747 121.772C193.547 121.772 194.447 122.852 194.447 125.012V185.402C194.447 187.082 194.087 188.312 193.367 189.092C192.647 189.812 191.417 190.172 189.677 190.172H184.817ZM213.175 136.982C210.895 136.982 208.945 136.232 207.325 134.732C205.765 133.172 204.985 131.312 204.985 129.152C204.985 126.932 205.765 125.072 207.325 123.572C208.945 122.072 210.895 121.322 213.175 121.322C215.395 121.322 217.315 122.102 218.935 123.662C220.555 125.162 221.365 126.992 221.365 129.152C221.365 131.312 220.555 133.172 218.935 134.732C217.315 136.232 215.395 136.982 213.175 136.982ZM210.745 190.172C209.065 190.172 207.835 189.812 207.055 189.092C206.335 188.372 205.975 187.142 205.975 185.402V149.042C205.975 147.302 206.335 146.072 207.055 145.352C207.835 144.632 209.065 144.272 210.745 144.272H215.605C217.285 144.272 218.485 144.632 219.205 145.352C219.985 146.072 220.375 147.302 220.375 149.042V185.402C220.375 187.142 219.985 188.372 219.205 189.092C218.485 189.812 217.285 190.172 215.605 190.172H210.745ZM275.013 149.132C278.673 153.392 280.503 159.722 280.503 168.122V185.402C280.503 187.142 280.113 188.372 279.333 189.092C278.613 189.812 277.413 190.172 275.733 190.172H270.873C269.193 190.172 267.963 189.812 267.183 189.092C266.463 188.372 266.103 187.142 266.103 185.402V168.572C266.103 164.312 265.353 161.222 263.853 159.302C262.233 157.202 259.803 156.152 256.563 156.152C253.323 156.152 250.803 157.202 249.003 159.302C247.203 161.402 246.303 164.462 246.303 168.482V185.402C246.303 187.082 245.943 188.312 245.223 189.092C244.503 189.812 243.273 190.172 241.533 190.172H236.673C234.933 190.172 233.703 189.812 232.983 189.092C232.263 188.312 231.903 187.082 231.903 185.402V146.612C231.903 144.452 232.833 143.372 234.693 143.372C236.013 143.372 237.453 143.912 239.013 144.992C240.573 146.012 241.953 147.482 243.153 149.402C245.013 147.182 247.323 145.472 250.083 144.272C252.903 143.072 255.783 142.472 258.723 142.472C265.683 142.472 271.113 144.692 275.013 149.132ZM312.029 213.122C304.469 213.122 298.379 211.232 293.759 207.452C289.139 203.672 286.829 198.662 286.829 192.422C286.829 189.002 287.699 185.762 289.439 182.702C291.179 179.582 293.519 177.272 296.459 175.772C291.719 171.872 289.349 167.252 289.349 161.912C289.349 156.392 291.359 151.862 295.379 148.322C299.399 144.722 304.709 142.922 311.309 142.922C314.249 142.922 317.129 143.162 319.949 143.642C322.829 144.062 324.899 144.272 326.159 144.272C329.039 144.272 331.979 143.462 334.979 141.842C336.119 141.242 337.079 140.942 337.859 140.942C339.719 140.942 340.649 142.292 340.649 144.992C340.649 150.392 338.219 153.962 333.359 155.702C334.259 157.562 334.709 159.632 334.709 161.912C334.709 167.072 332.339 171.692 327.599 175.772C330.539 177.212 332.879 179.492 334.619 182.612C336.359 185.672 337.229 188.942 337.229 192.422C337.229 198.662 334.919 203.672 330.299 207.452C325.739 211.232 319.649 213.122 312.029 213.122ZM305.729 168.752C307.469 170.372 309.569 171.182 312.029 171.182C314.489 171.182 316.559 170.372 318.239 168.752C319.979 167.072 320.849 165.062 320.849 162.722C320.849 160.202 320.039 158.162 318.419 156.602C316.799 155.042 314.669 154.262 312.029 154.262C309.389 154.262 307.259 155.042 305.639 156.602C304.019 158.162 303.209 160.202 303.209 162.722C303.209 165.062 304.049 167.072 305.729 168.752ZM312.029 201.422C315.089 201.422 317.669 200.492 319.769 198.632C321.929 196.832 323.009 194.612 323.009 191.972C323.009 189.152 321.989 186.872 319.949 185.132C317.969 183.392 315.329 182.522 312.029 182.522C308.729 182.522 306.059 183.392 304.019 185.132C302.039 186.872 301.049 189.152 301.049 191.972C301.049 194.612 302.099 196.832 304.199 198.632C306.299 200.492 308.909 201.422 312.029 201.422ZM386.755 184.952C381.895 189.632 375.805 191.972 368.485 191.972C361.165 191.972 355.075 189.632 350.215 184.952C345.355 180.272 342.925 174.362 342.925 167.222C342.925 160.022 345.355 154.112 350.215 149.492C355.075 144.812 361.165 142.472 368.485 142.472C375.805 142.472 381.895 144.812 386.755 149.492C391.615 154.112 394.045 160.022 394.045 167.222C394.045 174.362 391.615 180.272 386.755 184.952ZM360.475 175.772C362.455 177.932 365.125 179.012 368.485 179.012C371.845 179.012 374.515 177.932 376.495 175.772C378.475 173.552 379.465 170.702 379.465 167.222C379.465 163.742 378.475 160.922 376.495 158.762C374.515 156.542 371.845 155.432 368.485 155.432C365.125 155.432 362.455 156.542 360.475 158.762C358.495 160.922 357.505 163.742 357.505 167.222C357.505 170.702 358.495 173.552 360.475 175.772Z" fill="#58CC02"/>
<path d="M436.319 172.808C438.299 168.754 442.896 167.099 446.654 169.179L457.403 174.984C461.161 177.066 462.657 181.979 460.677 186.032C458.696 190.085 454.099 191.741 450.341 189.659L439.593 183.854C435.835 181.774 434.338 176.861 436.319 172.808Z" fill="#F49000"/>
<path d="M565.066 133.426C561.508 131.16 556.757 132.405 554.605 136.245L548.182 147.367C546.031 151.207 547.142 156.291 550.699 158.558C554.257 160.824 559.01 159.579 561.161 155.739L567.585 144.617C569.736 140.777 568.625 135.693 565.066 133.426Z" fill="#F49000"/>
<path d="M572.661 39.3738C571.735 34.3034 566.51 31.9121 562.41 34.406L535.835 50.8224L529.199 24.9203C528.481 22.066 527.362 19.5818 525.672 17.2549C518.713 8.13243 506.14 6.79188 497.575 14.153C484.821 25.2017 475.574 31.7117 470.05 33.2989C464.512 35.0852 453.347 34.8501 436.741 32.6078C434.161 32.2149 431.537 32.4185 428.852 33.4181C418.176 36.6204 412.079 48.367 414.952 59.7845L421.759 85.8993L390.925 86.9937C386.247 87.2439 382.88 92.3932 384.576 97.1211C392.006 119.882 412.308 135.003 435.454 134.534C447.82 161.065 476.381 175.404 504.229 166.884C532.077 158.365 549.678 129.875 547.431 100.1C567.207 87.3766 577.037 63.1063 572.661 39.3738Z" fill="#58CC02"/>
<path d="M531.984 64.9375L528.236 50.2541C525.755 41.0664 518.587 34.7289 510.307 33.3095C509.514 31.4498 508.35 29.5623 506.972 28.0589C506.29 27.2077 504.592 27.4808 503.932 28.8317L501.506 33.8514L501.321 33.8375C500.603 30.9832 499.328 28.0873 497.068 25.9178C496.401 24.8677 494.688 25.3397 494.028 26.6906L482.946 50.2671C478.837 55.361 471.786 57.4342 465.804 55.1863L445.198 41.6423C444.145 40.7634 442.988 41.277 442.499 42.8408C441.705 45.9821 442.023 49.2066 442.911 52.2737L442.726 52.2598L437.93 49.1005C436.692 48.2077 435.15 48.8925 434.846 50.47C434.297 52.8296 434.303 55.2306 434.681 57.6593C429.015 63.637 426.307 72.4365 428.632 81.2122L432.38 95.8958C435.72 108.548 447.862 115.658 459.68 112.141L461.393 111.669C470.171 108.925 476.171 100.972 477.412 91.8625C484.277 89.7754 489.045 88.3316 492.099 87.3599C497.554 94.1692 506.442 97.4347 515.02 94.8756L516.548 94.3898C528.381 90.6738 535.138 77.5762 531.984 64.9375Z" fill="#89E219"/>
<path d="M481.308 77.1501C485.69 75.8774 490.33 78.625 491.656 83.3251L495.433 97.6109C496.573 102.297 493.962 107.303 489.566 108.775C485.184 110.047 480.544 107.299 479.218 102.599L475.441 88.3137C474.315 83.4284 476.926 78.4226 481.308 77.1501Z" fill="#F49000"/>
<path d="M482.181 80.4167C485.621 79.2737 489.179 81.5403 490.209 85.2181L492.66 94.8035C493.69 98.4813 491.539 102.321 488.099 103.464C484.658 104.607 481.1 102.341 480.071 98.663L477.62 89.0774C476.775 85.4135 478.741 81.5597 482.181 80.4167Z" fill="#B66E28"/>
<path d="M472.119 87.8655C471.624 82.0273 475.206 76.4939 481.13 74.5365C486.283 72.9214 492.221 75.7662 494.443 80.9335L494.584 81.5442L483.914 87.1475L472.26 88.4763L472.119 87.8655Z" fill="#FFC200"/>
<path d="M478.957 81.175C478.4 81.1334 478.045 80.9068 477.704 80.4812C477.207 79.6438 477.282 78.6492 478.083 77.9089C479.87 76.4423 481.953 75.998 484.177 76.1644C485.104 76.2337 485.786 77.0848 485.711 78.0795C485.637 79.0742 484.836 79.8145 483.909 79.7452C482.427 79.6343 481.285 79.9488 480.098 80.8604C479.713 81.0316 479.327 81.2027 478.957 81.175Z" fill="#FFDE00"/>
<path d="M524.118 62.9486L522.089 55.1952C519.793 46.0214 510.698 40.5401 502.104 43.2981C493.511 46.0562 488.319 55.6699 490.8 64.8576L493.407 74.8547C494.126 77.709 495.615 80.2211 497.32 82.349C506.885 74.0624 515.932 67.7376 524.118 62.9486Z" fill="white"/>
<path d="M469.472 90.8681C470.051 88.1106 470.088 85.1129 469.185 82.2447L466.578 72.2474C464.282 63.0738 455.187 57.5923 446.594 60.3504C438 63.1083 432.808 72.7222 435.29 81.9099L437.334 89.4644C446.519 88.7512 457.499 88.9722 469.472 90.8681Z" fill="white"/>
<path d="M448.543 89.1028C452.821 89.2227 457.469 89.3703 462.273 89.9298C463.348 88.0097 463.697 85.8354 463.12 83.5917L460.965 75.0286C459.809 70.5412 455.525 68.0202 451.514 69.3206C450.372 69.6353 449.401 70.1627 448.6 70.903C449.852 71.5968 450.705 72.6608 451.142 74.2939C451.86 77.1482 450.34 80.0351 447.67 80.8356C447.285 81.0069 446.914 80.9792 446.544 80.9515L448.247 88.0804C448.402 88.4921 448.573 88.7049 448.543 89.1028Z" fill="#122431"/>
<path d="M502.881 77.7643C506.655 74.646 510.4 71.9253 513.945 69.3898C513.974 68.992 513.834 68.3813 513.678 67.9696L511.523 59.4066C510.367 54.9191 506.083 52.3981 502.072 53.6985C500.73 54.1982 499.558 54.9108 498.743 55.85C499.81 56.5299 500.662 57.5939 500.929 59.0141C501.647 61.8686 500.127 64.7555 497.458 65.556C497.272 65.5421 497.272 65.5421 497.087 65.5283L498.805 72.4583C499.368 74.9009 500.902 76.8161 502.881 77.7643Z" fill="#122431"/>
<path d="M473.457 129.775L487.759 125.444C488.516 125.3 489.227 125.754 489.168 126.549C488.87 130.528 486.193 133.929 482.382 135.044C478.571 136.159 474.568 134.859 472.582 131.51C472.256 130.886 472.701 129.919 473.457 129.775Z" fill="#89E219"/>
<path d="M498.45 122.042L512.753 117.711C513.509 117.567 514.22 118.021 514.161 118.817C513.863 122.795 511.186 126.196 507.375 127.311C503.564 128.426 499.561 127.127 497.575 123.777C497.435 123.167 497.694 122.186 498.45 122.042Z" fill="#89E219"/>
<path d="M489.372 138.767L503.674 134.436C504.43 134.292 505.142 134.745 505.082 135.541C504.785 139.52 502.107 142.92 498.296 144.036C494.486 145.151 490.483 143.851 488.497 140.502C488.171 139.877 488.601 139.109 489.372 138.767Z" fill="#89E219"/>
</svg>
