<svg width="198" height="195" viewBox="0 0 198 195" fill="none" xmlns="http://www.w3.org/2000/svg">
<path d="M12.9831 123.553C7.85532 120.444 8.28749 112.978 13.6147 110.224L49.2638 91.7934C54.7621 88.9508 61.2454 93.248 60.7692 99.4193L57.9732 135.65C41.2753 136.073 32.0787 135.134 12.9831 123.553Z" fill="#58CC02"/>
<path d="M172.014 123.713C177.979 123.089 180.773 116.153 177.131 111.389L144.14 68.2445L126.164 115.456C141.085 122.964 149.803 126.038 172.014 123.713Z" fill="#58CC02"/>
<path d="M32.726 61.0834C28.915 46.4527 40.6933 32.4407 55.7614 33.6796L90.6568 36.5488C96.9153 37.0634 103.094 34.8722 107.631 30.5298L109.536 28.7063C121.73 17.033 142.015 23.725 144.869 40.363L153.662 91.6218C155.317 101.272 155.791 111.3 152.526 120.53C140.432 154.716 108.582 165.906 79.4085 157.817C60.4269 152.554 50.1922 133.504 45.8026 114.302L40.1684 89.6549L32.726 61.0834Z" fill="#58CC02"/>
<path d="M150.488 73.9304L147.854 59.0074C146.3 50.9443 145.496 43.5349 138.261 41.6813C137.689 40.0269 136.791 38.3202 135.675 36.926C135.131 36.1441 133.608 36.2475 132.929 37.3541L130.429 41.4683L130.265 41.4421C129.829 38.9412 128.904 36.3619 127.053 34.3291C126.536 33.378 124.986 33.6506 124.307 34.7573L112.839 54.1046C108.842 58.1528 102.452 59.3864 97.311 57L80.0091 43.8094C79.1384 42.9753 78.0779 43.3262 77.5346 44.6284C76.6111 47.2588 76.6666 50.046 77.2389 52.7423L77.0757 52.7162L73.0495 49.6401C72.0156 48.7799 70.6016 49.2479 70.2215 50.5761C69.5696 52.5555 69.4073 54.6132 69.5715 56.7232C64.1344 61.4088 61.1188 68.7397 62.5634 76.4378L64.8533 89.3072C66.9249 100.405 77.1806 107.431 87.8947 105.327L89.4447 105.055C97.4124 103.379 103.284 97.027 105.021 89.3176C111.248 88.0579 115.572 87.1878 118.346 86.5903C122.7 92.8444 130.343 96.3264 138.12 94.7941L139.507 94.4954C150.248 92.2223 152.396 85.0021 150.488 73.9304Z" fill="#89E219"/>
<path d="M146.241 70.6176L144.886 63.2015C143.374 54.4304 135.819 48.9314 128.279 51.2578C120.74 53.5843 117.542 60.8798 119.214 69.6703L121.847 78.887C122.725 81.9598 123.998 81.2025 125.358 83.2762C134.015 75.7426 138.95 74.8825 146.241 70.6176Z" fill="white"/>
<path d="M101.353 89.8778C102.267 87.4719 102.681 84.7684 102.157 82.0421L100.863 72.6202C99.7699 63.9888 91.5572 57.6842 82.7992 58.9003C74.0411 60.1163 68.3438 68.0213 69.6166 76.6929L70.9333 84.593C80.7383 83.1319 90.8966 83.3064 101.353 89.8778Z" fill="white"/>
<path fill-rule="evenodd" clip-rule="evenodd" d="M81.8657 65.0471C82.5815 64.6274 83.415 64.3867 84.3047 64.3867C86.9711 64.3867 89.1327 66.5483 89.1327 69.2148C89.1327 71.104 88.0476 72.7398 86.4666 73.5329L88.3909 75.91C90.4518 78.4557 94.1861 78.8488 96.7318 76.7879C99.2775 74.7271 99.6706 70.9927 97.6097 68.447L92.369 61.9734C90.3082 59.4277 86.5738 59.0346 84.0281 61.0954C82.7657 62.1175 82.0326 63.5511 81.8657 65.0471Z" fill="#4B4B4B"/>
<path fill-rule="evenodd" clip-rule="evenodd" d="M126.692 57.114C127.395 56.7146 128.208 56.4865 129.074 56.4865C131.74 56.4865 133.902 58.6481 133.902 61.3146C133.902 62.8787 133.158 64.2691 132.005 65.1514L133.267 66.5568C135.455 68.9937 139.205 69.195 141.642 67.0066C144.079 64.8181 144.28 61.0685 142.092 58.6317L137.033 52.9987C134.844 50.5619 131.095 50.3605 128.658 52.549C127.314 53.7563 126.65 55.4389 126.692 57.114Z" fill="#4B4B4B"/>
<ellipse cx="138.208" cy="57.0048" rx="2.43183" ry="6.6902" transform="rotate(-42.4017 138.208 57.0048)" fill="#4B4B4B"/>
<ellipse cx="94.2335" cy="66.4539" rx="2.32614" ry="6.6902" transform="rotate(-37.5851 94.2335 66.4539)" fill="#4B4B4B"/>
<path d="M104.376 122.643L116.083 120.413C116.695 120.362 117.221 120.782 117.107 121.408C116.536 124.538 114.126 127.009 111.01 127.573C107.894 128.136 104.829 126.768 103.536 123.945C103.33 123.422 103.765 122.693 104.376 122.643Z" fill="#89E219"/>
<path d="M124.848 118.616L136.555 116.385C137.167 116.335 137.693 116.755 137.579 117.381C137.008 120.511 134.598 122.982 131.482 123.546C128.366 124.109 125.301 122.741 124.008 119.918C123.948 119.422 124.236 118.666 124.848 118.616Z" fill="#89E219"/>
<path d="M116.24 131.115L127.947 128.884C128.558 128.834 129.085 129.254 128.97 129.88C128.399 133.01 125.99 135.481 122.874 136.045C119.757 136.608 116.692 135.24 115.399 132.417C115.193 131.894 115.599 131.321 116.24 131.115Z" fill="#89E219"/>
<rect x="77.4766" y="169.182" width="14.1066" height="26.3348" rx="7.05332" transform="rotate(-41.2475 77.4766 169.182)" fill="#F49000"/>
<rect x="102.335" y="186.556" width="14.1066" height="26.3348" rx="7.05332" transform="rotate(-90 102.335 186.556)" fill="#B66E28"/>
<rect x="52.8975" y="186.216" width="94.8054" height="8.77828" rx="4.38914" fill="#E5E5E5"/>
<path d="M120.49 91.4463C120.49 96.7792 117.346 101.102 113.467 101.102C109.589 101.102 106.445 96.7792 106.445 91.4463C106.445 86.1134 107.323 82.2289 113.467 81.7902C120.472 81.2901 120.49 86.1134 120.49 91.4463Z" fill="#F49000"/>
<path d="M117.857 91.4105C117.857 94.3194 116.088 95.7997 113.906 95.7997C111.725 95.7997 109.956 94.3194 109.956 91.4105C109.956 88.5017 111.725 86.1436 113.906 86.1436C116.088 86.1436 117.857 88.5017 117.857 91.4105Z" fill="#B66E28"/>
<path d="M126.755 86.5825C124.999 88.3382 123.159 89.216 117.099 89.216C108.759 89.6549 104.809 90.9717 105.687 87.4604C105.687 82.3698 110.6 78.2432 116.66 78.2432C122.72 78.2432 126.755 81.492 126.755 86.5825Z" fill="#FFC200"/>
<path d="M120.49 80.8765C120.49 81.8461 118.525 82.6322 116.101 82.6322C113.677 82.6322 111.711 82.1973 111.711 81.2276C111.711 80.258 113.677 79.1208 116.101 79.1208C118.525 79.1208 120.49 79.9069 120.49 80.8765Z" fill="#FFDE00"/>
<circle cx="167.454" cy="30.1978" r="5.70588" fill="#84D8FF"/>
<circle cx="184.133" cy="33.7093" r="5.70588" fill="#84D8FF"/>
<path d="M171.823 16.0263C171.918 15.5508 172.38 15.2418 172.855 15.3361L175.645 15.8897L172.788 30.2894L169.137 29.565L171.823 16.0263Z" fill="#84D8FF"/>
<circle cx="150.842" cy="13.6559" r="3.13974" fill="#84D8FF"/>
<path d="M153.247 5.85734C153.299 5.59567 153.553 5.42564 153.815 5.47756L155.35 5.78216L153.777 13.7058L151.769 13.3072L153.247 5.85734Z" fill="#84D8FF"/>
<path d="M187.347 19.2169C187.414 18.7367 187.857 18.4015 188.337 18.4681L191.154 18.8592L189.136 33.4002L185.449 32.8884L187.347 19.2169Z" fill="#84D8FF"/>
<path d="M172.594 12.3791C172.764 11.4243 173.675 10.7877 174.63 10.957L190.508 13.773C191.463 13.9423 192.099 14.8535 191.93 15.8082L190.856 21.8653L171.52 18.4361L172.594 12.3791Z" fill="#84D8FF"/>
<rect x="153.629" y="5.38354" width="5.26697" height="2.63348" rx="0.877828" transform="rotate(14.4966 153.629 5.38354)" fill="#84D8FF"/>
</svg>
