<svg width="392" height="93" viewBox="0 0 392 93" fill="none" xmlns="http://www.w3.org/2000/svg">
<path d="M48.7084 1.37905C50.5084 1.37905 51.4084 2.45905 51.4084 4.61905V67.4391C51.4084 69.5991 50.4784 70.6791 48.6184 70.6791C47.3584 70.6791 45.9484 70.1691 44.3884 69.1491C42.8284 68.0691 41.4484 66.6291 40.2484 64.8291C38.6284 66.7491 36.3484 68.3691 33.4084 69.6891C30.4684 70.9491 27.2884 71.5791 23.8684 71.5791C16.8484 71.5791 11.1184 69.2691 6.67836 64.6491C2.23836 59.9691 0.0183595 54.0291 0.0183595 46.8291C0.0183595 39.7491 2.23836 33.8691 6.67836 29.189C11.1784 24.449 16.9084 22.079 23.8684 22.079C28.8484 22.079 33.2284 23.399 37.0084 26.039V19.3791C37.0084 14.039 38.2084 9.71905 40.6084 6.41905C43.0684 3.05905 45.7684 1.37905 48.7084 1.37905ZM17.8384 55.3791C19.9984 57.5391 22.6684 58.6191 25.8484 58.6191C29.0284 58.6191 31.6684 57.5391 33.7684 55.3791C35.9284 53.1591 37.0084 50.3091 37.0084 46.8291C37.0084 43.3491 35.9284 40.5291 33.7684 38.3691C31.6684 36.1491 29.0284 35.0391 25.8484 35.0391C22.6684 35.0391 19.9984 36.1491 17.8384 38.3691C15.6784 40.5291 14.5984 43.3491 14.5984 46.8291C14.5984 50.3091 15.6784 53.1591 17.8384 55.3791ZM104.602 23.879C106.342 23.879 107.572 24.269 108.292 25.0491C109.012 25.7691 109.372 26.9691 109.372 28.6491V67.4391C109.372 69.5991 108.442 70.6791 106.582 70.6791C105.322 70.6791 103.912 70.1691 102.352 69.1491C100.792 68.0691 99.4119 66.5991 98.2119 64.7391C94.3119 69.2991 89.2419 71.5791 83.0019 71.5791C77.0619 71.5791 72.1419 69.7191 68.2419 65.9991C63.8619 61.7991 61.6719 55.2291 61.6719 46.2891V28.6491C61.6719 26.9091 62.0319 25.6791 62.7519 24.9591C63.5319 24.239 64.7619 23.879 66.4419 23.879H71.3019C72.9819 23.879 74.1819 24.239 74.9019 24.9591C75.6819 25.6791 76.0719 26.9091 76.0719 28.6491V44.9391C76.0719 49.9791 77.0019 53.4591 78.8619 55.3791C80.4219 57.0591 82.5819 57.8991 85.3419 57.8991C88.2219 57.8991 90.5319 56.9391 92.2719 55.0191C94.0719 53.0391 94.9719 49.8291 94.9719 45.3891V28.6491C94.9719 26.9691 95.3319 25.7691 96.0519 25.0491C96.7719 24.269 98.0019 23.879 99.7419 23.879H104.602ZM161.622 64.5591C156.762 69.2391 150.672 71.5791 143.352 71.5791C136.032 71.5791 129.942 69.2391 125.082 64.5591C120.222 59.8791 117.792 53.9691 117.792 46.8291C117.792 39.6291 120.222 33.7191 125.082 29.0991C129.942 24.4191 136.032 22.079 143.352 22.079C150.672 22.079 156.762 24.4191 161.622 29.0991C166.482 33.7191 168.912 39.6291 168.912 46.8291C168.912 53.9691 166.482 59.8791 161.622 64.5591ZM135.342 55.3791C137.322 57.5391 139.992 58.6191 143.352 58.6191C146.712 58.6191 149.382 57.5391 151.362 55.3791C153.342 53.1591 154.332 50.3091 154.332 46.8291C154.332 43.3491 153.342 40.5291 151.362 38.3691C149.382 36.1491 146.712 35.0391 143.352 35.0391C139.992 35.0391 137.322 36.1491 135.342 38.3691C133.362 40.5291 132.372 43.3491 132.372 46.8291C132.372 50.3091 133.362 53.1591 135.342 55.3791ZM182.135 69.7791C180.395 69.7791 179.165 69.4191 178.445 68.6991C177.725 67.9191 177.365 66.6891 177.365 65.0091V19.3791C177.365 14.039 178.565 9.71905 180.965 6.41905C183.425 3.05905 186.125 1.37905 189.065 1.37905C190.865 1.37905 191.765 2.45905 191.765 4.61905V65.0091C191.765 66.6891 191.405 67.9191 190.685 68.6991C189.965 69.4191 188.735 69.7791 186.995 69.7791H182.135ZM210.493 16.5891C208.213 16.5891 206.263 15.839 204.643 14.339C203.083 12.779 202.303 10.9191 202.303 8.75905C202.303 6.53905 203.083 4.67905 204.643 3.17905C206.263 1.67905 208.213 0.929049 210.493 0.929049C212.713 0.929049 214.633 1.70905 216.253 3.26905C217.873 4.76905 218.683 6.59905 218.683 8.75905C218.683 10.9191 217.873 12.779 216.253 14.339C214.633 15.839 212.713 16.5891 210.493 16.5891ZM208.063 69.7791C206.383 69.7791 205.153 69.4191 204.373 68.6991C203.653 67.9791 203.293 66.7491 203.293 65.0091V28.6491C203.293 26.9091 203.653 25.6791 204.373 24.9591C205.153 24.239 206.383 23.879 208.063 23.879H212.923C214.603 23.879 215.803 24.239 216.523 24.9591C217.303 25.6791 217.693 26.9091 217.693 28.6491V65.0091C217.693 66.7491 217.303 67.9791 216.523 68.6991C215.803 69.4191 214.603 69.7791 212.923 69.7791H208.063ZM272.331 28.7391C275.991 32.9991 277.821 39.3291 277.821 47.7291V65.0091C277.821 66.7491 277.431 67.9791 276.651 68.6991C275.931 69.4191 274.731 69.7791 273.051 69.7791H268.191C266.511 69.7791 265.281 69.4191 264.501 68.6991C263.781 67.9791 263.421 66.7491 263.421 65.0091V48.1791C263.421 43.9191 262.671 40.8291 261.171 38.9091C259.551 36.8091 257.121 35.7591 253.881 35.7591C250.641 35.7591 248.121 36.8091 246.321 38.9091C244.521 41.0091 243.621 44.0691 243.621 48.0891V65.0091C243.621 66.6891 243.261 67.9191 242.541 68.6991C241.821 69.4191 240.591 69.7791 238.851 69.7791H233.991C232.251 69.7791 231.021 69.4191 230.301 68.6991C229.581 67.9191 229.221 66.6891 229.221 65.0091V26.2191C229.221 24.059 230.151 22.979 232.011 22.979C233.331 22.979 234.771 23.519 236.331 24.599C237.891 25.6191 239.271 27.0891 240.471 29.0091C242.331 26.7891 244.641 25.0791 247.401 23.879C250.221 22.679 253.101 22.079 256.041 22.079C263.001 22.079 268.431 24.299 272.331 28.7391ZM309.348 92.7291C301.788 92.7291 295.698 90.8391 291.078 87.0591C286.458 83.2791 284.148 78.2691 284.148 72.0291C284.148 68.6091 285.018 65.3691 286.758 62.3091C288.498 59.1891 290.838 56.8791 293.778 55.3791C289.038 51.4791 286.668 46.8591 286.668 41.5191C286.668 35.9991 288.678 31.4691 292.698 27.929C296.718 24.329 302.028 22.529 308.628 22.529C311.568 22.529 314.448 22.7691 317.268 23.2491C320.148 23.669 322.218 23.879 323.478 23.879C326.358 23.879 329.298 23.069 332.298 21.4491C333.438 20.849 334.398 20.549 335.178 20.549C337.038 20.549 337.968 21.899 337.968 24.599C337.968 29.999 335.538 33.5691 330.678 35.3091C331.578 37.1691 332.028 39.2391 332.028 41.5191C332.028 46.6791 329.658 51.2991 324.918 55.3791C327.858 56.8191 330.198 59.0991 331.938 62.2191C333.678 65.2791 334.548 68.5491 334.548 72.0291C334.548 78.2691 332.238 83.2791 327.618 87.0591C323.058 90.8391 316.968 92.7291 309.348 92.7291ZM303.048 48.3591C304.788 49.9791 306.888 50.7891 309.348 50.7891C311.808 50.7891 313.878 49.9791 315.558 48.3591C317.298 46.6791 318.168 44.6691 318.168 42.3291C318.168 39.8091 317.358 37.7691 315.738 36.2091C314.118 34.6491 311.988 33.8691 309.348 33.8691C306.708 33.8691 304.578 34.6491 302.958 36.2091C301.338 37.7691 300.528 39.8091 300.528 42.3291C300.528 44.6691 301.368 46.6791 303.048 48.3591ZM309.348 81.0291C312.408 81.0291 314.988 80.0991 317.088 78.2391C319.248 76.4391 320.328 74.2191 320.328 71.5791C320.328 68.7591 319.308 66.4791 317.268 64.7391C315.288 62.9991 312.648 62.1291 309.348 62.1291C306.048 62.1291 303.378 62.9991 301.338 64.7391C299.358 66.4791 298.368 68.7591 298.368 71.5791C298.368 74.2191 299.418 76.4391 301.518 78.2391C303.618 80.0991 306.228 81.0291 309.348 81.0291ZM384.073 64.5591C379.213 69.2391 373.123 71.5791 365.803 71.5791C358.483 71.5791 352.393 69.2391 347.533 64.5591C342.673 59.8791 340.243 53.9691 340.243 46.8291C340.243 39.6291 342.673 33.7191 347.533 29.0991C352.393 24.4191 358.483 22.079 365.803 22.079C373.123 22.079 379.213 24.4191 384.073 29.0991C388.933 33.7191 391.363 39.6291 391.363 46.8291C391.363 53.9691 388.933 59.8791 384.073 64.5591ZM357.793 55.3791C359.773 57.5391 362.443 58.6191 365.803 58.6191C369.163 58.6191 371.833 57.5391 373.813 55.3791C375.793 53.1591 376.783 50.3091 376.783 46.8291C376.783 43.3491 375.793 40.5291 373.813 38.3691C371.833 36.1491 369.163 35.0391 365.803 35.0391C362.443 35.0391 359.773 36.1491 357.793 38.3691C355.813 40.5291 354.823 43.3491 354.823 46.8291C354.823 50.3091 355.813 53.1591 357.793 55.3791Z" fill="#58CC02"/>
</svg>
