<svg width="253" height="236" viewBox="0 0 253 236" fill="none" xmlns="http://www.w3.org/2000/svg">
<path d="M54.4243 159.517C47.7144 160.889 42.2845 154.297 44.6122 147.856L60.1892 104.752C62.5917 98.1038 71.359 96.6751 75.7478 102.217L101.513 134.749C87.8478 148.058 79.4118 154.406 54.4243 159.517Z" fill="#58CC02"/>
<rect x="75.5879" y="184.729" width="94.8054" height="8.77828" rx="4.38914" fill="#E5E5E5"/>
<path d="M189.854 161.801C196.564 163.173 201.994 156.581 199.667 150.14L184.09 107.036C181.687 100.388 172.92 98.9595 168.531 104.501L142.765 137.033C156.431 150.343 164.867 156.691 189.854 161.801Z" fill="#58CC02"/>
<path d="M108.208 177.898C108.328 182.018 105.314 185.311 101.389 185.226L90.2275 185.098C86.3025 185.011 83.0042 181.673 82.8837 177.552C82.7632 173.432 85.778 170.138 89.703 170.226L100.865 170.353C104.789 170.439 108.087 173.777 108.208 177.898Z" fill="#F49000"/>
<path d="M164.59 177.898C164.711 182.018 161.696 185.311 157.772 185.226L146.61 185.098C142.685 185.011 139.387 181.673 139.266 177.552C139.146 173.432 142.16 170.138 146.085 170.226L157.247 170.353C161.171 170.439 164.47 173.777 164.59 177.898Z" fill="#F49000"/>
<path d="M178.425 56.892L177.825 81.3181L175.777 127.532C170.355 154.273 148.074 169.184 121.469 169.756C94.8643 170.329 73.0365 156.391 68.7543 129.988L68.7959 83.8184L69.2996 59.1631C69.6097 48.4092 77.8899 39.5948 88.0739 39.4316C90.6825 39.2195 93.0409 39.6925 95.2119 40.6791C109.257 46.777 119.017 49.7578 124.331 49.5632C129.582 49.5399 139.331 46.1128 153.292 39.5663C162.652 35.2213 173.375 39.5242 177.228 49.2752C178.136 51.7411 178.503 54.2038 178.425 56.892Z" fill="#58CC02"/>
<path d="M170.93 92.7729L171.284 78.9299C171.384 70.2341 166.656 62.8804 159.727 59.5747C159.492 57.7423 158.938 55.7936 158.099 54.129C157.711 53.211 156.151 53.0294 155.234 54.0533L151.854 57.8646L151.695 57.8064C151.772 55.118 151.371 52.2548 149.922 49.7853C149.597 48.6962 147.973 48.6857 147.057 49.7096L131.454 67.688C126.575 71.1465 119.86 71.2176 115.158 67.7545L100.403 50.7246C99.6959 49.6901 98.5511 49.8543 97.732 51.1078C96.2532 53.6728 95.7315 56.5873 95.7511 59.5052L95.5916 59.4469L92.1594 55.4771C91.2927 54.3845 89.7663 54.6035 89.1067 55.9151C88.0375 57.8535 87.4469 59.9665 87.1754 62.196C80.708 66.0447 76.1401 73.1096 76.0045 81.4044L75.6514 95.2476C75.4448 107.204 84.3552 116.472 95.6214 116.316L97.2447 116.327C105.646 116.095 112.898 110.592 116.252 102.89C122.808 102.761 127.359 102.675 130.287 102.58C133.391 109.923 140.396 115.003 148.575 114.884L150.039 114.836C161.367 114.509 170.564 104.671 170.93 92.7729Z" fill="#89E219"/>
<path d="M115.013 99.3218C115.013 94.9156 118.585 91.3438 122.991 91.3438C127.397 91.3438 130.969 94.9156 130.969 99.3218V100.319C130.969 104.725 127.397 108.297 122.991 108.297C118.585 108.297 115.013 104.725 115.013 100.319V99.3218Z" fill="#F49000"/>
<path d="M112.592 98.1846C112.592 98.1019 112.599 98.0191 112.616 97.938C113.677 92.7419 118.176 88.8258 123.827 88.5784C128.76 88.4385 133.274 92.4154 133.945 97.5116L133.945 100.641C133.945 101.445 133.222 102.056 132.43 101.923L123.361 100.396C123.216 100.372 123.069 100.372 122.924 100.397L114.112 101.916C113.318 102.053 112.592 101.441 112.592 100.635L112.592 98.1846Z" fill="#FFC200"/>
<path d="M120.267 93.8761C119.788 93.7014 119.531 93.4137 119.337 92.9548C119.109 92.0951 119.421 91.239 120.31 90.7869C122.246 89.9413 124.188 90.0683 126.102 90.7672C126.9 91.0584 127.288 91.9762 126.975 92.8325C126.663 93.6886 125.775 94.1406 124.977 93.8494C123.701 93.3835 122.619 93.3764 121.349 93.8832C120.967 93.9379 120.586 93.9926 120.267 93.8761Z" fill="#FFDE00"/>
<path d="M164.508 89.0696L164.65 81.7474C164.91 73.11 158.275 66.0302 150.033 66.3202C141.791 66.6104 134.837 73.7741 134.736 82.4698L134.544 91.9086C134.467 94.597 135.152 97.1761 136.122 99.4708C146.593 94.5608 156.12 91.2468 164.508 89.0696Z" fill="white"/>
<path d="M109.518 100.043C110.712 97.7625 111.491 95.1358 111.408 92.3891L111.6 82.9502C111.861 74.313 105.225 67.233 96.9831 67.5231C88.7414 67.8132 81.787 74.9771 81.686 83.6728L81.6064 90.8237C89.8611 92.4789 99.4611 95.4014 109.518 100.043Z" fill="white"/>
<path d="M91.5531 93.2905C95.2849 94.4589 99.3357 95.7436 103.421 97.4292C104.844 96.008 105.691 94.1827 105.74 92.0662L105.973 84.0008C106.072 79.7677 102.931 76.4863 99.0806 76.6332C97.9984 76.6262 97.0132 76.8486 96.1251 77.3007C97.0542 78.222 97.5394 79.3694 97.5178 80.914C97.4403 83.6025 95.3859 85.7632 92.8398 85.804C92.4582 85.8588 92.1392 85.7423 91.8202 85.6258L91.5466 92.3179C91.5811 92.7186 91.6781 92.948 91.5531 93.2905Z" fill="#122431"/>
<path d="M142.152 96.8215C146.246 95.0172 150.215 93.5552 153.962 92.2063C154.087 91.8638 154.115 91.2919 154.08 90.8912L154.313 82.8258C154.412 78.5926 151.271 75.3113 147.421 75.4581C146.116 75.5641 144.909 75.8996 143.958 76.5228C144.728 77.3859 145.213 78.5333 145.095 79.8484C145.017 82.537 142.963 84.6977 140.417 84.7385C140.257 84.6802 140.257 84.6802 140.098 84.622L139.887 91.1429C139.774 93.4306 140.648 95.4959 142.152 96.8215Z" fill="#122431"/>
<path d="M103.355 135.246L117.008 134.991C117.709 135.053 118.222 135.628 117.972 136.313C116.722 139.738 113.522 142.063 109.894 142.097C106.266 142.131 103.069 139.993 102.155 136.554C102.023 135.924 102.655 135.185 103.355 135.246Z" fill="#89E219"/>
<path d="M127.255 134.657L140.908 134.401C141.608 134.463 142.122 135.038 141.872 135.723C140.621 139.148 137.422 141.473 133.794 141.507C130.166 141.541 126.968 139.403 126.054 135.965C126.082 135.393 126.554 134.595 127.255 134.657Z" fill="#89E219"/>
<path d="M115.116 147.108L128.768 146.852C129.469 146.914 129.982 147.49 129.732 148.175C128.482 151.599 125.283 153.924 121.654 153.958C118.026 153.992 114.829 151.854 113.915 148.416C113.783 147.786 114.352 147.217 115.116 147.108Z" fill="#89E219"/>
<path d="M85.9551 93.7697C85.9551 92.2359 87.4368 91.138 88.9042 91.5846L97.4434 94.1834C98.4176 94.4799 99.0778 95.3855 99.0622 96.4037L98.5522 129.552C98.533 130.799 97.5161 131.801 96.2684 131.801H88.2392C86.9777 131.801 85.9551 130.778 85.9551 129.517V93.7697Z" fill="#2BB1F3"/>
<path d="M159.617 92.6279C159.617 91.094 158.135 89.9961 156.668 90.4427L148.129 93.0416C147.155 93.3381 146.494 94.2437 146.51 95.2619L147.02 128.41C147.039 129.657 148.056 130.659 149.304 130.659H157.333C158.595 130.659 159.617 129.636 159.617 128.375V92.6279Z" fill="#2BB1F3"/>
</svg>
