<svg width="92" height="92" viewBox="0 0 92 92" fill="none" xmlns="http://www.w3.org/2000/svg">
<rect x="0.824707" y="0.769531" width="90.3214" height="90.3211" rx="18.1737" fill="white"/>
<path d="M18.5243 0.767578C8.79092 0.767578 0.824707 8.73361 0.824707 18.4672V73.3922C0.824707 83.1256 8.79074 91.0889 18.5243 91.0889H73.4493C83.1828 91.0889 91.1461 83.1257 91.1461 73.3922V18.4672C91.1461 8.73379 83.1828 0.767578 73.4493 0.767578H18.5243ZM22.976 15.6724C27.643 15.6724 30.5176 18.7362 30.6064 22.7635C30.6064 26.7019 27.6428 29.8518 22.8858 29.8518H22.7982C18.2201 29.8518 15.261 26.702 15.261 22.7635C15.261 18.7363 18.3096 15.6724 22.9759 15.6724H22.976ZM63.1938 34.4955C72.1693 34.4955 78.8977 40.3619 78.8977 52.9685V76.5029H65.2574V54.5464C65.2574 49.0289 63.2833 45.2647 58.347 45.2647C54.5786 45.2647 52.3324 47.8018 51.3462 50.2528C50.9859 51.1297 50.8974 52.3543 50.8974 53.581V76.5029H37.2571C37.2571 76.5029 37.4361 39.3092 37.2571 35.458H50.9002V41.2704C52.7128 38.4737 55.9551 34.4954 63.1938 34.4954V34.4955ZM16.0656 35.461H29.7058V76.5031H16.0656V35.461Z" fill="#867CF9"/>
</svg>
