<svg width="51" height="51" viewBox="0 0 51 51" fill="none" xmlns="http://www.w3.org/2000/svg">
<path d="M22.7529 14.779C22.7529 15.7835 23.0354 16.7095 23.6004 17.5571C24.1654 18.4046 24.8717 19.158 25.7192 19.8172C26.5668 20.4764 27.7282 21.2925 29.2036 22.2657C30.9301 23.3957 32.3112 24.4002 33.3471 25.2791C34.383 26.1267 35.2619 27.1626 35.9839 28.3868C36.7373 29.5796 37.114 30.9294 37.114 32.4362C37.114 34.0998 36.6588 35.6694 35.7485 37.1447C34.8382 38.5887 33.4727 39.7658 31.652 40.6761C29.8314 41.5865 27.6341 42.0416 25.0601 42.0416C19.5353 42.0416 15.6115 39.8443 13.2886 35.4496L18.6093 31.3532C20.1161 34.4608 21.8111 37.4743 23.6946 40.3936H23.7417C24.652 40.3936 25.4995 40.1582 26.2843 39.6873C27.069 39.1851 27.6968 38.5416 28.1677 37.7568C28.6386 36.9721 28.874 36.1402 28.874 35.2613C28.874 34.3196 28.5915 33.4563 28.0264 32.6716C27.4928 31.8554 26.8179 31.1491 26.0018 30.5527C25.1856 29.9249 24.0713 29.1716 22.6587 28.2926C20.9636 27.2253 19.5981 26.2836 18.5622 25.4675C17.5263 24.6513 16.6317 23.6625 15.8783 22.5011C15.1564 21.3082 14.7954 19.9428 14.7954 18.4046C14.7954 16.6782 15.2819 15.1086 16.255 13.6961C17.2595 12.2521 18.6721 11.122 20.4927 10.3059C22.3448 9.48974 24.5107 9.08167 26.9906 9.08167C29.4076 9.08167 31.3852 9.47405 32.9234 10.2588C34.4929 11.0122 35.9054 12.0951 37.1611 13.5077L32.2171 18.4988C30.5534 15.7364 28.874 13.1467 27.1789 10.7297C25.7663 10.7297 24.6677 11.122 23.8829 11.9068C23.1295 12.6602 22.7529 13.6176 22.7529 14.779Z" fill="#867CF9"/>
</svg>
