<svg width="87" height="85" viewBox="0 0 87 85" fill="none" xmlns="http://www.w3.org/2000/svg">
<path d="M39.0948 24.1317C39.0948 25.8383 39.5748 27.4117 40.5348 28.8517C41.4948 30.2917 42.6948 31.5717 44.1348 32.6917C45.5748 33.8117 47.5482 35.1983 50.0548 36.8517C52.9882 38.7717 55.3348 40.4783 57.0948 41.9717C58.8548 43.4117 60.3482 45.1717 61.5748 47.2517C62.8548 49.2783 63.4948 51.5717 63.4948 54.1317C63.4948 56.9583 62.7215 59.625 61.1748 62.1317C59.6282 64.585 57.3082 66.585 54.2148 68.1317C51.1215 69.6783 47.3882 70.4517 43.0148 70.4517C33.6282 70.4517 26.9615 66.7183 23.0148 59.2517L32.0548 52.2917C34.6148 57.5717 37.4948 62.6917 40.6948 67.6517H40.7748C42.3215 67.6517 43.7615 67.2517 45.0948 66.4517C46.4282 65.5983 47.4948 64.505 48.2948 63.1717C49.0948 61.8383 49.4948 60.425 49.4948 58.9317C49.4948 57.3317 49.0148 55.865 48.0548 54.5317C47.1482 53.145 46.0015 51.945 44.6148 50.9317C43.2282 49.865 41.3348 48.585 38.9348 47.0917C36.0548 45.2783 33.7348 43.6783 31.9748 42.2917C30.2148 40.905 28.6948 39.225 27.4148 37.2517C26.1882 35.225 25.5748 32.905 25.5748 30.2917C25.5748 27.3583 26.4015 24.6917 28.0548 22.2917C29.7615 19.8383 32.1615 17.9183 35.2548 16.5317C38.4015 15.145 42.0815 14.4517 46.2948 14.4517C50.4015 14.4517 53.7615 15.1183 56.3748 16.4517C59.0415 17.7317 61.4415 19.5717 63.5748 21.9717L55.1748 30.4517C52.3482 25.7583 49.4948 21.3583 46.6148 17.2517C44.2148 17.2517 42.3482 17.9183 41.0148 19.2517C39.7348 20.5317 39.0948 22.1583 39.0948 24.1317Z" fill="#FFAD93"/>
</svg>
