<svg width="87" height="84" viewBox="0 0 87 84" fill="none" xmlns="http://www.w3.org/2000/svg">
<ellipse cx="43.0049" cy="39.0766" rx="20.7916" ry="30.2001" fill="#FF8C68"/>
<path d="M34.9048 3.88497C34.4876 1.9421 35.9685 0.109375 37.9557 0.109375H42.4006C42.6757 0.109375 42.9496 0.145762 43.2152 0.21759L48.0908 1.53616C49.2664 1.85411 50.1496 2.82695 50.3528 4.02773L51.8364 12.7944C51.8887 13.1037 51.8941 13.4192 51.8524 13.7301L50.3825 24.6815C50.1746 26.2306 48.8528 27.3869 47.2898 27.3869H39.1117C37.2467 27.3869 35.7981 25.7617 36.0118 23.9089L37.0686 14.7456C37.1075 14.4076 37.091 14.0656 37.0196 13.7329L34.9048 3.88497Z" fill="#867CF9"/>
<ellipse cx="21.2232" cy="45.8966" rx="20.7916" ry="33.1227" fill="#FFAD93"/>
<ellipse cx="65.7764" cy="45.8966" rx="20.7916" ry="33.1227" fill="#FFAD93"/>
<ellipse cx="43.9949" cy="53.6903" rx="20.7916" ry="30.2001" fill="#FF8C68"/>
</svg>
