<svg width="87" height="95" viewBox="0 0 87 95" fill="none" xmlns="http://www.w3.org/2000/svg">
<path d="M36.0958 37.2985C40.6716 43.4521 43.3773 53.2254 43.3773 53.2254C43.3773 53.2254 31.7344 53.2288 27.385 48.5026C23.4544 44.2314 21.0396 35.7261 23.4322 33.7101C25.8249 31.6942 31.5201 31.1448 36.0958 37.2985Z" fill="#FFAD93"/>
<path d="M50.8417 37.2985C46.2659 43.4521 43.5602 53.2254 43.5602 53.2254C43.5602 53.2254 55.2031 53.2288 59.5525 48.5026C63.4831 44.2314 65.8979 35.7261 63.5053 33.7101C61.1126 31.6942 55.4174 31.1448 50.8417 37.2985Z" fill="#FFAD93"/>
<path d="M25.0973 50.0543C32.3934 57.3283 43.4526 63.5946 43.4526 63.5946C43.4526 63.5946 22.1555 66.2923 15.3558 60.9759C9.21077 56.1714 5.59014 48.8338 8.7738 45.1908C11.9575 41.5477 17.8013 42.7802 25.0973 50.0543Z" fill="#FFAD93"/>
<path d="M61.784 50.0543C54.4879 57.3283 43.4287 63.5946 43.4287 63.5946C43.4287 63.5946 64.7258 66.2923 71.5256 60.9759C77.6706 56.1714 81.2912 48.8338 78.1076 45.1908C74.9239 41.5477 69.0801 42.7802 61.784 50.0543Z" fill="#FFAD93"/>
<path d="M37.9999 17.8423C34.9095 17.8423 32.4043 20.4651 32.4043 23.7005C32.6254 27.8122 34.7069 30.976 43.5955 38.8884C52.4841 30.976 54.5656 27.8122 54.7867 23.7005C54.7867 20.4651 52.2815 17.8423 49.1911 17.8423C46.1007 17.8423 43.5955 20.4651 43.5955 23.7005C43.5955 20.4651 41.0903 17.8423 37.9999 17.8423Z" fill="#FFAD93"/>
<path d="M7.33938 57.7628C14.1543 71.9272 34.9655 70.2346 43.4285 67.6178V74.6331C20.3112 81.3144 5.54419 74.8867 0.825028 58.598C-3.00841 45.3664 7.26723 31.0647 16.1931 26.0309C16.5179 25.8477 16.7951 26.245 16.5348 26.5121C2.61237 40.7947 4.53039 53.2252 7.33938 57.7628Z" fill="#FFAD93"/>
<path d="M79.5175 57.7628C72.7026 71.9272 51.8914 70.2346 43.4284 67.6178V74.6331C66.5457 81.3144 81.3127 74.8867 86.0319 58.598C89.8653 45.3664 79.5897 31.0647 70.6639 26.0309C70.339 25.8477 70.0618 26.245 70.3221 26.5121C84.2446 40.7947 82.3265 53.2252 79.5175 57.7628Z" fill="#FFAD93"/>
<circle cx="43.7538" cy="9.95256" r="2.71428" fill="#867CF9"/>
<circle cx="43.7538" cy="83.2382" r="2.71428" fill="#867CF9"/>
<circle cx="43.7543" cy="1.80952" r="1.80952" fill="#867CF9"/>
<circle cx="43.7543" cy="93.1904" r="1.80952" fill="#867CF9"/>
</svg>
