<svg width="140" height="137" viewBox="0 0 140 137" fill="none" xmlns="http://www.w3.org/2000/svg">
<ellipse cx="69.1957" cy="63.3347" rx="33.7931" ry="49.085" fill="#FF8C68"/>
<path d="M56.0302 6.13658C55.3521 2.97877 57.7591 0 60.9889 0H68.2133C68.6605 0 69.1057 0.0591408 69.5374 0.175884L77.4617 2.319C79.3725 2.83576 80.8081 4.41695 81.1383 6.36861L83.5496 20.6173C83.6347 21.12 83.6434 21.6328 83.5756 22.1382L81.1866 39.9378C80.8487 42.4555 78.7003 44.3349 76.16 44.3349H62.8678C59.8365 44.3349 57.4822 41.6934 57.8295 38.6821L59.547 23.7886C59.6104 23.2393 59.5835 22.6834 59.4674 22.1427L56.0302 6.13658Z" fill="#867CF9"/>
<ellipse cx="33.7931" cy="74.4193" rx="33.7931" ry="53.8352" fill="#FFAD93"/>
<ellipse cx="106.207" cy="74.4193" rx="33.7931" ry="53.8352" fill="#FFAD93"/>
<ellipse cx="70.8046" cy="87.0864" rx="33.7931" ry="49.085" fill="#FF8C68"/>
</svg>
