<svg width="201" height="200" viewBox="0 0 201 200" fill="none" xmlns="http://www.w3.org/2000/svg">
<ellipse cx="97.1957" cy="95.3357" rx="33.7931" ry="49.085" fill="#FF8C68"/>
<path d="M84.0302 38.1376C83.3521 34.9797 85.7591 32.001 88.9889 32.001H96.2133C96.6605 32.001 97.1057 32.0601 97.5374 32.1769L105.462 34.32C107.373 34.8367 108.808 36.4179 109.138 38.3696L111.55 52.6182C111.635 53.121 111.643 53.6338 111.576 54.1391L109.187 71.9388C108.849 74.4565 106.7 76.3359 104.16 76.3359H90.8678C87.8365 76.3359 85.4822 73.6944 85.8295 70.6831L87.547 55.7896C87.6104 55.2403 87.5835 54.6843 87.4674 54.1437L84.0302 38.1376Z" fill="#867CF9"/>
<ellipse cx="61.7931" cy="106.42" rx="33.7931" ry="53.8352" fill="#FFAD93"/>
<ellipse cx="134.207" cy="106.42" rx="33.7931" ry="53.8352" fill="#FFAD93"/>
<ellipse cx="98.8046" cy="119.087" rx="33.7931" ry="49.085" fill="#FF8C68"/>
</svg>
