<svg width="101" height="101" viewBox="0 0 101 101" fill="none" xmlns="http://www.w3.org/2000/svg">
<circle cx="50.4971" cy="50.8181" r="50" fill="#BCAEF4"/>
<path d="M34.2183 67.0313C43.5206 76.5551 55.1485 77.7456 65.6136 67.0313" stroke="#2C2544" stroke-width="7.58171" stroke-linecap="round"/>
<path d="M37.706 40.104C37.706 43.3914 35.103 41.2945 31.8921 41.2945C28.6811 41.2945 26.0781 43.3914 26.0781 40.104C26.0781 36.8166 28.6811 34.1516 31.8921 34.1516C35.103 34.1516 37.706 36.8166 37.706 40.104Z" fill="#2C2544"/>
<path d="M74.915 40.104C74.915 43.3914 72.312 41.2945 69.1011 41.2945C65.8901 41.2945 63.2871 43.3914 63.2871 40.104C63.2871 36.8166 65.8901 34.1516 69.1011 34.1516C72.312 34.1516 74.915 36.8166 74.915 40.104Z" fill="#2C2544"/>
<path d="M49.625 31.751V50.8236" stroke="#2C2544" stroke-width="7.58171" stroke-linecap="round"/>
</svg>
