<svg width="281" height="102" viewBox="0 0 281 102" fill="none" xmlns="http://www.w3.org/2000/svg">
<path d="M0.0483398 100.381V51.7992H7.22411V58.6841C8.71098 56.1629 10.5857 54.2235 12.8484 52.8659C15.1756 51.4437 17.8261 50.7326 20.7999 50.7326C22.4807 50.7326 23.9999 50.9588 25.3575 51.4114V58.0053C24.5171 57.6821 23.6767 57.4558 22.8363 57.3265C21.9958 57.1972 21.1554 57.1326 20.315 57.1326C17.3413 57.1326 14.7231 58.0053 12.4605 59.7508C10.2625 61.4316 8.51704 63.8882 7.22411 67.1205V100.381H0.0483398Z" fill="#26203C"/>
<path d="M52.756 101.351C48.1661 101.351 43.9641 100.252 40.1499 98.0539C36.4004 95.7912 33.4267 92.7528 31.2287 88.9387C29.0307 85.1246 27.9317 80.8579 27.9317 76.1387C27.9317 71.4195 29.0307 67.1528 31.2287 63.3387C33.4267 59.5245 36.4004 56.5184 40.1499 54.3205C43.9641 52.0578 48.1661 50.9265 52.756 50.9265C57.4105 50.9265 61.6126 52.0578 65.3621 54.3205C69.1116 56.5184 72.0853 59.5245 74.2833 63.3387C76.4813 67.1528 77.5803 71.4195 77.5803 76.1387C77.5803 80.8579 76.4813 85.1246 74.2833 88.9387C72.0853 92.7528 69.1116 95.7912 65.3621 98.0539C61.6126 100.252 57.4105 101.351 52.756 101.351ZM52.756 94.9508C56.053 94.9508 59.0267 94.1104 61.6772 92.4296C64.3924 90.7488 66.5257 88.4862 68.0772 85.6417C69.6934 82.7973 70.5015 79.6296 70.5015 76.1387C70.5015 72.5831 69.6934 69.4154 68.0772 66.6356C66.5257 63.7912 64.3924 61.5286 61.6772 59.8477C59.0267 58.1669 56.053 57.3265 52.756 57.3265C49.459 57.3265 46.4529 58.1669 43.7378 59.8477C41.0873 61.5286 38.9539 63.7912 37.3378 66.6356C35.7863 69.4154 35.0105 72.5831 35.0105 76.1387C35.0105 79.6296 35.7863 82.7973 37.3378 85.6417C38.9539 88.4862 41.0873 90.7488 43.7378 92.4296C46.4529 94.1104 49.459 94.9508 52.756 94.9508Z" fill="#26203C"/>
<path d="M110.142 101.351C105.553 101.351 101.351 100.252 97.5364 98.0539C93.7869 95.7912 90.8131 92.7528 88.6151 88.9387C86.4171 85.1246 85.3182 80.8579 85.3182 76.1387C85.3182 71.4195 86.4171 67.1528 88.6151 63.3387C90.8131 59.5245 93.7869 56.5184 97.5364 54.3205C101.351 52.0578 105.553 50.9265 110.142 50.9265C114.797 50.9265 118.999 52.0578 122.749 54.3205C126.498 56.5184 129.472 59.5245 131.67 63.3387C133.868 67.1528 134.967 71.4195 134.967 76.1387C134.967 80.8579 133.868 85.1246 131.67 88.9387C129.472 92.7528 126.498 95.7912 122.749 98.0539C118.999 100.252 114.797 101.351 110.142 101.351ZM110.142 94.9508C113.439 94.9508 116.413 94.1104 119.064 92.4296C121.779 90.7488 123.912 88.4862 125.464 85.6417C127.08 82.7973 127.888 79.6296 127.888 76.1387C127.888 72.5831 127.08 69.4154 125.464 66.6356C123.912 63.7912 121.779 61.5286 119.064 59.8477C116.413 58.1669 113.439 57.3265 110.142 57.3265C106.845 57.3265 103.839 58.1669 101.124 59.8477C98.4737 61.5286 96.3404 63.7912 94.7242 66.6356C93.1727 69.4154 92.397 72.5831 92.397 76.1387C92.397 79.6296 93.1727 82.7973 94.7242 85.6417C96.3404 88.4862 98.4737 90.7488 101.124 92.4296C103.839 94.1104 106.845 94.9508 110.142 94.9508Z" fill="#26203C"/>
<path d="M164.038 101.351C159.836 101.351 156.604 100.349 154.341 98.3448C152.078 96.3407 150.947 93.4316 150.947 89.6175V57.9084H140.474V51.7992H150.947V29.195L158.026 27.3525V51.7992H172.668V57.9084H158.026V87.7751C158.026 90.3609 158.608 92.2357 159.771 93.3993C160.935 94.4983 162.842 95.0478 165.493 95.0478C166.85 95.0478 168.046 94.9508 169.08 94.7569C170.179 94.563 171.343 94.2397 172.571 93.7872V100.09C171.343 100.543 169.953 100.866 168.402 101.06C166.915 101.254 165.46 101.351 164.038 101.351Z" fill="#26203C"/>
<path d="M203.14 101.254C198.485 101.254 194.251 100.155 190.436 97.9569C186.687 95.6943 183.681 92.6559 181.418 88.8417C179.22 85.0276 178.121 80.7609 178.121 76.0417C178.121 71.3872 179.188 67.1851 181.321 63.4356C183.455 59.6215 186.331 56.6154 189.952 54.4174C193.572 52.1548 197.612 51.0235 202.073 51.0235C206.404 51.0235 210.283 52.1548 213.709 54.4174C217.2 56.6154 219.948 59.6215 221.952 63.4356C224.02 67.1851 225.055 71.3872 225.055 76.0417V78.272H185.2C185.588 81.4397 186.59 84.2841 188.206 86.8054C189.887 89.3266 192.053 91.3306 194.703 92.8175C197.354 94.2397 200.263 94.9508 203.43 94.9508C205.952 94.9508 208.408 94.563 210.8 93.7872C213.192 93.0114 215.196 91.9124 216.812 90.4902L221.273 95.2417C218.558 97.2458 215.713 98.765 212.74 99.7993C209.83 100.769 206.63 101.254 203.14 101.254ZM185.394 72.5508H217.879C217.491 69.6417 216.521 67.0558 214.97 64.7932C213.483 62.4659 211.608 60.6558 209.346 59.3629C207.083 58.0053 204.594 57.3265 201.879 57.3265C199.099 57.3265 196.546 57.973 194.218 59.2659C191.891 60.5589 189.952 62.369 188.4 64.6962C186.849 66.9589 185.847 69.5771 185.394 72.5508Z" fill="#26203C"/>
<path d="M257.293 101.157C252.767 101.157 248.63 100.058 244.881 97.8599C241.196 95.5973 238.254 92.5912 236.056 88.8417C233.923 85.0276 232.856 80.7609 232.856 76.0417C232.856 71.3225 233.923 67.0882 236.056 63.3387C238.254 59.5892 241.196 56.6154 244.881 54.4174C248.63 52.1548 252.8 51.0235 257.39 51.0235C260.234 51.0235 262.982 51.5083 265.632 52.478C268.283 53.3831 270.707 54.7407 272.905 56.5508V32.5022L280.081 30.8537V100.381H273.002V95.2417C268.735 99.1852 263.499 101.157 257.293 101.157ZM257.971 94.8539C261.01 94.8539 263.822 94.272 266.408 93.1084C269.058 91.8801 271.224 90.1993 272.905 88.066V64.0174C271.224 61.9488 269.058 60.3326 266.408 59.169C263.822 57.9407 261.01 57.3265 257.971 57.3265C254.61 57.3265 251.539 58.1346 248.759 59.7508C246.044 61.3669 243.878 63.5972 242.262 66.4417C240.711 69.2215 239.935 72.3892 239.935 75.9447C239.935 79.5003 240.711 82.7003 242.262 85.5448C243.878 88.3892 246.044 90.6518 248.759 92.3326C251.539 94.0135 254.61 94.8539 257.971 94.8539Z" fill="#26203C"/>
<path d="M147.955 28.6126L138.617 36.1096C132.596 40.9439 123.66 36.6307 123.699 28.909V28.909C123.738 21.4235 132.241 17.1322 138.286 21.5482L147.955 28.6126Z" fill="#7DB1FF"/>
<path d="M154.676 25.0459L147.138 16.112C142.028 10.0566 146.332 0.792398 154.256 0.792398V0.792398C161.935 0.792398 166.315 9.56378 161.7 15.7022L154.676 25.0459Z" fill="#BCAEF4"/>
<path d="M160.949 28.6126L170.287 36.1096C176.308 40.9439 185.244 36.6307 185.205 28.909V28.909C185.166 21.4235 176.663 17.1322 170.618 21.5482L160.949 28.6126Z" fill="#C582DD"/>
</svg>
