<svg width="101" height="101" viewBox="0 0 101 101" fill="none" xmlns="http://www.w3.org/2000/svg">
<circle cx="50.2871" cy="50.3457" r="50" fill="#FF4062"/>
<path d="M34.0083 74.1549C43.3106 64.6311 54.9385 63.4406 65.4037 74.1549" stroke="#2C2544" stroke-width="9.53924" stroke-linecap="round"/>
<path d="M49.415 31.2771V50.3497" stroke="#2C2544" stroke-width="9.53924" stroke-linecap="round"/>
<path d="M37.4961 39.6312C37.4961 42.9186 34.8931 45.5836 31.6821 45.5836C28.4712 45.5836 25.8682 42.9186 25.8682 39.6312C25.8682 36.3438 28.4712 38.4407 31.6821 38.4407C34.8931 38.4407 37.4961 36.3438 37.4961 39.6312Z" fill="#2C2544"/>
<path d="M74.7055 39.6312C74.7055 42.9186 72.1025 45.5836 68.8916 45.5836C65.6806 45.5836 63.0776 42.9186 63.0776 39.6312C63.0776 36.3438 65.6806 38.4408 68.8916 38.4408C72.1025 38.4408 74.7055 36.3438 74.7055 39.6312Z" fill="#2C2544"/>
<path d="M31.6821 47.9648L34.9447 54.6454C36.1227 57.0574 34.3664 59.8696 31.6821 59.8696C28.9978 59.8696 27.2416 57.0574 28.4195 54.6454L31.6821 47.9648Z" fill="white"/>
</svg>
