<svg width="1228" height="547" viewBox="0 0 1228 547" fill="none" xmlns="http://www.w3.org/2000/svg">
<rect width="1228" height="547" fill="white"/>
<path d="M573.322 151.972V119.375H578.137V123.994C579.135 122.302 580.393 121.001 581.911 120.09C583.472 119.136 585.251 118.659 587.246 118.659C588.374 118.659 589.393 118.811 590.304 119.114V123.539C589.74 123.322 589.176 123.17 588.613 123.083C588.049 122.996 587.485 122.953 586.921 122.953C584.926 122.953 583.169 123.539 581.651 124.71C580.176 125.838 579.005 127.486 578.137 129.655V151.972H573.322Z" fill="black"/>
<path d="M608.688 152.623C605.608 152.623 602.789 151.885 600.23 150.41C597.714 148.892 595.719 146.853 594.244 144.294C592.769 141.735 592.032 138.872 592.032 135.706C592.032 132.539 592.769 129.676 594.244 127.117C595.719 124.558 597.714 122.541 600.23 121.066C602.789 119.548 605.608 118.789 608.688 118.789C611.811 118.789 614.631 119.548 617.146 121.066C619.662 122.541 621.658 124.558 623.132 127.117C624.607 129.676 625.345 132.539 625.345 135.706C625.345 138.872 624.607 141.735 623.132 144.294C621.658 146.853 619.662 148.892 617.146 150.41C614.631 151.885 611.811 152.623 608.688 152.623ZM608.688 148.328C610.9 148.328 612.896 147.764 614.674 146.637C616.496 145.509 617.927 143.991 618.968 142.082C620.053 140.174 620.595 138.048 620.595 135.706C620.595 133.32 620.053 131.195 618.968 129.329C617.927 127.421 616.496 125.903 614.674 124.775C612.896 123.647 610.9 123.083 608.688 123.083C606.476 123.083 604.459 123.647 602.637 124.775C600.859 125.903 599.427 127.421 598.343 129.329C597.302 131.195 596.781 133.32 596.781 135.706C596.781 138.048 597.302 140.174 598.343 142.082C599.427 143.991 600.859 145.509 602.637 146.637C604.459 147.764 606.476 148.328 608.688 148.328Z" fill="black"/>
<path d="M647.193 152.623C644.113 152.623 641.294 151.885 638.735 150.41C636.219 148.892 634.224 146.853 632.749 144.294C631.274 141.735 630.537 138.872 630.537 135.706C630.537 132.539 631.274 129.676 632.749 127.117C634.224 124.558 636.219 122.541 638.735 121.066C641.294 119.548 644.113 118.789 647.193 118.789C650.316 118.789 653.136 119.548 655.652 121.066C658.167 122.541 660.163 124.558 661.637 127.117C663.112 129.676 663.85 132.539 663.85 135.706C663.85 138.872 663.112 141.735 661.637 144.294C660.163 146.853 658.167 148.892 655.652 150.41C653.136 151.885 650.316 152.623 647.193 152.623ZM647.193 148.328C649.405 148.328 651.401 147.764 653.179 146.637C655.001 145.509 656.432 143.991 657.473 142.082C658.558 140.174 659.1 138.048 659.1 135.706C659.1 133.32 658.558 131.195 657.473 129.329C656.432 127.421 655.001 125.903 653.179 124.775C651.401 123.647 649.405 123.083 647.193 123.083C644.981 123.083 642.964 123.647 641.142 124.775C639.364 125.903 637.932 127.421 636.848 129.329C635.807 131.195 635.286 133.32 635.286 135.706C635.286 138.048 635.807 140.174 636.848 142.082C637.932 143.991 639.364 145.509 641.142 146.637C642.964 147.764 644.981 148.328 647.193 148.328Z" fill="black"/>
<path d="M683.356 152.623C680.536 152.623 678.368 151.95 676.849 150.606C675.331 149.261 674.572 147.309 674.572 144.75V123.474H667.545V119.375H674.572V104.208L679.322 102.971V119.375H689.147V123.474H679.322V143.514C679.322 145.249 679.712 146.506 680.493 147.287C681.274 148.025 682.553 148.393 684.332 148.393C685.243 148.393 686.045 148.328 686.739 148.198C687.477 148.068 688.257 147.851 689.082 147.548V151.777C688.257 152.08 687.325 152.297 686.284 152.427C685.286 152.557 684.31 152.623 683.356 152.623Z" fill="black"/>
<path d="M709.592 152.557C706.469 152.557 703.628 151.82 701.069 150.345C698.553 148.827 696.536 146.788 695.018 144.229C693.543 141.67 692.805 138.807 692.805 135.641C692.805 132.518 693.521 129.698 694.953 127.182C696.384 124.623 698.314 122.606 700.743 121.131C703.172 119.613 705.883 118.854 708.876 118.854C711.783 118.854 714.385 119.613 716.684 121.131C719.027 122.606 720.87 124.623 722.215 127.182C723.603 129.698 724.297 132.518 724.297 135.641V137.137H697.555C697.815 139.263 698.488 141.171 699.572 142.863C700.7 144.555 702.153 145.899 703.932 146.897C705.71 147.851 707.662 148.328 709.787 148.328C711.479 148.328 713.127 148.068 714.732 147.548C716.337 147.027 717.682 146.29 718.766 145.335L721.759 148.523C719.937 149.868 718.029 150.888 716.034 151.582C714.082 152.232 711.934 152.557 709.592 152.557ZM697.685 133.298H719.482C719.222 131.346 718.571 129.611 717.53 128.093C716.532 126.532 715.274 125.317 713.756 124.45C712.238 123.539 710.568 123.083 708.746 123.083C706.881 123.083 705.168 123.517 703.606 124.385C702.045 125.252 700.743 126.467 699.702 128.028C698.661 129.546 697.989 131.303 697.685 133.298Z" fill="black"/>
<path d="M745.928 152.492C742.891 152.492 740.115 151.755 737.599 150.28C735.127 148.762 733.153 146.745 731.679 144.229C730.247 141.67 729.531 138.807 729.531 135.641C729.531 132.474 730.247 129.633 731.679 127.117C733.153 124.601 735.127 122.606 737.599 121.131C740.115 119.613 742.913 118.854 745.993 118.854C747.901 118.854 749.745 119.179 751.523 119.83C753.302 120.437 754.928 121.348 756.403 122.563V106.427L761.218 105.321V151.972H756.468V148.523C753.605 151.169 750.092 152.492 745.928 152.492ZM746.383 148.263C748.422 148.263 750.309 147.873 752.044 147.092C753.822 146.268 755.275 145.14 756.403 143.709V127.573C755.275 126.185 753.822 125.1 752.044 124.319C750.309 123.495 748.422 123.083 746.383 123.083C744.128 123.083 742.067 123.625 740.202 124.71C738.38 125.794 736.927 127.291 735.843 129.199C734.802 131.064 734.281 133.19 734.281 135.576C734.281 137.961 734.802 140.108 735.843 142.017C736.927 143.926 738.38 145.444 740.202 146.572C742.067 147.699 744.128 148.263 746.383 148.263Z" fill="black"/>
<path d="M672.564 103.817L666.299 108.847C662.258 112.091 656.263 109.197 656.289 104.016C656.315 98.993 662.021 96.1137 666.076 99.0767L672.564 103.817Z" fill="#7DB1FF"/>
<path d="M677.074 101.423L672.016 95.429C668.587 91.366 671.476 85.1499 676.792 85.1499C681.945 85.1499 684.883 91.0353 681.787 95.1541L677.074 101.423Z" fill="#BCAEF4"/>
<path d="M681.283 103.817L687.549 108.847C691.589 112.091 697.585 109.197 697.558 104.016C697.533 98.993 691.827 96.1137 687.771 99.0767L681.283 103.817Z" fill="#C582DD"/>
<path d="M573.322 251.222V218.625H578.137V223.245C579.135 221.553 580.393 220.252 581.911 219.341C583.472 218.386 585.251 217.909 587.246 217.909C588.374 217.909 589.393 218.061 590.304 218.365V222.789C589.74 222.572 589.176 222.42 588.613 222.334C588.049 222.247 587.485 222.204 586.921 222.204C584.926 222.204 583.169 222.789 581.651 223.96C580.176 225.088 579.005 226.736 578.137 228.905V251.222H573.322Z" fill="black"/>
<path d="M608.688 251.873C605.608 251.873 602.789 251.136 600.23 249.661C597.714 248.143 595.719 246.104 594.244 243.545C592.769 240.986 592.032 238.123 592.032 234.956C592.032 231.79 592.769 228.927 594.244 226.368C595.719 223.808 597.714 221.791 600.23 220.317C602.789 218.799 605.608 218.039 608.688 218.039C611.811 218.039 614.631 218.799 617.146 220.317C619.662 221.791 621.658 223.808 623.132 226.368C624.607 228.927 625.345 231.79 625.345 234.956C625.345 238.123 624.607 240.986 623.132 243.545C621.658 246.104 619.662 248.143 617.146 249.661C614.631 251.136 611.811 251.873 608.688 251.873ZM608.688 247.579C610.9 247.579 612.896 247.015 614.674 245.887C616.496 244.759 617.927 243.241 618.968 241.333C620.053 239.424 620.595 237.299 620.595 234.956C620.595 232.571 620.053 230.445 618.968 228.58C617.927 226.671 616.496 225.153 614.674 224.025C612.896 222.898 610.9 222.334 608.688 222.334C606.476 222.334 604.459 222.898 602.637 224.025C600.859 225.153 599.427 226.671 598.343 228.58C597.302 230.445 596.781 232.571 596.781 234.956C596.781 237.299 597.302 239.424 598.343 241.333C599.427 243.241 600.859 244.759 602.637 245.887C604.459 247.015 606.476 247.579 608.688 247.579Z" fill="black"/>
<path d="M647.193 251.873C644.113 251.873 641.294 251.136 638.735 249.661C636.219 248.143 634.224 246.104 632.749 243.545C631.274 240.986 630.537 238.123 630.537 234.956C630.537 231.79 631.274 228.927 632.749 226.368C634.224 223.808 636.219 221.791 638.735 220.317C641.294 218.799 644.113 218.039 647.193 218.039C650.316 218.039 653.136 218.799 655.652 220.317C658.167 221.791 660.163 223.808 661.637 226.368C663.112 228.927 663.85 231.79 663.85 234.956C663.85 238.123 663.112 240.986 661.637 243.545C660.163 246.104 658.167 248.143 655.652 249.661C653.136 251.136 650.316 251.873 647.193 251.873ZM647.193 247.579C649.405 247.579 651.401 247.015 653.179 245.887C655.001 244.759 656.432 243.241 657.473 241.333C658.558 239.424 659.1 237.299 659.1 234.956C659.1 232.571 658.558 230.445 657.473 228.58C656.432 226.671 655.001 225.153 653.179 224.025C651.401 222.898 649.405 222.334 647.193 222.334C644.981 222.334 642.964 222.898 641.142 224.025C639.364 225.153 637.932 226.671 636.848 228.58C635.807 230.445 635.286 232.571 635.286 234.956C635.286 237.299 635.807 239.424 636.848 241.333C637.932 243.241 639.364 244.759 641.142 245.887C642.964 247.015 644.981 247.579 647.193 247.579Z" fill="black"/>
<path d="M683.356 251.873C680.536 251.873 678.368 251.201 676.849 249.856C675.331 248.511 674.572 246.559 674.572 244V222.724H667.545V218.625H674.572V203.458L679.322 202.222V218.625H689.147V222.724H679.322V242.764C679.322 244.499 679.712 245.757 680.493 246.538C681.274 247.275 682.553 247.644 684.332 247.644C685.243 247.644 686.045 247.579 686.739 247.449C687.477 247.319 688.257 247.102 689.082 246.798V251.027C688.257 251.331 687.325 251.548 686.284 251.678C685.286 251.808 684.31 251.873 683.356 251.873Z" fill="black"/>
<path d="M709.592 251.808C706.469 251.808 703.628 251.071 701.069 249.596C698.553 248.078 696.536 246.039 695.018 243.48C693.543 240.921 692.805 238.058 692.805 234.891C692.805 231.768 693.521 228.949 694.953 226.433C696.384 223.874 698.314 221.857 700.743 220.382C703.172 218.864 705.883 218.104 708.876 218.104C711.783 218.104 714.385 218.864 716.684 220.382C719.027 221.857 720.87 223.874 722.215 226.433C723.603 228.949 724.297 231.768 724.297 234.891V236.388H697.555C697.815 238.513 698.488 240.422 699.572 242.113C700.7 243.805 702.153 245.15 703.932 246.147C705.71 247.102 707.662 247.579 709.787 247.579C711.479 247.579 713.127 247.319 714.732 246.798C716.337 246.277 717.682 245.54 718.766 244.586L721.759 247.774C719.937 249.119 718.029 250.138 716.034 250.832C714.082 251.483 711.934 251.808 709.592 251.808ZM697.685 232.549H719.482C719.222 230.597 718.571 228.862 717.53 227.344C716.532 225.782 715.274 224.568 713.756 223.7C712.238 222.789 710.568 222.334 708.746 222.334C706.881 222.334 705.168 222.767 703.606 223.635C702.045 224.503 700.743 225.717 699.702 227.279C698.661 228.797 697.989 230.554 697.685 232.549Z" fill="black"/>
<path d="M745.928 251.743C742.891 251.743 740.115 251.006 737.599 249.531C735.127 248.013 733.153 245.996 731.679 243.48C730.247 240.921 729.531 238.058 729.531 234.891C729.531 231.725 730.247 228.884 731.679 226.368C733.153 223.852 735.127 221.857 737.599 220.382C740.115 218.864 742.913 218.104 745.993 218.104C747.901 218.104 749.745 218.43 751.523 219.08C753.302 219.688 754.928 220.599 756.403 221.813V205.677L761.218 204.571V251.222H756.468V247.774C753.605 250.42 750.092 251.743 745.928 251.743ZM746.383 247.514C748.422 247.514 750.309 247.123 752.044 246.343C753.822 245.518 755.275 244.391 756.403 242.959V226.823C755.275 225.435 753.822 224.351 752.044 223.57C750.309 222.746 748.422 222.334 746.383 222.334C744.128 222.334 742.067 222.876 740.202 223.96C738.38 225.045 736.927 226.541 735.843 228.45C734.802 230.315 734.281 232.44 734.281 234.826C734.281 237.212 734.802 239.359 735.843 241.268C736.927 243.176 738.38 244.694 740.202 245.822C742.067 246.95 744.128 247.514 746.383 247.514Z" fill="black"/>
<path d="M672.564 203.067L666.299 208.098C662.258 211.341 656.263 208.447 656.289 203.266C656.315 198.244 662.021 195.364 666.076 198.327L672.564 203.067Z" fill="#A9DD82"/>
<path d="M677.074 200.674L672.016 194.679C668.587 190.616 671.476 184.4 676.792 184.4C681.945 184.4 684.883 190.286 681.787 194.405L677.074 200.674Z" fill="#A9DD82"/>
<path d="M681.283 203.067L687.549 208.098C691.589 211.341 697.585 208.447 697.558 203.266C697.533 198.244 691.827 195.364 687.771 198.327L681.283 203.067Z" fill="#A9DD82"/>
<path d="M573.322 361.949V329.352H578.137V333.971C579.135 332.28 580.393 330.978 581.911 330.067C583.472 329.113 585.251 328.636 587.246 328.636C588.374 328.636 589.393 328.788 590.304 329.091V333.516C589.74 333.299 589.176 333.147 588.613 333.06C588.049 332.974 587.485 332.93 586.921 332.93C584.926 332.93 583.169 333.516 581.651 334.687C580.176 335.815 579.005 337.463 578.137 339.632V361.949H573.322Z" fill="black"/>
<path d="M608.688 362.6C605.608 362.6 602.789 361.862 600.23 360.388C597.714 358.869 595.719 356.831 594.244 354.271C592.769 351.712 592.032 348.849 592.032 345.683C592.032 342.516 592.769 339.654 594.244 337.094C595.719 334.535 597.714 332.518 600.23 331.043C602.789 329.525 605.608 328.766 608.688 328.766C611.811 328.766 614.631 329.525 617.146 331.043C619.662 332.518 621.658 334.535 623.132 337.094C624.607 339.654 625.345 342.516 625.345 345.683C625.345 348.849 624.607 351.712 623.132 354.271C621.658 356.831 619.662 358.869 617.146 360.388C614.631 361.862 611.811 362.6 608.688 362.6ZM608.688 358.305C610.9 358.305 612.896 357.742 614.674 356.614C616.496 355.486 617.927 353.968 618.968 352.059C620.053 350.151 620.595 348.025 620.595 345.683C620.595 343.297 620.053 341.172 618.968 339.307C617.927 337.398 616.496 335.88 614.674 334.752C612.896 333.624 610.9 333.06 608.688 333.06C606.476 333.06 604.459 333.624 602.637 334.752C600.859 335.88 599.427 337.398 598.343 339.307C597.302 341.172 596.781 343.297 596.781 345.683C596.781 348.025 597.302 350.151 598.343 352.059C599.427 353.968 600.859 355.486 602.637 356.614C604.459 357.742 606.476 358.305 608.688 358.305Z" fill="black"/>
<path d="M647.193 362.6C644.113 362.6 641.294 361.862 638.735 360.388C636.219 358.869 634.224 356.831 632.749 354.271C631.274 351.712 630.537 348.849 630.537 345.683C630.537 342.516 631.274 339.654 632.749 337.094C634.224 334.535 636.219 332.518 638.735 331.043C641.294 329.525 644.113 328.766 647.193 328.766C650.316 328.766 653.136 329.525 655.652 331.043C658.167 332.518 660.163 334.535 661.637 337.094C663.112 339.654 663.85 342.516 663.85 345.683C663.85 348.849 663.112 351.712 661.637 354.271C660.163 356.831 658.167 358.869 655.652 360.388C653.136 361.862 650.316 362.6 647.193 362.6ZM647.193 358.305C649.405 358.305 651.401 357.742 653.179 356.614C655.001 355.486 656.432 353.968 657.473 352.059C658.558 350.151 659.1 348.025 659.1 345.683C659.1 343.297 658.558 341.172 657.473 339.307C656.432 337.398 655.001 335.88 653.179 334.752C651.401 333.624 649.405 333.06 647.193 333.06C644.981 333.06 642.964 333.624 641.142 334.752C639.364 335.88 637.932 337.398 636.848 339.307C635.807 341.172 635.286 343.297 635.286 345.683C635.286 348.025 635.807 350.151 636.848 352.059C637.932 353.968 639.364 355.486 641.142 356.614C642.964 357.742 644.981 358.305 647.193 358.305Z" fill="black"/>
<path d="M683.356 362.6C680.536 362.6 678.368 361.927 676.849 360.583C675.331 359.238 674.572 357.286 674.572 354.727V333.451H667.545V329.352H674.572V314.185L679.322 312.948V329.352H689.147V333.451H679.322V353.491C679.322 355.226 679.712 356.484 680.493 357.264C681.274 358.002 682.553 358.371 684.332 358.371C685.243 358.371 686.045 358.305 686.739 358.175C687.477 358.045 688.257 357.828 689.082 357.525V361.754C688.257 362.058 687.325 362.274 686.284 362.405C685.286 362.535 684.31 362.6 683.356 362.6Z" fill="black"/>
<path d="M709.592 362.535C706.469 362.535 703.628 361.797 701.069 360.322C698.553 358.804 696.536 356.766 695.018 354.206C693.543 351.647 692.805 348.784 692.805 345.618C692.805 342.495 693.521 339.675 694.953 337.159C696.384 334.6 698.314 332.583 700.743 331.108C703.172 329.59 705.883 328.831 708.876 328.831C711.783 328.831 714.385 329.59 716.684 331.108C719.027 332.583 720.87 334.6 722.215 337.159C723.603 339.675 724.297 342.495 724.297 345.618V347.114H697.555C697.815 349.24 698.488 351.148 699.572 352.84C700.7 354.532 702.153 355.876 703.932 356.874C705.71 357.828 707.662 358.305 709.787 358.305C711.479 358.305 713.127 358.045 714.732 357.525C716.337 357.004 717.682 356.267 718.766 355.312L721.759 358.501C719.937 359.845 718.029 360.865 716.034 361.559C714.082 362.209 711.934 362.535 709.592 362.535ZM697.685 343.276H719.482C719.222 341.324 718.571 339.589 717.53 338.07C716.532 336.509 715.274 335.294 713.756 334.427C712.238 333.516 710.568 333.06 708.746 333.06C706.881 333.06 705.168 333.494 703.606 334.362C702.045 335.229 700.743 336.444 699.702 338.005C698.661 339.523 697.989 341.28 697.685 343.276Z" fill="black"/>
<path d="M745.928 362.47C742.891 362.47 740.115 361.732 737.599 360.257C735.127 358.739 733.153 356.722 731.679 354.206C730.247 351.647 729.531 348.784 729.531 345.618C729.531 342.451 730.247 339.61 731.679 337.094C733.153 334.579 735.127 332.583 737.599 331.108C740.115 329.59 742.913 328.831 745.993 328.831C747.901 328.831 749.745 329.157 751.523 329.807C753.302 330.414 754.928 331.325 756.403 332.54V316.404L761.218 315.298V361.949H756.468V358.501C753.605 361.147 750.092 362.47 745.928 362.47ZM746.383 358.24C748.422 358.24 750.309 357.85 752.044 357.069C753.822 356.245 755.275 355.117 756.403 353.686V337.55C755.275 336.162 753.822 335.077 752.044 334.297C750.309 333.472 748.422 333.06 746.383 333.06C744.128 333.06 742.067 333.603 740.202 334.687C738.38 335.771 736.927 337.268 735.843 339.176C734.802 341.042 734.281 343.167 734.281 345.553C734.281 347.938 734.802 350.086 735.843 351.994C736.927 353.903 738.38 355.421 740.202 356.549C742.067 357.677 744.128 358.24 746.383 358.24Z" fill="black"/>
<path d="M672.564 313.794L666.299 318.824C662.258 322.068 656.263 319.174 656.289 313.993C656.315 308.97 662.021 306.091 666.076 309.054L672.564 313.794Z" fill="#82DDBC"/>
<path d="M677.074 311.401L672.016 305.406C668.587 301.343 671.476 295.127 676.792 295.127C681.945 295.127 684.883 301.013 681.787 305.131L677.074 311.401Z" fill="#82DDBC"/>
<path d="M681.283 313.794L687.549 318.824C691.589 322.068 697.585 319.174 697.558 313.993C697.533 308.97 691.827 306.091 687.771 309.054L681.283 313.794Z" fill="#82DDBC"/>
<path d="M569.395 461.2V428.602H574.209V433.222C575.207 431.53 576.465 430.229 577.983 429.318C579.545 428.364 581.323 427.886 583.318 427.886C584.446 427.886 585.466 428.038 586.377 428.342V432.766C585.813 432.549 585.249 432.398 584.685 432.311C584.121 432.224 583.557 432.181 582.993 432.181C580.998 432.181 579.241 432.766 577.723 433.937C576.248 435.065 575.077 436.714 574.209 438.882V461.2H569.395Z" fill="black"/>
<path d="M604.76 461.85C601.681 461.85 598.861 461.113 596.302 459.638C593.786 458.12 591.791 456.081 590.316 453.522C588.841 450.963 588.104 448.1 588.104 444.933C588.104 441.767 588.841 438.904 590.316 436.345C591.791 433.786 593.786 431.769 596.302 430.294C598.861 428.776 601.681 428.017 604.76 428.017C607.883 428.017 610.703 428.776 613.219 430.294C615.735 431.769 617.73 433.786 619.205 436.345C620.679 438.904 621.417 441.767 621.417 444.933C621.417 448.1 620.679 450.963 619.205 453.522C617.73 456.081 615.735 458.12 613.219 459.638C610.703 461.113 607.883 461.85 604.76 461.85ZM604.76 457.556C606.973 457.556 608.968 456.992 610.746 455.864C612.568 454.736 614 453.218 615.041 451.31C616.125 449.401 616.667 447.276 616.667 444.933C616.667 442.548 616.125 440.422 615.041 438.557C614 436.649 612.568 435.13 610.746 434.003C608.968 432.875 606.973 432.311 604.76 432.311C602.548 432.311 600.531 432.875 598.709 434.003C596.931 435.13 595.499 436.649 594.415 438.557C593.374 440.422 592.854 442.548 592.854 444.933C592.854 447.276 593.374 449.401 594.415 451.31C595.499 453.218 596.931 454.736 598.709 455.864C600.531 456.992 602.548 457.556 604.76 457.556Z" fill="black"/>
<path d="M643.265 461.85C640.186 461.85 637.366 461.113 634.807 459.638C632.291 458.12 630.296 456.081 628.821 453.522C627.346 450.963 626.609 448.1 626.609 444.933C626.609 441.767 627.346 438.904 628.821 436.345C630.296 433.786 632.291 431.769 634.807 430.294C637.366 428.776 640.186 428.017 643.265 428.017C646.389 428.017 649.208 428.776 651.724 430.294C654.24 431.769 656.235 433.786 657.71 436.345C659.185 438.904 659.922 441.767 659.922 444.933C659.922 448.1 659.185 450.963 657.71 453.522C656.235 456.081 654.24 458.12 651.724 459.638C649.208 461.113 646.389 461.85 643.265 461.85ZM643.265 457.556C645.478 457.556 647.473 456.992 649.251 455.864C651.073 454.736 652.505 453.218 653.546 451.31C654.63 449.401 655.172 447.276 655.172 444.933C655.172 442.548 654.63 440.422 653.546 438.557C652.505 436.649 651.073 435.13 649.251 434.003C647.473 432.875 645.478 432.311 643.265 432.311C641.053 432.311 639.036 432.875 637.214 434.003C635.436 435.13 634.005 436.649 632.92 438.557C631.879 440.422 631.359 442.548 631.359 444.933C631.359 447.276 631.879 449.401 632.92 451.31C634.005 453.218 635.436 454.736 637.214 455.864C639.036 456.992 641.053 457.556 643.265 457.556Z" fill="black"/>
<path d="M679.428 461.85C676.609 461.85 674.44 461.178 672.922 459.833C671.403 458.489 670.644 456.537 670.644 453.977V432.701H663.617V428.602H670.644V413.435L675.394 412.199V428.602H685.219V432.701H675.394V452.741C675.394 454.476 675.784 455.734 676.565 456.515C677.346 457.252 678.626 457.621 680.404 457.621C681.315 457.621 682.117 457.556 682.811 457.426C683.549 457.296 684.33 457.079 685.154 456.775V461.004C684.33 461.308 683.397 461.525 682.356 461.655C681.358 461.785 680.382 461.85 679.428 461.85Z" fill="black"/>
<path d="M705.664 461.785C702.541 461.785 699.7 461.048 697.141 459.573C694.625 458.055 692.608 456.016 691.09 453.457C689.615 450.898 688.878 448.035 688.878 444.868C688.878 441.745 689.593 438.926 691.025 436.41C692.456 433.851 694.387 431.834 696.816 430.359C699.245 428.841 701.956 428.082 704.949 428.082C707.855 428.082 710.458 428.841 712.756 430.359C715.099 431.834 716.942 433.851 718.287 436.41C719.675 438.926 720.369 441.745 720.369 444.868V446.365H693.627C693.888 448.49 694.56 450.399 695.644 452.091C696.772 453.782 698.225 455.127 700.004 456.125C701.782 457.079 703.734 457.556 705.86 457.556C707.551 457.556 709.2 457.296 710.805 456.775C712.409 456.255 713.754 455.517 714.839 454.563L717.832 457.751C716.01 459.096 714.101 460.115 712.106 460.809C710.154 461.46 708.007 461.785 705.664 461.785ZM693.758 442.526H715.554C715.294 440.574 714.643 438.839 713.602 437.321C712.605 435.759 711.347 434.545 709.829 433.677C708.31 432.766 706.64 432.311 704.819 432.311C702.953 432.311 701.24 432.745 699.678 433.612C698.117 434.48 696.816 435.694 695.775 437.256C694.734 438.774 694.061 440.531 693.758 442.526Z" fill="black"/>
<path d="M742 461.72C738.964 461.72 736.188 460.983 733.672 459.508C731.199 457.99 729.226 455.973 727.751 453.457C726.319 450.898 725.604 448.035 725.604 444.868C725.604 441.702 726.319 438.861 727.751 436.345C729.226 433.829 731.199 431.834 733.672 430.359C736.188 428.841 738.985 428.082 742.065 428.082C743.974 428.082 745.817 428.407 747.596 429.058C749.374 429.665 751.001 430.576 752.475 431.79V415.654L757.29 414.548V461.2H752.54V457.751C749.678 460.397 746.164 461.72 742 461.72ZM742.455 457.491C744.494 457.491 746.381 457.101 748.116 456.32C749.894 455.496 751.348 454.368 752.475 452.936V436.8C751.348 435.412 749.894 434.328 748.116 433.547C746.381 432.723 744.494 432.311 742.455 432.311C740.2 432.311 738.139 432.853 736.274 433.937C734.452 435.022 732.999 436.518 731.915 438.427C730.874 440.292 730.353 442.418 730.353 444.803C730.353 447.189 730.874 449.336 731.915 451.245C732.999 453.153 734.452 454.671 736.274 455.799C738.139 456.927 740.2 457.491 742.455 457.491Z" fill="black"/>
<path d="M668.636 413.045L662.371 418.075C658.331 421.319 652.335 418.424 652.362 413.243C652.387 408.221 658.093 405.341 662.149 408.304L668.636 413.045Z" fill="#FFA234"/>
<path d="M673.146 410.651L668.088 404.657C664.66 400.594 667.548 394.378 672.864 394.378C678.017 394.378 680.956 400.263 677.859 404.382L673.146 410.651Z" fill="#FF6480"/>
<path d="M677.356 413.045L683.621 418.075C687.661 421.319 693.657 418.424 693.63 413.243C693.605 408.221 687.899 405.341 683.844 408.304L677.356 413.045Z" fill="#FF1F1F"/>
<path d="M334.597 151.972V119.375H339.412V123.994C340.41 122.302 341.668 121.001 343.186 120.09C344.747 119.136 346.526 118.659 348.521 118.659C349.649 118.659 350.668 118.811 351.579 119.114V123.539C351.015 123.322 350.451 123.17 349.888 123.083C349.324 122.996 348.76 122.953 348.196 122.953C346.201 122.953 344.444 123.539 342.926 124.71C341.451 125.838 340.28 127.486 339.412 129.655V151.972H334.597Z" fill="#433A66"/>
<path d="M369.963 152.623C366.883 152.623 364.064 151.885 361.505 150.41C358.989 148.892 356.993 146.853 355.519 144.294C354.044 141.735 353.306 138.872 353.306 135.706C353.306 132.539 354.044 129.676 355.519 127.117C356.993 124.558 358.989 122.541 361.505 121.066C364.064 119.548 366.883 118.789 369.963 118.789C373.086 118.789 375.906 119.548 378.421 121.066C380.937 122.541 382.933 124.558 384.407 127.117C385.882 129.676 386.62 132.539 386.62 135.706C386.62 138.872 385.882 141.735 384.407 144.294C382.933 146.853 380.937 148.892 378.421 150.41C375.906 151.885 373.086 152.623 369.963 152.623ZM369.963 148.328C372.175 148.328 374.171 147.764 375.949 146.637C377.771 145.509 379.202 143.991 380.243 142.082C381.328 140.174 381.87 138.048 381.87 135.706C381.87 133.32 381.328 131.195 380.243 129.329C379.202 127.421 377.771 125.903 375.949 124.775C374.171 123.647 372.175 123.083 369.963 123.083C367.751 123.083 365.734 123.647 363.912 124.775C362.134 125.903 360.702 127.421 359.618 129.329C358.577 131.195 358.056 133.32 358.056 135.706C358.056 138.048 358.577 140.174 359.618 142.082C360.702 143.991 362.134 145.509 363.912 146.637C365.734 147.764 367.751 148.328 369.963 148.328Z" fill="#433A66"/>
<path d="M408.468 152.623C405.388 152.623 402.569 151.885 400.01 150.41C397.494 148.892 395.499 146.853 394.024 144.294C392.549 141.735 391.812 138.872 391.812 135.706C391.812 132.539 392.549 129.676 394.024 127.117C395.499 124.558 397.494 122.541 400.01 121.066C402.569 119.548 405.388 118.789 408.468 118.789C411.591 118.789 414.411 119.548 416.926 121.066C419.442 122.541 421.438 124.558 422.912 127.117C424.387 129.676 425.125 132.539 425.125 135.706C425.125 138.872 424.387 141.735 422.912 144.294C421.438 146.853 419.442 148.892 416.926 150.41C414.411 151.885 411.591 152.623 408.468 152.623ZM408.468 148.328C410.68 148.328 412.676 147.764 414.454 146.637C416.276 145.509 417.707 143.991 418.748 142.082C419.833 140.174 420.375 138.048 420.375 135.706C420.375 133.32 419.833 131.195 418.748 129.329C417.707 127.421 416.276 125.903 414.454 124.775C412.676 123.647 410.68 123.083 408.468 123.083C406.256 123.083 404.239 123.647 402.417 124.775C400.639 125.903 399.207 127.421 398.123 129.329C397.082 131.195 396.561 133.32 396.561 135.706C396.561 138.048 397.082 140.174 398.123 142.082C399.207 143.991 400.639 145.509 402.417 146.637C404.239 147.764 406.256 148.328 408.468 148.328Z" fill="#433A66"/>
<path d="M444.631 152.623C441.811 152.623 439.643 151.95 438.124 150.606C436.606 149.261 435.847 147.309 435.847 144.75V123.474H428.82V119.375H435.847V104.208L440.597 102.971V119.375H450.422V123.474H440.597V143.514C440.597 145.249 440.987 146.506 441.768 147.287C442.549 148.025 443.828 148.393 445.607 148.393C446.518 148.393 447.32 148.328 448.014 148.198C448.752 148.068 449.532 147.851 450.357 147.548V151.777C449.532 152.08 448.6 152.297 447.559 152.427C446.561 152.557 445.585 152.623 444.631 152.623Z" fill="#433A66"/>
<path d="M470.867 152.557C467.744 152.557 464.903 151.82 462.344 150.345C459.828 148.827 457.811 146.788 456.293 144.229C454.818 141.67 454.08 138.807 454.08 135.641C454.08 132.518 454.796 129.698 456.228 127.182C457.659 124.623 459.589 122.606 462.018 121.131C464.447 119.613 467.158 118.854 470.151 118.854C473.058 118.854 475.66 119.613 477.959 121.131C480.301 122.606 482.145 124.623 483.49 127.182C484.878 129.698 485.572 132.518 485.572 135.641V137.137H458.83C459.09 139.263 459.763 141.171 460.847 142.863C461.975 144.555 463.428 145.899 465.206 146.897C466.985 147.851 468.937 148.328 471.062 148.328C472.754 148.328 474.402 148.068 476.007 147.548C477.612 147.027 478.957 146.29 480.041 145.335L483.034 148.523C481.212 149.868 479.304 150.888 477.309 151.582C475.357 152.232 473.209 152.557 470.867 152.557ZM458.96 133.298H480.757C480.497 131.346 479.846 129.611 478.805 128.093C477.807 126.532 476.549 125.317 475.031 124.45C473.513 123.539 471.843 123.083 470.021 123.083C468.156 123.083 466.443 123.517 464.881 124.385C463.32 125.252 462.018 126.467 460.977 128.028C459.936 129.546 459.264 131.303 458.96 133.298Z" fill="#433A66"/>
<path d="M507.203 152.492C504.166 152.492 501.39 151.755 498.874 150.28C496.402 148.762 494.428 146.745 492.954 144.229C491.522 141.67 490.806 138.807 490.806 135.641C490.806 132.474 491.522 129.633 492.954 127.117C494.428 124.601 496.402 122.606 498.874 121.131C501.39 119.613 504.188 118.854 507.268 118.854C509.176 118.854 511.02 119.179 512.798 119.83C514.577 120.437 516.203 121.348 517.678 122.563V106.427L522.493 105.321V151.972H517.743V148.523C514.88 151.169 511.367 152.492 507.203 152.492ZM507.658 148.263C509.697 148.263 511.584 147.873 513.319 147.092C515.097 146.268 516.55 145.14 517.678 143.709V127.573C516.55 126.185 515.097 125.1 513.319 124.319C511.584 123.495 509.697 123.083 507.658 123.083C505.403 123.083 503.342 123.625 501.477 124.71C499.655 125.794 498.202 127.291 497.118 129.199C496.077 131.064 495.556 133.19 495.556 135.576C495.556 137.961 496.077 140.108 497.118 142.017C498.202 143.926 499.655 145.444 501.477 146.572C503.342 147.699 505.403 148.263 507.658 148.263Z" fill="#433A66"/>
<path d="M433.839 103.817L427.574 108.847C423.534 112.091 417.538 109.197 417.564 104.016C417.59 98.993 423.296 96.1137 427.351 99.0767L433.839 103.817Z" fill="#7DB1FF"/>
<path d="M438.349 101.423L433.291 95.429C429.863 91.366 432.751 85.1499 438.067 85.1499C443.22 85.1499 446.158 91.0353 443.062 95.1541L438.349 101.423Z" fill="#BCAEF4"/>
<path d="M442.558 103.817L448.824 108.847C452.864 112.091 458.86 109.197 458.833 104.016C458.807 98.993 453.102 96.1137 449.046 99.0767L442.558 103.817Z" fill="#C582DD"/>
<path d="M334.597 251.222V218.625H339.412V223.245C340.41 221.553 341.668 220.252 343.186 219.341C344.747 218.386 346.526 217.909 348.521 217.909C349.649 217.909 350.668 218.061 351.579 218.365V222.789C351.015 222.572 350.451 222.42 349.888 222.334C349.324 222.247 348.76 222.204 348.196 222.204C346.201 222.204 344.444 222.789 342.926 223.96C341.451 225.088 340.28 226.736 339.412 228.905V251.222H334.597Z" fill="#433A66"/>
<path d="M369.963 251.873C366.883 251.873 364.064 251.136 361.505 249.661C358.989 248.143 356.993 246.104 355.519 243.545C354.044 240.986 353.306 238.123 353.306 234.956C353.306 231.79 354.044 228.927 355.519 226.368C356.993 223.808 358.989 221.791 361.505 220.317C364.064 218.799 366.883 218.039 369.963 218.039C373.086 218.039 375.906 218.799 378.421 220.317C380.937 221.791 382.933 223.808 384.407 226.368C385.882 228.927 386.62 231.79 386.62 234.956C386.62 238.123 385.882 240.986 384.407 243.545C382.933 246.104 380.937 248.143 378.421 249.661C375.906 251.136 373.086 251.873 369.963 251.873ZM369.963 247.579C372.175 247.579 374.171 247.015 375.949 245.887C377.771 244.759 379.202 243.241 380.243 241.333C381.328 239.424 381.87 237.299 381.87 234.956C381.87 232.571 381.328 230.445 380.243 228.58C379.202 226.671 377.771 225.153 375.949 224.025C374.171 222.898 372.175 222.334 369.963 222.334C367.751 222.334 365.734 222.898 363.912 224.025C362.134 225.153 360.702 226.671 359.618 228.58C358.577 230.445 358.056 232.571 358.056 234.956C358.056 237.299 358.577 239.424 359.618 241.333C360.702 243.241 362.134 244.759 363.912 245.887C365.734 247.015 367.751 247.579 369.963 247.579Z" fill="#433A66"/>
<path d="M408.468 251.873C405.388 251.873 402.569 251.136 400.01 249.661C397.494 248.143 395.499 246.104 394.024 243.545C392.549 240.986 391.812 238.123 391.812 234.956C391.812 231.79 392.549 228.927 394.024 226.368C395.499 223.808 397.494 221.791 400.01 220.317C402.569 218.799 405.388 218.039 408.468 218.039C411.591 218.039 414.411 218.799 416.926 220.317C419.442 221.791 421.438 223.808 422.912 226.368C424.387 228.927 425.125 231.79 425.125 234.956C425.125 238.123 424.387 240.986 422.912 243.545C421.438 246.104 419.442 248.143 416.926 249.661C414.411 251.136 411.591 251.873 408.468 251.873ZM408.468 247.579C410.68 247.579 412.676 247.015 414.454 245.887C416.276 244.759 417.707 243.241 418.748 241.333C419.833 239.424 420.375 237.299 420.375 234.956C420.375 232.571 419.833 230.445 418.748 228.58C417.707 226.671 416.276 225.153 414.454 224.025C412.676 222.898 410.68 222.334 408.468 222.334C406.256 222.334 404.239 222.898 402.417 224.025C400.639 225.153 399.207 226.671 398.123 228.58C397.082 230.445 396.561 232.571 396.561 234.956C396.561 237.299 397.082 239.424 398.123 241.333C399.207 243.241 400.639 244.759 402.417 245.887C404.239 247.015 406.256 247.579 408.468 247.579Z" fill="#433A66"/>
<path d="M444.631 251.873C441.811 251.873 439.643 251.201 438.124 249.856C436.606 248.511 435.847 246.559 435.847 244V222.724H428.82V218.625H435.847V203.458L440.597 202.222V218.625H450.422V222.724H440.597V242.764C440.597 244.499 440.987 245.757 441.768 246.538C442.549 247.275 443.828 247.644 445.607 247.644C446.518 247.644 447.32 247.579 448.014 247.449C448.752 247.319 449.532 247.102 450.357 246.798V251.027C449.532 251.331 448.6 251.548 447.559 251.678C446.561 251.808 445.585 251.873 444.631 251.873Z" fill="#433A66"/>
<path d="M470.867 251.808C467.744 251.808 464.903 251.071 462.344 249.596C459.828 248.078 457.811 246.039 456.293 243.48C454.818 240.921 454.08 238.058 454.08 234.891C454.08 231.768 454.796 228.949 456.228 226.433C457.659 223.874 459.589 221.857 462.018 220.382C464.447 218.864 467.158 218.104 470.151 218.104C473.058 218.104 475.66 218.864 477.959 220.382C480.301 221.857 482.145 223.874 483.49 226.433C484.878 228.949 485.572 231.768 485.572 234.891V236.388H458.83C459.09 238.513 459.763 240.422 460.847 242.113C461.975 243.805 463.428 245.15 465.206 246.147C466.985 247.102 468.937 247.579 471.062 247.579C472.754 247.579 474.402 247.319 476.007 246.798C477.612 246.277 478.957 245.54 480.041 244.586L483.034 247.774C481.212 249.119 479.304 250.138 477.309 250.832C475.357 251.483 473.209 251.808 470.867 251.808ZM458.96 232.549H480.757C480.497 230.597 479.846 228.862 478.805 227.344C477.807 225.782 476.549 224.568 475.031 223.7C473.513 222.789 471.843 222.334 470.021 222.334C468.156 222.334 466.443 222.767 464.881 223.635C463.32 224.503 462.018 225.717 460.977 227.279C459.936 228.797 459.264 230.554 458.96 232.549Z" fill="#433A66"/>
<path d="M507.203 251.743C504.166 251.743 501.39 251.006 498.874 249.531C496.402 248.013 494.428 245.996 492.954 243.48C491.522 240.921 490.806 238.058 490.806 234.891C490.806 231.725 491.522 228.884 492.954 226.368C494.428 223.852 496.402 221.857 498.874 220.382C501.39 218.864 504.188 218.104 507.268 218.104C509.176 218.104 511.02 218.43 512.798 219.08C514.577 219.688 516.203 220.599 517.678 221.813V205.677L522.493 204.571V251.222H517.743V247.774C514.88 250.42 511.367 251.743 507.203 251.743ZM507.658 247.514C509.697 247.514 511.584 247.123 513.319 246.343C515.097 245.518 516.55 244.391 517.678 242.959V226.823C516.55 225.435 515.097 224.351 513.319 223.57C511.584 222.746 509.697 222.334 507.658 222.334C505.403 222.334 503.342 222.876 501.477 223.96C499.655 225.045 498.202 226.541 497.118 228.45C496.077 230.315 495.556 232.44 495.556 234.826C495.556 237.212 496.077 239.359 497.118 241.268C498.202 243.176 499.655 244.694 501.477 245.822C503.342 246.95 505.403 247.514 507.658 247.514Z" fill="#433A66"/>
<path d="M433.839 203.067L427.574 208.098C423.534 211.341 417.538 208.447 417.564 203.266C417.59 198.244 423.296 195.364 427.351 198.327L433.839 203.067Z" fill="#A9DD82"/>
<path d="M438.349 200.674L433.291 194.679C429.863 190.616 432.751 184.4 438.067 184.4C443.22 184.4 446.158 190.286 443.062 194.405L438.349 200.674Z" fill="#A9DD82"/>
<path d="M442.558 203.067L448.824 208.098C452.864 211.341 458.86 208.447 458.833 203.266C458.807 198.244 453.102 195.364 449.046 198.327L442.558 203.067Z" fill="#A9DD82"/>
<path d="M334.597 361.949V329.352H339.412V333.971C340.41 332.28 341.668 330.978 343.186 330.067C344.747 329.113 346.526 328.636 348.521 328.636C349.649 328.636 350.668 328.788 351.579 329.091V333.516C351.015 333.299 350.451 333.147 349.888 333.06C349.324 332.974 348.76 332.93 348.196 332.93C346.201 332.93 344.444 333.516 342.926 334.687C341.451 335.815 340.28 337.463 339.412 339.632V361.949H334.597Z" fill="#433A66"/>
<path d="M369.963 362.6C366.883 362.6 364.064 361.862 361.505 360.388C358.989 358.869 356.993 356.831 355.519 354.271C354.044 351.712 353.306 348.849 353.306 345.683C353.306 342.516 354.044 339.654 355.519 337.094C356.993 334.535 358.989 332.518 361.505 331.043C364.064 329.525 366.883 328.766 369.963 328.766C373.086 328.766 375.906 329.525 378.421 331.043C380.937 332.518 382.933 334.535 384.407 337.094C385.882 339.654 386.62 342.516 386.62 345.683C386.62 348.849 385.882 351.712 384.407 354.271C382.933 356.831 380.937 358.869 378.421 360.388C375.906 361.862 373.086 362.6 369.963 362.6ZM369.963 358.305C372.175 358.305 374.171 357.742 375.949 356.614C377.771 355.486 379.202 353.968 380.243 352.059C381.328 350.151 381.87 348.025 381.87 345.683C381.87 343.297 381.328 341.172 380.243 339.307C379.202 337.398 377.771 335.88 375.949 334.752C374.171 333.624 372.175 333.06 369.963 333.06C367.751 333.06 365.734 333.624 363.912 334.752C362.134 335.88 360.702 337.398 359.618 339.307C358.577 341.172 358.056 343.297 358.056 345.683C358.056 348.025 358.577 350.151 359.618 352.059C360.702 353.968 362.134 355.486 363.912 356.614C365.734 357.742 367.751 358.305 369.963 358.305Z" fill="#433A66"/>
<path d="M408.468 362.6C405.388 362.6 402.569 361.862 400.01 360.388C397.494 358.869 395.499 356.831 394.024 354.271C392.549 351.712 391.812 348.849 391.812 345.683C391.812 342.516 392.549 339.654 394.024 337.094C395.499 334.535 397.494 332.518 400.01 331.043C402.569 329.525 405.388 328.766 408.468 328.766C411.591 328.766 414.411 329.525 416.926 331.043C419.442 332.518 421.438 334.535 422.912 337.094C424.387 339.654 425.125 342.516 425.125 345.683C425.125 348.849 424.387 351.712 422.912 354.271C421.438 356.831 419.442 358.869 416.926 360.388C414.411 361.862 411.591 362.6 408.468 362.6ZM408.468 358.305C410.68 358.305 412.676 357.742 414.454 356.614C416.276 355.486 417.707 353.968 418.748 352.059C419.833 350.151 420.375 348.025 420.375 345.683C420.375 343.297 419.833 341.172 418.748 339.307C417.707 337.398 416.276 335.88 414.454 334.752C412.676 333.624 410.68 333.06 408.468 333.06C406.256 333.06 404.239 333.624 402.417 334.752C400.639 335.88 399.207 337.398 398.123 339.307C397.082 341.172 396.561 343.297 396.561 345.683C396.561 348.025 397.082 350.151 398.123 352.059C399.207 353.968 400.639 355.486 402.417 356.614C404.239 357.742 406.256 358.305 408.468 358.305Z" fill="#433A66"/>
<path d="M444.631 362.6C441.811 362.6 439.643 361.927 438.124 360.583C436.606 359.238 435.847 357.286 435.847 354.727V333.451H428.82V329.352H435.847V314.185L440.597 312.948V329.352H450.422V333.451H440.597V353.491C440.597 355.226 440.987 356.484 441.768 357.264C442.549 358.002 443.828 358.371 445.607 358.371C446.518 358.371 447.32 358.305 448.014 358.175C448.752 358.045 449.532 357.828 450.357 357.525V361.754C449.532 362.058 448.6 362.274 447.559 362.405C446.561 362.535 445.585 362.6 444.631 362.6Z" fill="#433A66"/>
<path d="M470.867 362.535C467.744 362.535 464.903 361.797 462.344 360.322C459.828 358.804 457.811 356.766 456.293 354.206C454.818 351.647 454.08 348.784 454.08 345.618C454.08 342.495 454.796 339.675 456.228 337.159C457.659 334.6 459.589 332.583 462.018 331.108C464.447 329.59 467.158 328.831 470.151 328.831C473.058 328.831 475.66 329.59 477.959 331.108C480.301 332.583 482.145 334.6 483.49 337.159C484.878 339.675 485.572 342.495 485.572 345.618V347.114H458.83C459.09 349.24 459.763 351.148 460.847 352.84C461.975 354.532 463.428 355.876 465.206 356.874C466.985 357.828 468.937 358.305 471.062 358.305C472.754 358.305 474.402 358.045 476.007 357.525C477.612 357.004 478.957 356.267 480.041 355.312L483.034 358.501C481.212 359.845 479.304 360.865 477.309 361.559C475.357 362.209 473.209 362.535 470.867 362.535ZM458.96 343.276H480.757C480.497 341.324 479.846 339.589 478.805 338.07C477.807 336.509 476.549 335.294 475.031 334.427C473.513 333.516 471.843 333.06 470.021 333.06C468.156 333.06 466.443 333.494 464.881 334.362C463.32 335.229 462.018 336.444 460.977 338.005C459.936 339.523 459.264 341.28 458.96 343.276Z" fill="#433A66"/>
<path d="M507.203 362.47C504.166 362.47 501.39 361.732 498.874 360.257C496.402 358.739 494.428 356.722 492.954 354.206C491.522 351.647 490.806 348.784 490.806 345.618C490.806 342.451 491.522 339.61 492.954 337.094C494.428 334.579 496.402 332.583 498.874 331.108C501.39 329.59 504.188 328.831 507.268 328.831C509.176 328.831 511.02 329.157 512.798 329.807C514.577 330.414 516.203 331.325 517.678 332.54V316.404L522.493 315.298V361.949H517.743V358.501C514.88 361.147 511.367 362.47 507.203 362.47ZM507.658 358.24C509.697 358.24 511.584 357.85 513.319 357.069C515.097 356.245 516.55 355.117 517.678 353.686V337.55C516.55 336.162 515.097 335.077 513.319 334.297C511.584 333.472 509.697 333.06 507.658 333.06C505.403 333.06 503.342 333.603 501.477 334.687C499.655 335.771 498.202 337.268 497.118 339.176C496.077 341.042 495.556 343.167 495.556 345.553C495.556 347.938 496.077 350.086 497.118 351.994C498.202 353.903 499.655 355.421 501.477 356.549C503.342 357.677 505.403 358.24 507.658 358.24Z" fill="#433A66"/>
<path d="M433.839 313.794L427.574 318.824C423.534 322.068 417.538 319.174 417.564 313.993C417.59 308.97 423.296 306.091 427.351 309.054L433.839 313.794Z" fill="#82DDBC"/>
<path d="M438.349 311.401L433.291 305.406C429.863 301.343 432.751 295.127 438.067 295.127C443.22 295.127 446.158 301.013 443.062 305.131L438.349 311.401Z" fill="#82DDBC"/>
<path d="M442.558 313.794L448.824 318.824C452.864 322.068 458.86 319.174 458.833 313.993C458.807 308.97 453.102 306.091 449.046 309.054L442.558 313.794Z" fill="#82DDBC"/>
<path d="M330.67 461.2V428.602H335.484V433.222C336.482 431.53 337.74 430.229 339.258 429.318C340.82 428.364 342.598 427.886 344.593 427.886C345.721 427.886 346.741 428.038 347.651 428.342V432.766C347.088 432.549 346.524 432.398 345.96 432.311C345.396 432.224 344.832 432.181 344.268 432.181C342.273 432.181 340.516 432.766 338.998 433.937C337.523 435.065 336.352 436.714 335.484 438.882V461.2H330.67Z" fill="#433A66"/>
<path d="M366.035 461.85C362.956 461.85 360.136 461.113 357.577 459.638C355.061 458.12 353.066 456.081 351.591 453.522C350.116 450.963 349.379 448.1 349.379 444.933C349.379 441.767 350.116 438.904 351.591 436.345C353.066 433.786 355.061 431.769 357.577 430.294C360.136 428.776 362.956 428.017 366.035 428.017C369.158 428.017 371.978 428.776 374.494 430.294C377.01 431.769 379.005 433.786 380.48 436.345C381.954 438.904 382.692 441.767 382.692 444.933C382.692 448.1 381.954 450.963 380.48 453.522C379.005 456.081 377.01 458.12 374.494 459.638C371.978 461.113 369.158 461.85 366.035 461.85ZM366.035 457.556C368.247 457.556 370.243 456.992 372.021 455.864C373.843 454.736 375.274 453.218 376.316 451.31C377.4 449.401 377.942 447.276 377.942 444.933C377.942 442.548 377.4 440.422 376.316 438.557C375.274 436.649 373.843 435.13 372.021 434.003C370.243 432.875 368.247 432.311 366.035 432.311C363.823 432.311 361.806 432.875 359.984 434.003C358.206 435.13 356.774 436.649 355.69 438.557C354.649 440.422 354.128 442.548 354.128 444.933C354.128 447.276 354.649 449.401 355.69 451.31C356.774 453.218 358.206 454.736 359.984 455.864C361.806 456.992 363.823 457.556 366.035 457.556Z" fill="#433A66"/>
<path d="M404.54 461.85C401.461 461.85 398.641 461.113 396.082 459.638C393.566 458.12 391.571 456.081 390.096 453.522C388.621 450.963 387.884 448.1 387.884 444.933C387.884 441.767 388.621 438.904 390.096 436.345C391.571 433.786 393.566 431.769 396.082 430.294C398.641 428.776 401.461 428.017 404.54 428.017C407.663 428.017 410.483 428.776 412.999 430.294C415.515 431.769 417.51 433.786 418.985 436.345C420.46 438.904 421.197 441.767 421.197 444.933C421.197 448.1 420.46 450.963 418.985 453.522C417.51 456.081 415.515 458.12 412.999 459.638C410.483 461.113 407.663 461.85 404.54 461.85ZM404.54 457.556C406.753 457.556 408.748 456.992 410.526 455.864C412.348 454.736 413.78 453.218 414.821 451.31C415.905 449.401 416.447 447.276 416.447 444.933C416.447 442.548 415.905 440.422 414.821 438.557C413.78 436.649 412.348 435.13 410.526 434.003C408.748 432.875 406.753 432.311 404.54 432.311C402.328 432.311 400.311 432.875 398.489 434.003C396.711 435.13 395.279 436.649 394.195 438.557C393.154 440.422 392.634 442.548 392.634 444.933C392.634 447.276 393.154 449.401 394.195 451.31C395.279 453.218 396.711 454.736 398.489 455.864C400.311 456.992 402.328 457.556 404.54 457.556Z" fill="#433A66"/>
<path d="M440.703 461.85C437.884 461.85 435.715 461.178 434.197 459.833C432.678 458.489 431.919 456.537 431.919 453.977V432.701H424.892V428.602H431.919V413.435L436.669 412.199V428.602H446.494V432.701H436.669V452.741C436.669 454.476 437.059 455.734 437.84 456.515C438.621 457.252 439.901 457.621 441.679 457.621C442.59 457.621 443.392 457.556 444.086 457.426C444.824 457.296 445.605 457.079 446.429 456.775V461.004C445.605 461.308 444.672 461.525 443.631 461.655C442.633 461.785 441.657 461.85 440.703 461.85Z" fill="#433A66"/>
<path d="M466.939 461.785C463.816 461.785 460.975 461.048 458.416 459.573C455.9 458.055 453.883 456.016 452.365 453.457C450.89 450.898 450.153 448.035 450.153 444.868C450.153 441.745 450.868 438.926 452.3 436.41C453.731 433.851 455.662 431.834 458.091 430.359C460.52 428.841 463.231 428.082 466.224 428.082C469.13 428.082 471.732 428.841 474.031 430.359C476.374 431.834 478.217 433.851 479.562 436.41C480.95 438.926 481.644 441.745 481.644 444.868V446.365H454.902C455.163 448.49 455.835 450.399 456.919 452.091C458.047 453.782 459.5 455.127 461.279 456.125C463.057 457.079 465.009 457.556 467.135 457.556C468.826 457.556 470.475 457.296 472.079 456.775C473.684 456.255 475.029 455.517 476.113 454.563L479.106 457.751C477.285 459.096 475.376 460.115 473.381 460.809C471.429 461.46 469.282 461.785 466.939 461.785ZM455.033 442.526H476.829C476.569 440.574 475.918 438.839 474.877 437.321C473.88 435.759 472.622 434.545 471.104 433.677C469.585 432.766 467.915 432.311 466.094 432.311C464.228 432.311 462.515 432.745 460.953 433.612C459.392 434.48 458.091 435.694 457.05 437.256C456.009 438.774 455.336 440.531 455.033 442.526Z" fill="#433A66"/>
<path d="M503.275 461.72C500.239 461.72 497.463 460.983 494.947 459.508C492.474 457.99 490.501 455.973 489.026 453.457C487.594 450.898 486.879 448.035 486.879 444.868C486.879 441.702 487.594 438.861 489.026 436.345C490.501 433.829 492.474 431.834 494.947 430.359C497.463 428.841 500.26 428.082 503.34 428.082C505.249 428.082 507.092 428.407 508.87 429.058C510.649 429.665 512.276 430.576 513.75 431.79V415.654L518.565 414.548V461.2H513.815V457.751C510.953 460.397 507.439 461.72 503.275 461.72ZM503.73 457.491C505.769 457.491 507.656 457.101 509.391 456.32C511.169 455.496 512.623 454.368 513.75 452.936V436.8C512.623 435.412 511.169 434.328 509.391 433.547C507.656 432.723 505.769 432.311 503.73 432.311C501.475 432.311 499.414 432.853 497.549 433.937C495.727 435.022 494.274 436.518 493.19 438.427C492.149 440.292 491.628 442.418 491.628 444.803C491.628 447.189 492.149 449.336 493.19 451.245C494.274 453.153 495.727 454.671 497.549 455.799C499.414 456.927 501.475 457.491 503.73 457.491Z" fill="#433A66"/>
<path d="M429.911 413.045L423.646 418.075C419.606 421.319 413.61 418.424 413.637 413.243C413.662 408.221 419.368 405.341 423.424 408.304L429.911 413.045Z" fill="#FFA234"/>
<path d="M434.421 410.651L429.363 404.657C425.935 400.594 428.823 394.378 434.139 394.378C439.292 394.378 442.231 400.263 439.134 404.382L434.421 410.651Z" fill="#FF6480"/>
<path d="M438.631 413.045L444.896 418.075C448.936 421.319 454.932 418.424 454.905 413.243C454.88 408.221 449.174 405.341 445.118 408.304L438.631 413.045Z" fill="#FF1F1F"/>
<path d="M95.8719 151.972V119.375H100.687V123.994C101.684 122.302 102.942 121.001 104.46 120.09C106.022 119.136 107.8 118.659 109.796 118.659C110.924 118.659 111.943 118.811 112.854 119.114V123.539C112.29 123.322 111.726 123.17 111.162 123.083C110.598 122.996 110.034 122.953 109.47 122.953C107.475 122.953 105.718 123.539 104.2 124.71C102.725 125.838 101.554 127.486 100.687 129.655V151.972H95.8719Z" fill="#26203C"/>
<path d="M131.238 152.623C128.158 152.623 125.338 151.885 122.779 150.41C120.263 148.892 118.268 146.853 116.793 144.294C115.318 141.735 114.581 138.872 114.581 135.706C114.581 132.539 115.318 129.676 116.793 127.117C118.268 124.558 120.263 122.541 122.779 121.066C125.338 119.548 128.158 118.789 131.238 118.789C134.361 118.789 137.18 119.548 139.696 121.066C142.212 122.541 144.207 124.558 145.682 127.117C147.157 129.676 147.894 132.539 147.894 135.706C147.894 138.872 147.157 141.735 145.682 144.294C144.207 146.853 142.212 148.892 139.696 150.41C137.18 151.885 134.361 152.623 131.238 152.623ZM131.238 148.328C133.45 148.328 135.445 147.764 137.224 146.637C139.045 145.509 140.477 143.991 141.518 142.082C142.602 140.174 143.144 138.048 143.144 135.706C143.144 133.32 142.602 131.195 141.518 129.329C140.477 127.421 139.045 125.903 137.224 124.775C135.445 123.647 133.45 123.083 131.238 123.083C129.025 123.083 127.008 123.647 125.187 124.775C123.408 125.903 121.977 127.421 120.892 129.329C119.851 131.195 119.331 133.32 119.331 135.706C119.331 138.048 119.851 140.174 120.892 142.082C121.977 143.991 123.408 145.509 125.187 146.637C127.008 147.764 129.025 148.328 131.238 148.328Z" fill="#26203C"/>
<path d="M169.743 152.623C166.663 152.623 163.843 151.885 161.284 150.41C158.768 148.892 156.773 146.853 155.298 144.294C153.824 141.735 153.086 138.872 153.086 135.706C153.086 132.539 153.824 129.676 155.298 127.117C156.773 124.558 158.768 122.541 161.284 121.066C163.843 119.548 166.663 118.789 169.743 118.789C172.866 118.789 175.685 119.548 178.201 121.066C180.717 122.541 182.712 124.558 184.187 127.117C185.662 129.676 186.399 132.539 186.399 135.706C186.399 138.872 185.662 141.735 184.187 144.294C182.712 146.853 180.717 148.892 178.201 150.41C175.685 151.885 172.866 152.623 169.743 152.623ZM169.743 148.328C171.955 148.328 173.95 147.764 175.729 146.637C177.55 145.509 178.982 143.991 180.023 142.082C181.107 140.174 181.65 138.048 181.65 135.706C181.65 133.32 181.107 131.195 180.023 129.329C178.982 127.421 177.55 125.903 175.729 124.775C173.95 123.647 171.955 123.083 169.743 123.083C167.53 123.083 165.513 123.647 163.692 124.775C161.913 125.903 160.482 127.421 159.397 129.329C158.356 131.195 157.836 133.32 157.836 135.706C157.836 138.048 158.356 140.174 159.397 142.082C160.482 143.991 161.913 145.509 163.692 146.637C165.513 147.764 167.53 148.328 169.743 148.328Z" fill="#26203C"/>
<path d="M205.905 152.623C203.086 152.623 200.917 151.95 199.399 150.606C197.881 149.261 197.122 147.309 197.122 144.75V123.474H190.095V119.375H197.122V104.208L201.871 102.971V119.375H211.696V123.474H201.871V143.514C201.871 145.249 202.262 146.506 203.043 147.287C203.823 148.025 205.103 148.393 206.881 148.393C207.792 148.393 208.595 148.328 209.289 148.198C210.026 148.068 210.807 147.851 211.631 147.548V151.777C210.807 152.08 209.874 152.297 208.833 152.427C207.836 152.557 206.86 152.623 205.905 152.623Z" fill="#26203C"/>
<path d="M232.142 152.557C229.019 152.557 226.177 151.82 223.618 150.345C221.102 148.827 219.085 146.788 217.567 144.229C216.092 141.67 215.355 138.807 215.355 135.641C215.355 132.518 216.071 129.698 217.502 127.182C218.934 124.623 220.864 122.606 223.293 121.131C225.722 119.613 228.433 118.854 231.426 118.854C234.332 118.854 236.935 119.613 239.234 121.131C241.576 122.606 243.42 124.623 244.764 127.182C246.152 129.698 246.846 132.518 246.846 135.641V137.137H220.105C220.365 139.263 221.037 141.171 222.122 142.863C223.25 144.555 224.703 145.899 226.481 146.897C228.26 147.851 230.211 148.328 232.337 148.328C234.029 148.328 235.677 148.068 237.282 147.548C238.887 147.027 240.231 146.29 241.316 145.335L244.309 148.523C242.487 149.868 240.578 150.888 238.583 151.582C236.631 152.232 234.484 152.557 232.142 152.557ZM220.235 133.298H242.032C241.771 131.346 241.121 129.611 240.08 128.093C239.082 126.532 237.824 125.317 236.306 124.45C234.788 123.539 233.118 123.083 231.296 123.083C229.431 123.083 227.717 123.517 226.156 124.385C224.594 125.252 223.293 126.467 222.252 128.028C221.211 129.546 220.539 131.303 220.235 133.298Z" fill="#26203C"/>
<path d="M268.477 152.492C265.441 152.492 262.665 151.755 260.149 150.28C257.677 148.762 255.703 146.745 254.228 144.229C252.797 141.67 252.081 138.807 252.081 135.641C252.081 132.474 252.797 129.633 254.228 127.117C255.703 124.601 257.677 122.606 260.149 121.131C262.665 119.613 265.463 118.854 268.542 118.854C270.451 118.854 272.294 119.179 274.073 119.83C275.851 120.437 277.478 121.348 278.953 122.563V106.427L283.767 105.321V151.972H279.018V148.523C276.155 151.169 272.641 152.492 268.477 152.492ZM268.933 148.263C270.971 148.263 272.858 147.873 274.593 147.092C276.372 146.268 277.825 145.14 278.953 143.709V127.573C277.825 126.185 276.372 125.1 274.593 124.319C272.858 123.495 270.971 123.083 268.933 123.083C266.677 123.083 264.617 123.625 262.752 124.71C260.93 125.794 259.477 127.291 258.392 129.199C257.351 131.064 256.831 133.19 256.831 135.576C256.831 137.961 257.351 140.108 258.392 142.017C259.477 143.926 260.93 145.444 262.752 146.572C264.617 147.699 266.677 148.263 268.933 148.263Z" fill="#26203C"/>
<path d="M195.114 103.817L188.848 108.847C184.808 112.091 178.813 109.197 178.839 104.016C178.865 98.993 184.57 96.1137 188.626 99.0767L195.114 103.817Z" fill="#7DB1FF"/>
<path d="M199.624 101.423L194.566 95.429C191.137 91.366 194.025 85.1499 199.342 85.1499C204.494 85.1499 207.433 91.0353 204.337 95.1541L199.624 101.423Z" fill="#BCAEF4"/>
<path d="M203.833 103.817L210.098 108.847C214.139 112.091 220.134 109.197 220.108 104.016C220.082 98.993 214.376 96.1137 210.321 99.0767L203.833 103.817Z" fill="#C582DD"/>
<path d="M95.8719 251.222V218.625H100.687V223.245C101.684 221.553 102.942 220.252 104.46 219.341C106.022 218.386 107.8 217.909 109.796 217.909C110.924 217.909 111.943 218.061 112.854 218.365V222.789C112.29 222.572 111.726 222.42 111.162 222.334C110.598 222.247 110.034 222.204 109.47 222.204C107.475 222.204 105.718 222.789 104.2 223.96C102.725 225.088 101.554 226.736 100.687 228.905V251.222H95.8719Z" fill="#26203C"/>
<path d="M131.238 251.873C128.158 251.873 125.338 251.136 122.779 249.661C120.263 248.143 118.268 246.104 116.793 243.545C115.318 240.986 114.581 238.123 114.581 234.956C114.581 231.79 115.318 228.927 116.793 226.368C118.268 223.808 120.263 221.791 122.779 220.317C125.338 218.799 128.158 218.039 131.238 218.039C134.361 218.039 137.18 218.799 139.696 220.317C142.212 221.791 144.207 223.808 145.682 226.368C147.157 228.927 147.894 231.79 147.894 234.956C147.894 238.123 147.157 240.986 145.682 243.545C144.207 246.104 142.212 248.143 139.696 249.661C137.18 251.136 134.361 251.873 131.238 251.873ZM131.238 247.579C133.45 247.579 135.445 247.015 137.224 245.887C139.045 244.759 140.477 243.241 141.518 241.333C142.602 239.424 143.144 237.299 143.144 234.956C143.144 232.571 142.602 230.445 141.518 228.58C140.477 226.671 139.045 225.153 137.224 224.025C135.445 222.898 133.45 222.334 131.238 222.334C129.025 222.334 127.008 222.898 125.187 224.025C123.408 225.153 121.977 226.671 120.892 228.58C119.851 230.445 119.331 232.571 119.331 234.956C119.331 237.299 119.851 239.424 120.892 241.333C121.977 243.241 123.408 244.759 125.187 245.887C127.008 247.015 129.025 247.579 131.238 247.579Z" fill="#26203C"/>
<path d="M169.743 251.873C166.663 251.873 163.843 251.136 161.284 249.661C158.768 248.143 156.773 246.104 155.298 243.545C153.824 240.986 153.086 238.123 153.086 234.956C153.086 231.79 153.824 228.927 155.298 226.368C156.773 223.808 158.768 221.791 161.284 220.317C163.843 218.799 166.663 218.039 169.743 218.039C172.866 218.039 175.685 218.799 178.201 220.317C180.717 221.791 182.712 223.808 184.187 226.368C185.662 228.927 186.399 231.79 186.399 234.956C186.399 238.123 185.662 240.986 184.187 243.545C182.712 246.104 180.717 248.143 178.201 249.661C175.685 251.136 172.866 251.873 169.743 251.873ZM169.743 247.579C171.955 247.579 173.95 247.015 175.729 245.887C177.55 244.759 178.982 243.241 180.023 241.333C181.107 239.424 181.65 237.299 181.65 234.956C181.65 232.571 181.107 230.445 180.023 228.58C178.982 226.671 177.55 225.153 175.729 224.025C173.95 222.898 171.955 222.334 169.743 222.334C167.53 222.334 165.513 222.898 163.692 224.025C161.913 225.153 160.482 226.671 159.397 228.58C158.356 230.445 157.836 232.571 157.836 234.956C157.836 237.299 158.356 239.424 159.397 241.333C160.482 243.241 161.913 244.759 163.692 245.887C165.513 247.015 167.53 247.579 169.743 247.579Z" fill="#26203C"/>
<path d="M205.905 251.873C203.086 251.873 200.917 251.201 199.399 249.856C197.881 248.511 197.122 246.559 197.122 244V222.724H190.095V218.625H197.122V203.458L201.871 202.222V218.625H211.696V222.724H201.871V242.764C201.871 244.499 202.262 245.757 203.043 246.538C203.823 247.275 205.103 247.644 206.881 247.644C207.792 247.644 208.595 247.579 209.289 247.449C210.026 247.319 210.807 247.102 211.631 246.798V251.027C210.807 251.331 209.874 251.548 208.833 251.678C207.836 251.808 206.86 251.873 205.905 251.873Z" fill="#26203C"/>
<path d="M232.142 251.808C229.019 251.808 226.177 251.071 223.618 249.596C221.102 248.078 219.085 246.039 217.567 243.48C216.092 240.921 215.355 238.058 215.355 234.891C215.355 231.768 216.071 228.949 217.502 226.433C218.934 223.874 220.864 221.857 223.293 220.382C225.722 218.864 228.433 218.104 231.426 218.104C234.332 218.104 236.935 218.864 239.234 220.382C241.576 221.857 243.42 223.874 244.764 226.433C246.152 228.949 246.846 231.768 246.846 234.891V236.388H220.105C220.365 238.513 221.037 240.422 222.122 242.113C223.25 243.805 224.703 245.15 226.481 246.147C228.26 247.102 230.211 247.579 232.337 247.579C234.029 247.579 235.677 247.319 237.282 246.798C238.887 246.277 240.231 245.54 241.316 244.586L244.309 247.774C242.487 249.119 240.578 250.138 238.583 250.832C236.631 251.483 234.484 251.808 232.142 251.808ZM220.235 232.549H242.032C241.771 230.597 241.121 228.862 240.08 227.344C239.082 225.782 237.824 224.568 236.306 223.7C234.788 222.789 233.118 222.334 231.296 222.334C229.431 222.334 227.717 222.767 226.156 223.635C224.594 224.503 223.293 225.717 222.252 227.279C221.211 228.797 220.539 230.554 220.235 232.549Z" fill="#26203C"/>
<path d="M268.477 251.743C265.441 251.743 262.665 251.006 260.149 249.531C257.677 248.013 255.703 245.996 254.228 243.48C252.797 240.921 252.081 238.058 252.081 234.891C252.081 231.725 252.797 228.884 254.228 226.368C255.703 223.852 257.677 221.857 260.149 220.382C262.665 218.864 265.463 218.104 268.542 218.104C270.451 218.104 272.294 218.43 274.073 219.08C275.851 219.688 277.478 220.599 278.953 221.813V205.677L283.767 204.571V251.222H279.018V247.774C276.155 250.42 272.641 251.743 268.477 251.743ZM268.933 247.514C270.971 247.514 272.858 247.123 274.593 246.343C276.372 245.518 277.825 244.391 278.953 242.959V226.823C277.825 225.435 276.372 224.351 274.593 223.57C272.858 222.746 270.971 222.334 268.933 222.334C266.677 222.334 264.617 222.876 262.752 223.96C260.93 225.045 259.477 226.541 258.392 228.45C257.351 230.315 256.831 232.44 256.831 234.826C256.831 237.212 257.351 239.359 258.392 241.268C259.477 243.176 260.93 244.694 262.752 245.822C264.617 246.95 266.677 247.514 268.933 247.514Z" fill="#26203C"/>
<path d="M195.114 203.067L188.848 208.098C184.808 211.341 178.813 208.447 178.839 203.266C178.865 198.244 184.57 195.364 188.626 198.327L195.114 203.067Z" fill="#A9DD82"/>
<path d="M199.624 200.674L194.566 194.679C191.137 190.616 194.025 184.4 199.342 184.4C204.494 184.4 207.433 190.286 204.337 194.405L199.624 200.674Z" fill="#A9DD82"/>
<path d="M203.833 203.067L210.098 208.098C214.139 211.341 220.134 208.447 220.108 203.266C220.082 198.244 214.376 195.364 210.321 198.327L203.833 203.067Z" fill="#A9DD82"/>
<path d="M95.8719 361.949V329.352H100.687V333.971C101.684 332.28 102.942 330.978 104.46 330.067C106.022 329.113 107.8 328.636 109.796 328.636C110.924 328.636 111.943 328.788 112.854 329.091V333.516C112.29 333.299 111.726 333.147 111.162 333.06C110.598 332.974 110.034 332.93 109.47 332.93C107.475 332.93 105.718 333.516 104.2 334.687C102.725 335.815 101.554 337.463 100.687 339.632V361.949H95.8719Z" fill="#26203C"/>
<path d="M131.238 362.6C128.158 362.6 125.338 361.862 122.779 360.388C120.263 358.869 118.268 356.831 116.793 354.271C115.318 351.712 114.581 348.849 114.581 345.683C114.581 342.516 115.318 339.654 116.793 337.094C118.268 334.535 120.263 332.518 122.779 331.043C125.338 329.525 128.158 328.766 131.238 328.766C134.361 328.766 137.18 329.525 139.696 331.043C142.212 332.518 144.207 334.535 145.682 337.094C147.157 339.654 147.894 342.516 147.894 345.683C147.894 348.849 147.157 351.712 145.682 354.271C144.207 356.831 142.212 358.869 139.696 360.388C137.18 361.862 134.361 362.6 131.238 362.6ZM131.238 358.305C133.45 358.305 135.445 357.742 137.224 356.614C139.045 355.486 140.477 353.968 141.518 352.059C142.602 350.151 143.144 348.025 143.144 345.683C143.144 343.297 142.602 341.172 141.518 339.307C140.477 337.398 139.045 335.88 137.224 334.752C135.445 333.624 133.45 333.06 131.238 333.06C129.025 333.06 127.008 333.624 125.187 334.752C123.408 335.88 121.977 337.398 120.892 339.307C119.851 341.172 119.331 343.297 119.331 345.683C119.331 348.025 119.851 350.151 120.892 352.059C121.977 353.968 123.408 355.486 125.187 356.614C127.008 357.742 129.025 358.305 131.238 358.305Z" fill="#26203C"/>
<path d="M169.743 362.6C166.663 362.6 163.843 361.862 161.284 360.388C158.768 358.869 156.773 356.831 155.298 354.271C153.824 351.712 153.086 348.849 153.086 345.683C153.086 342.516 153.824 339.654 155.298 337.094C156.773 334.535 158.768 332.518 161.284 331.043C163.843 329.525 166.663 328.766 169.743 328.766C172.866 328.766 175.685 329.525 178.201 331.043C180.717 332.518 182.712 334.535 184.187 337.094C185.662 339.654 186.399 342.516 186.399 345.683C186.399 348.849 185.662 351.712 184.187 354.271C182.712 356.831 180.717 358.869 178.201 360.388C175.685 361.862 172.866 362.6 169.743 362.6ZM169.743 358.305C171.955 358.305 173.95 357.742 175.729 356.614C177.55 355.486 178.982 353.968 180.023 352.059C181.107 350.151 181.65 348.025 181.65 345.683C181.65 343.297 181.107 341.172 180.023 339.307C178.982 337.398 177.55 335.88 175.729 334.752C173.95 333.624 171.955 333.06 169.743 333.06C167.53 333.06 165.513 333.624 163.692 334.752C161.913 335.88 160.482 337.398 159.397 339.307C158.356 341.172 157.836 343.297 157.836 345.683C157.836 348.025 158.356 350.151 159.397 352.059C160.482 353.968 161.913 355.486 163.692 356.614C165.513 357.742 167.53 358.305 169.743 358.305Z" fill="#26203C"/>
<path d="M205.905 362.6C203.086 362.6 200.917 361.927 199.399 360.583C197.881 359.238 197.122 357.286 197.122 354.727V333.451H190.095V329.352H197.122V314.185L201.871 312.948V329.352H211.696V333.451H201.871V353.491C201.871 355.226 202.262 356.484 203.043 357.264C203.823 358.002 205.103 358.371 206.881 358.371C207.792 358.371 208.595 358.305 209.289 358.175C210.026 358.045 210.807 357.828 211.631 357.525V361.754C210.807 362.058 209.874 362.274 208.833 362.405C207.836 362.535 206.86 362.6 205.905 362.6Z" fill="#26203C"/>
<path d="M232.142 362.535C229.019 362.535 226.177 361.797 223.618 360.322C221.102 358.804 219.085 356.766 217.567 354.206C216.092 351.647 215.355 348.784 215.355 345.618C215.355 342.495 216.071 339.675 217.502 337.159C218.934 334.6 220.864 332.583 223.293 331.108C225.722 329.59 228.433 328.831 231.426 328.831C234.332 328.831 236.935 329.59 239.234 331.108C241.576 332.583 243.42 334.6 244.764 337.159C246.152 339.675 246.846 342.495 246.846 345.618V347.114H220.105C220.365 349.24 221.037 351.148 222.122 352.84C223.25 354.532 224.703 355.876 226.481 356.874C228.26 357.828 230.211 358.305 232.337 358.305C234.029 358.305 235.677 358.045 237.282 357.525C238.887 357.004 240.231 356.267 241.316 355.312L244.309 358.501C242.487 359.845 240.578 360.865 238.583 361.559C236.631 362.209 234.484 362.535 232.142 362.535ZM220.235 343.276H242.032C241.771 341.324 241.121 339.589 240.08 338.07C239.082 336.509 237.824 335.294 236.306 334.427C234.788 333.516 233.118 333.06 231.296 333.06C229.431 333.06 227.717 333.494 226.156 334.362C224.594 335.229 223.293 336.444 222.252 338.005C221.211 339.523 220.539 341.28 220.235 343.276Z" fill="#26203C"/>
<path d="M268.477 362.47C265.441 362.47 262.665 361.732 260.149 360.257C257.677 358.739 255.703 356.722 254.228 354.206C252.797 351.647 252.081 348.784 252.081 345.618C252.081 342.451 252.797 339.61 254.228 337.094C255.703 334.579 257.677 332.583 260.149 331.108C262.665 329.59 265.463 328.831 268.542 328.831C270.451 328.831 272.294 329.157 274.073 329.807C275.851 330.414 277.478 331.325 278.953 332.54V316.404L283.767 315.298V361.949H279.018V358.501C276.155 361.147 272.641 362.47 268.477 362.47ZM268.933 358.24C270.971 358.24 272.858 357.85 274.593 357.069C276.372 356.245 277.825 355.117 278.953 353.686V337.55C277.825 336.162 276.372 335.077 274.593 334.297C272.858 333.472 270.971 333.06 268.933 333.06C266.677 333.06 264.617 333.603 262.752 334.687C260.93 335.771 259.477 337.268 258.392 339.176C257.351 341.042 256.831 343.167 256.831 345.553C256.831 347.938 257.351 350.086 258.392 351.994C259.477 353.903 260.93 355.421 262.752 356.549C264.617 357.677 266.677 358.24 268.933 358.24Z" fill="#26203C"/>
<path d="M195.114 313.794L188.848 318.824C184.808 322.068 178.813 319.174 178.839 313.993C178.865 308.97 184.57 306.091 188.626 309.054L195.114 313.794Z" fill="#82DDBC"/>
<path d="M199.624 311.401L194.566 305.406C191.137 301.343 194.025 295.127 199.342 295.127C204.494 295.127 207.433 301.013 204.337 305.131L199.624 311.401Z" fill="#82DDBC"/>
<path d="M203.833 313.794L210.098 318.824C214.139 322.068 220.134 319.174 220.108 313.993C220.082 308.97 214.376 306.091 210.321 309.054L203.833 313.794Z" fill="#82DDBC"/>
<path d="M91.9442 461.2V428.602H96.759V433.222C97.7567 431.53 99.0146 430.229 100.533 429.318C102.094 428.364 103.873 427.886 105.868 427.886C106.996 427.886 108.015 428.038 108.926 428.342V432.766C108.362 432.549 107.798 432.398 107.234 432.311C106.671 432.224 106.107 432.181 105.543 432.181C103.547 432.181 101.791 432.766 100.272 433.937C98.7977 435.065 97.6265 436.714 96.759 438.882V461.2H91.9442Z" fill="#26203C"/>
<path d="M127.31 461.85C124.23 461.85 121.411 461.113 118.851 459.638C116.336 458.12 114.34 456.081 112.866 453.522C111.391 450.963 110.653 448.1 110.653 444.933C110.653 441.767 111.391 438.904 112.866 436.345C114.34 433.786 116.336 431.769 118.851 430.294C121.411 428.776 124.23 428.017 127.31 428.017C130.433 428.017 133.252 428.776 135.768 430.294C138.284 431.769 140.279 433.786 141.754 436.345C143.229 438.904 143.966 441.767 143.966 444.933C143.966 448.1 143.229 450.963 141.754 453.522C140.279 456.081 138.284 458.12 135.768 459.638C133.252 461.113 130.433 461.85 127.31 461.85ZM127.31 457.556C129.522 457.556 131.517 456.992 133.296 455.864C135.118 454.736 136.549 453.218 137.59 451.31C138.675 449.401 139.217 447.276 139.217 444.933C139.217 442.548 138.675 440.422 137.59 438.557C136.549 436.649 135.118 435.13 133.296 434.003C131.517 432.875 129.522 432.311 127.31 432.311C125.098 432.311 123.081 432.875 121.259 434.003C119.48 435.13 118.049 436.649 116.965 438.557C115.924 440.422 115.403 442.548 115.403 444.933C115.403 447.276 115.924 449.401 116.965 451.31C118.049 453.218 119.48 454.736 121.259 455.864C123.081 456.992 125.098 457.556 127.31 457.556Z" fill="#26203C"/>
<path d="M165.815 461.85C162.735 461.85 159.916 461.113 157.357 459.638C154.841 458.12 152.845 456.081 151.371 453.522C149.896 450.963 149.158 448.1 149.158 444.933C149.158 441.767 149.896 438.904 151.371 436.345C152.845 433.786 154.841 431.769 157.357 430.294C159.916 428.776 162.735 428.017 165.815 428.017C168.938 428.017 171.758 428.776 174.273 430.294C176.789 431.769 178.785 433.786 180.259 436.345C181.734 438.904 182.472 441.767 182.472 444.933C182.472 448.1 181.734 450.963 180.259 453.522C178.785 456.081 176.789 458.12 174.273 459.638C171.758 461.113 168.938 461.85 165.815 461.85ZM165.815 457.556C168.027 457.556 170.022 456.992 171.801 455.864C173.623 454.736 175.054 453.218 176.095 451.31C177.18 449.401 177.722 447.276 177.722 444.933C177.722 442.548 177.18 440.422 176.095 438.557C175.054 436.649 173.623 435.13 171.801 434.003C170.022 432.875 168.027 432.311 165.815 432.311C163.603 432.311 161.586 432.875 159.764 434.003C157.986 435.13 156.554 436.649 155.47 438.557C154.429 440.422 153.908 442.548 153.908 444.933C153.908 447.276 154.429 449.401 155.47 451.31C156.554 453.218 157.986 454.736 159.764 455.864C161.586 456.992 163.603 457.556 165.815 457.556Z" fill="#26203C"/>
<path d="M201.978 461.85C199.158 461.85 196.989 461.178 195.471 459.833C193.953 458.489 193.194 456.537 193.194 453.977V432.701H186.167V428.602H193.194V413.435L197.944 412.199V428.602H207.768V432.701H197.944V452.741C197.944 454.476 198.334 455.734 199.115 456.515C199.896 457.252 201.175 457.621 202.954 457.621C203.865 457.621 204.667 457.556 205.361 457.426C206.098 457.296 206.879 457.079 207.703 456.775V461.004C206.879 461.308 205.947 461.525 204.906 461.655C203.908 461.785 202.932 461.85 201.978 461.85Z" fill="#26203C"/>
<path d="M228.214 461.785C225.091 461.785 222.25 461.048 219.691 459.573C217.175 458.055 215.158 456.016 213.64 453.457C212.165 450.898 211.427 448.035 211.427 444.868C211.427 441.745 212.143 438.926 213.574 436.41C215.006 433.851 216.936 431.834 219.365 430.359C221.794 428.841 224.505 428.082 227.498 428.082C230.404 428.082 233.007 428.841 235.306 430.359C237.648 431.834 239.492 433.851 240.837 436.41C242.225 438.926 242.919 441.745 242.919 444.868V446.365H216.177C216.437 448.49 217.11 450.399 218.194 452.091C219.322 453.782 220.775 455.127 222.553 456.125C224.332 457.079 226.284 457.556 228.409 457.556C230.101 457.556 231.749 457.296 233.354 456.775C234.959 456.255 236.304 455.517 237.388 454.563L240.381 457.751C238.559 459.096 236.651 460.115 234.655 460.809C232.703 461.46 230.556 461.785 228.214 461.785ZM216.307 442.526H238.104C237.844 440.574 237.193 438.839 236.152 437.321C235.154 435.759 233.896 434.545 232.378 433.677C230.86 432.766 229.19 432.311 227.368 432.311C225.503 432.311 223.79 432.745 222.228 433.612C220.666 434.48 219.365 435.694 218.324 437.256C217.283 438.774 216.611 440.531 216.307 442.526Z" fill="#26203C"/>
<path d="M264.55 461.72C261.513 461.72 258.737 460.983 256.221 459.508C253.749 457.99 251.775 455.973 250.3 453.457C248.869 450.898 248.153 448.035 248.153 444.868C248.153 441.702 248.869 438.861 250.3 436.345C251.775 433.829 253.749 431.834 256.221 430.359C258.737 428.841 261.535 428.082 264.615 428.082C266.523 428.082 268.367 428.407 270.145 429.058C271.924 429.665 273.55 430.576 275.025 431.79V415.654L279.84 414.548V461.2H275.09V457.751C272.227 460.397 268.714 461.72 264.55 461.72ZM265.005 457.491C267.044 457.491 268.931 457.101 270.666 456.32C272.444 455.496 273.897 454.368 275.025 452.936V436.8C273.897 435.412 272.444 434.328 270.666 433.547C268.931 432.723 267.044 432.311 265.005 432.311C262.749 432.311 260.689 432.853 258.824 433.937C257.002 435.022 255.549 436.518 254.465 438.427C253.423 440.292 252.903 442.418 252.903 444.803C252.903 447.189 253.423 449.336 254.465 451.245C255.549 453.153 257.002 454.671 258.824 455.799C260.689 456.927 262.749 457.491 265.005 457.491Z" fill="#26203C"/>
<path d="M191.186 413.045L184.921 418.075C180.88 421.319 174.885 418.424 174.911 413.243C174.937 408.221 180.643 405.341 184.698 408.304L191.186 413.045Z" fill="#FFA234"/>
<path d="M195.696 410.651L190.638 404.657C187.209 400.594 190.098 394.378 195.414 394.378C200.567 394.378 203.505 400.263 200.409 404.382L195.696 410.651Z" fill="#FF6480"/>
<path d="M199.905 413.045L206.171 418.075C210.211 421.319 216.206 418.424 216.18 413.243C216.154 408.221 210.449 405.341 206.393 408.304L199.905 413.045Z" fill="#FF1F1F"/>
<rect x="856.25" y="47.7407" width="279.806" height="132.178" rx="66.0891" fill="url(#paint0_linear_253_2)"/>
<path d="M902.205 138.611V106.013H907.02V110.633C908.018 108.941 909.276 107.64 910.794 106.729C912.355 105.775 914.134 105.298 916.129 105.298C917.257 105.298 918.276 105.449 919.187 105.753V110.177C918.623 109.961 918.059 109.809 917.495 109.722C916.931 109.635 916.368 109.592 915.804 109.592C913.808 109.592 912.052 110.177 910.533 111.349C909.059 112.476 907.888 114.125 907.02 116.294V138.611H902.205Z" fill="white"/>
<path d="M937.571 139.261C934.491 139.261 931.672 138.524 929.112 137.049C926.597 135.531 924.601 133.492 923.127 130.933C921.652 128.374 920.914 125.511 920.914 122.345C920.914 119.178 921.652 116.315 923.127 113.756C924.601 111.197 926.597 109.18 929.112 107.705C931.672 106.187 934.491 105.428 937.571 105.428C940.694 105.428 943.513 106.187 946.029 107.705C948.545 109.18 950.54 111.197 952.015 113.756C953.49 116.315 954.227 119.178 954.227 122.345C954.227 125.511 953.49 128.374 952.015 130.933C950.54 133.492 948.545 135.531 946.029 137.049C943.513 138.524 940.694 139.261 937.571 139.261ZM937.571 134.967C939.783 134.967 941.778 134.403 943.557 133.275C945.379 132.148 946.81 130.629 947.851 128.721C948.936 126.812 949.478 124.687 949.478 122.345C949.478 119.959 948.936 117.833 947.851 115.968C946.81 114.06 945.379 112.541 943.557 111.414C941.778 110.286 939.783 109.722 937.571 109.722C935.359 109.722 933.342 110.286 931.52 111.414C929.741 112.541 928.31 114.06 927.226 115.968C926.185 117.833 925.664 119.959 925.664 122.345C925.664 124.687 926.185 126.812 927.226 128.721C928.31 130.629 929.741 132.148 931.52 133.275C933.342 134.403 935.359 134.967 937.571 134.967Z" fill="white"/>
<path d="M976.076 139.261C972.996 139.261 970.177 138.524 967.618 137.049C965.102 135.531 963.106 133.492 961.632 130.933C960.157 128.374 959.419 125.511 959.419 122.345C959.419 119.178 960.157 116.315 961.632 113.756C963.106 111.197 965.102 109.18 967.618 107.705C970.177 106.187 972.996 105.428 976.076 105.428C979.199 105.428 982.019 106.187 984.534 107.705C987.05 109.18 989.045 111.197 990.52 113.756C991.995 116.315 992.732 119.178 992.732 122.345C992.732 125.511 991.995 128.374 990.52 130.933C989.045 133.492 987.05 135.531 984.534 137.049C982.019 138.524 979.199 139.261 976.076 139.261ZM976.076 134.967C978.288 134.967 980.283 134.403 982.062 133.275C983.884 132.148 985.315 130.629 986.356 128.721C987.441 126.812 987.983 124.687 987.983 122.345C987.983 119.959 987.441 117.833 986.356 115.968C985.315 114.06 983.884 112.541 982.062 111.414C980.283 110.286 978.288 109.722 976.076 109.722C973.864 109.722 971.847 110.286 970.025 111.414C968.246 112.541 966.815 114.06 965.731 115.968C964.69 117.833 964.169 119.959 964.169 122.345C964.169 124.687 964.69 126.812 965.731 128.721C966.815 130.629 968.246 132.148 970.025 133.275C971.847 134.403 973.864 134.967 976.076 134.967Z" fill="white"/>
<path d="M1012.24 139.261C1009.42 139.261 1007.25 138.589 1005.73 137.244C1004.21 135.9 1003.45 133.948 1003.45 131.389V110.112H996.428V106.013H1003.45V90.8463L1008.2 89.6101V106.013H1018.03V110.112H1008.2V130.152C1008.2 131.887 1008.6 133.145 1009.38 133.926C1010.16 134.663 1011.44 135.032 1013.21 135.032C1014.13 135.032 1014.93 134.967 1015.62 134.837C1016.36 134.707 1017.14 134.49 1017.96 134.186V138.416C1017.14 138.719 1016.21 138.936 1015.17 139.066C1014.17 139.196 1013.19 139.261 1012.24 139.261Z" fill="white"/>
<path d="M1038.47 139.196C1035.35 139.196 1032.51 138.459 1029.95 136.984C1027.44 135.466 1025.42 133.427 1023.9 130.868C1022.43 128.309 1021.69 125.446 1021.69 122.279C1021.69 119.156 1022.4 116.337 1023.84 113.821C1025.27 111.262 1027.2 109.245 1029.63 107.77C1032.06 106.252 1034.77 105.493 1037.76 105.493C1040.67 105.493 1043.27 106.252 1045.57 107.77C1047.91 109.245 1049.75 111.262 1051.1 113.821C1052.49 116.337 1053.18 119.156 1053.18 122.279V123.776H1026.44C1026.7 125.901 1027.37 127.81 1028.46 129.502C1029.58 131.193 1031.04 132.538 1032.81 133.536C1034.59 134.49 1036.54 134.967 1038.67 134.967C1040.36 134.967 1042.01 134.707 1043.62 134.186C1045.22 133.666 1046.56 132.928 1047.65 131.974L1050.64 135.162C1048.82 136.507 1046.91 137.526 1044.92 138.22C1042.96 138.871 1040.82 139.196 1038.47 139.196ZM1026.57 119.937H1048.36C1048.1 117.985 1047.45 116.25 1046.41 114.732C1045.42 113.17 1044.16 111.956 1042.64 111.088C1041.12 110.177 1039.45 109.722 1037.63 109.722C1035.76 109.722 1034.05 110.156 1032.49 111.023C1030.93 111.891 1029.63 113.105 1028.59 114.667C1027.54 116.185 1026.87 117.942 1026.57 119.937Z" fill="white"/>
<path d="M1074.81 139.131C1071.77 139.131 1069 138.394 1066.48 136.919C1064.01 135.401 1062.04 133.384 1060.56 130.868C1059.13 128.309 1058.41 125.446 1058.41 122.279C1058.41 119.113 1059.13 116.272 1060.56 113.756C1062.04 111.24 1064.01 109.245 1066.48 107.77C1069 106.252 1071.8 105.493 1074.88 105.493C1076.78 105.493 1078.63 105.818 1080.41 106.469C1082.18 107.076 1083.81 107.987 1085.29 109.201V93.0654L1090.1 91.9593V138.611H1085.35V135.162C1082.49 137.808 1078.97 139.131 1074.81 139.131ZM1075.27 134.902C1077.3 134.902 1079.19 134.512 1080.93 133.731C1082.71 132.907 1084.16 131.779 1085.29 130.347V114.211C1084.16 112.823 1082.71 111.739 1080.93 110.958C1079.19 110.134 1077.3 109.722 1075.27 109.722C1073.01 109.722 1070.95 110.264 1069.08 111.349C1067.26 112.433 1065.81 113.93 1064.73 115.838C1063.68 117.703 1063.16 119.829 1063.16 122.214C1063.16 124.6 1063.68 126.747 1064.73 128.656C1065.81 130.564 1067.26 132.083 1069.08 133.21C1070.95 134.338 1073.01 134.902 1075.27 134.902Z" fill="white"/>
<path d="M1001.45 90.4557L995.182 95.486C991.141 98.7297 985.146 95.8356 985.172 90.6545C985.198 85.6319 990.904 82.7526 994.959 85.7156L1001.45 90.4557Z" fill="#7DB1FF"/>
<path d="M1005.96 88.0624L1000.9 82.0679C997.47 78.0049 1000.36 71.7888 1005.67 71.7888C1010.83 71.7888 1013.77 77.6742 1010.67 81.793L1005.96 88.0624Z" fill="#BCAEF4"/>
<path d="M1010.17 90.4557L1016.43 95.486C1020.47 98.7297 1026.47 95.8356 1026.44 90.6545C1026.42 85.6319 1020.71 82.7526 1016.65 85.7156L1010.17 90.4557Z" fill="#C582DD"/>
<rect x="895.252" y="210.715" width="207.637" height="98.0862" rx="49.0431" fill="url(#paint1_linear_253_2)"/>
<path d="M929.354 278.147V253.958H932.927V257.386C933.667 256.13 934.601 255.165 935.727 254.489C936.886 253.781 938.206 253.426 939.686 253.426C940.523 253.426 941.28 253.539 941.956 253.764V257.048C941.537 256.887 941.119 256.774 940.7 256.71C940.282 256.645 939.863 256.613 939.445 256.613C937.964 256.613 936.661 257.048 935.534 257.917C934.44 258.754 933.571 259.977 932.927 261.586V278.147H929.354Z" fill="white"/>
<path d="M955.598 278.63C953.312 278.63 951.22 278.083 949.321 276.989C947.454 275.862 945.974 274.349 944.879 272.45C943.785 270.551 943.237 268.426 943.237 266.077C943.237 263.727 943.785 261.602 944.879 259.703C945.974 257.804 947.454 256.307 949.321 255.213C951.22 254.086 953.312 253.523 955.598 253.523C957.915 253.523 960.008 254.086 961.875 255.213C963.742 256.307 965.222 257.804 966.317 259.703C967.411 261.602 967.958 263.727 967.958 266.077C967.958 268.426 967.411 270.551 966.317 272.45C965.222 274.349 963.742 275.862 961.875 276.989C960.008 278.083 957.915 278.63 955.598 278.63ZM955.598 275.443C957.24 275.443 958.72 275.025 960.04 274.188C961.392 273.351 962.454 272.225 963.227 270.808C964.031 269.392 964.434 267.815 964.434 266.077C964.434 264.306 964.031 262.729 963.227 261.345C962.454 259.929 961.392 258.802 960.04 257.965C958.72 257.128 957.24 256.71 955.598 256.71C953.956 256.71 952.46 257.128 951.108 257.965C949.788 258.802 948.726 259.929 947.921 261.345C947.148 262.729 946.762 264.306 946.762 266.077C946.762 267.815 947.148 269.392 947.921 270.808C948.726 272.225 949.788 273.351 951.108 274.188C952.46 275.025 953.956 275.443 955.598 275.443Z" fill="white"/>
<path d="M984.172 278.63C981.886 278.63 979.794 278.083 977.895 276.989C976.028 275.862 974.547 274.349 973.453 272.45C972.358 270.551 971.811 268.426 971.811 266.077C971.811 263.727 972.358 261.602 973.453 259.703C974.547 257.804 976.028 256.307 977.895 255.213C979.794 254.086 981.886 253.523 984.172 253.523C986.489 253.523 988.581 254.086 990.448 255.213C992.315 256.307 993.796 257.804 994.89 259.703C995.985 261.602 996.532 263.727 996.532 266.077C996.532 268.426 995.985 270.551 994.89 272.45C993.796 274.349 992.315 275.862 990.448 276.989C988.581 278.083 986.489 278.63 984.172 278.63ZM984.172 275.443C985.813 275.443 987.294 275.025 988.614 274.188C989.965 273.351 991.028 272.225 991.8 270.808C992.605 269.392 993.007 267.815 993.007 266.077C993.007 264.306 992.605 262.729 991.8 261.345C991.028 259.929 989.965 258.802 988.614 257.965C987.294 257.128 985.813 256.71 984.172 256.71C982.53 256.71 981.033 257.128 979.681 257.965C978.362 258.802 977.299 259.929 976.495 261.345C975.722 262.729 975.336 264.306 975.336 266.077C975.336 267.815 975.722 269.392 976.495 270.808C977.299 272.225 978.362 273.351 979.681 274.188C981.033 275.025 982.53 275.443 984.172 275.443Z" fill="white"/>
<path d="M1011.01 278.63C1008.91 278.63 1007.31 278.131 1006.18 277.133C1005.05 276.136 1004.49 274.687 1004.49 272.788V256.999H999.274V253.958H1004.49V242.703L1008.01 241.785V253.958H1015.3V256.999H1008.01V271.871C1008.01 273.158 1008.3 274.092 1008.88 274.671C1009.46 275.218 1010.41 275.492 1011.73 275.492C1012.41 275.492 1013 275.443 1013.52 275.347C1014.06 275.25 1014.64 275.089 1015.26 274.864V278.002C1014.64 278.228 1013.95 278.389 1013.18 278.485C1012.44 278.582 1011.72 278.63 1011.01 278.63Z" fill="white"/>
<path d="M1030.48 278.582C1028.16 278.582 1026.05 278.035 1024.15 276.94C1022.28 275.814 1020.79 274.301 1019.66 272.402C1018.57 270.503 1018.02 268.378 1018.02 266.028C1018.02 263.711 1018.55 261.618 1019.61 259.752C1020.67 257.852 1022.11 256.356 1023.91 255.261C1025.71 254.135 1027.72 253.571 1029.95 253.571C1032.1 253.571 1034.03 254.135 1035.74 255.261C1037.48 256.356 1038.85 257.852 1039.84 259.752C1040.87 261.618 1041.39 263.711 1041.39 266.028V267.139H1021.54C1021.74 268.716 1022.24 270.132 1023.04 271.388C1023.88 272.643 1024.96 273.641 1026.28 274.381C1027.6 275.089 1029.04 275.443 1030.62 275.443C1031.88 275.443 1033.1 275.25 1034.29 274.864C1035.48 274.478 1036.48 273.931 1037.28 273.222L1039.51 275.588C1038.15 276.586 1036.74 277.343 1035.26 277.858C1033.81 278.34 1032.21 278.582 1030.48 278.582ZM1021.64 264.29H1037.82C1037.62 262.842 1037.14 261.554 1036.37 260.427C1035.63 259.269 1034.69 258.367 1033.57 257.724C1032.44 257.048 1031.2 256.71 1029.85 256.71C1028.46 256.71 1027.19 257.032 1026.03 257.675C1024.88 258.319 1023.91 259.22 1023.14 260.379C1022.36 261.506 1021.87 262.809 1021.64 264.29Z" fill="white"/>
<path d="M1057.44 278.534C1055.19 278.534 1053.13 277.986 1051.26 276.892C1049.43 275.765 1047.96 274.269 1046.87 272.402C1045.8 270.503 1045.27 268.378 1045.27 266.028C1045.27 263.679 1045.8 261.57 1046.87 259.703C1047.96 257.836 1049.43 256.356 1051.26 255.261C1053.13 254.135 1055.2 253.571 1057.49 253.571C1058.9 253.571 1060.27 253.813 1061.59 254.296C1062.91 254.746 1064.12 255.422 1065.21 256.323V244.349L1068.79 243.528V278.147H1065.26V275.588C1063.14 277.552 1060.53 278.534 1057.44 278.534ZM1057.78 275.395C1059.29 275.395 1060.69 275.105 1061.98 274.526C1063.3 273.915 1064.38 273.078 1065.21 272.015V260.041C1064.38 259.011 1063.3 258.206 1061.98 257.627C1060.69 257.015 1059.29 256.71 1057.78 256.71C1056.1 256.71 1054.58 257.112 1053.19 257.917C1051.84 258.721 1050.76 259.832 1049.96 261.248C1049.18 262.632 1048.8 264.21 1048.8 265.98C1048.8 267.75 1049.18 269.344 1049.96 270.76C1050.76 272.176 1051.84 273.303 1053.19 274.14C1054.58 274.977 1056.1 275.395 1057.78 275.395Z" fill="white"/>
<path d="M1003 242.413L998.349 246.145C995.351 248.553 990.902 246.405 990.922 242.56C990.941 238.833 995.175 236.696 998.184 238.895L1003 242.413Z" fill="#7DB1FF"/>
<path d="M1006.35 240.637L1002.59 236.188C1000.05 233.173 1002.19 228.56 1006.14 228.56C1009.96 228.56 1012.14 232.928 1009.84 235.984L1006.35 240.637Z" fill="#BCAEF4"/>
<path d="M1009.47 242.413L1014.12 246.145C1017.12 248.553 1021.57 246.405 1021.55 242.56C1021.53 238.833 1017.29 236.696 1014.28 238.895L1009.47 242.413Z" fill="#C582DD"/>
<rect x="925.575" y="337.037" width="141.161" height="66.6835" rx="33.3418" fill="url(#paint2_linear_253_2)"/>
<path d="M948.759 382.881V366.435H951.188V368.766C951.692 367.912 952.326 367.256 953.092 366.796C953.88 366.315 954.777 366.074 955.784 366.074C956.353 366.074 956.867 366.151 957.327 366.304V368.536C957.042 368.427 956.758 368.35 956.473 368.306C956.189 368.263 955.904 368.241 955.62 368.241C954.613 368.241 953.727 368.536 952.961 369.127C952.217 369.696 951.626 370.527 951.188 371.622V382.881H948.759Z" fill="white"/>
<path d="M966.601 383.209C965.047 383.209 963.625 382.837 962.334 382.093C961.065 381.327 960.058 380.298 959.314 379.007C958.57 377.716 958.198 376.272 958.198 374.674C958.198 373.077 958.57 371.633 959.314 370.341C960.058 369.05 961.065 368.033 962.334 367.289C963.625 366.523 965.047 366.14 966.601 366.14C968.177 366.14 969.599 366.523 970.868 367.289C972.138 368.033 973.144 369.05 973.888 370.341C974.632 371.633 975.004 373.077 975.004 374.674C975.004 376.272 974.632 377.716 973.888 379.007C973.144 380.298 972.138 381.327 970.868 382.093C969.599 382.837 968.177 383.209 966.601 383.209ZM966.601 381.042C967.717 381.042 968.724 380.758 969.621 380.189C970.54 379.62 971.262 378.854 971.788 377.891C972.335 376.928 972.608 375.856 972.608 374.674C972.608 373.471 972.335 372.398 971.788 371.458C971.262 370.495 970.54 369.729 969.621 369.16C968.724 368.591 967.717 368.306 966.601 368.306C965.485 368.306 964.468 368.591 963.548 369.16C962.651 369.729 961.929 370.495 961.382 371.458C960.857 372.398 960.594 373.471 960.594 374.674C960.594 375.856 960.857 376.928 961.382 377.891C961.929 378.854 962.651 379.62 963.548 380.189C964.468 380.758 965.485 381.042 966.601 381.042Z" fill="white"/>
<path d="M986.027 383.209C984.473 383.209 983.051 382.837 981.76 382.093C980.49 381.327 979.484 380.298 978.74 379.007C977.996 377.716 977.624 376.272 977.624 374.674C977.624 373.077 977.996 371.633 978.74 370.341C979.484 369.05 980.49 368.033 981.76 367.289C983.051 366.523 984.473 366.14 986.027 366.14C987.602 366.14 989.025 366.523 990.294 367.289C991.563 368.033 992.57 369.05 993.314 370.341C994.058 371.633 994.43 373.077 994.43 374.674C994.43 376.272 994.058 377.716 993.314 379.007C992.57 380.298 991.563 381.327 990.294 382.093C989.025 382.837 987.602 383.209 986.027 383.209ZM986.027 381.042C987.143 381.042 988.15 380.758 989.047 380.189C989.966 379.62 990.688 378.854 991.213 377.891C991.76 376.928 992.034 375.856 992.034 374.674C992.034 373.471 991.76 372.398 991.213 371.458C990.688 370.495 989.966 369.729 989.047 369.16C988.15 368.591 987.143 368.306 986.027 368.306C984.911 368.306 983.893 368.591 982.974 369.16C982.077 369.729 981.355 370.495 980.808 371.458C980.283 372.398 980.02 373.471 980.02 374.674C980.02 375.856 980.283 376.928 980.808 377.891C981.355 378.854 982.077 379.62 982.974 380.189C983.893 380.758 984.911 381.042 986.027 381.042Z" fill="white"/>
<path d="M1004.27 383.209C1002.85 383.209 1001.75 382.87 1000.99 382.191C1000.22 381.513 999.84 380.528 999.84 379.237V368.503H996.294V366.435H999.84V358.784L1002.24 358.16V366.435H1007.19V368.503H1002.24V378.613C1002.24 379.489 1002.43 380.123 1002.83 380.517C1003.22 380.889 1003.87 381.075 1004.76 381.075C1005.22 381.075 1005.63 381.042 1005.98 380.977C1006.35 380.911 1006.74 380.802 1007.16 380.648V382.782C1006.74 382.935 1006.27 383.045 1005.75 383.11C1005.24 383.176 1004.75 383.209 1004.27 383.209Z" fill="white"/>
<path d="M1017.51 383.176C1015.93 383.176 1014.5 382.804 1013.21 382.06C1011.94 381.294 1010.92 380.266 1010.15 378.974C1009.41 377.683 1009.04 376.239 1009.04 374.642C1009.04 373.066 1009.4 371.644 1010.12 370.374C1010.84 369.083 1011.82 368.066 1013.04 367.322C1014.27 366.556 1015.64 366.173 1017.15 366.173C1018.61 366.173 1019.93 366.556 1021.08 367.322C1022.27 368.066 1023.2 369.083 1023.88 370.374C1024.58 371.644 1024.93 373.066 1024.93 374.642V375.397H1011.43C1011.57 376.469 1011.9 377.432 1012.45 378.285C1013.02 379.139 1013.75 379.817 1014.65 380.32C1015.55 380.802 1016.53 381.042 1017.61 381.042C1018.46 381.042 1019.29 380.911 1020.1 380.648C1020.91 380.386 1021.59 380.014 1022.14 379.532L1023.65 381.141C1022.73 381.819 1021.76 382.334 1020.76 382.684C1019.77 383.012 1018.69 383.176 1017.51 383.176ZM1011.5 373.46H1022.5C1022.37 372.475 1022.04 371.6 1021.51 370.834C1021.01 370.046 1020.37 369.433 1019.61 368.996C1018.84 368.536 1018 368.306 1017.08 368.306C1016.14 368.306 1015.27 368.525 1014.49 368.963C1013.7 369.4 1013.04 370.013 1012.52 370.801C1011.99 371.567 1011.65 372.453 1011.5 373.46Z" fill="white"/>
<path d="M1035.84 383.143C1034.31 383.143 1032.91 382.771 1031.64 382.027C1030.39 381.261 1029.39 380.244 1028.65 378.974C1027.93 377.683 1027.57 376.239 1027.57 374.642C1027.57 373.044 1027.93 371.611 1028.65 370.341C1029.39 369.072 1030.39 368.066 1031.64 367.322C1032.91 366.556 1034.32 366.173 1035.87 366.173C1036.83 366.173 1037.76 366.337 1038.66 366.665C1039.56 366.971 1040.38 367.431 1041.12 368.044V359.903L1043.55 359.345V382.881H1041.16V381.141C1039.71 382.476 1037.94 383.143 1035.84 383.143ZM1036.07 381.01C1037.1 381.01 1038.05 380.813 1038.92 380.419C1039.82 380.003 1040.55 379.434 1041.12 378.712V370.571C1040.55 369.871 1039.82 369.324 1038.92 368.93C1038.05 368.514 1037.1 368.306 1036.07 368.306C1034.93 368.306 1033.89 368.58 1032.95 369.127C1032.03 369.674 1031.3 370.429 1030.75 371.392C1030.23 372.333 1029.96 373.405 1029.96 374.609C1029.96 375.812 1030.23 376.896 1030.75 377.858C1031.3 378.821 1032.03 379.587 1032.95 380.156C1033.89 380.725 1034.93 381.01 1036.07 381.01Z" fill="white"/>
<path d="M998.826 358.587L995.666 361.124C993.627 362.761 990.603 361.301 990.616 358.687C990.629 356.153 993.507 354.7 995.553 356.195L998.826 358.587Z" fill="#7DB1FF"/>
<path d="M1001.1 357.379L998.55 354.355C996.82 352.305 998.278 349.169 1000.96 349.169C1003.56 349.169 1005.04 352.138 1003.48 354.216L1001.1 357.379Z" fill="#BCAEF4"/>
<path d="M1003.23 358.587L1006.39 361.124C1008.42 362.761 1011.45 361.301 1011.44 358.687C1011.42 356.153 1008.54 354.7 1006.5 356.195L1003.23 358.587Z" fill="#C582DD"/>
<rect x="962.626" y="430.595" width="68.664" height="68.664" rx="17.58" fill="url(#paint3_linear_253_2)"/>
<path d="M997.083 468.2L991.348 461.404C987.461 456.797 990.736 449.749 996.763 449.749C1002.61 449.749 1005.94 456.422 1002.43 461.092L997.083 468.2Z" fill="#BCAEF4"/>
<path d="M992.015 471.157L984.911 476.861C980.33 480.538 973.532 477.257 973.562 471.383C973.592 465.688 980.061 462.423 984.659 465.783L992.015 471.157Z" fill="#7DB1FF"/>
<path d="M1002.08 471.157L1009.18 476.861C1013.76 480.538 1020.56 477.257 1020.53 471.383C1020.5 465.688 1014.03 462.423 1009.43 465.783L1002.08 471.157Z" fill="#C582DD"/>
<defs>
<linearGradient id="paint0_linear_253_2" x1="996.153" y1="47.7407" x2="996.153" y2="179.919" gradientUnits="userSpaceOnUse">
<stop stop-color="#26203C"/>
<stop offset="1" stop-color="#60548F"/>
</linearGradient>
<linearGradient id="paint1_linear_253_2" x1="999.07" y1="210.715" x2="999.07" y2="308.801" gradientUnits="userSpaceOnUse">
<stop stop-color="#26203C"/>
<stop offset="1" stop-color="#60548F"/>
</linearGradient>
<linearGradient id="paint2_linear_253_2" x1="996.156" y1="337.037" x2="996.156" y2="403.72" gradientUnits="userSpaceOnUse">
<stop stop-color="#26203C"/>
<stop offset="1" stop-color="#60548F"/>
</linearGradient>
<linearGradient id="paint3_linear_253_2" x1="996.958" y1="430.595" x2="996.958" y2="499.259" gradientUnits="userSpaceOnUse">
<stop stop-color="#2A2341"/>
<stop offset="1" stop-color="#60548F"/>
</linearGradient>
</defs>
</svg>
