<svg width="439" height="627" viewBox="0 0 439 627" fill="none" xmlns="http://www.w3.org/2000/svg">
<rect width="438" height="626" transform="translate(0.831055 0.160156)" fill="white"/>
<rect x="88.0659" y="19.3737" width="124.068" height="170.079" fill="#7DB1FF"/>
<rect x="227.745" y="19.3737" width="124.068" height="170.079" fill="#7DB1FF"/>
<rect x="206.619" y="15.3046" width="26.209" height="178.218" fill="#7DB1FF"/>
<rect x="87.8501" y="224.052" width="124.068" height="170.079" fill="#BCAEF4"/>
<rect x="227.529" y="224.052" width="124.068" height="170.079" fill="#BCAEF4"/>
<rect x="206.403" y="219.982" width="26.209" height="178.218" fill="#BCAEF4"/>
<rect x="88.0659" y="436.867" width="124.068" height="170.079" fill="#C582DD"/>
<rect x="227.745" y="436.867" width="124.068" height="170.079" fill="#C582DD"/>
<rect x="206.619" y="432.798" width="26.209" height="178.218" fill="#C582DD"/>
<path d="M192.801 280.091L192.781 269.891L187.721 278.391H186.801L181.741 269.951V280.091H179.821V266.091H181.461L187.301 275.931L193.061 266.091H194.701L194.721 280.091H192.801ZM209.082 278.351V280.091H198.922V266.091H208.802V267.831H200.922V272.131H207.942V273.831H200.922V278.351H209.082ZM216.261 263.251H218.001L211.401 282.091H209.661L216.261 263.251ZM225.221 280.251C223.821 280.251 222.555 279.945 221.421 279.331C220.301 278.705 219.421 277.851 218.781 276.771C218.141 275.678 217.821 274.451 217.821 273.091C217.821 271.731 218.141 270.511 218.781 269.431C219.421 268.338 220.308 267.485 221.441 266.871C222.575 266.245 223.841 265.931 225.241 265.931C226.335 265.931 227.335 266.118 228.241 266.491C229.148 266.851 229.921 267.391 230.561 268.111L229.261 269.371C228.208 268.265 226.895 267.711 225.321 267.711C224.281 267.711 223.341 267.945 222.501 268.411C221.661 268.878 221.001 269.525 220.521 270.351C220.055 271.165 219.821 272.078 219.821 273.091C219.821 274.105 220.055 275.025 220.521 275.851C221.001 276.665 221.661 277.305 222.501 277.771C223.341 278.238 224.281 278.471 225.321 278.471C226.881 278.471 228.195 277.911 229.261 276.791L230.561 278.051C229.921 278.771 229.141 279.318 228.221 279.691C227.315 280.065 226.315 280.251 225.221 280.251ZM235.414 267.831V272.711H242.434V274.431H235.414V280.091H233.414V266.091H243.294V267.831H235.414ZM250.131 280.251C249.078 280.251 248.058 280.091 247.071 279.771C246.098 279.438 245.331 279.011 244.771 278.491L245.511 276.931C246.044 277.411 246.724 277.805 247.551 278.111C248.391 278.405 249.251 278.551 250.131 278.551C251.291 278.551 252.158 278.358 252.731 277.971C253.304 277.571 253.591 277.045 253.591 276.391C253.591 275.911 253.431 275.525 253.111 275.231C252.804 274.925 252.418 274.691 251.951 274.531C251.498 274.371 250.851 274.191 250.011 273.991C248.958 273.738 248.104 273.485 247.451 273.231C246.811 272.978 246.258 272.591 245.791 272.071C245.338 271.538 245.111 270.825 245.111 269.931C245.111 269.185 245.304 268.511 245.691 267.911C246.091 267.311 246.691 266.831 247.491 266.471C248.291 266.111 249.284 265.931 250.471 265.931C251.298 265.931 252.111 266.038 252.911 266.251C253.711 266.465 254.398 266.771 254.971 267.171L254.311 268.771C253.724 268.398 253.098 268.118 252.431 267.931C251.764 267.731 251.111 267.631 250.471 267.631C249.338 267.631 248.484 267.838 247.911 268.251C247.351 268.665 247.071 269.198 247.071 269.851C247.071 270.331 247.231 270.725 247.551 271.031C247.871 271.325 248.264 271.558 248.731 271.731C249.211 271.891 249.858 272.065 250.671 272.251C251.724 272.505 252.571 272.758 253.211 273.011C253.851 273.265 254.398 273.651 254.851 274.171C255.318 274.691 255.551 275.391 255.551 276.271C255.551 277.005 255.351 277.678 254.951 278.291C254.551 278.891 253.944 279.371 253.131 279.731C252.318 280.078 251.318 280.251 250.131 280.251ZM259.064 277.471C259.437 277.471 259.744 277.605 259.984 277.871C260.237 278.125 260.364 278.445 260.364 278.831C260.364 279.031 260.337 279.225 260.284 279.411C260.244 279.598 260.157 279.885 260.024 280.271L259.084 283.051H257.824L258.564 280.071C258.31 279.978 258.104 279.825 257.944 279.611C257.797 279.385 257.724 279.125 257.724 278.831C257.724 278.431 257.85 278.105 258.104 277.851C258.357 277.598 258.677 277.471 259.064 277.471ZM125.348 290.091H131.248C132.728 290.091 134.041 290.385 135.188 290.971C136.335 291.558 137.221 292.385 137.848 293.451C138.488 294.505 138.808 295.718 138.808 297.091C138.808 298.465 138.488 299.685 137.848 300.751C137.221 301.805 136.335 302.625 135.188 303.211C134.041 303.798 132.728 304.091 131.248 304.091H125.348V290.091ZM131.128 302.351C132.261 302.351 133.255 302.131 134.108 301.691C134.975 301.251 135.641 300.638 136.108 299.851C136.575 299.051 136.808 298.131 136.808 297.091C136.808 296.051 136.575 295.138 136.108 294.351C135.641 293.551 134.975 292.931 134.108 292.491C133.255 292.051 132.261 291.831 131.128 291.831H127.348V302.351H131.128ZM151.171 298.851C151.171 298.998 151.158 299.191 151.131 299.431H142.531C142.651 300.365 143.058 301.118 143.751 301.691C144.458 302.251 145.331 302.531 146.371 302.531C147.638 302.531 148.658 302.105 149.431 301.251L150.491 302.491C150.011 303.051 149.411 303.478 148.691 303.771C147.985 304.065 147.191 304.211 146.311 304.211C145.191 304.211 144.198 303.985 143.331 303.531C142.465 303.065 141.791 302.418 141.311 301.591C140.845 300.765 140.611 299.831 140.611 298.791C140.611 297.765 140.838 296.838 141.291 296.011C141.758 295.185 142.391 294.545 143.191 294.091C144.005 293.625 144.918 293.391 145.931 293.391C146.945 293.391 147.845 293.625 148.631 294.091C149.431 294.545 150.051 295.185 150.491 296.011C150.945 296.838 151.171 297.785 151.171 298.851ZM145.931 295.011C145.011 295.011 144.238 295.291 143.611 295.851C142.998 296.411 142.638 297.145 142.531 298.051H149.331C149.225 297.158 148.858 296.431 148.231 295.871C147.618 295.298 146.851 295.011 145.931 295.011ZM159.458 293.391C160.484 293.391 161.404 293.618 162.218 294.071C163.031 294.525 163.664 295.158 164.118 295.971C164.584 296.785 164.818 297.725 164.818 298.791C164.818 299.858 164.584 300.805 164.118 301.631C163.664 302.445 163.031 303.078 162.218 303.531C161.404 303.985 160.484 304.211 159.458 304.211C158.698 304.211 157.998 304.065 157.358 303.771C156.731 303.478 156.198 303.051 155.758 302.491V307.971H153.838V293.491H155.678V295.171C156.104 294.585 156.644 294.145 157.298 293.851C157.951 293.545 158.671 293.391 159.458 293.391ZM159.298 302.531C159.978 302.531 160.584 302.378 161.118 302.071C161.664 301.751 162.091 301.311 162.398 300.751C162.718 300.178 162.878 299.525 162.878 298.791C162.878 298.058 162.718 297.411 162.398 296.851C162.091 296.278 161.664 295.838 161.118 295.531C160.584 295.225 159.978 295.071 159.298 295.071C158.631 295.071 158.024 295.231 157.478 295.551C156.944 295.858 156.518 296.291 156.198 296.851C155.891 297.411 155.738 298.058 155.738 298.791C155.738 299.525 155.891 300.178 156.198 300.751C156.504 301.311 156.931 301.751 157.478 302.071C158.024 302.378 158.631 302.531 159.298 302.531ZM169.31 295.271C169.644 294.658 170.137 294.191 170.79 293.871C171.444 293.551 172.237 293.391 173.17 293.391V295.251C173.064 295.238 172.917 295.231 172.73 295.231C171.69 295.231 170.87 295.545 170.27 296.171C169.684 296.785 169.39 297.665 169.39 298.811V304.091H167.47V293.491H169.31V295.271ZM185.019 298.851C185.019 298.998 185.006 299.191 184.979 299.431H176.379C176.499 300.365 176.906 301.118 177.599 301.691C178.306 302.251 179.179 302.531 180.219 302.531C181.486 302.531 182.506 302.105 183.279 301.251L184.339 302.491C183.859 303.051 183.259 303.478 182.539 303.771C181.832 304.065 181.039 304.211 180.159 304.211C179.039 304.211 178.046 303.985 177.179 303.531C176.312 303.065 175.639 302.418 175.159 301.591C174.692 300.765 174.459 299.831 174.459 298.791C174.459 297.765 174.686 296.838 175.139 296.011C175.606 295.185 176.239 294.545 177.039 294.091C177.852 293.625 178.766 293.391 179.779 293.391C180.792 293.391 181.692 293.625 182.479 294.091C183.279 294.545 183.899 295.185 184.339 296.011C184.792 296.838 185.019 297.785 185.019 298.851ZM179.779 295.011C178.859 295.011 178.086 295.291 177.459 295.851C176.846 296.411 176.486 297.145 176.379 298.051H183.179C183.072 297.158 182.706 296.431 182.079 295.871C181.466 295.298 180.699 295.011 179.779 295.011ZM190.725 304.211C189.859 304.211 189.025 304.098 188.225 303.871C187.425 303.631 186.799 303.331 186.345 302.971L187.145 301.451C187.612 301.785 188.179 302.051 188.845 302.251C189.512 302.451 190.185 302.551 190.865 302.551C192.545 302.551 193.385 302.071 193.385 301.111C193.385 300.791 193.272 300.538 193.045 300.351C192.819 300.165 192.532 300.031 192.185 299.951C191.852 299.858 191.372 299.758 190.745 299.651C189.892 299.518 189.192 299.365 188.645 299.191C188.112 299.018 187.652 298.725 187.265 298.311C186.879 297.898 186.685 297.318 186.685 296.571C186.685 295.611 187.085 294.845 187.885 294.271C188.685 293.685 189.759 293.391 191.105 293.391C191.812 293.391 192.519 293.478 193.225 293.651C193.932 293.825 194.512 294.058 194.965 294.351L194.145 295.871C193.279 295.311 192.259 295.031 191.085 295.031C190.272 295.031 189.652 295.165 189.225 295.431C188.799 295.698 188.585 296.051 188.585 296.491C188.585 296.838 188.705 297.111 188.945 297.311C189.185 297.511 189.479 297.658 189.825 297.751C190.185 297.845 190.685 297.951 191.325 298.071C192.179 298.218 192.865 298.378 193.385 298.551C193.919 298.711 194.372 298.991 194.745 299.391C195.119 299.791 195.305 300.351 195.305 301.071C195.305 302.031 194.892 302.798 194.065 303.371C193.252 303.931 192.139 304.211 190.725 304.211ZM200.745 304.211C199.878 304.211 199.045 304.098 198.245 303.871C197.445 303.631 196.818 303.331 196.365 302.971L197.165 301.451C197.631 301.785 198.198 302.051 198.865 302.251C199.531 302.451 200.205 302.551 200.885 302.551C202.565 302.551 203.405 302.071 203.405 301.111C203.405 300.791 203.291 300.538 203.065 300.351C202.838 300.165 202.551 300.031 202.205 299.951C201.871 299.858 201.391 299.758 200.765 299.651C199.911 299.518 199.211 299.365 198.665 299.191C198.131 299.018 197.671 298.725 197.285 298.311C196.898 297.898 196.705 297.318 196.705 296.571C196.705 295.611 197.105 294.845 197.905 294.271C198.705 293.685 199.778 293.391 201.125 293.391C201.831 293.391 202.538 293.478 203.245 293.651C203.951 293.825 204.531 294.058 204.985 294.351L204.165 295.871C203.298 295.311 202.278 295.031 201.105 295.031C200.291 295.031 199.671 295.165 199.245 295.431C198.818 295.698 198.605 296.051 198.605 296.491C198.605 296.838 198.725 297.111 198.965 297.311C199.205 297.511 199.498 297.658 199.845 297.751C200.205 297.845 200.705 297.951 201.345 298.071C202.198 298.218 202.885 298.378 203.405 298.551C203.938 298.711 204.391 298.991 204.765 299.391C205.138 299.791 205.325 300.351 205.325 301.071C205.325 302.031 204.911 302.798 204.085 303.371C203.271 303.931 202.158 304.211 200.745 304.211ZM207.724 293.491H209.644V304.091H207.724V293.491ZM208.684 291.451C208.311 291.451 207.998 291.331 207.744 291.091C207.504 290.851 207.384 290.558 207.384 290.211C207.384 289.865 207.504 289.571 207.744 289.331C207.998 289.078 208.311 288.951 208.684 288.951C209.058 288.951 209.364 289.071 209.604 289.311C209.858 289.538 209.984 289.825 209.984 290.171C209.984 290.531 209.858 290.838 209.604 291.091C209.364 291.331 209.058 291.451 208.684 291.451ZM217.85 304.211C216.797 304.211 215.85 303.978 215.01 303.511C214.17 303.045 213.51 302.405 213.03 301.591C212.564 300.765 212.33 299.831 212.33 298.791C212.33 297.751 212.564 296.825 213.03 296.011C213.51 295.185 214.17 294.545 215.01 294.091C215.85 293.625 216.797 293.391 217.85 293.391C218.904 293.391 219.844 293.625 220.67 294.091C221.51 294.545 222.164 295.185 222.63 296.011C223.11 296.825 223.35 297.751 223.35 298.791C223.35 299.831 223.11 300.765 222.63 301.591C222.164 302.405 221.51 303.045 220.67 303.511C219.844 303.978 218.904 304.211 217.85 304.211ZM217.85 302.531C218.53 302.531 219.137 302.378 219.67 302.071C220.217 301.751 220.644 301.311 220.95 300.751C221.257 300.178 221.41 299.525 221.41 298.791C221.41 298.058 221.257 297.411 220.95 296.851C220.644 296.278 220.217 295.838 219.67 295.531C219.137 295.225 218.53 295.071 217.85 295.071C217.17 295.071 216.557 295.225 216.01 295.531C215.477 295.838 215.05 296.278 214.73 296.851C214.424 297.411 214.27 298.058 214.27 298.791C214.27 299.525 214.424 300.178 214.73 300.751C215.05 301.311 215.477 301.751 216.01 302.071C216.557 302.378 217.17 302.531 217.85 302.531ZM231.666 293.391C233.012 293.391 234.079 293.785 234.866 294.571C235.666 295.345 236.066 296.485 236.066 297.991V304.091H234.146V298.211C234.146 297.185 233.899 296.411 233.406 295.891C232.912 295.371 232.206 295.111 231.286 295.111C230.246 295.111 229.426 295.418 228.826 296.031C228.226 296.631 227.926 297.498 227.926 298.631V304.091H226.006V293.491H227.846V295.091C228.232 294.545 228.752 294.125 229.406 293.831C230.072 293.538 230.826 293.391 231.666 293.391ZM240.099 301.471C240.472 301.471 240.779 301.605 241.019 301.871C241.272 302.125 241.399 302.445 241.399 302.831C241.399 303.031 241.372 303.225 241.319 303.411C241.279 303.598 241.192 303.885 241.059 304.271L240.119 307.051H238.859L239.599 304.071C239.345 303.978 239.139 303.825 238.979 303.611C238.832 303.385 238.759 303.125 238.759 302.831C238.759 302.431 238.885 302.105 239.139 301.851C239.392 301.598 239.712 301.471 240.099 301.471ZM258.721 300.591H251.281L249.741 304.091H247.681L254.021 290.091H256.001L262.361 304.091H260.261L258.721 300.591ZM258.021 298.991L255.001 292.131L251.981 298.991H258.021ZM264.45 290.091H270.35C271.83 290.091 273.143 290.385 274.29 290.971C275.436 291.558 276.323 292.385 276.95 293.451C277.59 294.505 277.91 295.718 277.91 297.091C277.91 298.465 277.59 299.685 276.95 300.751C276.323 301.805 275.436 302.625 274.29 303.211C273.143 303.798 271.83 304.091 270.35 304.091H264.45V290.091ZM270.23 302.351C271.363 302.351 272.356 302.131 273.21 301.691C274.076 301.251 274.743 300.638 275.21 299.851C275.676 299.051 275.91 298.131 275.91 297.091C275.91 296.051 275.676 295.138 275.21 294.351C274.743 293.551 274.076 292.931 273.21 292.491C272.356 292.051 271.363 291.831 270.23 291.831H266.45V302.351H270.23ZM293.013 290.091V304.091H291.013V297.851H282.973V304.091H280.973V290.091H282.973V296.111H291.013V290.091H293.013ZM297.203 290.091H303.103C304.583 290.091 305.897 290.385 307.043 290.971C308.19 291.558 309.077 292.385 309.703 293.451C310.343 294.505 310.663 295.718 310.663 297.091C310.663 298.465 310.343 299.685 309.703 300.751C309.077 301.805 308.19 302.625 307.043 303.211C305.897 303.798 304.583 304.091 303.103 304.091H297.203V290.091ZM302.983 302.351C304.117 302.351 305.11 302.131 305.963 301.691C306.83 301.251 307.497 300.638 307.963 299.851C308.43 299.051 308.663 298.131 308.663 297.091C308.663 296.051 308.43 295.138 307.963 294.351C307.497 293.551 306.83 292.931 305.963 292.491C305.11 292.051 304.117 291.831 302.983 291.831H299.203V302.351H302.983ZM313.536 301.471C313.91 301.471 314.216 301.605 314.456 301.871C314.71 302.125 314.836 302.445 314.836 302.831C314.836 303.031 314.81 303.225 314.756 303.411C314.716 303.598 314.63 303.885 314.496 304.271L313.556 307.051H312.296L313.036 304.071C312.783 303.978 312.576 303.825 312.416 303.611C312.27 303.385 312.196 303.125 312.196 302.831C312.196 302.431 312.323 302.105 312.576 301.851C312.83 301.598 313.15 301.471 313.536 301.471ZM140.129 320.831C140.943 321.058 141.583 321.471 142.049 322.071C142.516 322.658 142.749 323.405 142.749 324.311C142.749 325.525 142.289 326.458 141.369 327.111C140.463 327.765 139.136 328.091 137.389 328.091H130.709V314.091H136.989C138.589 314.091 139.823 314.411 140.689 315.051C141.569 315.691 142.009 316.578 142.009 317.711C142.009 318.445 141.836 319.078 141.489 319.611C141.156 320.145 140.703 320.551 140.129 320.831ZM132.709 315.711V320.191H136.809C137.836 320.191 138.623 320.005 139.169 319.631C139.729 319.245 140.009 318.685 140.009 317.951C140.009 317.218 139.729 316.665 139.169 316.291C138.623 315.905 137.836 315.711 136.809 315.711H132.709ZM137.309 326.471C138.443 326.471 139.296 326.285 139.869 325.911C140.443 325.538 140.729 324.951 140.729 324.151C140.729 322.591 139.589 321.811 137.309 321.811H132.709V326.471H137.309ZM150.106 328.211C149.053 328.211 148.106 327.978 147.266 327.511C146.426 327.045 145.766 326.405 145.286 325.591C144.819 324.765 144.586 323.831 144.586 322.791C144.586 321.751 144.819 320.825 145.286 320.011C145.766 319.185 146.426 318.545 147.266 318.091C148.106 317.625 149.053 317.391 150.106 317.391C151.159 317.391 152.099 317.625 152.926 318.091C153.766 318.545 154.419 319.185 154.886 320.011C155.366 320.825 155.606 321.751 155.606 322.791C155.606 323.831 155.366 324.765 154.886 325.591C154.419 326.405 153.766 327.045 152.926 327.511C152.099 327.978 151.159 328.211 150.106 328.211ZM150.106 326.531C150.786 326.531 151.393 326.378 151.926 326.071C152.473 325.751 152.899 325.311 153.206 324.751C153.513 324.178 153.666 323.525 153.666 322.791C153.666 322.058 153.513 321.411 153.206 320.851C152.899 320.278 152.473 319.838 151.926 319.531C151.393 319.225 150.786 319.071 150.106 319.071C149.426 319.071 148.813 319.225 148.266 319.531C147.733 319.838 147.306 320.278 146.986 320.851C146.679 321.411 146.526 322.058 146.526 322.791C146.526 323.525 146.679 324.178 146.986 324.751C147.306 325.311 147.733 325.751 148.266 326.071C148.813 326.378 149.426 326.531 150.106 326.531ZM168.261 313.251V328.091H166.421V326.411C165.995 326.998 165.455 327.445 164.801 327.751C164.148 328.058 163.428 328.211 162.641 328.211C161.615 328.211 160.695 327.985 159.881 327.531C159.068 327.078 158.428 326.445 157.961 325.631C157.508 324.805 157.281 323.858 157.281 322.791C157.281 321.725 157.508 320.785 157.961 319.971C158.428 319.158 159.068 318.525 159.881 318.071C160.695 317.618 161.615 317.391 162.641 317.391C163.401 317.391 164.101 317.538 164.741 317.831C165.381 318.111 165.915 318.531 166.341 319.091V313.251H168.261ZM162.801 326.531C163.468 326.531 164.075 326.378 164.621 326.071C165.168 325.751 165.595 325.311 165.901 324.751C166.208 324.178 166.361 323.525 166.361 322.791C166.361 322.058 166.208 321.411 165.901 320.851C165.595 320.278 165.168 319.838 164.621 319.531C164.075 319.225 163.468 319.071 162.801 319.071C162.121 319.071 161.508 319.225 160.961 319.531C160.428 319.838 160.001 320.278 159.681 320.851C159.375 321.411 159.221 322.058 159.221 322.791C159.221 323.525 159.375 324.178 159.681 324.751C160.001 325.311 160.428 325.751 160.961 326.071C161.508 326.378 162.121 326.531 162.801 326.531ZM181.274 317.491L176.134 329.151C175.681 330.231 175.148 330.991 174.534 331.431C173.934 331.871 173.208 332.091 172.354 332.091C171.834 332.091 171.328 332.005 170.834 331.831C170.354 331.671 169.954 331.431 169.634 331.111L170.454 329.671C171.001 330.191 171.634 330.451 172.354 330.451C172.821 330.451 173.208 330.325 173.514 330.071C173.834 329.831 174.121 329.411 174.374 328.811L174.714 328.071L170.034 317.491H172.034L175.734 325.971L179.394 317.491H181.274ZM188.717 314.091H194.617C196.097 314.091 197.41 314.385 198.557 314.971C199.704 315.558 200.59 316.385 201.217 317.451C201.857 318.505 202.177 319.718 202.177 321.091C202.177 322.465 201.857 323.685 201.217 324.751C200.59 325.805 199.704 326.625 198.557 327.211C197.41 327.798 196.097 328.091 194.617 328.091H188.717V314.091ZM194.497 326.351C195.63 326.351 196.624 326.131 197.477 325.691C198.344 325.251 199.01 324.638 199.477 323.851C199.944 323.051 200.177 322.131 200.177 321.091C200.177 320.051 199.944 319.138 199.477 318.351C199.01 317.551 198.344 316.931 197.477 316.491C196.624 316.051 195.63 315.831 194.497 315.831H190.717V326.351H194.497ZM214.341 317.491L209.201 329.151C208.747 330.231 208.214 330.991 207.601 331.431C207.001 331.871 206.274 332.091 205.421 332.091C204.901 332.091 204.394 332.005 203.901 331.831C203.421 331.671 203.021 331.431 202.701 331.111L203.521 329.671C204.067 330.191 204.701 330.451 205.421 330.451C205.887 330.451 206.274 330.325 206.581 330.071C206.901 329.831 207.187 329.411 207.441 328.811L207.781 328.071L203.101 317.491H205.101L208.801 325.971L212.461 317.491H214.341ZM219.036 328.211C218.169 328.211 217.336 328.098 216.536 327.871C215.736 327.631 215.109 327.331 214.656 326.971L215.456 325.451C215.922 325.785 216.489 326.051 217.156 326.251C217.822 326.451 218.496 326.551 219.176 326.551C220.856 326.551 221.696 326.071 221.696 325.111C221.696 324.791 221.582 324.538 221.356 324.351C221.129 324.165 220.842 324.031 220.496 323.951C220.162 323.858 219.682 323.758 219.056 323.651C218.202 323.518 217.502 323.365 216.956 323.191C216.422 323.018 215.962 322.725 215.576 322.311C215.189 321.898 214.996 321.318 214.996 320.571C214.996 319.611 215.396 318.845 216.196 318.271C216.996 317.685 218.069 317.391 219.416 317.391C220.122 317.391 220.829 317.478 221.536 317.651C222.242 317.825 222.822 318.058 223.276 318.351L222.456 319.871C221.589 319.311 220.569 319.031 219.396 319.031C218.582 319.031 217.962 319.165 217.536 319.431C217.109 319.698 216.896 320.051 216.896 320.491C216.896 320.838 217.016 321.111 217.256 321.311C217.496 321.511 217.789 321.658 218.136 321.751C218.496 321.845 218.996 321.951 219.636 322.071C220.489 322.218 221.176 322.378 221.696 322.551C222.229 322.711 222.682 322.991 223.056 323.391C223.429 323.791 223.616 324.351 223.616 325.071C223.616 326.031 223.202 326.798 222.376 327.371C221.562 327.931 220.449 328.211 219.036 328.211ZM239.275 317.391C240.609 317.391 241.662 317.778 242.435 318.551C243.222 319.325 243.615 320.471 243.615 321.991V328.091H241.695V322.211C241.695 321.185 241.455 320.411 240.975 319.891C240.509 319.371 239.835 319.111 238.955 319.111C237.982 319.111 237.209 319.418 236.635 320.031C236.062 320.631 235.775 321.498 235.775 322.631V328.091H233.855V322.211C233.855 321.185 233.615 320.411 233.135 319.891C232.669 319.371 231.995 319.111 231.115 319.111C230.142 319.111 229.369 319.418 228.795 320.031C228.222 320.631 227.935 321.498 227.935 322.631V328.091H226.015V317.491H227.855V319.071C228.242 318.525 228.749 318.111 229.375 317.831C230.002 317.538 230.715 317.391 231.515 317.391C232.342 317.391 233.075 317.558 233.715 317.891C234.355 318.225 234.849 318.711 235.195 319.351C235.595 318.738 236.149 318.258 236.855 317.911C237.575 317.565 238.382 317.391 239.275 317.391ZM251.747 328.211C250.693 328.211 249.747 327.978 248.907 327.511C248.067 327.045 247.407 326.405 246.927 325.591C246.46 324.765 246.227 323.831 246.227 322.791C246.227 321.751 246.46 320.825 246.927 320.011C247.407 319.185 248.067 318.545 248.907 318.091C249.747 317.625 250.693 317.391 251.747 317.391C252.8 317.391 253.74 317.625 254.567 318.091C255.407 318.545 256.06 319.185 256.527 320.011C257.007 320.825 257.247 321.751 257.247 322.791C257.247 323.831 257.007 324.765 256.527 325.591C256.06 326.405 255.407 327.045 254.567 327.511C253.74 327.978 252.8 328.211 251.747 328.211ZM251.747 326.531C252.427 326.531 253.033 326.378 253.567 326.071C254.113 325.751 254.54 325.311 254.847 324.751C255.153 324.178 255.307 323.525 255.307 322.791C255.307 322.058 255.153 321.411 254.847 320.851C254.54 320.278 254.113 319.838 253.567 319.531C253.033 319.225 252.427 319.071 251.747 319.071C251.067 319.071 250.453 319.225 249.907 319.531C249.373 319.838 248.947 320.278 248.627 320.851C248.32 321.411 248.167 322.058 248.167 322.791C248.167 323.525 248.32 324.178 248.627 324.751C248.947 325.311 249.373 325.751 249.907 326.071C250.453 326.378 251.067 326.531 251.747 326.531ZM261.742 319.271C262.075 318.658 262.569 318.191 263.222 317.871C263.875 317.551 264.669 317.391 265.602 317.391V319.251C265.495 319.238 265.349 319.231 265.162 319.231C264.122 319.231 263.302 319.545 262.702 320.171C262.115 320.785 261.822 321.665 261.822 322.811V328.091H259.902V317.491H261.742V319.271ZM273.588 317.391C274.615 317.391 275.535 317.618 276.348 318.071C277.162 318.525 277.795 319.158 278.248 319.971C278.715 320.785 278.948 321.725 278.948 322.791C278.948 323.858 278.715 324.805 278.248 325.631C277.795 326.445 277.162 327.078 276.348 327.531C275.535 327.985 274.615 328.211 273.588 328.211C272.828 328.211 272.128 328.065 271.488 327.771C270.862 327.478 270.328 327.051 269.888 326.491V331.971H267.968V317.491H269.808V319.171C270.235 318.585 270.775 318.145 271.428 317.851C272.082 317.545 272.802 317.391 273.588 317.391ZM273.428 326.531C274.108 326.531 274.715 326.378 275.248 326.071C275.795 325.751 276.222 325.311 276.528 324.751C276.848 324.178 277.008 323.525 277.008 322.791C277.008 322.058 276.848 321.411 276.528 320.851C276.222 320.278 275.795 319.838 275.248 319.531C274.715 319.225 274.108 319.071 273.428 319.071C272.762 319.071 272.155 319.231 271.608 319.551C271.075 319.858 270.648 320.291 270.328 320.851C270.022 321.411 269.868 322.058 269.868 322.791C269.868 323.525 270.022 324.178 270.328 324.751C270.635 325.311 271.062 325.751 271.608 326.071C272.155 326.378 272.762 326.531 273.428 326.531ZM287.261 317.391C288.608 317.391 289.675 317.785 290.461 318.571C291.261 319.345 291.661 320.485 291.661 321.991V328.091H289.741V322.211C289.741 321.185 289.495 320.411 289.001 319.891C288.508 319.371 287.801 319.111 286.881 319.111C285.841 319.111 285.021 319.418 284.421 320.031C283.821 320.631 283.521 321.498 283.521 322.631V328.091H281.601V313.251H283.521V318.991C283.921 318.485 284.441 318.091 285.081 317.811C285.735 317.531 286.461 317.391 287.261 317.391ZM295.214 317.491H297.134V328.091H295.214V317.491ZM296.174 315.451C295.801 315.451 295.488 315.331 295.234 315.091C294.994 314.851 294.874 314.558 294.874 314.211C294.874 313.865 294.994 313.571 295.234 313.331C295.488 313.078 295.801 312.951 296.174 312.951C296.548 312.951 296.854 313.071 297.094 313.311C297.348 313.538 297.474 313.825 297.474 314.171C297.474 314.531 297.348 314.838 297.094 315.091C296.854 315.331 296.548 315.451 296.174 315.451ZM305.42 328.211C304.34 328.211 303.374 327.978 302.52 327.511C301.68 327.045 301.02 326.405 300.54 325.591C300.06 324.765 299.82 323.831 299.82 322.791C299.82 321.751 300.06 320.825 300.54 320.011C301.02 319.185 301.68 318.545 302.52 318.091C303.374 317.625 304.34 317.391 305.42 317.391C306.38 317.391 307.234 317.585 307.98 317.971C308.74 318.358 309.327 318.918 309.74 319.651L308.28 320.591C307.947 320.085 307.534 319.705 307.04 319.451C306.547 319.198 306 319.071 305.4 319.071C304.707 319.071 304.08 319.225 303.52 319.531C302.974 319.838 302.54 320.278 302.22 320.851C301.914 321.411 301.76 322.058 301.76 322.791C301.76 323.538 301.914 324.198 302.22 324.771C302.54 325.331 302.974 325.765 303.52 326.071C304.08 326.378 304.707 326.531 305.4 326.531C306 326.531 306.547 326.405 307.04 326.151C307.534 325.898 307.947 325.518 308.28 325.011L309.74 325.931C309.327 326.665 308.74 327.231 307.98 327.631C307.234 328.018 306.38 328.211 305.42 328.211ZM178.17 338.091H184.07C185.55 338.091 186.864 338.385 188.01 338.971C189.157 339.558 190.044 340.385 190.67 341.451C191.31 342.505 191.63 343.718 191.63 345.091C191.63 346.465 191.31 347.685 190.67 348.751C190.044 349.805 189.157 350.625 188.01 351.211C186.864 351.798 185.55 352.091 184.07 352.091H178.17V338.091ZM183.95 350.351C185.084 350.351 186.077 350.131 186.93 349.691C187.797 349.251 188.464 348.638 188.93 347.851C189.397 347.051 189.63 346.131 189.63 345.091C189.63 344.051 189.397 343.138 188.93 342.351C188.464 341.551 187.797 340.931 186.93 340.491C186.077 340.051 185.084 339.831 183.95 339.831H180.17V350.351H183.95ZM194.414 341.491H196.334V352.091H194.414V341.491ZM195.374 339.451C195 339.451 194.687 339.331 194.434 339.091C194.194 338.851 194.074 338.558 194.074 338.211C194.074 337.865 194.194 337.571 194.434 337.331C194.687 337.078 195 336.951 195.374 336.951C195.747 336.951 196.054 337.071 196.294 337.311C196.547 337.538 196.674 337.825 196.674 338.171C196.674 338.531 196.547 338.838 196.294 339.091C196.054 339.331 195.747 339.451 195.374 339.451ZM203.04 352.211C202.173 352.211 201.34 352.098 200.54 351.871C199.74 351.631 199.113 351.331 198.66 350.971L199.46 349.451C199.926 349.785 200.493 350.051 201.16 350.251C201.826 350.451 202.5 350.551 203.18 350.551C204.86 350.551 205.7 350.071 205.7 349.111C205.7 348.791 205.586 348.538 205.36 348.351C205.133 348.165 204.846 348.031 204.5 347.951C204.166 347.858 203.686 347.758 203.06 347.651C202.206 347.518 201.506 347.365 200.96 347.191C200.426 347.018 199.966 346.725 199.58 346.311C199.193 345.898 199 345.318 199 344.571C199 343.611 199.4 342.845 200.2 342.271C201 341.685 202.073 341.391 203.42 341.391C204.126 341.391 204.833 341.478 205.54 341.651C206.246 341.825 206.826 342.058 207.28 342.351L206.46 343.871C205.593 343.311 204.573 343.031 203.4 343.031C202.586 343.031 201.966 343.165 201.54 343.431C201.113 343.698 200.9 344.051 200.9 344.491C200.9 344.838 201.02 345.111 201.26 345.311C201.5 345.511 201.793 345.658 202.14 345.751C202.5 345.845 203 345.951 203.64 346.071C204.493 346.218 205.18 346.378 205.7 346.551C206.233 346.711 206.686 346.991 207.06 347.391C207.433 347.791 207.62 348.351 207.62 349.071C207.62 350.031 207.206 350.798 206.38 351.371C205.566 351.931 204.453 352.211 203.04 352.211ZM214.559 352.211C213.506 352.211 212.559 351.978 211.719 351.511C210.879 351.045 210.219 350.405 209.739 349.591C209.273 348.765 209.039 347.831 209.039 346.791C209.039 345.751 209.273 344.825 209.739 344.011C210.219 343.185 210.879 342.545 211.719 342.091C212.559 341.625 213.506 341.391 214.559 341.391C215.613 341.391 216.553 341.625 217.379 342.091C218.219 342.545 218.873 343.185 219.339 344.011C219.819 344.825 220.059 345.751 220.059 346.791C220.059 347.831 219.819 348.765 219.339 349.591C218.873 350.405 218.219 351.045 217.379 351.511C216.553 351.978 215.613 352.211 214.559 352.211ZM214.559 350.531C215.239 350.531 215.846 350.378 216.379 350.071C216.926 349.751 217.353 349.311 217.659 348.751C217.966 348.178 218.119 347.525 218.119 346.791C218.119 346.058 217.966 345.411 217.659 344.851C217.353 344.278 216.926 343.838 216.379 343.531C215.846 343.225 215.239 343.071 214.559 343.071C213.879 343.071 213.266 343.225 212.719 343.531C212.186 343.838 211.759 344.278 211.439 344.851C211.133 345.411 210.979 346.058 210.979 346.791C210.979 347.525 211.133 348.178 211.439 348.751C211.759 349.311 212.186 349.751 212.719 350.071C213.266 350.378 213.879 350.531 214.559 350.531ZM224.554 343.271C224.888 342.658 225.381 342.191 226.034 341.871C226.688 341.551 227.481 341.391 228.414 341.391V343.251C228.308 343.238 228.161 343.231 227.974 343.231C226.934 343.231 226.114 343.545 225.514 344.171C224.928 344.785 224.634 345.665 224.634 346.811V352.091H222.714V341.491H224.554V343.271ZM240.683 337.251V352.091H238.843V350.411C238.417 350.998 237.877 351.445 237.223 351.751C236.57 352.058 235.85 352.211 235.063 352.211C234.037 352.211 233.117 351.985 232.303 351.531C231.49 351.078 230.85 350.445 230.383 349.631C229.93 348.805 229.703 347.858 229.703 346.791C229.703 345.725 229.93 344.785 230.383 343.971C230.85 343.158 231.49 342.525 232.303 342.071C233.117 341.618 234.037 341.391 235.063 341.391C235.823 341.391 236.523 341.538 237.163 341.831C237.803 342.111 238.337 342.531 238.763 343.091V337.251H240.683ZM235.223 350.531C235.89 350.531 236.497 350.378 237.043 350.071C237.59 349.751 238.017 349.311 238.323 348.751C238.63 348.178 238.783 347.525 238.783 346.791C238.783 346.058 238.63 345.411 238.323 344.851C238.017 344.278 237.59 343.838 237.043 343.531C236.497 343.225 235.89 343.071 235.223 343.071C234.543 343.071 233.93 343.225 233.383 343.531C232.85 343.838 232.423 344.278 232.103 344.851C231.797 345.411 231.643 346.058 231.643 346.791C231.643 347.525 231.797 348.178 232.103 348.751C232.423 349.311 232.85 349.751 233.383 350.071C233.93 350.378 234.543 350.531 235.223 350.531ZM253.896 346.851C253.896 346.998 253.883 347.191 253.856 347.431H245.256C245.376 348.365 245.783 349.118 246.476 349.691C247.183 350.251 248.056 350.531 249.096 350.531C250.363 350.531 251.383 350.105 252.156 349.251L253.216 350.491C252.736 351.051 252.136 351.478 251.416 351.771C250.709 352.065 249.916 352.211 249.036 352.211C247.916 352.211 246.923 351.985 246.056 351.531C245.189 351.065 244.516 350.418 244.036 349.591C243.569 348.765 243.336 347.831 243.336 346.791C243.336 345.765 243.563 344.838 244.016 344.011C244.483 343.185 245.116 342.545 245.916 342.091C246.729 341.625 247.643 341.391 248.656 341.391C249.669 341.391 250.569 341.625 251.356 342.091C252.156 342.545 252.776 343.185 253.216 344.011C253.669 344.838 253.896 345.785 253.896 346.851ZM248.656 343.011C247.736 343.011 246.963 343.291 246.336 343.851C245.723 344.411 245.363 345.145 245.256 346.051H252.056C251.949 345.158 251.583 344.431 250.956 343.871C250.343 343.298 249.576 343.011 248.656 343.011ZM258.402 343.271C258.735 342.658 259.229 342.191 259.882 341.871C260.535 341.551 261.329 341.391 262.262 341.391V343.251C262.155 343.238 262.009 343.231 261.822 343.231C260.782 343.231 259.962 343.545 259.362 344.171C258.775 344.785 258.482 345.665 258.482 346.811V352.091H256.562V341.491H258.402V343.271Z" fill="white"/>
<path d="M170.104 480.907L167.084 476.607C166.711 476.634 166.417 476.647 166.204 476.647H162.744V480.907H160.744V466.907H166.204C168.017 466.907 169.444 467.34 170.484 468.207C171.524 469.074 172.044 470.267 172.044 471.787C172.044 472.867 171.777 473.787 171.244 474.547C170.711 475.307 169.951 475.86 168.964 476.207L172.284 480.907H170.104ZM166.144 474.947C167.411 474.947 168.377 474.674 169.044 474.127C169.711 473.58 170.044 472.8 170.044 471.787C170.044 470.774 169.711 470 169.044 469.467C168.377 468.92 167.411 468.647 166.144 468.647H162.744V474.947H166.144ZM180.655 470.207C182.002 470.207 183.069 470.6 183.855 471.387C184.655 472.16 185.055 473.3 185.055 474.807V480.907H183.135V475.027C183.135 474 182.889 473.227 182.395 472.707C181.902 472.187 181.195 471.927 180.275 471.927C179.235 471.927 178.415 472.234 177.815 472.847C177.215 473.447 176.915 474.314 176.915 475.447V480.907H174.995V466.067H176.915V471.807C177.315 471.3 177.835 470.907 178.475 470.627C179.129 470.347 179.855 470.207 180.655 470.207ZM198.247 475.667C198.247 475.814 198.234 476.007 198.207 476.247H189.607C189.727 477.18 190.134 477.934 190.827 478.507C191.534 479.067 192.407 479.347 193.447 479.347C194.714 479.347 195.734 478.92 196.507 478.067L197.567 479.307C197.087 479.867 196.487 480.294 195.767 480.587C195.06 480.88 194.267 481.027 193.387 481.027C192.267 481.027 191.274 480.8 190.407 480.347C189.54 479.88 188.867 479.234 188.387 478.407C187.92 477.58 187.687 476.647 187.687 475.607C187.687 474.58 187.914 473.654 188.367 472.827C188.834 472 189.467 471.36 190.267 470.907C191.08 470.44 191.994 470.207 193.007 470.207C194.02 470.207 194.92 470.44 195.707 470.907C196.507 471.36 197.127 472 197.567 472.827C198.02 473.654 198.247 474.6 198.247 475.667ZM193.007 471.827C192.087 471.827 191.314 472.107 190.687 472.667C190.074 473.227 189.714 473.96 189.607 474.867H196.407C196.3 473.974 195.934 473.247 195.307 472.687C194.694 472.114 193.927 471.827 193.007 471.827ZM210.793 470.307V480.907H208.973V479.307C208.587 479.854 208.073 480.28 207.433 480.587C206.807 480.88 206.12 481.027 205.373 481.027C203.96 481.027 202.847 480.64 202.033 479.867C201.22 479.08 200.813 477.927 200.813 476.407V470.307H202.733V476.187C202.733 477.214 202.98 477.994 203.473 478.527C203.967 479.047 204.673 479.307 205.593 479.307C206.607 479.307 207.407 479 207.993 478.387C208.58 477.774 208.873 476.907 208.873 475.787V470.307H210.793ZM227.708 470.207C229.042 470.207 230.095 470.594 230.868 471.367C231.655 472.14 232.048 473.287 232.048 474.807V480.907H230.128V475.027C230.128 474 229.888 473.227 229.408 472.707C228.942 472.187 228.268 471.927 227.388 471.927C226.415 471.927 225.642 472.234 225.068 472.847C224.495 473.447 224.208 474.314 224.208 475.447V480.907H222.288V475.027C222.288 474 222.048 473.227 221.568 472.707C221.102 472.187 220.428 471.927 219.548 471.927C218.575 471.927 217.802 472.234 217.228 472.847C216.655 473.447 216.368 474.314 216.368 475.447V480.907H214.448V470.307H216.288V471.887C216.675 471.34 217.182 470.927 217.808 470.647C218.435 470.354 219.148 470.207 219.948 470.207C220.775 470.207 221.508 470.374 222.148 470.707C222.788 471.04 223.282 471.527 223.628 472.167C224.028 471.554 224.582 471.074 225.288 470.727C226.008 470.38 226.815 470.207 227.708 470.207ZM239.441 470.207C240.908 470.207 242.028 470.567 242.801 471.287C243.588 472.007 243.981 473.08 243.981 474.507V480.907H242.161V479.507C241.841 480 241.381 480.38 240.781 480.647C240.195 480.9 239.495 481.027 238.681 481.027C237.495 481.027 236.541 480.74 235.821 480.167C235.115 479.594 234.761 478.84 234.761 477.907C234.761 476.974 235.101 476.227 235.781 475.667C236.461 475.094 237.541 474.807 239.021 474.807H242.061V474.427C242.061 473.6 241.821 472.967 241.341 472.527C240.861 472.087 240.155 471.867 239.221 471.867C238.595 471.867 237.981 471.974 237.381 472.187C236.781 472.387 236.275 472.66 235.861 473.007L235.061 471.567C235.608 471.127 236.261 470.794 237.021 470.567C237.781 470.327 238.588 470.207 239.441 470.207ZM239.001 479.547C239.735 479.547 240.368 479.387 240.901 479.067C241.435 478.734 241.821 478.267 242.061 477.667V476.187H239.101C237.475 476.187 236.661 476.734 236.661 477.827C236.661 478.36 236.868 478.78 237.281 479.087C237.695 479.394 238.268 479.547 239.001 479.547ZM253.494 480.287C253.214 480.527 252.868 480.714 252.454 480.847C252.041 480.967 251.614 481.027 251.174 481.027C250.108 481.027 249.281 480.74 248.694 480.167C248.108 479.594 247.814 478.774 247.814 477.707V471.887H246.014V470.307H247.814V467.987H249.734V470.307H252.774V471.887H249.734V477.627C249.734 478.2 249.874 478.64 250.154 478.947C250.448 479.254 250.861 479.407 251.394 479.407C251.981 479.407 252.481 479.24 252.894 478.907L253.494 480.287ZM260.004 481.027C258.951 481.027 258.004 480.794 257.164 480.327C256.324 479.86 255.664 479.22 255.184 478.407C254.717 477.58 254.484 476.647 254.484 475.607C254.484 474.567 254.717 473.64 255.184 472.827C255.664 472 256.324 471.36 257.164 470.907C258.004 470.44 258.951 470.207 260.004 470.207C261.057 470.207 261.997 470.44 262.824 470.907C263.664 471.36 264.317 472 264.784 472.827C265.264 473.64 265.504 474.567 265.504 475.607C265.504 476.647 265.264 477.58 264.784 478.407C264.317 479.22 263.664 479.86 262.824 480.327C261.997 480.794 261.057 481.027 260.004 481.027ZM260.004 479.347C260.684 479.347 261.291 479.194 261.824 478.887C262.371 478.567 262.797 478.127 263.104 477.567C263.411 476.994 263.564 476.34 263.564 475.607C263.564 474.874 263.411 474.227 263.104 473.667C262.797 473.094 262.371 472.654 261.824 472.347C261.291 472.04 260.684 471.887 260.004 471.887C259.324 471.887 258.711 472.04 258.164 472.347C257.631 472.654 257.204 473.094 256.884 473.667C256.577 474.227 256.424 474.874 256.424 475.607C256.424 476.34 256.577 476.994 256.884 477.567C257.204 478.127 257.631 478.567 258.164 478.887C258.711 479.194 259.324 479.347 260.004 479.347ZM268.159 470.307H270.079V480.907H268.159V470.307ZM269.119 468.267C268.746 468.267 268.433 468.147 268.179 467.907C267.939 467.667 267.819 467.374 267.819 467.027C267.819 466.68 267.939 466.387 268.179 466.147C268.433 465.894 268.746 465.767 269.119 465.767C269.493 465.767 269.799 465.887 270.039 466.127C270.293 466.354 270.419 466.64 270.419 466.987C270.419 467.347 270.293 467.654 270.039 467.907C269.799 468.147 269.493 468.267 269.119 468.267ZM283.745 466.067V480.907H281.905V479.227C281.479 479.814 280.939 480.26 280.285 480.567C279.632 480.874 278.912 481.027 278.125 481.027C277.099 481.027 276.179 480.8 275.365 480.347C274.552 479.894 273.912 479.26 273.445 478.447C272.992 477.62 272.765 476.674 272.765 475.607C272.765 474.54 272.992 473.6 273.445 472.787C273.912 471.974 274.552 471.34 275.365 470.887C276.179 470.434 277.099 470.207 278.125 470.207C278.885 470.207 279.585 470.354 280.225 470.647C280.865 470.927 281.399 471.347 281.825 471.907V466.067H283.745ZM278.285 479.347C278.952 479.347 279.559 479.194 280.105 478.887C280.652 478.567 281.079 478.127 281.385 477.567C281.692 476.994 281.845 476.34 281.845 475.607C281.845 474.874 281.692 474.227 281.385 473.667C281.079 473.094 280.652 472.654 280.105 472.347C279.559 472.04 278.952 471.887 278.285 471.887C277.605 471.887 276.992 472.04 276.445 472.347C275.912 472.654 275.485 473.094 275.165 473.667C274.859 474.227 274.705 474.874 274.705 475.607C274.705 476.34 274.859 476.994 275.165 477.567C275.485 478.127 275.912 478.567 276.445 478.887C276.992 479.194 277.605 479.347 278.285 479.347ZM189.566 501.407H182.126L180.586 504.907H178.526L184.866 490.907H186.846L193.206 504.907H191.106L189.566 501.407ZM188.866 499.807L185.846 492.947L182.826 499.807H188.866ZM196.855 496.087C197.188 495.474 197.681 495.007 198.335 494.687C198.988 494.367 199.781 494.207 200.715 494.207V496.067C200.608 496.054 200.461 496.047 200.275 496.047C199.235 496.047 198.415 496.36 197.815 496.987C197.228 497.6 196.935 498.48 196.935 499.627V504.907H195.015V494.307H196.855V496.087ZM209.471 504.287C209.191 504.527 208.844 504.714 208.431 504.847C208.018 504.967 207.591 505.027 207.151 505.027C206.084 505.027 205.258 504.74 204.671 504.167C204.084 503.594 203.791 502.774 203.791 501.707V495.887H201.991V494.307H203.791V491.987H205.711V494.307H208.751V495.887H205.711V501.627C205.711 502.2 205.851 502.64 206.131 502.947C206.424 503.254 206.838 503.407 207.371 503.407C207.958 503.407 208.458 503.24 208.871 502.907L209.471 504.287ZM217.452 494.207C218.799 494.207 219.865 494.6 220.652 495.387C221.452 496.16 221.852 497.3 221.852 498.807V504.907H219.932V499.027C219.932 498 219.685 497.227 219.192 496.707C218.699 496.187 217.992 495.927 217.072 495.927C216.032 495.927 215.212 496.234 214.612 496.847C214.012 497.447 213.712 498.314 213.712 499.447V504.907H211.792V490.067H213.712V495.807C214.112 495.3 214.632 494.907 215.272 494.627C215.925 494.347 216.652 494.207 217.452 494.207ZM227.245 496.087C227.579 495.474 228.072 495.007 228.725 494.687C229.379 494.367 230.172 494.207 231.105 494.207V496.067C230.999 496.054 230.852 496.047 230.665 496.047C229.625 496.047 228.805 496.36 228.205 496.987C227.619 497.6 227.325 498.48 227.325 499.627V504.907H225.405V494.307H227.245V496.087ZM233.472 494.307H235.392V504.907H233.472V494.307ZM234.432 492.267C234.058 492.267 233.745 492.147 233.492 491.907C233.252 491.667 233.132 491.374 233.132 491.027C233.132 490.68 233.252 490.387 233.492 490.147C233.745 489.894 234.058 489.767 234.432 489.767C234.805 489.767 235.112 489.887 235.352 490.127C235.605 490.354 235.732 490.64 235.732 490.987C235.732 491.347 235.605 491.654 235.352 491.907C235.112 492.147 234.805 492.267 234.432 492.267ZM245.018 504.287C244.738 504.527 244.391 504.714 243.978 504.847C243.564 504.967 243.138 505.027 242.698 505.027C241.631 505.027 240.804 504.74 240.218 504.167C239.631 503.594 239.338 502.774 239.338 501.707V495.887H237.538V494.307H239.338V491.987H241.258V494.307H244.298V495.887H241.258V501.627C241.258 502.2 241.398 502.64 241.678 502.947C241.971 503.254 242.384 503.407 242.918 503.407C243.504 503.407 244.004 503.24 244.418 502.907L245.018 504.287ZM247.339 494.307H249.259V504.907H247.339V494.307ZM248.299 492.267C247.926 492.267 247.612 492.147 247.359 491.907C247.119 491.667 246.999 491.374 246.999 491.027C246.999 490.68 247.119 490.387 247.359 490.147C247.612 489.894 247.926 489.767 248.299 489.767C248.672 489.767 248.979 489.887 249.219 490.127C249.472 490.354 249.599 490.64 249.599 490.987C249.599 491.347 249.472 491.654 249.219 491.907C248.979 492.147 248.672 492.267 248.299 492.267ZM255.965 505.027C255.098 505.027 254.265 504.914 253.465 504.687C252.665 504.447 252.038 504.147 251.585 503.787L252.385 502.267C252.852 502.6 253.418 502.867 254.085 503.067C254.752 503.267 255.425 503.367 256.105 503.367C257.785 503.367 258.625 502.887 258.625 501.927C258.625 501.607 258.512 501.354 258.285 501.167C258.058 500.98 257.772 500.847 257.425 500.767C257.092 500.674 256.612 500.574 255.985 500.467C255.132 500.334 254.432 500.18 253.885 500.007C253.352 499.834 252.892 499.54 252.505 499.127C252.118 498.714 251.925 498.134 251.925 497.387C251.925 496.427 252.325 495.66 253.125 495.087C253.925 494.5 254.998 494.207 256.345 494.207C257.052 494.207 257.758 494.294 258.465 494.467C259.172 494.64 259.752 494.874 260.205 495.167L259.385 496.687C258.518 496.127 257.498 495.847 256.325 495.847C255.512 495.847 254.892 495.98 254.465 496.247C254.038 496.514 253.825 496.867 253.825 497.307C253.825 497.654 253.945 497.927 254.185 498.127C254.425 498.327 254.718 498.474 255.065 498.567C255.425 498.66 255.925 498.767 256.565 498.887C257.418 499.034 258.105 499.194 258.625 499.367C259.158 499.527 259.612 499.807 259.985 500.207C260.358 500.607 260.545 501.167 260.545 501.887C260.545 502.847 260.132 503.614 259.305 504.187C258.492 504.747 257.378 505.027 255.965 505.027ZM263.424 502.287C263.798 502.287 264.104 502.42 264.344 502.687C264.598 502.94 264.724 503.26 264.724 503.647C264.724 503.847 264.698 504.04 264.644 504.227C264.604 504.414 264.518 504.7 264.384 505.087L263.444 507.867H262.184L262.924 504.887C262.671 504.794 262.464 504.64 262.304 504.427C262.158 504.2 262.084 503.94 262.084 503.647C262.084 503.247 262.211 502.92 262.464 502.667C262.718 502.414 263.038 502.287 263.424 502.287ZM158.519 529.067C157.106 529.067 155.832 528.76 154.699 528.147C153.566 527.52 152.672 526.66 152.019 525.567C151.379 524.474 151.059 523.254 151.059 521.907C151.059 520.56 151.379 519.34 152.019 518.247C152.672 517.154 153.566 516.3 154.699 515.687C155.832 515.06 157.106 514.747 158.519 514.747C159.919 514.747 161.186 515.06 162.319 515.687C163.452 516.3 164.339 517.154 164.979 518.247C165.619 519.327 165.939 520.547 165.939 521.907C165.939 523.267 165.619 524.494 164.979 525.587C164.339 526.667 163.452 527.52 162.319 528.147C161.186 528.76 159.919 529.067 158.519 529.067ZM158.519 527.287C159.546 527.287 160.466 527.054 161.279 526.587C162.106 526.12 162.752 525.48 163.219 524.667C163.699 523.84 163.939 522.92 163.939 521.907C163.939 520.894 163.699 519.98 163.219 519.167C162.752 518.34 162.106 517.694 161.279 517.227C160.466 516.76 159.546 516.527 158.519 516.527C157.492 516.527 156.559 516.76 155.719 517.227C154.892 517.694 154.239 518.34 153.759 519.167C153.292 519.98 153.059 520.894 153.059 521.907C153.059 522.92 153.292 523.84 153.759 524.667C154.239 525.48 154.892 526.12 155.719 526.587C156.559 527.054 157.492 527.287 158.519 527.287ZM171.756 529.027C170.889 529.027 170.056 528.914 169.256 528.687C168.456 528.447 167.829 528.147 167.376 527.787L168.176 526.267C168.643 526.6 169.209 526.867 169.876 527.067C170.543 527.267 171.216 527.367 171.896 527.367C173.576 527.367 174.416 526.887 174.416 525.927C174.416 525.607 174.303 525.354 174.076 525.167C173.849 524.98 173.563 524.847 173.216 524.767C172.883 524.674 172.403 524.574 171.776 524.467C170.923 524.334 170.223 524.18 169.676 524.007C169.143 523.834 168.683 523.54 168.296 523.127C167.909 522.714 167.716 522.134 167.716 521.387C167.716 520.427 168.116 519.66 168.916 519.087C169.716 518.5 170.789 518.207 172.136 518.207C172.843 518.207 173.549 518.294 174.256 518.467C174.963 518.64 175.543 518.874 175.996 519.167L175.176 520.687C174.309 520.127 173.289 519.847 172.116 519.847C171.303 519.847 170.683 519.98 170.256 520.247C169.829 520.514 169.616 520.867 169.616 521.307C169.616 521.654 169.736 521.927 169.976 522.127C170.216 522.327 170.509 522.474 170.856 522.567C171.216 522.66 171.716 522.767 172.356 522.887C173.209 523.034 173.896 523.194 174.416 523.367C174.949 523.527 175.403 523.807 175.776 524.207C176.149 524.607 176.336 525.167 176.336 525.887C176.336 526.847 175.923 527.614 175.096 528.187C174.283 528.747 173.169 529.027 171.756 529.027ZM184.695 528.287C184.415 528.527 184.069 528.714 183.655 528.847C183.242 528.967 182.815 529.027 182.375 529.027C181.309 529.027 180.482 528.74 179.895 528.167C179.309 527.594 179.015 526.774 179.015 525.707V519.887H177.215V518.307H179.015V515.987H180.935V518.307H183.975V519.887H180.935V525.627C180.935 526.2 181.075 526.64 181.355 526.947C181.649 527.254 182.062 527.407 182.595 527.407C183.182 527.407 183.682 527.24 184.095 526.907L184.695 528.287ZM196.245 523.667C196.245 523.814 196.232 524.007 196.205 524.247H187.605C187.725 525.18 188.132 525.934 188.825 526.507C189.532 527.067 190.405 527.347 191.445 527.347C192.712 527.347 193.732 526.92 194.505 526.067L195.565 527.307C195.085 527.867 194.485 528.294 193.765 528.587C193.059 528.88 192.265 529.027 191.385 529.027C190.265 529.027 189.272 528.8 188.405 528.347C187.539 527.88 186.865 527.234 186.385 526.407C185.919 525.58 185.685 524.647 185.685 523.607C185.685 522.58 185.912 521.654 186.365 520.827C186.832 520 187.465 519.36 188.265 518.907C189.079 518.44 189.992 518.207 191.005 518.207C192.019 518.207 192.919 518.44 193.705 518.907C194.505 519.36 195.125 520 195.565 520.827C196.019 521.654 196.245 522.6 196.245 523.667ZM191.005 519.827C190.085 519.827 189.312 520.107 188.685 520.667C188.072 521.227 187.712 521.96 187.605 522.867H194.405C194.299 521.974 193.932 521.247 193.305 520.687C192.692 520.114 191.925 519.827 191.005 519.827ZM203.451 529.027C202.398 529.027 201.451 528.794 200.611 528.327C199.771 527.86 199.111 527.22 198.631 526.407C198.165 525.58 197.931 524.647 197.931 523.607C197.931 522.567 198.165 521.64 198.631 520.827C199.111 520 199.771 519.36 200.611 518.907C201.451 518.44 202.398 518.207 203.451 518.207C204.505 518.207 205.445 518.44 206.271 518.907C207.111 519.36 207.765 520 208.231 520.827C208.711 521.64 208.951 522.567 208.951 523.607C208.951 524.647 208.711 525.58 208.231 526.407C207.765 527.22 207.111 527.86 206.271 528.327C205.445 528.794 204.505 529.027 203.451 529.027ZM203.451 527.347C204.131 527.347 204.738 527.194 205.271 526.887C205.818 526.567 206.245 526.127 206.551 525.567C206.858 524.994 207.011 524.34 207.011 523.607C207.011 522.874 206.858 522.227 206.551 521.667C206.245 521.094 205.818 520.654 205.271 520.347C204.738 520.04 204.131 519.887 203.451 519.887C202.771 519.887 202.158 520.04 201.611 520.347C201.078 520.654 200.651 521.094 200.331 521.667C200.025 522.227 199.871 522.874 199.871 523.607C199.871 524.34 200.025 524.994 200.331 525.567C200.651 526.127 201.078 526.567 201.611 526.887C202.158 527.194 202.771 527.347 203.451 527.347ZM215.369 518.207C216.836 518.207 217.956 518.567 218.729 519.287C219.516 520.007 219.909 521.08 219.909 522.507V528.907H218.089V527.507C217.769 528 217.309 528.38 216.709 528.647C216.122 528.9 215.422 529.027 214.609 529.027C213.422 529.027 212.469 528.74 211.749 528.167C211.042 527.594 210.689 526.84 210.689 525.907C210.689 524.974 211.029 524.227 211.709 523.667C212.389 523.094 213.469 522.807 214.949 522.807H217.989V522.427C217.989 521.6 217.749 520.967 217.269 520.527C216.789 520.087 216.082 519.867 215.149 519.867C214.522 519.867 213.909 519.974 213.309 520.187C212.709 520.387 212.202 520.66 211.789 521.007L210.989 519.567C211.536 519.127 212.189 518.794 212.949 518.567C213.709 518.327 214.516 518.207 215.369 518.207ZM214.929 527.547C215.662 527.547 216.296 527.387 216.829 527.067C217.362 526.734 217.749 526.267 217.989 525.667V524.187H215.029C213.402 524.187 212.589 524.734 212.589 525.827C212.589 526.36 212.796 526.78 213.209 527.087C213.622 527.394 214.196 527.547 214.929 527.547ZM225.302 520.087C225.635 519.474 226.129 519.007 226.782 518.687C227.435 518.367 228.229 518.207 229.162 518.207V520.067C229.055 520.054 228.909 520.047 228.722 520.047C227.682 520.047 226.862 520.36 226.262 520.987C225.675 521.6 225.382 522.48 225.382 523.627V528.907H223.462V518.307H225.302V520.087ZM237.918 528.287C237.638 528.527 237.291 528.714 236.878 528.847C236.465 528.967 236.038 529.027 235.598 529.027C234.531 529.027 233.705 528.74 233.118 528.167C232.531 527.594 232.238 526.774 232.238 525.707V519.887H230.438V518.307H232.238V515.987H234.158V518.307H237.198V519.887H234.158V525.627C234.158 526.2 234.298 526.64 234.578 526.947C234.871 527.254 235.285 527.407 235.818 527.407C236.405 527.407 236.905 527.24 237.318 526.907L237.918 528.287ZM245.899 518.207C247.246 518.207 248.313 518.6 249.099 519.387C249.899 520.16 250.299 521.3 250.299 522.807V528.907H248.379V523.027C248.379 522 248.133 521.227 247.639 520.707C247.146 520.187 246.439 519.927 245.519 519.927C244.479 519.927 243.659 520.234 243.059 520.847C242.459 521.447 242.159 522.314 242.159 523.447V528.907H240.239V514.067H242.159V519.807C242.559 519.3 243.079 518.907 243.719 518.627C244.373 518.347 245.099 518.207 245.899 518.207ZM255.693 520.087C256.026 519.474 256.519 519.007 257.173 518.687C257.826 518.367 258.619 518.207 259.553 518.207V520.067C259.446 520.054 259.299 520.047 259.113 520.047C258.073 520.047 257.253 520.36 256.653 520.987C256.066 521.6 255.773 522.48 255.773 523.627V528.907H253.853V518.307H255.693V520.087ZM261.919 518.307H263.839V528.907H261.919V518.307ZM262.879 516.267C262.506 516.267 262.192 516.147 261.939 515.907C261.699 515.667 261.579 515.374 261.579 515.027C261.579 514.68 261.699 514.387 261.939 514.147C262.192 513.894 262.506 513.767 262.879 513.767C263.252 513.767 263.559 513.887 263.799 514.127C264.052 514.354 264.179 514.64 264.179 514.987C264.179 515.347 264.052 515.654 263.799 515.907C263.559 516.147 263.252 516.267 262.879 516.267ZM273.465 528.287C273.185 528.527 272.838 528.714 272.425 528.847C272.012 528.967 271.585 529.027 271.145 529.027C270.078 529.027 269.252 528.74 268.665 528.167C268.078 527.594 267.785 526.774 267.785 525.707V519.887H265.985V518.307H267.785V515.987H269.705V518.307H272.745V519.887H269.705V525.627C269.705 526.2 269.845 526.64 270.125 526.947C270.418 527.254 270.832 527.407 271.365 527.407C271.952 527.407 272.452 527.24 272.865 526.907L273.465 528.287ZM275.786 518.307H277.706V528.907H275.786V518.307ZM276.746 516.267C276.373 516.267 276.06 516.147 275.806 515.907C275.566 515.667 275.446 515.374 275.446 515.027C275.446 514.68 275.566 514.387 275.806 514.147C276.06 513.894 276.373 513.767 276.746 513.767C277.12 513.767 277.426 513.887 277.666 514.127C277.92 514.354 278.046 514.64 278.046 514.987C278.046 515.347 277.92 515.654 277.666 515.907C277.426 516.147 277.12 516.267 276.746 516.267ZM284.412 529.027C283.546 529.027 282.712 528.914 281.912 528.687C281.112 528.447 280.486 528.147 280.032 527.787L280.832 526.267C281.299 526.6 281.866 526.867 282.532 527.067C283.199 527.267 283.872 527.367 284.552 527.367C286.232 527.367 287.072 526.887 287.072 525.927C287.072 525.607 286.959 525.354 286.732 525.167C286.506 524.98 286.219 524.847 285.872 524.767C285.539 524.674 285.059 524.574 284.432 524.467C283.579 524.334 282.879 524.18 282.332 524.007C281.799 523.834 281.339 523.54 280.952 523.127C280.566 522.714 280.372 522.134 280.372 521.387C280.372 520.427 280.772 519.66 281.572 519.087C282.372 518.5 283.446 518.207 284.792 518.207C285.499 518.207 286.206 518.294 286.912 518.467C287.619 518.64 288.199 518.874 288.652 519.167L287.832 520.687C286.966 520.127 285.946 519.847 284.772 519.847C283.959 519.847 283.339 519.98 282.912 520.247C282.486 520.514 282.272 520.867 282.272 521.307C282.272 521.654 282.392 521.927 282.632 522.127C282.872 522.327 283.166 522.474 283.512 522.567C283.872 522.66 284.372 522.767 285.012 522.887C285.866 523.034 286.552 523.194 287.072 523.367C287.606 523.527 288.059 523.807 288.432 524.207C288.806 524.607 288.992 525.167 288.992 525.887C288.992 526.847 288.579 527.614 287.752 528.187C286.939 528.747 285.826 529.027 284.412 529.027ZM291.872 526.287C292.245 526.287 292.552 526.42 292.792 526.687C293.045 526.94 293.172 527.26 293.172 527.647C293.172 527.847 293.145 528.04 293.092 528.227C293.052 528.414 292.965 528.7 292.832 529.087L291.892 531.867H290.632L291.372 528.887C291.118 528.794 290.912 528.64 290.752 528.427C290.605 528.2 290.532 527.94 290.532 527.647C290.532 527.247 290.658 526.92 290.912 526.667C291.165 526.414 291.485 526.287 291.872 526.287ZM153.423 545.827H155.343V551.287C154.649 551.86 153.843 552.3 152.923 552.607C152.003 552.914 151.043 553.067 150.043 553.067C148.629 553.067 147.356 552.76 146.223 552.147C145.089 551.52 144.196 550.667 143.543 549.587C142.903 548.494 142.583 547.267 142.583 545.907C142.583 544.547 142.903 543.32 143.543 542.227C144.196 541.134 145.089 540.28 146.223 539.667C147.369 539.054 148.656 538.747 150.083 538.747C151.203 538.747 152.216 538.934 153.123 539.307C154.043 539.667 154.823 540.2 155.463 540.907L154.223 542.147C153.103 541.067 151.749 540.527 150.163 540.527C149.096 540.527 148.136 540.76 147.283 541.227C146.443 541.68 145.783 542.32 145.303 543.147C144.823 543.96 144.583 544.88 144.583 545.907C144.583 546.92 144.823 547.84 145.303 548.667C145.783 549.48 146.443 550.12 147.283 550.587C148.136 551.054 149.089 551.287 150.143 551.287C151.396 551.287 152.489 550.987 153.423 550.387V545.827ZM168.472 547.667C168.472 547.814 168.458 548.007 168.432 548.247H159.832C159.952 549.18 160.358 549.934 161.052 550.507C161.758 551.067 162.632 551.347 163.672 551.347C164.938 551.347 165.958 550.92 166.732 550.067L167.792 551.307C167.312 551.867 166.712 552.294 165.992 552.587C165.285 552.88 164.492 553.027 163.612 553.027C162.492 553.027 161.498 552.8 160.632 552.347C159.765 551.88 159.092 551.234 158.612 550.407C158.145 549.58 157.912 548.647 157.912 547.607C157.912 546.58 158.138 545.654 158.592 544.827C159.058 544 159.692 543.36 160.492 542.907C161.305 542.44 162.218 542.207 163.232 542.207C164.245 542.207 165.145 542.44 165.932 542.907C166.732 543.36 167.352 544 167.792 544.827C168.245 545.654 168.472 546.6 168.472 547.667ZM163.232 543.827C162.312 543.827 161.538 544.107 160.912 544.667C160.298 545.227 159.938 545.96 159.832 546.867H166.632C166.525 545.974 166.158 545.247 165.532 544.687C164.918 544.114 164.152 543.827 163.232 543.827ZM176.798 542.207C178.144 542.207 179.211 542.6 179.998 543.387C180.798 544.16 181.198 545.3 181.198 546.807V552.907H179.278V547.027C179.278 546 179.031 545.227 178.538 544.707C178.044 544.187 177.338 543.927 176.418 543.927C175.378 543.927 174.558 544.234 173.958 544.847C173.358 545.447 173.058 546.314 173.058 547.447V552.907H171.138V542.307H172.978V543.907C173.364 543.36 173.884 542.94 174.538 542.647C175.204 542.354 175.958 542.207 176.798 542.207ZM194.39 547.667C194.39 547.814 194.376 548.007 194.35 548.247H185.75C185.87 549.18 186.276 549.934 186.97 550.507C187.676 551.067 188.55 551.347 189.59 551.347C190.856 551.347 191.876 550.92 192.65 550.067L193.71 551.307C193.23 551.867 192.63 552.294 191.91 552.587C191.203 552.88 190.41 553.027 189.53 553.027C188.41 553.027 187.416 552.8 186.55 552.347C185.683 551.88 185.01 551.234 184.53 550.407C184.063 549.58 183.83 548.647 183.83 547.607C183.83 546.58 184.056 545.654 184.51 544.827C184.976 544 185.61 543.36 186.41 542.907C187.223 542.44 188.136 542.207 189.15 542.207C190.163 542.207 191.063 542.44 191.85 542.907C192.65 543.36 193.27 544 193.71 544.827C194.163 545.654 194.39 546.6 194.39 547.667ZM189.15 543.827C188.23 543.827 187.456 544.107 186.83 544.667C186.216 545.227 185.856 545.96 185.75 546.867H192.55C192.443 545.974 192.076 545.247 191.45 544.687C190.836 544.114 190.07 543.827 189.15 543.827ZM198.896 544.087C199.229 543.474 199.722 543.007 200.376 542.687C201.029 542.367 201.822 542.207 202.756 542.207V544.067C202.649 544.054 202.502 544.047 202.316 544.047C201.276 544.047 200.456 544.36 199.856 544.987C199.269 545.6 198.976 546.48 198.976 547.627V552.907H197.056V542.307H198.896V544.087ZM208.963 542.207C210.429 542.207 211.549 542.567 212.323 543.287C213.109 544.007 213.503 545.08 213.503 546.507V552.907H211.683V551.507C211.363 552 210.903 552.38 210.303 552.647C209.716 552.9 209.016 553.027 208.203 553.027C207.016 553.027 206.063 552.74 205.343 552.167C204.636 551.594 204.283 550.84 204.283 549.907C204.283 548.974 204.623 548.227 205.303 547.667C205.983 547.094 207.063 546.807 208.543 546.807H211.583V546.427C211.583 545.6 211.343 544.967 210.863 544.527C210.383 544.087 209.676 543.867 208.743 543.867C208.116 543.867 207.503 543.974 206.903 544.187C206.303 544.387 205.796 544.66 205.383 545.007L204.583 543.567C205.129 543.127 205.783 542.794 206.543 542.567C207.303 542.327 208.109 542.207 208.963 542.207ZM208.523 551.547C209.256 551.547 209.889 551.387 210.423 551.067C210.956 550.734 211.343 550.267 211.583 549.667V548.187H208.623C206.996 548.187 206.183 548.734 206.183 549.827C206.183 550.36 206.389 550.78 206.803 551.087C207.216 551.394 207.789 551.547 208.523 551.547ZM217.056 538.067H218.976V552.907H217.056V538.067ZM237.213 549.407H229.773L228.233 552.907H226.173L232.513 538.907H234.493L240.853 552.907H238.753L237.213 549.407ZM236.513 547.807L233.493 540.947L230.473 547.807H236.513ZM248.321 542.207C249.668 542.207 250.735 542.6 251.521 543.387C252.321 544.16 252.721 545.3 252.721 546.807V552.907H250.801V547.027C250.801 546 250.555 545.227 250.061 544.707C249.568 544.187 248.861 543.927 247.941 543.927C246.901 543.927 246.081 544.234 245.481 544.847C244.881 545.447 244.581 546.314 244.581 547.447V552.907H242.661V542.307H244.501V543.907C244.888 543.36 245.408 542.94 246.061 542.647C246.728 542.354 247.481 542.207 248.321 542.207ZM263.035 552.907L259.975 548.847L256.875 552.907H254.735L258.915 547.487L254.935 542.307H257.075L259.995 546.127L262.895 542.307H264.995L260.995 547.487L265.215 552.907H263.035ZM267.31 542.307H269.23V552.907H267.31V542.307ZM268.27 540.267C267.896 540.267 267.583 540.147 267.33 539.907C267.09 539.667 266.97 539.374 266.97 539.027C266.97 538.68 267.09 538.387 267.33 538.147C267.583 537.894 267.896 537.767 268.27 537.767C268.643 537.767 268.95 537.887 269.19 538.127C269.443 538.354 269.57 538.64 269.57 538.987C269.57 539.347 269.443 539.654 269.19 539.907C268.95 540.147 268.643 540.267 268.27 540.267ZM282.476 547.667C282.476 547.814 282.462 548.007 282.436 548.247H273.836C273.956 549.18 274.362 549.934 275.056 550.507C275.762 551.067 276.636 551.347 277.676 551.347C278.942 551.347 279.962 550.92 280.736 550.067L281.796 551.307C281.316 551.867 280.716 552.294 279.996 552.587C279.289 552.88 278.496 553.027 277.616 553.027C276.496 553.027 275.502 552.8 274.636 552.347C273.769 551.88 273.096 551.234 272.616 550.407C272.149 549.58 271.916 548.647 271.916 547.607C271.916 546.58 272.142 545.654 272.596 544.827C273.062 544 273.696 543.36 274.496 542.907C275.309 542.44 276.222 542.207 277.236 542.207C278.249 542.207 279.149 542.44 279.936 542.907C280.736 543.36 281.356 544 281.796 544.827C282.249 545.654 282.476 546.6 282.476 547.667ZM277.236 543.827C276.316 543.827 275.542 544.107 274.916 544.667C274.302 545.227 273.942 545.96 273.836 546.867H280.636C280.529 545.974 280.162 545.247 279.536 544.687C278.922 544.114 278.156 543.827 277.236 543.827ZM291.102 552.287C290.822 552.527 290.475 552.714 290.062 552.847C289.648 552.967 289.222 553.027 288.782 553.027C287.715 553.027 286.888 552.74 286.302 552.167C285.715 551.594 285.422 550.774 285.422 549.707V543.887H283.622V542.307H285.422V539.987H287.342V542.307H290.382V543.887H287.342V549.627C287.342 550.2 287.482 550.64 287.762 550.947C288.055 551.254 288.468 551.407 289.002 551.407C289.588 551.407 290.088 551.24 290.502 550.907L291.102 552.287ZM302.608 542.307L297.468 553.967C297.014 555.047 296.481 555.807 295.868 556.247C295.268 556.687 294.541 556.907 293.688 556.907C293.168 556.907 292.661 556.82 292.168 556.647C291.688 556.487 291.288 556.247 290.968 555.927L291.788 554.487C292.334 555.007 292.968 555.267 293.688 555.267C294.154 555.267 294.541 555.14 294.848 554.887C295.168 554.647 295.454 554.227 295.708 553.627L296.048 552.887L291.368 542.307H293.368L297.068 550.787L300.728 542.307H302.608ZM180.764 562.907H186.664C188.144 562.907 189.457 563.2 190.604 563.787C191.75 564.374 192.637 565.2 193.264 566.267C193.904 567.32 194.224 568.534 194.224 569.907C194.224 571.28 193.904 572.5 193.264 573.567C192.637 574.62 191.75 575.44 190.604 576.027C189.457 576.614 188.144 576.907 186.664 576.907H180.764V562.907ZM186.544 575.167C187.677 575.167 188.67 574.947 189.524 574.507C190.39 574.067 191.057 573.454 191.524 572.667C191.99 571.867 192.224 570.947 192.224 569.907C192.224 568.867 191.99 567.954 191.524 567.167C191.057 566.367 190.39 565.747 189.524 565.307C188.67 564.867 187.677 564.647 186.544 564.647H182.764V575.167H186.544ZM197.007 566.307H198.927V576.907H197.007V566.307ZM197.967 564.267C197.594 564.267 197.28 564.147 197.027 563.907C196.787 563.667 196.667 563.374 196.667 563.027C196.667 562.68 196.787 562.387 197.027 562.147C197.28 561.894 197.594 561.767 197.967 561.767C198.34 561.767 198.647 561.887 198.887 562.127C199.14 562.354 199.267 562.64 199.267 562.987C199.267 563.347 199.14 563.654 198.887 563.907C198.647 564.147 198.34 564.267 197.967 564.267ZM205.633 577.027C204.766 577.027 203.933 576.914 203.133 576.687C202.333 576.447 201.706 576.147 201.253 575.787L202.053 574.267C202.52 574.6 203.086 574.867 203.753 575.067C204.42 575.267 205.093 575.367 205.773 575.367C207.453 575.367 208.293 574.887 208.293 573.927C208.293 573.607 208.18 573.354 207.953 573.167C207.726 572.98 207.44 572.847 207.093 572.767C206.76 572.674 206.28 572.574 205.653 572.467C204.8 572.334 204.1 572.18 203.553 572.007C203.02 571.834 202.56 571.54 202.173 571.127C201.786 570.714 201.593 570.134 201.593 569.387C201.593 568.427 201.993 567.66 202.793 567.087C203.593 566.5 204.666 566.207 206.013 566.207C206.72 566.207 207.426 566.294 208.133 566.467C208.84 566.64 209.42 566.874 209.873 567.167L209.053 568.687C208.186 568.127 207.166 567.847 205.993 567.847C205.18 567.847 204.56 567.98 204.133 568.247C203.706 568.514 203.493 568.867 203.493 569.307C203.493 569.654 203.613 569.927 203.853 570.127C204.093 570.327 204.386 570.474 204.733 570.567C205.093 570.66 205.593 570.767 206.233 570.887C207.086 571.034 207.773 571.194 208.293 571.367C208.826 571.527 209.28 571.807 209.653 572.207C210.026 572.607 210.213 573.167 210.213 573.887C210.213 574.847 209.8 575.614 208.973 576.187C208.16 576.747 207.046 577.027 205.633 577.027ZM217.152 577.027C216.099 577.027 215.152 576.794 214.312 576.327C213.472 575.86 212.812 575.22 212.332 574.407C211.866 573.58 211.632 572.647 211.632 571.607C211.632 570.567 211.866 569.64 212.332 568.827C212.812 568 213.472 567.36 214.312 566.907C215.152 566.44 216.099 566.207 217.152 566.207C218.206 566.207 219.146 566.44 219.972 566.907C220.812 567.36 221.466 568 221.932 568.827C222.412 569.64 222.652 570.567 222.652 571.607C222.652 572.647 222.412 573.58 221.932 574.407C221.466 575.22 220.812 575.86 219.972 576.327C219.146 576.794 218.206 577.027 217.152 577.027ZM217.152 575.347C217.832 575.347 218.439 575.194 218.972 574.887C219.519 574.567 219.946 574.127 220.252 573.567C220.559 572.994 220.712 572.34 220.712 571.607C220.712 570.874 220.559 570.227 220.252 569.667C219.946 569.094 219.519 568.654 218.972 568.347C218.439 568.04 217.832 567.887 217.152 567.887C216.472 567.887 215.859 568.04 215.312 568.347C214.779 568.654 214.352 569.094 214.032 569.667C213.726 570.227 213.572 570.874 213.572 571.607C213.572 572.34 213.726 572.994 214.032 573.567C214.352 574.127 214.779 574.567 215.312 574.887C215.859 575.194 216.472 575.347 217.152 575.347ZM227.148 568.087C227.481 567.474 227.974 567.007 228.628 566.687C229.281 566.367 230.074 566.207 231.008 566.207V568.067C230.901 568.054 230.754 568.047 230.568 568.047C229.528 568.047 228.708 568.36 228.108 568.987C227.521 569.6 227.228 570.48 227.228 571.627V576.907H225.308V566.307H227.148V568.087ZM243.276 562.067V576.907H241.436V575.227C241.01 575.814 240.47 576.26 239.816 576.567C239.163 576.874 238.443 577.027 237.656 577.027C236.63 577.027 235.71 576.8 234.896 576.347C234.083 575.894 233.443 575.26 232.976 574.447C232.523 573.62 232.296 572.674 232.296 571.607C232.296 570.54 232.523 569.6 232.976 568.787C233.443 567.974 234.083 567.34 234.896 566.887C235.71 566.434 236.63 566.207 237.656 566.207C238.416 566.207 239.116 566.354 239.756 566.647C240.396 566.927 240.93 567.347 241.356 567.907V562.067H243.276ZM237.816 575.347C238.483 575.347 239.09 575.194 239.636 574.887C240.183 574.567 240.61 574.127 240.916 573.567C241.223 572.994 241.376 572.34 241.376 571.607C241.376 570.874 241.223 570.227 240.916 569.667C240.61 569.094 240.183 568.654 239.636 568.347C239.09 568.04 238.483 567.887 237.816 567.887C237.136 567.887 236.523 568.04 235.976 568.347C235.443 568.654 235.016 569.094 234.696 569.667C234.39 570.227 234.236 570.874 234.236 571.607C234.236 572.34 234.39 572.994 234.696 573.567C235.016 574.127 235.443 574.567 235.976 574.887C236.523 575.194 237.136 575.347 237.816 575.347ZM256.489 571.667C256.489 571.814 256.476 572.007 256.449 572.247H247.849C247.969 573.18 248.376 573.934 249.069 574.507C249.776 575.067 250.649 575.347 251.689 575.347C252.956 575.347 253.976 574.92 254.749 574.067L255.809 575.307C255.329 575.867 254.729 576.294 254.009 576.587C253.303 576.88 252.509 577.027 251.629 577.027C250.509 577.027 249.516 576.8 248.649 576.347C247.783 575.88 247.109 575.234 246.629 574.407C246.163 573.58 245.929 572.647 245.929 571.607C245.929 570.58 246.156 569.654 246.609 568.827C247.076 568 247.709 567.36 248.509 566.907C249.323 566.44 250.236 566.207 251.249 566.207C252.263 566.207 253.163 566.44 253.949 566.907C254.749 567.36 255.369 568 255.809 568.827C256.263 569.654 256.489 570.6 256.489 571.667ZM251.249 567.827C250.329 567.827 249.556 568.107 248.929 568.667C248.316 569.227 247.956 569.96 247.849 570.867H254.649C254.543 569.974 254.176 569.247 253.549 568.687C252.936 568.114 252.169 567.827 251.249 567.827ZM260.995 568.087C261.329 567.474 261.822 567.007 262.475 566.687C263.129 566.367 263.922 566.207 264.855 566.207V568.067C264.749 568.054 264.602 568.047 264.415 568.047C263.375 568.047 262.555 568.36 261.955 568.987C261.369 569.6 261.075 570.48 261.075 571.627V576.907H259.155V566.307H260.995V568.087Z" fill="white"/>
<path d="M146.637 99.5735C145.237 99.5735 143.971 99.2668 142.837 98.6535C141.717 98.0268 140.837 97.1735 140.197 96.0935C139.557 95.0001 139.237 93.7735 139.237 92.4135C139.237 91.0535 139.557 89.8335 140.197 88.7535C140.837 87.6601 141.724 86.8068 142.857 86.1935C143.991 85.5668 145.257 85.2535 146.657 85.2535C147.751 85.2535 148.751 85.4401 149.657 85.8135C150.564 86.1735 151.337 86.7135 151.977 87.4335L150.677 88.6935C149.624 87.5868 148.311 87.0335 146.737 87.0335C145.697 87.0335 144.757 87.2668 143.917 87.7335C143.077 88.2001 142.417 88.8468 141.937 89.6735C141.471 90.4868 141.237 91.4001 141.237 92.4135C141.237 93.4268 141.471 94.3468 141.937 95.1735C142.417 95.9868 143.077 96.6268 143.917 97.0935C144.757 97.5601 145.697 97.7935 146.737 97.7935C148.297 97.7935 149.611 97.2335 150.677 96.1135L151.977 97.3735C151.337 98.0935 150.557 98.6401 149.637 99.0135C148.731 99.3868 147.731 99.5735 146.637 99.5735ZM160.21 88.7135C161.557 88.7135 162.624 89.1068 163.41 89.8935C164.21 90.6668 164.61 91.8068 164.61 93.3135V99.4135H162.69V93.5335C162.69 92.5068 162.444 91.7335 161.95 91.2135C161.457 90.6935 160.75 90.4335 159.83 90.4335C158.79 90.4335 157.97 90.7401 157.37 91.3535C156.77 91.9535 156.47 92.8201 156.47 93.9535V99.4135H154.55V84.5735H156.47V90.3135C156.87 89.8068 157.39 89.4135 158.03 89.1335C158.684 88.8535 159.41 88.7135 160.21 88.7135ZM170.004 90.5935C170.337 89.9801 170.83 89.5135 171.484 89.1935C172.137 88.8735 172.93 88.7135 173.864 88.7135V90.5735C173.757 90.5601 173.61 90.5535 173.424 90.5535C172.384 90.5535 171.564 90.8668 170.964 91.4935C170.377 92.1068 170.084 92.9868 170.084 94.1335V99.4135H168.164V88.8135H170.004V90.5935ZM180.672 99.5335C179.619 99.5335 178.672 99.3001 177.832 98.8335C176.992 98.3668 176.332 97.7268 175.852 96.9135C175.386 96.0868 175.152 95.1535 175.152 94.1135C175.152 93.0735 175.386 92.1468 175.852 91.3335C176.332 90.5068 176.992 89.8668 177.832 89.4135C178.672 88.9468 179.619 88.7135 180.672 88.7135C181.726 88.7135 182.666 88.9468 183.492 89.4135C184.332 89.8668 184.986 90.5068 185.452 91.3335C185.932 92.1468 186.172 93.0735 186.172 94.1135C186.172 95.1535 185.932 96.0868 185.452 96.9135C184.986 97.7268 184.332 98.3668 183.492 98.8335C182.666 99.3001 181.726 99.5335 180.672 99.5335ZM180.672 97.8535C181.352 97.8535 181.959 97.7001 182.492 97.3935C183.039 97.0735 183.466 96.6335 183.772 96.0735C184.079 95.5001 184.232 94.8468 184.232 94.1135C184.232 93.3801 184.079 92.7335 183.772 92.1735C183.466 91.6001 183.039 91.1601 182.492 90.8535C181.959 90.5468 181.352 90.3935 180.672 90.3935C179.992 90.3935 179.379 90.5468 178.832 90.8535C178.299 91.1601 177.872 91.6001 177.552 92.1735C177.246 92.7335 177.092 93.3801 177.092 94.1135C177.092 94.8468 177.246 95.5001 177.552 96.0735C177.872 96.6335 178.299 97.0735 178.832 97.3935C179.379 97.7001 179.992 97.8535 180.672 97.8535ZM194.488 88.7135C195.834 88.7135 196.901 89.1068 197.688 89.8935C198.488 90.6668 198.888 91.8068 198.888 93.3135V99.4135H196.968V93.5335C196.968 92.5068 196.721 91.7335 196.228 91.2135C195.734 90.6935 195.028 90.4335 194.108 90.4335C193.068 90.4335 192.248 90.7401 191.648 91.3535C191.048 91.9535 190.748 92.8201 190.748 93.9535V99.4135H188.828V88.8135H190.668V90.4135C191.054 89.8668 191.574 89.4468 192.228 89.1535C192.894 88.8601 193.648 88.7135 194.488 88.7135ZM202.441 88.8135H204.361V99.4135H202.441V88.8135ZM203.401 86.7735C203.028 86.7735 202.714 86.6535 202.461 86.4135C202.221 86.1735 202.101 85.8801 202.101 85.5335C202.101 85.1868 202.221 84.8935 202.461 84.6535C202.714 84.4001 203.028 84.2735 203.401 84.2735C203.774 84.2735 204.081 84.3935 204.321 84.6335C204.574 84.8601 204.701 85.1468 204.701 85.4935C204.701 85.8535 204.574 86.1601 204.321 86.4135C204.081 86.6535 203.774 86.7735 203.401 86.7735ZM212.647 99.5335C211.567 99.5335 210.6 99.3001 209.747 98.8335C208.907 98.3668 208.247 97.7268 207.767 96.9135C207.287 96.0868 207.047 95.1535 207.047 94.1135C207.047 93.0735 207.287 92.1468 207.767 91.3335C208.247 90.5068 208.907 89.8668 209.747 89.4135C210.6 88.9468 211.567 88.7135 212.647 88.7135C213.607 88.7135 214.46 88.9068 215.207 89.2935C215.967 89.6801 216.554 90.2401 216.967 90.9735L215.507 91.9135C215.174 91.4068 214.76 91.0268 214.267 90.7735C213.774 90.5201 213.227 90.3935 212.627 90.3935C211.934 90.3935 211.307 90.5468 210.747 90.8535C210.2 91.1601 209.767 91.6001 209.447 92.1735C209.14 92.7335 208.987 93.3801 208.987 94.1135C208.987 94.8601 209.14 95.5201 209.447 96.0935C209.767 96.6535 210.2 97.0868 210.747 97.3935C211.307 97.7001 211.934 97.8535 212.627 97.8535C213.227 97.8535 213.774 97.7268 214.267 97.4735C214.76 97.2201 215.174 96.8401 215.507 96.3335L216.967 97.2535C216.554 97.9868 215.967 98.5535 215.207 98.9535C214.46 99.3401 213.607 99.5335 212.647 99.5335ZM227.104 87.1535V92.0335H234.124V93.7535H227.104V99.4135H225.104V85.4135H234.984V87.1535H227.104ZM241.008 88.7135C242.475 88.7135 243.595 89.0735 244.368 89.7935C245.155 90.5135 245.548 91.5868 245.548 93.0135V99.4135H243.728V98.0135C243.408 98.5068 242.948 98.8868 242.348 99.1535C241.761 99.4068 241.061 99.5335 240.248 99.5335C239.061 99.5335 238.108 99.2468 237.388 98.6735C236.681 98.1001 236.328 97.3468 236.328 96.4135C236.328 95.4801 236.668 94.7335 237.348 94.1735C238.028 93.6001 239.108 93.3135 240.588 93.3135H243.628V92.9335C243.628 92.1068 243.388 91.4735 242.908 91.0335C242.428 90.5935 241.721 90.3735 240.788 90.3735C240.161 90.3735 239.548 90.4801 238.948 90.6935C238.348 90.8935 237.841 91.1668 237.428 91.5135L236.628 90.0735C237.175 89.6335 237.828 89.3001 238.588 89.0735C239.348 88.8335 240.155 88.7135 241.008 88.7135ZM240.568 98.0535C241.301 98.0535 241.935 97.8935 242.468 97.5735C243.001 97.2401 243.388 96.7735 243.628 96.1735V94.6935H240.668C239.041 94.6935 238.228 95.2401 238.228 96.3335C238.228 96.8668 238.435 97.2868 238.848 97.5935C239.261 97.9001 239.835 98.0535 240.568 98.0535ZM255.061 98.7935C254.781 99.0335 254.435 99.2201 254.021 99.3535C253.608 99.4735 253.181 99.5335 252.741 99.5335C251.675 99.5335 250.848 99.2468 250.261 98.6735C249.675 98.1001 249.381 97.2801 249.381 96.2135V90.3935H247.581V88.8135H249.381V86.4935H251.301V88.8135H254.341V90.3935H251.301V96.1335C251.301 96.7068 251.441 97.1468 251.721 97.4535C252.015 97.7601 252.428 97.9135 252.961 97.9135C253.548 97.9135 254.048 97.7468 254.461 97.4135L255.061 98.7935ZM257.382 88.8135H259.302V99.4135H257.382V88.8135ZM258.342 86.7735C257.969 86.7735 257.656 86.6535 257.402 86.4135C257.162 86.1735 257.042 85.8801 257.042 85.5335C257.042 85.1868 257.162 84.8935 257.402 84.6535C257.656 84.4001 257.969 84.2735 258.342 84.2735C258.716 84.2735 259.022 84.3935 259.262 84.6335C259.516 84.8601 259.642 85.1468 259.642 85.4935C259.642 85.8535 259.516 86.1601 259.262 86.4135C259.022 86.6535 258.716 86.7735 258.342 86.7735ZM273.108 88.8135V97.9735C273.108 99.8268 272.648 101.193 271.728 102.073C270.808 102.967 269.435 103.413 267.608 103.413C266.608 103.413 265.655 103.273 264.748 102.993C263.842 102.727 263.108 102.34 262.548 101.833L263.468 100.353C263.962 100.78 264.568 101.113 265.288 101.353C266.022 101.607 266.775 101.733 267.548 101.733C268.788 101.733 269.702 101.44 270.288 100.853C270.888 100.267 271.188 99.3735 271.188 98.1735V97.3335C270.735 97.8801 270.175 98.2935 269.508 98.5735C268.855 98.8401 268.142 98.9735 267.368 98.9735C266.355 98.9735 265.435 98.7601 264.608 98.3335C263.795 97.8935 263.155 97.2868 262.688 96.5135C262.222 95.7268 261.988 94.8335 261.988 93.8335C261.988 92.8335 262.222 91.9468 262.688 91.1735C263.155 90.3868 263.795 89.7801 264.608 89.3535C265.435 88.9268 266.355 88.7135 267.368 88.7135C268.168 88.7135 268.908 88.8601 269.588 89.1535C270.282 89.4468 270.848 89.8801 271.288 90.4535V88.8135H273.108ZM267.588 97.2935C268.282 97.2935 268.902 97.1468 269.448 96.8535C270.008 96.5601 270.442 96.1535 270.748 95.6335C271.068 95.1001 271.228 94.5001 271.228 93.8335C271.228 92.8068 270.888 91.9801 270.208 91.3535C269.528 90.7135 268.655 90.3935 267.588 90.3935C266.508 90.3935 265.628 90.7135 264.948 91.3535C264.268 91.9801 263.928 92.8068 263.928 93.8335C263.928 94.5001 264.082 95.1001 264.388 95.6335C264.708 96.1535 265.142 96.5601 265.688 96.8535C266.248 97.1468 266.882 97.2935 267.588 97.2935ZM286.657 88.8135V99.4135H284.837V97.8135C284.45 98.3601 283.937 98.7868 283.297 99.0935C282.67 99.3868 281.984 99.5335 281.237 99.5335C279.824 99.5335 278.71 99.1468 277.897 98.3735C277.084 97.5868 276.677 96.4335 276.677 94.9135V88.8135H278.597V94.6935C278.597 95.7201 278.844 96.5001 279.337 97.0335C279.83 97.5535 280.537 97.8135 281.457 97.8135C282.47 97.8135 283.27 97.5068 283.857 96.8935C284.444 96.2801 284.737 95.4135 284.737 94.2935V88.8135H286.657ZM299.892 94.1735C299.892 94.3201 299.879 94.5135 299.852 94.7535H291.252C291.372 95.6868 291.779 96.4401 292.472 97.0135C293.179 97.5735 294.052 97.8535 295.092 97.8535C296.359 97.8535 297.379 97.4268 298.152 96.5735L299.212 97.8135C298.732 98.3735 298.132 98.8001 297.412 99.0935C296.705 99.3868 295.912 99.5335 295.032 99.5335C293.912 99.5335 292.919 99.3068 292.052 98.8535C291.185 98.3868 290.512 97.7401 290.032 96.9135C289.565 96.0868 289.332 95.1535 289.332 94.1135C289.332 93.0868 289.559 92.1601 290.012 91.3335C290.479 90.5068 291.112 89.8668 291.912 89.4135C292.725 88.9468 293.639 88.7135 294.652 88.7135C295.665 88.7135 296.565 88.9468 297.352 89.4135C298.152 89.8668 298.772 90.5068 299.212 91.3335C299.665 92.1601 299.892 93.1068 299.892 94.1735ZM294.652 90.3335C293.732 90.3335 292.959 90.6135 292.332 91.1735C291.719 91.7335 291.359 92.4668 291.252 93.3735H298.052C297.945 92.4801 297.579 91.7535 296.952 91.1935C296.339 90.6201 295.572 90.3335 294.652 90.3335ZM124.526 123.573C123.472 123.573 122.452 123.413 121.466 123.093C120.492 122.76 119.726 122.333 119.166 121.813L119.906 120.253C120.439 120.733 121.119 121.127 121.946 121.433C122.786 121.727 123.646 121.873 124.526 121.873C125.686 121.873 126.552 121.68 127.126 121.293C127.699 120.893 127.986 120.367 127.986 119.713C127.986 119.233 127.826 118.847 127.506 118.553C127.199 118.247 126.812 118.013 126.346 117.853C125.892 117.693 125.246 117.513 124.406 117.313C123.352 117.06 122.499 116.807 121.846 116.553C121.206 116.3 120.652 115.913 120.186 115.393C119.732 114.86 119.506 114.147 119.506 113.253C119.506 112.507 119.699 111.833 120.086 111.233C120.486 110.633 121.086 110.153 121.886 109.793C122.686 109.433 123.679 109.253 124.866 109.253C125.692 109.253 126.506 109.36 127.306 109.573C128.106 109.787 128.792 110.093 129.366 110.493L128.706 112.093C128.119 111.72 127.492 111.44 126.826 111.253C126.159 111.053 125.506 110.953 124.866 110.953C123.732 110.953 122.879 111.16 122.306 111.573C121.746 111.987 121.466 112.52 121.466 113.173C121.466 113.653 121.626 114.047 121.946 114.353C122.266 114.647 122.659 114.88 123.126 115.053C123.606 115.213 124.252 115.387 125.066 115.573C126.119 115.827 126.966 116.08 127.606 116.333C128.246 116.587 128.792 116.973 129.246 117.493C129.712 118.013 129.946 118.713 129.946 119.593C129.946 120.327 129.746 121 129.346 121.613C128.946 122.213 128.339 122.693 127.526 123.053C126.712 123.4 125.712 123.573 124.526 123.573ZM141.772 112.813L136.632 124.473C136.179 125.553 135.646 126.313 135.032 126.753C134.432 127.193 133.706 127.413 132.852 127.413C132.332 127.413 131.826 127.327 131.332 127.153C130.852 126.993 130.452 126.753 130.132 126.433L130.952 124.993C131.499 125.513 132.132 125.773 132.852 125.773C133.319 125.773 133.706 125.647 134.012 125.393C134.332 125.153 134.619 124.733 134.872 124.133L135.212 123.393L130.532 112.813H132.532L136.232 121.293L139.892 112.813H141.772ZM149.224 112.713C150.571 112.713 151.637 113.107 152.424 113.893C153.224 114.667 153.624 115.807 153.624 117.313V123.413H151.704V117.533C151.704 116.507 151.457 115.733 150.964 115.213C150.471 114.693 149.764 114.433 148.844 114.433C147.804 114.433 146.984 114.74 146.384 115.353C145.784 115.953 145.484 116.82 145.484 117.953V123.413H143.564V112.813H145.404V114.413C145.791 113.867 146.311 113.447 146.964 113.153C147.631 112.86 148.384 112.713 149.224 112.713ZM167.236 108.573V123.413H165.396V121.733C164.969 122.32 164.429 122.767 163.776 123.073C163.123 123.38 162.403 123.533 161.616 123.533C160.589 123.533 159.669 123.307 158.856 122.853C158.043 122.4 157.403 121.767 156.936 120.953C156.483 120.127 156.256 119.18 156.256 118.113C156.256 117.047 156.483 116.107 156.936 115.293C157.403 114.48 158.043 113.847 158.856 113.393C159.669 112.94 160.589 112.713 161.616 112.713C162.376 112.713 163.076 112.86 163.716 113.153C164.356 113.433 164.889 113.853 165.316 114.413V108.573H167.236ZM161.776 121.853C162.443 121.853 163.049 121.7 163.596 121.393C164.143 121.073 164.569 120.633 164.876 120.073C165.183 119.5 165.336 118.847 165.336 118.113C165.336 117.38 165.183 116.733 164.876 116.173C164.569 115.6 164.143 115.16 163.596 114.853C163.049 114.547 162.443 114.393 161.776 114.393C161.096 114.393 160.483 114.547 159.936 114.853C159.403 115.16 158.976 115.6 158.656 116.173C158.349 116.733 158.196 117.38 158.196 118.113C158.196 118.847 158.349 119.5 158.656 120.073C158.976 120.633 159.403 121.073 159.936 121.393C160.483 121.7 161.096 121.853 161.776 121.853ZM172.709 114.593C173.042 113.98 173.535 113.513 174.189 113.193C174.842 112.873 175.635 112.713 176.569 112.713V114.573C176.462 114.56 176.315 114.553 176.129 114.553C175.089 114.553 174.269 114.867 173.669 115.493C173.082 116.107 172.789 116.987 172.789 118.133V123.413H170.869V112.813H172.709V114.593ZM183.378 123.533C182.324 123.533 181.378 123.3 180.538 122.833C179.698 122.367 179.038 121.727 178.558 120.913C178.091 120.087 177.858 119.153 177.858 118.113C177.858 117.073 178.091 116.147 178.558 115.333C179.038 114.507 179.698 113.867 180.538 113.413C181.378 112.947 182.324 112.713 183.378 112.713C184.431 112.713 185.371 112.947 186.198 113.413C187.038 113.867 187.691 114.507 188.158 115.333C188.638 116.147 188.878 117.073 188.878 118.113C188.878 119.153 188.638 120.087 188.158 120.913C187.691 121.727 187.038 122.367 186.198 122.833C185.371 123.3 184.431 123.533 183.378 123.533ZM183.378 121.853C184.058 121.853 184.664 121.7 185.198 121.393C185.744 121.073 186.171 120.633 186.478 120.073C186.784 119.5 186.938 118.847 186.938 118.113C186.938 117.38 186.784 116.733 186.478 116.173C186.171 115.6 185.744 115.16 185.198 114.853C184.664 114.547 184.058 114.393 183.378 114.393C182.698 114.393 182.084 114.547 181.538 114.853C181.004 115.16 180.578 115.6 180.258 116.173C179.951 116.733 179.798 117.38 179.798 118.113C179.798 118.847 179.951 119.5 180.258 120.073C180.578 120.633 181.004 121.073 181.538 121.393C182.084 121.7 182.698 121.853 183.378 121.853ZM204.793 112.713C206.126 112.713 207.18 113.1 207.953 113.873C208.74 114.647 209.133 115.793 209.133 117.313V123.413H207.213V117.533C207.213 116.507 206.973 115.733 206.493 115.213C206.026 114.693 205.353 114.433 204.473 114.433C203.5 114.433 202.726 114.74 202.153 115.353C201.58 115.953 201.293 116.82 201.293 117.953V123.413H199.373V117.533C199.373 116.507 199.133 115.733 198.653 115.213C198.186 114.693 197.513 114.433 196.633 114.433C195.66 114.433 194.886 114.74 194.313 115.353C193.74 115.953 193.453 116.82 193.453 117.953V123.413H191.533V112.813H193.373V114.393C193.76 113.847 194.266 113.433 194.893 113.153C195.52 112.86 196.233 112.713 197.033 112.713C197.86 112.713 198.593 112.88 199.233 113.213C199.873 113.547 200.366 114.033 200.713 114.673C201.113 114.06 201.666 113.58 202.373 113.233C203.093 112.887 203.9 112.713 204.793 112.713ZM222.304 118.173C222.304 118.32 222.291 118.513 222.264 118.753H213.664C213.784 119.687 214.191 120.44 214.884 121.013C215.591 121.573 216.464 121.853 217.504 121.853C218.771 121.853 219.791 121.427 220.564 120.573L221.624 121.813C221.144 122.373 220.544 122.8 219.824 123.093C219.118 123.387 218.324 123.533 217.444 123.533C216.324 123.533 215.331 123.307 214.464 122.853C213.598 122.387 212.924 121.74 212.444 120.913C211.978 120.087 211.744 119.153 211.744 118.113C211.744 117.087 211.971 116.16 212.424 115.333C212.891 114.507 213.524 113.867 214.324 113.413C215.138 112.947 216.051 112.713 217.064 112.713C218.078 112.713 218.978 112.947 219.764 113.413C220.564 113.867 221.184 114.507 221.624 115.333C222.078 116.16 222.304 117.107 222.304 118.173ZM217.064 114.333C216.144 114.333 215.371 114.613 214.744 115.173C214.131 115.733 213.771 116.467 213.664 117.373H220.464C220.358 116.48 219.991 115.753 219.364 115.193C218.751 114.62 217.984 114.333 217.064 114.333ZM232.801 127.293C232.041 126.067 231.455 124.66 231.041 123.073C230.628 121.473 230.421 119.76 230.421 117.933C230.421 116.107 230.628 114.393 231.041 112.793C231.455 111.18 232.041 109.773 232.801 108.573H234.621C233.821 109.973 233.235 111.44 232.861 112.973C232.488 114.507 232.301 116.16 232.301 117.933C232.301 119.707 232.488 121.36 232.861 122.893C233.235 124.427 233.821 125.893 234.621 127.293H232.801ZM250.34 123.413L250.32 113.213L245.26 121.713H244.34L239.28 113.273V123.413H237.36V109.413H239L244.84 119.253L250.6 109.413H252.24L252.26 123.413H250.34ZM266.621 121.673V123.413H256.461V109.413H266.341V111.153H258.461V115.453H265.481V117.153H258.461V121.673H266.621ZM273.8 106.573H275.54L268.94 125.413H267.2L273.8 106.573ZM282.76 123.573C281.36 123.573 280.094 123.267 278.96 122.653C277.84 122.027 276.96 121.173 276.32 120.093C275.68 119 275.36 117.773 275.36 116.413C275.36 115.053 275.68 113.833 276.32 112.753C276.96 111.66 277.847 110.807 278.98 110.193C280.114 109.567 281.38 109.253 282.78 109.253C283.874 109.253 284.874 109.44 285.78 109.813C286.687 110.173 287.46 110.713 288.1 111.433L286.8 112.693C285.747 111.587 284.434 111.033 282.86 111.033C281.82 111.033 280.88 111.267 280.04 111.733C279.2 112.2 278.54 112.847 278.06 113.673C277.594 114.487 277.36 115.4 277.36 116.413C277.36 117.427 277.594 118.347 278.06 119.173C278.54 119.987 279.2 120.627 280.04 121.093C280.88 121.56 281.82 121.793 282.86 121.793C284.42 121.793 285.734 121.233 286.8 120.113L288.1 121.373C287.46 122.093 286.68 122.64 285.76 123.013C284.854 123.387 283.854 123.573 282.76 123.573ZM292.953 111.153V116.033H299.973V117.753H292.953V123.413H290.953V109.413H300.833V111.153H292.953ZM307.67 123.573C306.617 123.573 305.597 123.413 304.61 123.093C303.637 122.76 302.87 122.333 302.31 121.813L303.05 120.253C303.584 120.733 304.264 121.127 305.09 121.433C305.93 121.727 306.79 121.873 307.67 121.873C308.83 121.873 309.697 121.68 310.27 121.293C310.844 120.893 311.13 120.367 311.13 119.713C311.13 119.233 310.97 118.847 310.65 118.553C310.344 118.247 309.957 118.013 309.49 117.853C309.037 117.693 308.39 117.513 307.55 117.313C306.497 117.06 305.644 116.807 304.99 116.553C304.35 116.3 303.797 115.913 303.33 115.393C302.877 114.86 302.65 114.147 302.65 113.253C302.65 112.507 302.844 111.833 303.23 111.233C303.63 110.633 304.23 110.153 305.03 109.793C305.83 109.433 306.824 109.253 308.01 109.253C308.837 109.253 309.65 109.36 310.45 109.573C311.25 109.787 311.937 110.093 312.51 110.493L311.85 112.093C311.264 111.72 310.637 111.44 309.97 111.253C309.304 111.053 308.65 110.953 308.01 110.953C306.877 110.953 306.024 111.16 305.45 111.573C304.89 111.987 304.61 112.52 304.61 113.173C304.61 113.653 304.77 114.047 305.09 114.353C305.41 114.647 305.804 114.88 306.27 115.053C306.75 115.213 307.397 115.387 308.21 115.573C309.264 115.827 310.11 116.08 310.75 116.333C311.39 116.587 311.937 116.973 312.39 117.493C312.857 118.013 313.09 118.713 313.09 119.593C313.09 120.327 312.89 121 312.49 121.613C312.09 122.213 311.484 122.693 310.67 123.053C309.857 123.4 308.857 123.573 307.67 123.573ZM314.552 127.293C315.352 125.893 315.939 124.427 316.312 122.893C316.699 121.36 316.892 119.707 316.892 117.933C316.892 116.16 316.699 114.507 316.312 112.973C315.939 111.44 315.352 109.973 314.552 108.573H316.372C317.145 109.773 317.739 111.173 318.152 112.773C318.565 114.373 318.772 116.093 318.772 117.933C318.772 119.76 318.565 121.473 318.152 123.073C317.739 124.673 317.145 126.08 316.372 127.293H314.552Z" fill="white"/>
</svg>
