<svg width="59" height="80" viewBox="0 0 59 80" fill="none" xmlns="http://www.w3.org/2000/svg">
<path d="M22.1248 0C24.1734 12.196 26.6317 20.3266 39.8663 24.392H4.3833C16.3887 21.5462 20.8956 12.196 22.1248 0Z" fill="#867CF9"/>
<path d="M22.658 48.7839C24.7066 36.588 27.1649 28.4573 40.3995 24.392H4.9165C16.9219 27.2377 21.4288 36.588 22.658 48.7839Z" fill="#867CF9"/>
<path d="M10.0914 48.7839C11.2567 56.5081 12.655 61.6575 20.1828 64.2322H0C6.8287 62.4299 9.39227 56.5081 10.0914 48.7839Z" fill="#867CF9"/>
<path d="M10.3946 79.6804C11.5599 71.9563 12.9582 66.8069 20.4861 64.2322H0.303223C7.13192 66.0345 9.69549 71.9563 10.3946 79.6804Z" fill="#867CF9"/>
<path d="M44.0316 32.5226C45.7096 42.0761 47.7232 48.4451 58.5633 51.6296H29.5C39.3333 49.4005 43.0249 42.0761 44.0316 32.5226Z" fill="#867CF9"/>
<path d="M44.4682 70.7367C46.1461 61.1832 48.1597 54.8142 58.9998 51.6297H29.9365C39.7699 53.8588 43.4614 61.1832 44.4682 70.7367Z" fill="#867CF9"/>
</svg>
