<svg width="439" height="627" viewBox="0 0 439 627" fill="none" xmlns="http://www.w3.org/2000/svg">
<rect width="438" height="626" transform="translate(0.866699 0.35498)" fill="white"/>
<circle cx="219.866" cy="124.885" r="72.4885" fill="#F54923"/>
<path d="M216.797 109.032C218.541 109.032 219.825 109.379 220.65 110.075C221.487 110.77 221.905 111.701 221.905 112.867C221.905 113.621 221.717 114.311 221.34 114.935C220.963 115.548 220.385 116.043 219.607 116.42C218.842 116.785 217.893 116.968 216.762 116.968C215.89 116.968 215.03 116.856 214.181 116.632C213.345 116.396 212.632 116.066 212.043 115.642L213.174 113.45C213.645 113.804 214.187 114.081 214.8 114.281C215.413 114.47 216.043 114.564 216.691 114.564C217.41 114.564 217.975 114.423 218.388 114.14C218.8 113.857 219.007 113.462 219.007 112.956C219.007 112.425 218.789 112.025 218.353 111.754C217.928 111.483 217.186 111.347 216.126 111.347H212.962L213.598 104.383H221.145V106.681H215.984L215.79 109.032H216.797ZM170.212 126.383C171.308 126.383 172.256 126.566 173.057 126.931C173.871 127.296 174.495 127.815 174.931 128.487C175.367 129.158 175.585 129.954 175.585 130.873C175.585 131.78 175.367 132.575 174.931 133.259C174.495 133.93 173.871 134.449 173.057 134.814C172.256 135.168 171.308 135.344 170.212 135.344H167.72V138.756H164.856V126.383H170.212ZM170.053 133.011C170.913 133.011 171.567 132.829 172.015 132.463C172.462 132.086 172.686 131.556 172.686 130.873C172.686 130.177 172.462 129.647 172.015 129.282C171.567 128.905 170.913 128.716 170.053 128.716H167.72V133.011H170.053ZM181.184 129.105C182.657 129.105 183.788 129.459 184.578 130.166C185.367 130.861 185.762 131.915 185.762 133.329V138.756H183.181V137.571C182.663 138.455 181.697 138.897 180.283 138.897C179.552 138.897 178.916 138.773 178.374 138.526C177.843 138.278 177.437 137.937 177.154 137.501C176.871 137.065 176.73 136.57 176.73 136.016C176.73 135.132 177.06 134.437 177.72 133.93C178.391 133.424 179.422 133.17 180.813 133.17H183.004C183.004 132.569 182.822 132.11 182.457 131.792C182.091 131.462 181.543 131.297 180.813 131.297C180.306 131.297 179.805 131.379 179.31 131.544C178.827 131.697 178.415 131.91 178.073 132.181L177.083 130.254C177.602 129.889 178.22 129.606 178.939 129.406C179.67 129.205 180.418 129.105 181.184 129.105ZM180.972 137.041C181.443 137.041 181.861 136.935 182.227 136.723C182.592 136.499 182.851 136.175 183.004 135.751V134.779H181.113C179.982 134.779 179.416 135.15 179.416 135.892C179.416 136.246 179.552 136.529 179.823 136.741C180.106 136.941 180.489 137.041 180.972 137.041ZM190.891 130.501C191.221 130.042 191.663 129.694 192.216 129.459C192.782 129.223 193.43 129.105 194.161 129.105V131.65C193.854 131.627 193.648 131.615 193.542 131.615C192.753 131.615 192.134 131.839 191.686 132.287C191.238 132.723 191.015 133.383 191.015 134.266V138.756H188.257V129.247H190.891V130.501ZM202.261 138.296C201.99 138.496 201.654 138.65 201.254 138.756C200.865 138.85 200.453 138.897 200.017 138.897C198.885 138.897 198.008 138.608 197.383 138.031C196.77 137.454 196.464 136.605 196.464 135.486V131.58H194.997V129.459H196.464V127.143H199.221V129.459H201.59V131.58H199.221V135.45C199.221 135.851 199.321 136.163 199.522 136.387C199.734 136.599 200.028 136.705 200.405 136.705C200.841 136.705 201.213 136.588 201.519 136.352L202.261 138.296ZM203.809 129.247H206.566V138.756H203.809V129.247ZM205.188 127.921C204.681 127.921 204.269 127.774 203.95 127.479C203.632 127.184 203.473 126.819 203.473 126.383C203.473 125.947 203.632 125.582 203.95 125.287C204.269 124.993 204.681 124.846 205.188 124.846C205.694 124.846 206.107 124.987 206.425 125.27C206.743 125.553 206.902 125.906 206.902 126.33C206.902 126.79 206.743 127.173 206.425 127.479C206.107 127.774 205.694 127.921 205.188 127.921ZM213.721 138.897C212.707 138.897 211.794 138.691 210.981 138.278C210.18 137.854 209.55 137.271 209.09 136.529C208.642 135.786 208.418 134.944 208.418 134.001C208.418 133.058 208.642 132.216 209.09 131.474C209.55 130.731 210.18 130.154 210.981 129.741C211.794 129.317 212.707 129.105 213.721 129.105C214.722 129.105 215.594 129.317 216.337 129.741C217.091 130.154 217.639 130.749 217.98 131.527L215.842 132.676C215.347 131.804 214.634 131.368 213.703 131.368C212.984 131.368 212.389 131.603 211.918 132.075C211.447 132.546 211.211 133.188 211.211 134.001C211.211 134.814 211.447 135.456 211.918 135.928C212.389 136.399 212.984 136.635 213.703 136.635C214.646 136.635 215.359 136.199 215.842 135.327L217.98 136.493C217.639 137.247 217.091 137.837 216.337 138.261C215.594 138.685 214.722 138.897 213.721 138.897ZM219.568 129.247H222.325V138.756H219.568V129.247ZM220.947 127.921C220.44 127.921 220.028 127.774 219.709 127.479C219.391 127.184 219.232 126.819 219.232 126.383C219.232 125.947 219.391 125.582 219.709 125.287C220.028 124.993 220.44 124.846 220.947 124.846C221.453 124.846 221.866 124.987 222.184 125.27C222.502 125.553 222.661 125.906 222.661 126.33C222.661 126.79 222.502 127.173 222.184 127.479C221.866 127.774 221.453 127.921 220.947 127.921ZM230.505 129.105C231.389 129.105 232.19 129.311 232.909 129.724C233.639 130.124 234.211 130.696 234.623 131.438C235.036 132.169 235.242 133.023 235.242 134.001C235.242 134.979 235.036 135.839 234.623 136.582C234.211 137.312 233.639 137.884 232.909 138.296C232.19 138.697 231.389 138.897 230.505 138.897C229.291 138.897 228.337 138.514 227.642 137.748V142.185H224.884V129.247H227.518V130.342C228.201 129.518 229.197 129.105 230.505 129.105ZM230.028 136.635C230.735 136.635 231.312 136.399 231.76 135.928C232.219 135.445 232.449 134.802 232.449 134.001C232.449 133.2 232.219 132.564 231.76 132.092C231.312 131.609 230.735 131.368 230.028 131.368C229.321 131.368 228.737 131.609 228.278 132.092C227.83 132.564 227.606 133.2 227.606 134.001C227.606 134.802 227.83 135.445 228.278 135.928C228.737 136.399 229.321 136.635 230.028 136.635ZM240.768 129.105C242.241 129.105 243.372 129.459 244.161 130.166C244.951 130.861 245.346 131.915 245.346 133.329V138.756H242.765V137.571C242.247 138.455 241.28 138.897 239.866 138.897C239.136 138.897 238.499 138.773 237.957 138.526C237.427 138.278 237.021 137.937 236.738 137.501C236.455 137.065 236.314 136.57 236.314 136.016C236.314 135.132 236.644 134.437 237.303 133.93C237.975 133.424 239.006 133.17 240.397 133.17H242.588C242.588 132.569 242.406 132.11 242.04 131.792C241.675 131.462 241.127 131.297 240.397 131.297C239.89 131.297 239.389 131.379 238.894 131.544C238.411 131.697 237.999 131.91 237.657 132.181L236.667 130.254C237.186 129.889 237.804 129.606 238.523 129.406C239.254 129.205 240.002 129.105 240.768 129.105ZM240.556 137.041C241.027 137.041 241.445 136.935 241.811 136.723C242.176 136.499 242.435 136.175 242.588 135.751V134.779H240.697C239.566 134.779 239 135.15 239 135.892C239 136.246 239.136 136.529 239.407 136.741C239.69 136.941 240.073 137.041 240.556 137.041ZM253.621 129.105C254.799 129.105 255.748 129.459 256.466 130.166C257.197 130.873 257.562 131.921 257.562 133.312V138.756H254.805V133.736C254.805 132.982 254.64 132.422 254.31 132.057C253.98 131.68 253.503 131.491 252.878 131.491C252.183 131.491 251.629 131.709 251.217 132.145C250.805 132.569 250.598 133.206 250.598 134.054V138.756H247.841V129.247H250.475V130.36C250.84 129.959 251.294 129.653 251.836 129.441C252.378 129.217 252.973 129.105 253.621 129.105ZM266.195 138.296C265.924 138.496 265.588 138.65 265.187 138.756C264.798 138.85 264.386 138.897 263.95 138.897C262.819 138.897 261.941 138.608 261.316 138.031C260.704 137.454 260.397 136.605 260.397 135.486V131.58H258.93V129.459H260.397V127.143H263.155V129.459H265.523V131.58H263.155V135.45C263.155 135.851 263.255 136.163 263.455 136.387C263.667 136.599 263.962 136.705 264.339 136.705C264.775 136.705 265.146 136.588 265.452 136.352L266.195 138.296ZM270.942 138.897C270.152 138.897 269.38 138.803 268.626 138.614C267.872 138.414 267.271 138.167 266.823 137.872L267.743 135.892C268.167 136.163 268.679 136.387 269.28 136.564C269.881 136.729 270.47 136.811 271.048 136.811C272.214 136.811 272.798 136.523 272.798 135.945C272.798 135.674 272.639 135.48 272.32 135.362C272.002 135.244 271.513 135.144 270.853 135.062C270.076 134.944 269.433 134.808 268.927 134.655C268.42 134.502 267.978 134.231 267.601 133.842C267.236 133.453 267.053 132.899 267.053 132.181C267.053 131.58 267.224 131.049 267.566 130.59C267.919 130.119 268.426 129.753 269.086 129.494C269.757 129.235 270.547 129.105 271.454 129.105C272.126 129.105 272.792 129.182 273.452 129.335C274.123 129.476 274.677 129.677 275.113 129.936L274.194 131.898C273.357 131.426 272.444 131.191 271.454 131.191C270.865 131.191 270.423 131.273 270.129 131.438C269.834 131.603 269.687 131.815 269.687 132.075C269.687 132.369 269.846 132.575 270.164 132.693C270.482 132.811 270.989 132.923 271.684 133.029C272.462 133.159 273.098 133.3 273.593 133.453C274.088 133.595 274.518 133.86 274.883 134.249C275.248 134.637 275.431 135.179 275.431 135.875C275.431 136.464 275.254 136.988 274.901 137.448C274.547 137.907 274.029 138.267 273.345 138.526C272.674 138.773 271.873 138.897 270.942 138.897Z" fill="white"/>
<circle cx="219.866" cy="501.825" r="72.4885" fill="#F54923"/>
<path d="M218.364 469.616V471.949H209.014V470.093L213.786 465.586C214.293 465.103 214.635 464.691 214.812 464.349C214.988 463.996 215.077 463.648 215.077 463.306C215.077 462.811 214.906 462.434 214.564 462.175C214.234 461.904 213.745 461.768 213.097 461.768C212.555 461.768 212.066 461.875 211.63 462.087C211.194 462.287 210.829 462.593 210.534 463.006L208.449 461.662C208.932 460.944 209.598 460.384 210.446 459.983C211.294 459.571 212.266 459.365 213.362 459.365C214.281 459.365 215.083 459.518 215.766 459.824C216.461 460.119 216.997 460.543 217.374 461.097C217.763 461.639 217.958 462.281 217.958 463.023C217.958 463.695 217.816 464.325 217.534 464.915C217.251 465.504 216.703 466.175 215.89 466.93L213.044 469.616H218.364ZM224.814 472.161C223.789 472.161 222.875 471.908 222.074 471.401C221.273 470.895 220.642 470.164 220.183 469.21C219.735 468.243 219.511 467.095 219.511 465.763C219.511 464.431 219.735 463.289 220.183 462.334C220.642 461.368 221.273 460.631 222.074 460.125C222.875 459.618 223.789 459.365 224.814 459.365C225.839 459.365 226.752 459.618 227.553 460.125C228.355 460.631 228.979 461.368 229.427 462.334C229.886 463.289 230.116 464.431 230.116 465.763C230.116 467.095 229.886 468.243 229.427 469.21C228.979 470.164 228.355 470.895 227.553 471.401C226.752 471.908 225.839 472.161 224.814 472.161ZM224.814 469.74C225.568 469.74 226.157 469.416 226.581 468.768C227.017 468.12 227.235 467.118 227.235 465.763C227.235 464.408 227.017 463.406 226.581 462.758C226.157 462.11 225.568 461.786 224.814 461.786C224.071 461.786 223.482 462.11 223.046 462.758C222.622 463.406 222.41 464.408 222.41 465.763C222.41 467.118 222.622 468.12 223.046 468.768C223.482 469.416 224.071 469.74 224.814 469.74ZM188.7 481.577V493.949H185.837V488.877H180.216V493.949H177.353V481.577H180.216V486.455H185.837V481.577H188.7ZM191.433 484.44H194.19V493.949H191.433V484.44ZM192.812 483.114C192.305 483.114 191.893 482.967 191.575 482.673C191.256 482.378 191.097 482.013 191.097 481.577C191.097 481.141 191.256 480.776 191.575 480.481C191.893 480.186 192.305 480.039 192.812 480.039C193.319 480.039 193.731 480.18 194.049 480.463C194.367 480.746 194.526 481.1 194.526 481.524C194.526 481.983 194.367 482.366 194.049 482.673C193.731 482.967 193.319 483.114 192.812 483.114ZM199.949 494.091C199.159 494.091 198.387 493.996 197.633 493.808C196.879 493.608 196.278 493.36 195.83 493.065L196.749 491.086C197.174 491.357 197.686 491.581 198.287 491.758C198.888 491.922 199.477 492.005 200.055 492.005C201.221 492.005 201.804 491.716 201.804 491.139C201.804 490.868 201.645 490.673 201.327 490.556C201.009 490.438 200.52 490.338 199.86 490.255C199.083 490.137 198.44 490.002 197.934 489.849C197.427 489.695 196.985 489.424 196.608 489.036C196.243 488.647 196.06 488.093 196.06 487.374C196.06 486.773 196.231 486.243 196.573 485.783C196.926 485.312 197.433 484.947 198.093 484.688C198.764 484.428 199.554 484.299 200.461 484.299C201.133 484.299 201.799 484.375 202.458 484.528C203.13 484.67 203.684 484.87 204.12 485.129L203.201 487.091C202.364 486.62 201.451 486.384 200.461 486.384C199.872 486.384 199.43 486.467 199.136 486.632C198.841 486.797 198.694 487.009 198.694 487.268C198.694 487.563 198.853 487.769 199.171 487.887C199.489 488.005 199.996 488.116 200.691 488.223C201.469 488.352 202.105 488.494 202.6 488.647C203.095 488.788 203.525 489.053 203.89 489.442C204.255 489.831 204.438 490.373 204.438 491.068C204.438 491.657 204.261 492.182 203.908 492.641C203.554 493.101 203.036 493.46 202.352 493.719C201.681 493.967 200.879 494.091 199.949 494.091ZM212.272 493.49C212.001 493.69 211.666 493.843 211.265 493.949C210.876 494.043 210.464 494.091 210.028 494.091C208.897 494.091 208.019 493.802 207.394 493.225C206.781 492.647 206.475 491.799 206.475 490.679V486.773H205.008V484.652H206.475V482.337H209.232V484.652H211.601V486.773H209.232V490.644C209.232 491.045 209.333 491.357 209.533 491.581C209.745 491.793 210.04 491.899 210.417 491.899C210.853 491.899 211.224 491.781 211.53 491.545L212.272 493.49ZM218.052 494.091C217.05 494.091 216.149 493.884 215.347 493.472C214.558 493.048 213.939 492.465 213.491 491.722C213.044 490.98 212.82 490.137 212.82 489.195C212.82 488.252 213.044 487.41 213.491 486.667C213.939 485.925 214.558 485.347 215.347 484.935C216.149 484.511 217.05 484.299 218.052 484.299C219.053 484.299 219.949 484.511 220.738 484.935C221.528 485.347 222.146 485.925 222.594 486.667C223.042 487.41 223.266 488.252 223.266 489.195C223.266 490.137 223.042 490.98 222.594 491.722C222.146 492.465 221.528 493.048 220.738 493.472C219.949 493.884 219.053 494.091 218.052 494.091ZM218.052 491.828C218.759 491.828 219.336 491.593 219.784 491.121C220.243 490.638 220.473 489.996 220.473 489.195C220.473 488.393 220.243 487.757 219.784 487.286C219.336 486.803 218.759 486.561 218.052 486.561C217.345 486.561 216.761 486.803 216.302 487.286C215.842 487.757 215.612 488.393 215.612 489.195C215.612 489.996 215.842 490.638 216.302 491.121C216.761 491.593 217.345 491.828 218.052 491.828ZM227.742 485.695C228.072 485.235 228.514 484.888 229.068 484.652C229.633 484.417 230.282 484.299 231.012 484.299V486.844C230.706 486.82 230.5 486.809 230.394 486.809C229.604 486.809 228.985 487.032 228.538 487.48C228.09 487.916 227.866 488.576 227.866 489.46V493.949H225.109V484.44H227.742V485.695ZM232.652 484.44H235.409V493.949H232.652V484.44ZM234.03 483.114C233.524 483.114 233.111 482.967 232.793 482.673C232.475 482.378 232.316 482.013 232.316 481.577C232.316 481.141 232.475 480.776 232.793 480.481C233.111 480.186 233.524 480.039 234.03 480.039C234.537 480.039 234.949 480.18 235.268 480.463C235.586 480.746 235.745 481.1 235.745 481.524C235.745 481.983 235.586 482.366 235.268 482.673C234.949 482.967 234.537 483.114 234.03 483.114ZM242.563 494.091C241.55 494.091 240.637 493.884 239.824 493.472C239.023 493.048 238.392 492.465 237.933 491.722C237.485 490.98 237.261 490.137 237.261 489.195C237.261 488.252 237.485 487.41 237.933 486.667C238.392 485.925 239.023 485.347 239.824 484.935C240.637 484.511 241.55 484.299 242.563 484.299C243.565 484.299 244.437 484.511 245.179 484.935C245.933 485.347 246.481 485.942 246.823 486.72L244.684 487.869C244.189 486.997 243.477 486.561 242.546 486.561C241.827 486.561 241.232 486.797 240.761 487.268C240.289 487.739 240.054 488.382 240.054 489.195C240.054 490.008 240.289 490.65 240.761 491.121C241.232 491.593 241.827 491.828 242.546 491.828C243.488 491.828 244.201 491.392 244.684 490.52L246.823 491.687C246.481 492.441 245.933 493.03 245.179 493.454C244.437 493.879 243.565 494.091 242.563 494.091ZM252.246 484.299C253.719 484.299 254.85 484.652 255.64 485.359C256.429 486.054 256.824 487.109 256.824 488.523V493.949H254.243V492.765C253.725 493.649 252.759 494.091 251.345 494.091C250.614 494.091 249.978 493.967 249.436 493.719C248.906 493.472 248.499 493.13 248.216 492.694C247.933 492.258 247.792 491.763 247.792 491.21C247.792 490.326 248.122 489.631 248.782 489.124C249.453 488.617 250.484 488.364 251.875 488.364H254.067C254.067 487.763 253.884 487.303 253.519 486.985C253.153 486.655 252.605 486.49 251.875 486.49C251.368 486.49 250.867 486.573 250.373 486.738C249.889 486.891 249.477 487.103 249.135 487.374L248.145 485.448C248.664 485.082 249.283 484.8 250.001 484.599C250.732 484.399 251.48 484.299 252.246 484.299ZM252.034 492.235C252.505 492.235 252.924 492.129 253.289 491.917C253.654 491.693 253.913 491.369 254.067 490.944V489.972H252.175C251.044 489.972 250.479 490.344 250.479 491.086C250.479 491.439 250.614 491.722 250.885 491.934C251.168 492.135 251.551 492.235 252.034 492.235ZM259.319 480.834H262.077V493.949H259.319V480.834ZM204.107 513.651V515.949H194.527V503.577H203.877V505.875H197.373V508.561H203.117V510.788H197.373V513.651H204.107ZM215.543 506.44L211.531 515.949H208.685L204.691 506.44H207.536L210.17 512.909L212.892 506.44H215.543ZM225.724 511.23C225.724 511.265 225.706 511.513 225.671 511.972H218.477C218.607 512.562 218.913 513.027 219.396 513.369C219.88 513.71 220.48 513.881 221.199 513.881C221.694 513.881 222.13 513.811 222.507 513.669C222.896 513.516 223.255 513.28 223.585 512.962L225.052 514.553C224.157 515.578 222.849 516.091 221.129 516.091C220.056 516.091 219.108 515.884 218.283 515.472C217.458 515.048 216.822 514.465 216.374 513.722C215.926 512.98 215.702 512.137 215.702 511.195C215.702 510.264 215.92 509.427 216.356 508.685C216.804 507.931 217.411 507.347 218.177 506.935C218.955 506.511 219.821 506.299 220.775 506.299C221.706 506.299 222.548 506.499 223.303 506.9C224.057 507.3 224.646 507.878 225.07 508.632C225.506 509.374 225.724 510.24 225.724 511.23ZM220.793 508.384C220.168 508.384 219.644 508.561 219.22 508.915C218.795 509.268 218.536 509.751 218.442 510.364H223.126C223.032 509.763 222.772 509.286 222.348 508.932C221.924 508.567 221.405 508.384 220.793 508.384ZM233.339 506.299C234.518 506.299 235.466 506.652 236.185 507.359C236.916 508.066 237.281 509.115 237.281 510.505V515.949H234.524V510.93C234.524 510.175 234.359 509.616 234.029 509.25C233.699 508.873 233.222 508.685 232.597 508.685C231.902 508.685 231.348 508.903 230.936 509.339C230.523 509.763 230.317 510.399 230.317 511.248V515.949H227.56V506.44H230.193V507.554C230.559 507.153 231.012 506.847 231.554 506.635C232.096 506.411 232.691 506.299 233.339 506.299ZM245.913 515.49C245.642 515.69 245.307 515.843 244.906 515.949C244.517 516.043 244.105 516.091 243.669 516.091C242.538 516.091 241.66 515.802 241.035 515.225C240.422 514.647 240.116 513.799 240.116 512.679V508.773H238.649V506.652H240.116V504.337H242.873V506.652H245.242V508.773H242.873V512.644C242.873 513.045 242.974 513.357 243.174 513.581C243.386 513.793 243.681 513.899 244.058 513.899C244.494 513.899 244.865 513.781 245.171 513.545L245.913 515.49ZM200.569 538.161C199.309 538.161 198.166 537.89 197.14 537.348C196.127 536.794 195.326 536.034 194.737 535.068C194.159 534.09 193.871 532.988 193.871 531.763C193.871 530.538 194.159 529.442 194.737 528.475C195.326 527.497 196.127 526.737 197.14 526.195C198.166 525.642 199.314 525.365 200.587 525.365C201.659 525.365 202.625 525.553 203.486 525.93C204.358 526.307 205.088 526.849 205.677 527.556L203.839 529.253C203.003 528.287 201.966 527.804 200.728 527.804C199.962 527.804 199.279 527.975 198.678 528.316C198.077 528.646 197.606 529.112 197.264 529.713C196.934 530.314 196.769 530.997 196.769 531.763C196.769 532.529 196.934 533.212 197.264 533.813C197.606 534.414 198.077 534.886 198.678 535.227C199.279 535.557 199.962 535.722 200.728 535.722C201.966 535.722 203.003 535.233 203.839 534.255L205.677 535.952C205.088 536.671 204.358 537.219 203.486 537.596C202.614 537.973 201.642 538.161 200.569 538.161ZM211.183 528.299C212.656 528.299 213.787 528.652 214.577 529.359C215.366 530.054 215.761 531.109 215.761 532.523V537.949H213.18V536.765C212.662 537.649 211.696 538.091 210.282 538.091C209.551 538.091 208.915 537.967 208.373 537.719C207.842 537.472 207.436 537.13 207.153 536.694C206.87 536.258 206.729 535.763 206.729 535.21C206.729 534.326 207.059 533.631 207.719 533.124C208.39 532.617 209.421 532.364 210.812 532.364H213.003C213.003 531.763 212.821 531.303 212.456 530.985C212.09 530.655 211.542 530.49 210.812 530.49C210.305 530.49 209.804 530.573 209.309 530.738C208.826 530.891 208.414 531.103 208.072 531.374L207.082 529.448C207.601 529.082 208.219 528.8 208.938 528.599C209.669 528.399 210.417 528.299 211.183 528.299ZM210.971 536.235C211.442 536.235 211.86 536.129 212.226 535.917C212.591 535.693 212.85 535.369 213.003 534.944V533.972H211.112C209.981 533.972 209.415 534.344 209.415 535.086C209.415 535.439 209.551 535.722 209.822 535.934C210.105 536.135 210.488 536.235 210.971 536.235ZM220.89 529.695C221.22 529.235 221.662 528.888 222.215 528.652C222.781 528.417 223.429 528.299 224.16 528.299V530.844C223.853 530.82 223.647 530.809 223.541 530.809C222.752 530.809 222.133 531.032 221.685 531.48C221.237 531.916 221.014 532.576 221.014 533.46V537.949H218.256V528.44H220.89V529.695ZM235.399 524.834V537.949H232.765V536.853C232.082 537.678 231.092 538.091 229.796 538.091C228.9 538.091 228.087 537.89 227.357 537.49C226.638 537.089 226.072 536.518 225.66 535.775C225.247 535.033 225.041 534.173 225.041 533.195C225.041 532.217 225.247 531.356 225.66 530.614C226.072 529.872 226.638 529.3 227.357 528.9C228.087 528.499 228.9 528.299 229.796 528.299C231.009 528.299 231.958 528.682 232.641 529.448V524.834H235.399ZM230.273 535.828C230.968 535.828 231.546 535.593 232.005 535.121C232.465 534.638 232.694 533.996 232.694 533.195C232.694 532.393 232.465 531.757 232.005 531.286C231.546 530.803 230.968 530.561 230.273 530.561C229.566 530.561 228.983 530.803 228.523 531.286C228.064 531.757 227.834 532.393 227.834 533.195C227.834 533.996 228.064 534.638 228.523 535.121C228.983 535.593 229.566 535.828 230.273 535.828ZM241.15 538.091C240.36 538.091 239.589 537.996 238.834 537.808C238.08 537.608 237.479 537.36 237.032 537.065L237.951 535.086C238.375 535.357 238.887 535.581 239.488 535.758C240.089 535.922 240.678 536.005 241.256 536.005C242.422 536.005 243.006 535.716 243.006 535.139C243.006 534.868 242.847 534.673 242.528 534.556C242.21 534.438 241.721 534.338 241.061 534.255C240.284 534.137 239.642 534.002 239.135 533.849C238.628 533.695 238.186 533.424 237.809 533.036C237.444 532.647 237.261 532.093 237.261 531.374C237.261 530.773 237.432 530.243 237.774 529.783C238.127 529.312 238.634 528.947 239.294 528.688C239.966 528.428 240.755 528.299 241.662 528.299C242.334 528.299 243 528.375 243.66 528.528C244.331 528.67 244.885 528.87 245.321 529.129L244.402 531.091C243.565 530.62 242.652 530.384 241.662 530.384C241.073 530.384 240.631 530.467 240.337 530.632C240.042 530.797 239.895 531.009 239.895 531.268C239.895 531.563 240.054 531.769 240.372 531.887C240.69 532.005 241.197 532.116 241.892 532.223C242.67 532.352 243.306 532.494 243.801 532.647C244.296 532.788 244.726 533.053 245.091 533.442C245.457 533.831 245.639 534.373 245.639 535.068C245.639 535.657 245.462 536.182 245.109 536.641C244.755 537.101 244.237 537.46 243.554 537.719C242.882 537.967 242.081 538.091 241.15 538.091Z" fill="white"/>
<circle cx="219.866" cy="313.355" r="72.4885" fill="#F54923"/>
<path d="M216.532 276.694C218.264 276.694 219.619 277.224 220.597 278.284C221.575 279.333 222.064 280.847 222.064 282.827C222.064 284.229 221.799 285.431 221.269 286.433C220.751 287.434 220.014 288.194 219.06 288.713C218.105 289.231 217.003 289.49 215.754 289.49C215.095 289.49 214.464 289.42 213.863 289.278C213.262 289.125 212.75 288.913 212.325 288.642L213.386 286.539C213.987 286.951 214.759 287.157 215.701 287.157C216.75 287.157 217.581 286.851 218.194 286.238C218.806 285.614 219.136 284.718 219.183 283.552C218.441 284.294 217.416 284.665 216.108 284.665C215.318 284.665 214.6 284.506 213.952 284.188C213.303 283.87 212.791 283.422 212.414 282.845C212.037 282.255 211.848 281.578 211.848 280.812C211.848 279.987 212.054 279.262 212.467 278.638C212.879 278.013 213.439 277.536 214.146 277.206C214.865 276.865 215.66 276.694 216.532 276.694ZM216.744 282.526C217.369 282.526 217.875 282.356 218.264 282.014C218.665 281.66 218.865 281.213 218.865 280.671C218.865 280.128 218.671 279.687 218.282 279.345C217.905 279.003 217.381 278.832 216.709 278.832C216.096 278.832 215.595 278.997 215.206 279.327C214.829 279.657 214.641 280.105 214.641 280.671C214.641 281.236 214.829 281.69 215.206 282.031C215.595 282.361 216.108 282.526 216.744 282.526ZM177.164 311.49C175.903 311.49 174.76 311.219 173.735 310.677C172.722 310.123 171.92 309.363 171.331 308.397C170.754 307.419 170.465 306.317 170.465 305.092C170.465 303.867 170.754 302.771 171.331 301.804C171.92 300.826 172.722 300.066 173.735 299.524C174.76 298.971 175.909 298.694 177.182 298.694C178.254 298.694 179.22 298.882 180.08 299.259C180.952 299.636 181.683 300.178 182.272 300.885L180.434 302.582C179.597 301.616 178.56 301.133 177.323 301.133C176.557 301.133 175.874 301.304 175.273 301.645C174.672 301.975 174.2 302.441 173.859 303.042C173.529 303.643 173.364 304.326 173.364 305.092C173.364 305.858 173.529 306.541 173.859 307.142C174.2 307.743 174.672 308.215 175.273 308.556C175.874 308.886 176.557 309.051 177.323 309.051C178.56 309.051 179.597 308.562 180.434 307.584L182.272 309.281C181.683 310 180.952 310.548 180.08 310.925C179.208 311.302 178.236 311.49 177.164 311.49ZM187.778 301.628C189.25 301.628 190.382 301.981 191.171 302.688C191.961 303.383 192.355 304.438 192.355 305.852V311.278H189.775V310.094C189.256 310.978 188.29 311.42 186.876 311.42C186.146 311.42 185.509 311.296 184.967 311.048C184.437 310.801 184.03 310.459 183.748 310.023C183.465 309.587 183.323 309.092 183.323 308.539C183.323 307.655 183.653 306.96 184.313 306.453C184.985 305.946 186.016 305.693 187.406 305.693H189.598C189.598 305.092 189.415 304.632 189.05 304.314C188.685 303.984 188.137 303.819 187.406 303.819C186.9 303.819 186.399 303.902 185.904 304.067C185.421 304.22 185.008 304.432 184.667 304.703L183.677 302.777C184.195 302.411 184.814 302.128 185.533 301.928C186.263 301.728 187.012 301.628 187.778 301.628ZM187.565 309.564C188.037 309.564 188.455 309.458 188.82 309.246C189.186 309.022 189.445 308.698 189.598 308.273V307.301H187.707C186.576 307.301 186.01 307.673 186.01 308.415C186.01 308.768 186.146 309.051 186.417 309.263C186.699 309.464 187.082 309.564 187.565 309.564ZM200.984 310.819C200.713 311.019 200.377 311.172 199.977 311.278C199.588 311.372 199.175 311.42 198.739 311.42C197.608 311.42 196.73 311.131 196.106 310.554C195.493 309.976 195.187 309.128 195.187 308.008V304.102H193.72V301.981H195.187V299.666H197.944V301.981H200.312V304.102H197.944V307.973C197.944 308.374 198.044 308.686 198.244 308.91C198.456 309.122 198.751 309.228 199.128 309.228C199.564 309.228 199.935 309.11 200.242 308.874L200.984 310.819ZM211.553 306.559C211.553 306.594 211.535 306.842 211.5 307.301H204.306C204.436 307.891 204.742 308.356 205.225 308.698C205.709 309.039 206.309 309.21 207.028 309.21C207.523 309.21 207.959 309.14 208.336 308.998C208.725 308.845 209.084 308.609 209.414 308.291L210.881 309.882C209.986 310.907 208.678 311.42 206.958 311.42C205.885 311.42 204.937 311.213 204.112 310.801C203.287 310.377 202.651 309.794 202.203 309.051C201.755 308.309 201.531 307.466 201.531 306.524C201.531 305.593 201.749 304.756 202.185 304.014C202.633 303.26 203.24 302.676 204.006 302.264C204.784 301.84 205.65 301.628 206.604 301.628C207.535 301.628 208.377 301.828 209.132 302.229C209.886 302.629 210.475 303.207 210.899 303.961C211.335 304.703 211.553 305.569 211.553 306.559ZM206.622 303.713C205.997 303.713 205.473 303.89 205.049 304.244C204.624 304.597 204.365 305.08 204.271 305.693H208.955C208.861 305.092 208.601 304.615 208.177 304.261C207.753 303.896 207.234 303.713 206.622 303.713ZM223.198 301.769V309.687C223.198 311.431 222.745 312.728 221.837 313.576C220.93 314.424 219.604 314.849 217.86 314.849C216.941 314.849 216.069 314.737 215.245 314.513C214.42 314.289 213.736 313.965 213.194 313.541L214.29 311.561C214.691 311.891 215.197 312.15 215.81 312.339C216.423 312.539 217.036 312.639 217.648 312.639C218.603 312.639 219.304 312.421 219.752 311.985C220.211 311.561 220.441 310.913 220.441 310.041V309.634C219.722 310.424 218.721 310.819 217.436 310.819C216.564 310.819 215.763 310.63 215.033 310.253C214.314 309.864 213.742 309.322 213.318 308.627C212.894 307.932 212.682 307.13 212.682 306.223C212.682 305.316 212.894 304.515 213.318 303.819C213.742 303.124 214.314 302.588 215.033 302.211C215.763 301.822 216.564 301.628 217.436 301.628C218.815 301.628 219.864 302.081 220.582 302.989V301.769H223.198ZM217.984 308.556C218.715 308.556 219.31 308.344 219.769 307.92C220.241 307.484 220.476 306.918 220.476 306.223C220.476 305.528 220.241 304.968 219.769 304.544C219.31 304.108 218.715 303.89 217.984 303.89C217.254 303.89 216.653 304.108 216.181 304.544C215.71 304.968 215.474 305.528 215.474 306.223C215.474 306.918 215.71 307.484 216.181 307.92C216.653 308.344 217.254 308.556 217.984 308.556ZM230.289 311.42C229.288 311.42 228.386 311.213 227.585 310.801C226.796 310.377 226.177 309.794 225.729 309.051C225.282 308.309 225.058 307.466 225.058 306.524C225.058 305.581 225.282 304.738 225.729 303.996C226.177 303.254 226.796 302.676 227.585 302.264C228.386 301.84 229.288 301.628 230.289 301.628C231.291 301.628 232.187 301.84 232.976 302.264C233.765 302.676 234.384 303.254 234.832 303.996C235.28 304.738 235.504 305.581 235.504 306.524C235.504 307.466 235.28 308.309 234.832 309.051C234.384 309.794 233.765 310.377 232.976 310.801C232.187 311.213 231.291 311.42 230.289 311.42ZM230.289 309.157C230.996 309.157 231.574 308.922 232.022 308.45C232.481 307.967 232.711 307.325 232.711 306.524C232.711 305.722 232.481 305.086 232.022 304.615C231.574 304.132 230.996 303.89 230.289 303.89C229.582 303.89 228.999 304.132 228.54 304.615C228.08 305.086 227.85 305.722 227.85 306.524C227.85 307.325 228.08 307.967 228.54 308.45C228.999 308.922 229.582 309.157 230.289 309.157ZM239.98 303.024C240.31 302.564 240.752 302.217 241.306 301.981C241.871 301.746 242.519 301.628 243.25 301.628V304.173C242.944 304.149 242.737 304.138 242.631 304.138C241.842 304.138 241.223 304.361 240.775 304.809C240.328 305.245 240.104 305.905 240.104 306.789V311.278H237.347V301.769H239.98V303.024ZM244.889 301.769H247.647V311.278H244.889V301.769ZM246.268 300.443C245.761 300.443 245.349 300.296 245.031 300.002C244.713 299.707 244.554 299.342 244.554 298.906C244.554 298.47 244.713 298.104 245.031 297.81C245.349 297.515 245.761 297.368 246.268 297.368C246.775 297.368 247.187 297.509 247.505 297.792C247.823 298.075 247.983 298.429 247.983 298.853C247.983 299.312 247.823 299.695 247.505 300.002C247.187 300.296 246.775 300.443 246.268 300.443ZM259.52 306.559C259.52 306.594 259.503 306.842 259.467 307.301H252.274C252.403 307.891 252.71 308.356 253.193 308.698C253.676 309.039 254.277 309.21 254.996 309.21C255.491 309.21 255.927 309.14 256.304 308.998C256.692 308.845 257.052 308.609 257.382 308.291L258.849 309.882C257.953 310.907 256.645 311.42 254.925 311.42C253.853 311.42 252.904 311.213 252.079 310.801C251.254 310.377 250.618 309.794 250.17 309.051C249.723 308.309 249.499 307.466 249.499 306.524C249.499 305.593 249.717 304.756 250.153 304.014C250.6 303.26 251.207 302.676 251.973 302.264C252.751 301.84 253.617 301.628 254.571 301.628C255.502 301.628 256.345 301.828 257.099 302.229C257.853 302.629 258.442 303.207 258.866 303.961C259.302 304.703 259.52 305.569 259.52 306.559ZM254.589 303.713C253.965 303.713 253.44 303.89 253.016 304.244C252.592 304.597 252.333 305.08 252.238 305.693H256.922C256.828 305.092 256.569 304.615 256.144 304.261C255.72 303.896 255.202 303.713 254.589 303.713ZM264.555 311.42C263.766 311.42 262.994 311.325 262.24 311.137C261.486 310.936 260.885 310.689 260.437 310.394L261.356 308.415C261.78 308.686 262.293 308.91 262.894 309.087C263.495 309.251 264.084 309.334 264.661 309.334C265.828 309.334 266.411 309.045 266.411 308.468C266.411 308.197 266.252 308.002 265.934 307.885C265.616 307.767 265.127 307.667 264.467 307.584C263.689 307.466 263.047 307.331 262.54 307.178C262.034 307.024 261.592 306.753 261.215 306.365C260.849 305.976 260.667 305.422 260.667 304.703C260.667 304.102 260.838 303.572 261.179 303.112C261.533 302.641 262.04 302.276 262.699 302.017C263.371 301.757 264.161 301.628 265.068 301.628C265.739 301.628 266.405 301.704 267.065 301.857C267.737 301.999 268.291 302.199 268.727 302.458L267.807 304.42C266.971 303.949 266.058 303.713 265.068 303.713C264.479 303.713 264.037 303.796 263.742 303.961C263.448 304.126 263.3 304.338 263.3 304.597C263.3 304.892 263.459 305.098 263.778 305.216C264.096 305.334 264.602 305.445 265.298 305.552C266.075 305.681 266.712 305.823 267.207 305.976C267.701 306.117 268.131 306.382 268.497 306.771C268.862 307.16 269.045 307.702 269.045 308.397C269.045 308.986 268.868 309.511 268.514 309.97C268.161 310.43 267.642 310.789 266.959 311.048C266.287 311.296 265.486 311.42 264.555 311.42ZM175.411 320.906H178.275V333.278H175.411V320.906ZM190.702 320.163V333.278H188.069V332.182C187.385 333.007 186.395 333.42 185.099 333.42C184.204 333.42 183.391 333.219 182.66 332.819C181.941 332.418 181.376 331.847 180.963 331.104C180.551 330.362 180.345 329.502 180.345 328.524C180.345 327.546 180.551 326.685 180.963 325.943C181.376 325.201 181.941 324.629 182.66 324.229C183.391 323.828 184.204 323.628 185.099 323.628C186.313 323.628 187.262 324.011 187.945 324.777V320.163H190.702ZM185.576 331.157C186.272 331.157 186.849 330.922 187.309 330.45C187.768 329.967 187.998 329.325 187.998 328.524C187.998 327.722 187.768 327.086 187.309 326.615C186.849 326.132 186.272 325.89 185.576 325.89C184.87 325.89 184.286 326.132 183.827 326.615C183.367 327.086 183.137 327.722 183.137 328.524C183.137 329.325 183.367 329.967 183.827 330.45C184.286 330.922 184.87 331.157 185.576 331.157ZM202.569 328.559C202.569 328.594 202.551 328.842 202.516 329.301H195.322C195.452 329.891 195.758 330.356 196.241 330.698C196.724 331.039 197.325 331.21 198.044 331.21C198.539 331.21 198.975 331.14 199.352 330.998C199.741 330.845 200.1 330.609 200.43 330.291L201.897 331.882C201.002 332.907 199.694 333.42 197.973 333.42C196.901 333.42 195.953 333.213 195.128 332.801C194.303 332.377 193.667 331.794 193.219 331.051C192.771 330.309 192.547 329.466 192.547 328.524C192.547 327.593 192.765 326.756 193.201 326.014C193.649 325.26 194.256 324.676 195.022 324.264C195.799 323.84 196.665 323.628 197.62 323.628C198.551 323.628 199.393 323.828 200.147 324.229C200.902 324.629 201.491 325.207 201.915 325.961C202.351 326.703 202.569 327.569 202.569 328.559ZM197.638 325.713C197.013 325.713 196.489 325.89 196.064 326.244C195.64 326.597 195.381 327.08 195.287 327.693H199.971C199.876 327.092 199.617 326.615 199.193 326.261C198.769 325.896 198.25 325.713 197.638 325.713ZM210.184 323.628C211.363 323.628 212.311 323.981 213.03 324.688C213.76 325.395 214.126 326.444 214.126 327.834V333.278H211.368V328.259C211.368 327.504 211.204 326.945 210.874 326.579C210.544 326.202 210.066 326.014 209.442 326.014C208.747 326.014 208.193 326.232 207.78 326.668C207.368 327.092 207.162 327.728 207.162 328.577V333.278H204.405V323.769H207.038V324.883C207.403 324.482 207.857 324.176 208.399 323.964C208.941 323.74 209.536 323.628 210.184 323.628ZM222.758 332.819C222.487 333.019 222.151 333.172 221.751 333.278C221.362 333.372 220.95 333.42 220.514 333.42C219.382 333.42 218.505 333.131 217.88 332.554C217.267 331.976 216.961 331.128 216.961 330.008V326.102H215.494V323.981H216.961V321.666H219.718V323.981H222.087V326.102H219.718V329.973C219.718 330.374 219.818 330.686 220.019 330.91C220.231 331.122 220.525 331.228 220.902 331.228C221.338 331.228 221.71 331.11 222.016 330.874L222.758 332.819ZM224.306 323.769H227.063V333.278H224.306V323.769ZM225.685 322.443C225.178 322.443 224.766 322.296 224.448 322.002C224.129 321.707 223.97 321.342 223.97 320.906C223.97 320.47 224.129 320.104 224.448 319.81C224.766 319.515 225.178 319.368 225.685 319.368C226.191 319.368 226.604 319.509 226.922 319.792C227.24 320.075 227.399 320.429 227.399 320.853C227.399 321.312 227.24 321.695 226.922 322.002C226.604 322.296 226.191 322.443 225.685 322.443ZM232.645 323.981H235.084V326.102H232.715V333.278H229.958V326.102H228.491V323.981H229.958V323.557C229.958 322.473 230.276 321.613 230.913 320.976C231.561 320.34 232.468 320.022 233.635 320.022C234.047 320.022 234.436 320.069 234.801 320.163C235.178 320.246 235.49 320.37 235.738 320.535L235.013 322.532C234.695 322.308 234.324 322.196 233.9 322.196C233.063 322.196 232.645 322.656 232.645 323.575V323.981ZM237.877 323.769H240.634V333.278H237.877V323.769ZM239.255 322.443C238.749 322.443 238.336 322.296 238.018 322.002C237.7 321.707 237.541 321.342 237.541 320.906C237.541 320.47 237.7 320.104 238.018 319.81C238.336 319.515 238.749 319.368 239.255 319.368C239.762 319.368 240.174 319.509 240.492 319.792C240.811 320.075 240.97 320.429 240.97 320.853C240.97 321.312 240.811 321.695 240.492 322.002C240.174 322.296 239.762 322.443 239.255 322.443ZM252.504 328.559C252.504 328.594 252.486 328.842 252.451 329.301H245.257C245.387 329.891 245.693 330.356 246.176 330.698C246.659 331.039 247.26 331.21 247.979 331.21C248.474 331.21 248.91 331.14 249.287 330.998C249.676 330.845 250.035 330.609 250.365 330.291L251.832 331.882C250.937 332.907 249.629 333.42 247.908 333.42C246.836 333.42 245.888 333.213 245.063 332.801C244.238 332.377 243.602 331.794 243.154 331.051C242.706 330.309 242.482 329.466 242.482 328.524C242.482 327.593 242.7 326.756 243.136 326.014C243.584 325.26 244.191 324.676 244.957 324.264C245.734 323.84 246.601 323.628 247.555 323.628C248.486 323.628 249.328 323.828 250.082 324.229C250.837 324.629 251.426 325.207 251.85 325.961C252.286 326.703 252.504 327.569 252.504 328.559ZM247.573 325.713C246.948 325.713 246.424 325.89 246 326.244C245.575 326.597 245.316 327.08 245.222 327.693H249.906C249.811 327.092 249.552 326.615 249.128 326.261C248.704 325.896 248.185 325.713 247.573 325.713ZM264.025 320.163V333.278H261.392V332.182C260.709 333.007 259.719 333.42 258.423 333.42C257.527 333.42 256.714 333.219 255.983 332.819C255.265 332.418 254.699 331.847 254.287 331.104C253.874 330.362 253.668 329.502 253.668 328.524C253.668 327.546 253.874 326.685 254.287 325.943C254.699 325.201 255.265 324.629 255.983 324.229C256.714 323.828 257.527 323.628 258.423 323.628C259.636 323.628 260.585 324.011 261.268 324.777V320.163H264.025ZM258.9 331.157C259.595 331.157 260.172 330.922 260.632 330.45C261.091 329.967 261.321 329.325 261.321 328.524C261.321 327.722 261.091 327.086 260.632 326.615C260.172 326.132 259.595 325.89 258.9 325.89C258.193 325.89 257.61 326.132 257.15 326.615C256.69 327.086 256.461 327.722 256.461 328.524C256.461 329.325 256.69 329.967 257.15 330.45C257.61 330.922 258.193 331.157 258.9 331.157Z" fill="white"/>
</svg>
