<svg width="872" height="666" viewBox="0 0 872 666" fill="none" xmlns="http://www.w3.org/2000/svg">
<rect width="872" height="666" fill="white"/>
<path d="M380.389 86.2777C378.182 86.2777 377.015 84.6694 376.889 81.4527C376.889 78.2991 378.056 76.7223 380.389 76.7223H421.922C424.003 76.7223 425.612 77.0692 426.747 77.763C427.882 78.3937 428.513 79.2767 428.639 80.412C428.702 81.4843 428.671 82.5249 428.545 83.5341C428.481 84.4802 428.261 85.2055 427.882 85.7101L390.607 142.38H424.855C427.189 142.38 428.355 143.925 428.355 147.016C428.481 150.296 427.315 151.935 424.855 151.935H382.471C378.308 151.935 376.069 150.674 375.753 148.151C375.627 147.079 375.627 146.101 375.753 145.218C375.88 144.272 376.132 143.547 376.51 143.042C377.646 141.276 378.812 139.447 380.011 137.555C381.272 135.663 382.66 133.582 384.174 131.311C385.687 129.04 387.359 126.486 389.188 123.648C391.08 120.81 393.224 117.593 395.621 113.998C398.018 110.34 400.698 106.24 403.663 101.699C406.69 97.1576 410.096 92.0172 413.88 86.2777H380.389ZM444.305 151.935C441.971 151.935 440.394 151.336 439.574 150.138C438.755 148.94 438.345 147.615 438.345 146.164V82.3988C438.345 80.9482 438.755 79.6552 439.574 78.5199C440.394 77.3215 441.971 76.7223 444.305 76.7223H477.228C479.562 76.7223 480.792 78.2991 480.918 81.4527C481.044 84.6694 479.814 86.2777 477.228 86.2777H449.508V142.38H478.931C481.265 142.38 482.463 143.925 482.526 147.016C482.652 150.296 481.454 151.935 478.931 151.935H444.305ZM473.728 112.768C473.728 114.975 472.939 116.836 471.363 118.35C469.849 119.863 467.988 120.62 465.781 120.62C463.636 120.62 461.807 119.863 460.294 118.35C458.78 116.836 458.023 114.975 458.023 112.768C458.023 110.56 458.78 108.7 460.294 107.186C461.807 105.672 463.636 104.915 465.781 104.915C467.988 104.915 469.849 105.672 471.363 107.186C472.939 108.7 473.728 110.56 473.728 112.768ZM504.397 147.867C504.397 150.895 502.505 152.408 498.721 152.408C494.999 152.408 493.139 150.895 493.139 147.867V80.7905C493.139 77.763 494.999 76.2493 498.721 76.2493C502.505 76.2493 504.397 77.763 504.397 80.7905V147.867ZM544.814 148.057C544.814 151.084 542.922 152.598 539.137 152.598C535.416 152.598 533.555 151.084 533.555 148.057V86.2777H516.999C514.728 86.2777 513.53 84.6694 513.404 81.4527C513.404 78.2991 514.602 76.7223 516.999 76.7223H561.37C563.767 76.7223 564.902 78.2991 564.776 81.4527C564.776 84.6694 563.641 86.2777 561.37 86.2777H544.814V148.057Z" fill="black"/>
<path d="M378.508 84.4878L427.013 144.515" stroke="black" stroke-width="1.48674"/>
<path d="M378.508 303.411L427.013 363.438" stroke="#F54923" stroke-width="1.48674"/>
<path d="M380.389 305.201C378.182 305.201 377.015 303.593 376.889 300.376C376.889 297.222 378.056 295.646 380.389 295.646H421.922C424.003 295.646 425.612 295.993 426.747 296.686C427.882 297.317 428.513 298.2 428.639 299.335C428.702 300.408 428.671 301.448 428.545 302.457C428.481 303.404 428.261 304.129 427.882 304.633L390.607 361.303H424.855C427.189 361.303 428.355 362.849 428.355 365.939C428.481 369.219 427.315 370.859 424.855 370.859H382.471C378.308 370.859 376.069 369.597 375.753 367.074C375.627 366.002 375.627 365.025 375.753 364.142C375.88 363.196 376.132 362.47 376.51 361.966C377.646 360.2 378.812 358.371 380.011 356.478C381.272 354.586 382.66 352.505 384.174 350.234C385.687 347.964 387.359 345.409 389.188 342.571C391.08 339.733 393.224 336.516 395.621 332.921C398.018 329.263 400.698 325.163 403.663 320.622C406.69 316.081 410.096 310.941 413.88 305.201H380.389ZM444.305 370.859C441.971 370.859 440.394 370.26 439.574 369.061C438.755 367.863 438.345 366.538 438.345 365.088V301.322C438.345 299.871 438.755 298.579 439.574 297.443C440.394 296.245 441.971 295.646 444.305 295.646H477.228C479.562 295.646 480.792 297.222 480.918 300.376C481.044 303.593 479.814 305.201 477.228 305.201H449.508V361.303H478.931C481.265 361.303 482.463 362.849 482.526 365.939C482.652 369.219 481.454 370.859 478.931 370.859H444.305ZM473.728 331.691C473.728 333.899 472.939 335.759 471.363 337.273C469.849 338.787 467.988 339.544 465.781 339.544C463.636 339.544 461.807 338.787 460.294 337.273C458.78 335.759 458.023 333.899 458.023 331.691C458.023 329.484 458.78 327.623 460.294 326.109C461.807 324.596 463.636 323.839 465.781 323.839C467.988 323.839 469.849 324.596 471.363 326.109C472.939 327.623 473.728 329.484 473.728 331.691ZM504.397 366.791C504.397 369.818 502.505 371.332 498.721 371.332C494.999 371.332 493.139 369.818 493.139 366.791V299.714C493.139 296.686 494.999 295.173 498.721 295.173C502.505 295.173 504.397 296.686 504.397 299.714V366.791ZM544.814 366.98C544.814 370.007 542.922 371.521 539.137 371.521C535.416 371.521 533.555 370.007 533.555 366.98V305.201H516.999C514.728 305.201 513.53 303.593 513.404 300.376C513.404 297.222 514.602 295.646 516.999 295.646H561.37C563.767 295.646 564.902 297.222 564.776 300.376C564.776 303.593 563.641 305.201 561.37 305.201H544.814V366.98Z" fill="black"/>
<path d="M60.3994 116.535H154.487" stroke="black" stroke-width="0.743372"/>
<path d="M107.443 69.4907V163.579" stroke="black" stroke-width="0.743372"/>
<rect x="71.3338" y="80.3211" width="72.522" height="72.522" rx="11.0081" stroke="black" stroke-width="2.9078"/>
<rect x="107.594" y="168.853" width="73.9212" height="73.9212" rx="11.7077" transform="rotate(-135 107.594 168.853)" stroke="black" stroke-width="1.5086"/>
<path d="M107.781 134.423C109.02 129.281 114.322 118.478 125.622 116.396" stroke="black" stroke-width="1.48674"/>
<path d="M107.409 134.795C106.17 129.653 100.868 118.85 89.5682 116.768" stroke="black" stroke-width="1.48674"/>
<path d="M107.594 98.3691C108.833 103.511 114.136 114.314 125.435 116.396" stroke="black" stroke-width="1.48674"/>
<path d="M107.409 98.1841C106.17 103.326 100.868 114.129 89.5682 116.211" stroke="black" stroke-width="1.48674"/>
<path d="M372.19 522.334L420.695 582.362" stroke="#2764FF" stroke-width="1.48674"/>
<path d="M374.072 524.124C371.864 524.124 370.698 522.516 370.571 519.299C370.571 516.146 371.738 514.569 374.072 514.569H415.605C417.686 514.569 419.294 514.916 420.43 515.61C421.565 516.24 422.196 517.123 422.322 518.259C422.385 519.331 422.353 520.372 422.227 521.381C422.164 522.327 421.943 523.052 421.565 523.557L384.289 580.227H418.537C420.871 580.227 422.038 581.772 422.038 584.863C422.164 588.142 420.997 589.782 418.537 589.782H376.153C371.991 589.782 369.751 588.521 369.436 585.998C369.31 584.926 369.31 583.948 369.436 583.065C369.562 582.119 369.815 581.394 370.193 580.889C371.328 579.123 372.495 577.294 373.693 575.402C374.955 573.51 376.342 571.428 377.856 569.158C379.37 566.887 381.041 564.333 382.87 561.494C384.763 558.656 386.907 555.44 389.304 551.844C391.7 548.186 394.381 544.087 397.345 539.545C400.373 535.004 403.779 529.864 407.563 524.124H374.072ZM437.987 589.782C435.654 589.782 434.077 589.183 433.257 587.985C432.437 586.786 432.027 585.462 432.027 584.011V520.245C432.027 518.795 432.437 517.502 433.257 516.367C434.077 515.168 435.654 514.569 437.987 514.569H470.911C473.245 514.569 474.474 516.146 474.601 519.299C474.727 522.516 473.497 524.124 470.911 524.124H443.191V580.227H472.614C474.948 580.227 476.146 581.772 476.209 584.863C476.335 588.142 475.137 589.782 472.614 589.782H437.987ZM467.41 550.615C467.41 552.822 466.622 554.683 465.045 556.196C463.532 557.71 461.671 558.467 459.463 558.467C457.319 558.467 455.49 557.71 453.976 556.196C452.462 554.683 451.706 552.822 451.706 550.615C451.706 548.407 452.462 546.546 453.976 545.033C455.49 543.519 457.319 542.762 459.463 542.762C461.671 542.762 463.532 543.519 465.045 545.033C466.622 546.546 467.41 548.407 467.41 550.615ZM498.08 585.714C498.08 588.741 496.187 590.255 492.403 590.255C488.682 590.255 486.821 588.741 486.821 585.714V518.637C486.821 515.61 488.682 514.096 492.403 514.096C496.187 514.096 498.08 515.61 498.08 518.637V585.714ZM538.496 585.903C538.496 588.931 536.604 590.444 532.82 590.444C529.099 590.444 527.238 588.931 527.238 585.903V524.124H510.682C508.411 524.124 507.213 522.516 507.087 519.299C507.087 516.146 508.285 514.569 510.682 514.569H555.053C557.449 514.569 558.585 516.146 558.458 519.299C558.458 522.516 557.323 524.124 555.053 524.124H538.496V585.903Z" fill="black"/>
<path d="M622.081 86.2777C619.873 86.2777 618.706 84.6694 618.58 81.4527C618.58 78.2991 619.747 76.7223 622.081 76.7223H663.613C665.695 76.7223 667.303 77.0692 668.438 77.763C669.574 78.3937 670.204 79.2767 670.331 80.412C670.394 81.4843 670.362 82.5249 670.236 83.5341C670.173 84.4802 669.952 85.2055 669.574 85.7101L632.298 142.38H666.546C668.88 142.38 670.047 143.925 670.047 147.016C670.173 150.296 669.006 151.935 666.546 151.935H624.162C619.999 151.935 617.76 150.674 617.445 148.151C617.319 147.079 617.319 146.101 617.445 145.218C617.571 144.272 617.823 143.547 618.202 143.042C619.337 141.276 620.504 139.447 621.702 137.555C622.964 135.663 624.351 133.582 625.865 131.311C627.379 129.04 629.05 126.486 630.879 123.648C632.771 120.81 634.916 117.593 637.312 113.998C639.709 110.34 642.39 106.24 645.354 101.699C648.382 97.1576 651.787 92.0172 655.572 86.2777H622.081ZM685.996 151.935C683.663 151.935 682.086 151.336 681.266 150.138C680.446 148.94 680.036 147.615 680.036 146.164V82.3988C680.036 80.9482 680.446 79.6552 681.266 78.5199C682.086 77.3215 683.663 76.7223 685.996 76.7223H718.92C721.253 76.7223 722.483 78.2991 722.609 81.4527C722.736 84.6694 721.506 86.2777 718.92 86.2777H691.2V142.38H720.623C722.956 142.38 724.155 143.925 724.218 147.016C724.344 150.296 723.146 151.935 720.623 151.935H685.996ZM715.419 112.768C715.419 114.975 714.631 116.836 713.054 118.35C711.54 119.863 709.68 120.62 707.472 120.62C705.328 120.62 703.499 119.863 701.985 118.35C700.471 116.836 699.714 114.975 699.714 112.768C699.714 110.56 700.471 108.7 701.985 107.186C703.499 105.672 705.328 104.915 707.472 104.915C709.68 104.915 711.54 105.672 713.054 107.186C714.631 108.7 715.419 110.56 715.419 112.768ZM746.088 147.867C746.088 150.895 744.196 152.408 740.412 152.408C736.691 152.408 734.83 150.895 734.83 147.867V80.7905C734.83 77.763 736.691 76.2493 740.412 76.2493C744.196 76.2493 746.088 77.763 746.088 80.7905V147.867ZM786.505 148.057C786.505 151.084 784.613 152.598 780.829 152.598C777.107 152.598 775.247 151.084 775.247 148.057V86.2777H758.69C756.42 86.2777 755.221 84.6694 755.095 81.4527C755.095 78.2991 756.294 76.7223 758.69 76.7223H803.061C805.458 76.7223 806.593 78.2991 806.467 81.4527C806.467 84.6694 805.332 86.2777 803.061 86.2777H786.505V148.057Z" fill="black"/>
<path d="M620.199 84.4878L668.704 144.515" stroke="black" stroke-width="1.48674"/>
<path d="M620.199 303.411L668.704 363.438" stroke="#F54923" stroke-width="1.48674"/>
<path d="M622.081 305.201C619.873 305.201 618.706 303.593 618.58 300.376C618.58 297.222 619.747 295.646 622.081 295.646H663.613C665.695 295.646 667.303 295.993 668.438 296.686C669.574 297.317 670.204 298.2 670.331 299.335C670.394 300.408 670.362 301.448 670.236 302.457C670.173 303.404 669.952 304.129 669.574 304.633L632.298 361.303H666.546C668.88 361.303 670.047 362.849 670.047 365.939C670.173 369.219 669.006 370.859 666.546 370.859H624.162C619.999 370.859 617.76 369.597 617.445 367.074C617.319 366.002 617.319 365.025 617.445 364.142C617.571 363.196 617.823 362.47 618.202 361.966C619.337 360.2 620.504 358.371 621.702 356.478C622.964 354.586 624.351 352.505 625.865 350.234C627.379 347.964 629.05 345.409 630.879 342.571C632.771 339.733 634.916 336.516 637.312 332.921C639.709 329.263 642.39 325.163 645.354 320.622C648.382 316.081 651.787 310.941 655.572 305.201H622.081ZM685.996 370.859C683.663 370.859 682.086 370.26 681.266 369.061C680.446 367.863 680.036 366.538 680.036 365.088V301.322C680.036 299.871 680.446 298.579 681.266 297.443C682.086 296.245 683.663 295.646 685.996 295.646H718.92C721.253 295.646 722.483 297.222 722.609 300.376C722.736 303.593 721.506 305.201 718.92 305.201H691.2V361.303H720.623C722.956 361.303 724.155 362.849 724.218 365.939C724.344 369.219 723.146 370.859 720.623 370.859H685.996ZM715.419 331.691C715.419 333.899 714.631 335.759 713.054 337.273C711.54 338.787 709.68 339.544 707.472 339.544C705.328 339.544 703.499 338.787 701.985 337.273C700.471 335.759 699.714 333.899 699.714 331.691C699.714 329.484 700.471 327.623 701.985 326.109C703.499 324.596 705.328 323.839 707.472 323.839C709.68 323.839 711.54 324.596 713.054 326.109C714.631 327.623 715.419 329.484 715.419 331.691ZM746.088 366.791C746.088 369.818 744.196 371.332 740.412 371.332C736.691 371.332 734.83 369.818 734.83 366.791V299.714C734.83 296.686 736.691 295.173 740.412 295.173C744.196 295.173 746.088 296.686 746.088 299.714V366.791ZM786.505 366.98C786.505 370.007 784.613 371.521 780.829 371.521C777.107 371.521 775.247 370.007 775.247 366.98V305.201H758.69C756.42 305.201 755.221 303.593 755.095 300.376C755.095 297.222 756.294 295.646 758.69 295.646H803.061C805.458 295.646 806.593 297.222 806.467 300.376C806.467 303.593 805.332 305.201 803.061 305.201H786.505V366.98Z" fill="black"/>
<path d="M613.882 522.334L662.387 582.362" stroke="#2764FF" stroke-width="1.48674"/>
<path d="M615.764 524.124C613.556 524.124 612.389 522.516 612.263 519.299C612.263 516.146 613.43 514.569 615.764 514.569H657.297C659.378 514.569 660.986 514.916 662.122 515.61C663.257 516.24 663.888 517.123 664.014 518.259C664.077 519.331 664.045 520.372 663.919 521.381C663.856 522.327 663.635 523.052 663.257 523.557L625.981 580.227H660.229C662.563 580.227 663.73 581.772 663.73 584.863C663.856 588.142 662.689 589.782 660.229 589.782H617.845C613.682 589.782 611.443 588.521 611.128 585.998C611.002 584.926 611.002 583.948 611.128 583.065C611.254 582.119 611.506 581.394 611.885 580.889C613.02 579.123 614.187 577.294 615.385 575.402C616.647 573.51 618.034 571.428 619.548 569.158C621.062 566.887 622.733 564.333 624.562 561.494C626.454 558.656 628.599 555.44 630.996 551.844C633.392 548.186 636.073 544.087 639.037 539.545C642.065 535.004 645.471 529.864 649.255 524.124H615.764ZM679.679 589.782C677.346 589.782 675.769 589.183 674.949 587.985C674.129 586.786 673.719 585.462 673.719 584.011V520.245C673.719 518.795 674.129 517.502 674.949 516.367C675.769 515.168 677.346 514.569 679.679 514.569H712.603C714.936 514.569 716.166 516.146 716.293 519.299C716.419 522.516 715.189 524.124 712.603 524.124H684.883V580.227H714.306C716.639 580.227 717.838 581.772 717.901 584.863C718.027 588.142 716.829 589.782 714.306 589.782H679.679ZM709.102 550.615C709.102 552.822 708.314 554.683 706.737 556.196C705.223 557.71 703.363 558.467 701.155 558.467C699.011 558.467 697.182 557.71 695.668 556.196C694.154 554.683 693.397 552.822 693.397 550.615C693.397 548.407 694.154 546.546 695.668 545.033C697.182 543.519 699.011 542.762 701.155 542.762C703.363 542.762 705.223 543.519 706.737 545.033C708.314 546.546 709.102 548.407 709.102 550.615ZM739.771 585.714C739.771 588.741 737.879 590.255 734.095 590.255C730.374 590.255 728.513 588.741 728.513 585.714V518.637C728.513 515.61 730.374 514.096 734.095 514.096C737.879 514.096 739.771 515.61 739.771 518.637V585.714ZM780.188 585.903C780.188 588.931 778.296 590.444 774.512 590.444C770.79 590.444 768.93 588.931 768.93 585.903V524.124H752.374C750.103 524.124 748.905 522.516 748.778 519.299C748.778 516.146 749.977 514.569 752.374 514.569H796.745C799.141 514.569 800.277 516.146 800.15 519.299C800.15 522.516 799.015 524.124 796.745 524.124H780.188V585.903Z" fill="black"/>
<path d="M71.5498 554.753H165.638" stroke="#2764FF" stroke-width="0.743372"/>
<path d="M118.593 507.709V601.798" stroke="#2764FF" stroke-width="0.743372"/>
<rect x="82.4842" y="518.539" width="72.522" height="72.522" rx="11.0081" stroke="#2764FF" stroke-width="2.9078"/>
<rect x="118.745" y="607.071" width="73.9212" height="73.9212" rx="11.7077" transform="rotate(-135 118.745 607.071)" stroke="#2764FF" stroke-width="1.5086"/>
<path d="M118.931 572.642C120.17 567.5 125.473 556.696 136.772 554.615" stroke="#2764FF" stroke-width="1.48674"/>
<path d="M118.56 573.014C117.321 567.872 112.018 557.068 100.719 554.987" stroke="#2764FF" stroke-width="1.48674"/>
<path d="M118.745 536.587C119.984 541.729 125.286 552.533 136.586 554.614" stroke="#2764FF" stroke-width="1.48674"/>
<path d="M118.56 536.403C117.321 541.544 112.018 552.348 100.719 554.43" stroke="#2764FF" stroke-width="1.48674"/>
<circle cx="118.932" cy="555.359" r="5.57529" fill="#2764FF"/>
<path d="M66.7178 341.404H160.806" stroke="#F54923" stroke-width="0.743372"/>
<path d="M113.761 294.36V388.448" stroke="#F54923" stroke-width="0.743372"/>
<rect x="77.6521" y="305.19" width="72.522" height="72.522" rx="11.0081" stroke="#F54923" stroke-width="2.9078"/>
<rect x="113.913" y="393.722" width="73.9212" height="73.9212" rx="11.7077" transform="rotate(-135 113.913 393.722)" stroke="#F54923" stroke-width="1.5086"/>
<path d="M114.099 359.292C115.338 354.151 120.641 343.347 131.94 341.266" stroke="#F54923" stroke-width="1.48674"/>
<path d="M113.728 359.665C112.489 354.523 107.186 343.719 95.8866 341.638" stroke="#F54923" stroke-width="1.48674"/>
<path d="M113.913 323.238C115.152 328.38 120.454 339.184 131.754 341.265" stroke="#F54923" stroke-width="1.48674"/>
<path d="M113.728 323.054C112.489 328.195 107.186 338.999 95.8866 341.08" stroke="#F54923" stroke-width="1.48674"/>
<circle cx="114.098" cy="342.009" r="5.57529" fill="#F54923"/>
<circle cx="107.781" cy="117.14" r="5.57529" fill="black"/>
<circle cx="274.333" cy="112.024" r="5.57529" fill="black"/>
<path d="M316.333 110.723C316.333 133.847 297.998 152.537 275.447 152.537C252.897 152.537 234.562 133.847 234.562 110.723C234.562 87.5986 252.897 68.9081 275.447 68.9081C297.998 68.9081 316.333 87.5986 316.333 110.723Z" stroke="black" stroke-width="2.97349"/>
<path d="M236.792 97.4692C246.661 94.5059 259.847 92.6958 274.332 92.6958C290.082 92.6958 304.296 94.8357 314.38 98.2711" stroke="black" stroke-width="1.11506"/>
<path d="M280.094 128.564C249.507 128.564 218.951 120.679 218.951 110.723" stroke="black" stroke-width="1.85843"/>
<path d="M235.225 121.501C241.724 113.333 251.869 104.152 264.233 95.7899C277.678 86.6969 291.046 80.4002 301.465 77.7252" stroke="black" stroke-width="1.11506"/>
<path d="M228.458 141.749C225.602 137.526 228.407 130.072 235.226 121.502" stroke="black" stroke-width="1.85843"/>
<path d="M329.713 110.722C329.713 105.893 323.879 101.507 314.379 98.271" stroke="black" stroke-width="1.85843"/>
<path d="M329.714 110.723C329.714 120.679 306.964 128.564 276.377 128.564" stroke="black" stroke-width="1.85843"/>
<path d="M218.951 110.722C218.951 105.481 225.822 100.763 236.792 97.4688" stroke="black" stroke-width="1.85843"/>
<path d="M320.208 79.6968C317.59 75.8262 310.681 75.3593 301.466 77.7251" stroke="black" stroke-width="1.85843"/>
<path d="M320.207 79.6967C322.875 83.642 320.602 90.4088 314.73 98.2706C308.327 106.843 297.647 116.717 284.431 125.655C259.095 142.789 234.035 149.995 228.458 141.748" stroke="black" stroke-width="1.85843"/>
<circle cx="272.405" cy="552.428" r="5.57529" fill="#2764FF"/>
<path d="M314.405 551.129C314.405 574.253 296.07 592.943 273.52 592.943C250.969 592.943 232.634 574.253 232.634 551.129C232.634 528.004 250.969 509.314 273.52 509.314C296.07 509.314 314.405 528.004 314.405 551.129Z" stroke="#2764FF" stroke-width="2.97349"/>
<path d="M234.864 537.875C244.733 534.912 257.919 533.102 272.405 533.102C288.154 533.102 302.368 535.242 312.452 538.677" stroke="#2764FF" stroke-width="1.11506"/>
<path d="M278.166 568.969C247.58 568.969 217.023 561.084 217.023 551.128" stroke="#2764FF" stroke-width="1.85843"/>
<path d="M233.298 561.908C239.797 553.74 249.942 544.558 262.306 536.197C275.751 527.104 289.118 520.807 299.538 518.132" stroke="#2764FF" stroke-width="1.11506"/>
<path d="M226.53 582.154C223.674 577.932 226.48 570.478 233.298 561.908" stroke="#2764FF" stroke-width="1.85843"/>
<path d="M327.785 551.129C327.785 546.299 321.951 541.913 312.452 538.677" stroke="#2764FF" stroke-width="1.85843"/>
<path d="M327.787 551.128C327.787 561.084 305.036 568.969 274.45 568.969" stroke="#2764FF" stroke-width="1.85843"/>
<path d="M217.023 551.129C217.023 545.888 223.894 541.169 234.864 537.875" stroke="#2764FF" stroke-width="1.85843"/>
<path d="M318.28 520.103C315.662 516.232 308.753 515.766 299.538 518.131" stroke="#2764FF" stroke-width="1.85843"/>
<path d="M318.28 520.102C320.948 524.048 318.674 530.815 312.802 538.676C306.399 547.249 295.719 557.123 282.504 566.06C257.168 583.195 232.107 590.4 226.53 582.153" stroke="#2764FF" stroke-width="1.85843"/>
<circle cx="272.998" cy="336.895" r="5.57529" fill="#F54923"/>
<path d="M314.998 335.593C314.998 358.718 296.663 377.408 274.113 377.408C251.563 377.408 233.227 358.718 233.227 335.593C233.227 312.469 251.563 293.779 274.113 293.779C296.663 293.779 314.998 312.469 314.998 335.593Z" stroke="#F54923" stroke-width="2.97349"/>
<path d="M235.458 322.34C245.326 319.377 258.513 317.567 272.998 317.567C288.747 317.567 302.961 319.707 313.045 323.142" stroke="#F54923" stroke-width="1.11506"/>
<path d="M278.759 353.434C248.173 353.434 217.617 345.549 217.617 335.593" stroke="#F54923" stroke-width="1.85843"/>
<path d="M233.891 346.372C240.39 338.204 250.535 329.023 262.899 320.661C276.344 311.568 289.711 305.271 300.131 302.596" stroke="#F54923" stroke-width="1.11506"/>
<path d="M227.123 366.619C224.268 362.397 227.073 354.942 233.892 346.373" stroke="#F54923" stroke-width="1.85843"/>
<path d="M328.379 335.594C328.379 330.764 322.544 326.378 313.045 323.142" stroke="#F54923" stroke-width="1.85843"/>
<path d="M328.38 335.593C328.38 345.549 305.629 353.434 275.043 353.434" stroke="#F54923" stroke-width="1.85843"/>
<path d="M217.617 335.593C217.617 330.352 224.488 325.633 235.458 322.339" stroke="#F54923" stroke-width="1.85843"/>
<path d="M318.873 304.567C316.255 300.697 309.346 300.23 300.131 302.596" stroke="#F54923" stroke-width="1.85843"/>
<path d="M318.873 304.567C321.541 308.513 319.268 315.279 313.396 323.141C306.993 331.713 296.313 341.587 283.097 350.525C257.761 367.66 232.701 374.865 227.124 366.618" stroke="#F54923" stroke-width="1.85843"/>
<ellipse cx="707.548" cy="331.668" rx="8.01511" ry="7.86487" fill="#F54923"/>
<ellipse cx="701.259" cy="550.543" rx="8.01511" ry="7.86487" fill="#2764FF"/>
</svg>
