<svg width="196" height="122" viewBox="0 0 196 122" fill="none" xmlns="http://www.w3.org/2000/svg">
<path d="M5.04834 26.968L54.414 88.0603" stroke="#F54923" stroke-width="1.51312"/>
<path d="M6.96382 28.1401C4.71714 28.1401 3.52961 26.5033 3.40123 23.2295C3.40123 20.02 4.58876 18.4152 6.96382 18.4152H49.2335C51.3518 18.4152 52.9886 18.7683 54.1441 19.4744C55.2995 20.1163 55.9414 21.0149 56.0698 22.1704C56.134 23.2616 56.1019 24.3208 55.9735 25.3478C55.9093 26.3107 55.6846 27.0489 55.2995 27.5624L17.3627 85.2378H52.2183C54.5934 85.2378 55.7809 86.8105 55.7809 89.9559C55.9093 93.2938 54.7218 94.9627 52.2183 94.9627H9.08211C4.84552 94.9627 2.56675 93.6789 2.24579 91.1113C2.11741 90.02 2.11741 89.0251 2.24579 88.1264C2.37417 87.1636 2.63094 86.4254 3.01608 85.9118C4.17152 84.1145 5.35905 82.253 6.57867 80.3272C7.86249 78.4015 9.27469 76.2832 10.8153 73.9723C12.3558 71.6615 14.0569 69.0618 15.9184 66.1732C17.8442 63.2846 20.0266 60.0108 22.4659 56.352C24.9051 52.6289 27.6333 48.4565 30.6502 43.8348C33.7314 39.213 37.1977 33.9815 41.0491 28.1401H6.96382ZM72.0134 94.9627C69.6384 94.9627 68.0336 94.3529 67.1991 93.1333C66.3646 91.9137 65.9474 90.5657 65.9474 89.0893V24.1924C65.9474 22.716 66.3646 21.4001 67.1991 20.2446C68.0336 19.025 69.6384 18.4152 72.0134 18.4152H105.521C107.896 18.4152 109.148 20.02 109.276 23.2295C109.405 26.5033 108.153 28.1401 105.521 28.1401H77.3092V85.2378H107.254C109.629 85.2378 110.849 86.8105 110.913 89.9559C111.041 93.2938 109.822 94.9627 107.254 94.9627H72.0134ZM101.958 55.1003C101.958 57.3469 101.156 59.2406 99.5513 60.7811C98.0107 62.3217 96.1171 63.092 93.8704 63.092C91.6879 63.092 89.8264 62.3217 88.2858 60.7811C86.7452 59.2406 85.9749 57.3469 85.9749 55.1003C85.9749 52.8536 86.7452 50.9599 88.2858 49.4194C89.8264 47.8788 91.6879 47.1085 93.8704 47.1085C96.1171 47.1085 98.0107 47.8788 99.5513 49.4194C101.156 50.9599 101.958 52.8536 101.958 55.1003ZM133.172 90.8224C133.172 93.9036 131.246 95.4442 127.395 95.4442C123.607 95.4442 121.714 93.9036 121.714 90.8224V22.5555C121.714 19.4744 123.607 17.9338 127.395 17.9338C131.246 17.9338 133.172 19.4744 133.172 22.5555V90.8224ZM174.305 91.015C174.305 94.0962 172.38 95.6367 168.528 95.6367C164.741 95.6367 162.847 94.0962 162.847 91.015V28.1401H145.997C143.686 28.1401 142.467 26.5033 142.338 23.2295C142.338 20.02 143.558 18.4152 145.997 18.4152H191.156C193.595 18.4152 194.75 20.02 194.622 23.2295C194.622 26.5033 193.466 28.1401 191.156 28.1401H174.305V91.015Z" fill="black"/>
<circle cx="94.2339" cy="55.7588" r="8.45481" fill="#F54923"/>
</svg>
