<svg width="178" height="157" viewBox="0 0 178 157" fill="none" xmlns="http://www.w3.org/2000/svg">
<path d="M160.597 106.073C120.657 93.4143 88.5655 63.1809 83.1432 96.0361C77.7208 63.1809 45.6289 93.4143 5.68903 106.073C4.59929 106.418 4.16838 107.736 4.89214 108.621C15.5114 121.605 43.312 152.104 83.1432 152.104C124.391 152.104 150.906 121.613 161.4 108.627C162.118 107.737 161.687 106.418 160.597 106.073Z" fill="black"/>
<path d="M83.1432 96.0361L87.1168 96.6919C86.7958 98.6367 85.1143 100.063 83.1432 100.063C81.172 100.063 79.4905 98.6367 79.1695 96.6919L83.1432 96.0361ZM160.597 106.073L161.814 102.234H161.814L160.597 106.073ZM161.4 108.627L158.267 106.095L158.267 106.095L161.4 108.627ZM5.68903 106.073L4.47223 102.234L4.47224 102.234L5.68903 106.073ZM4.89214 108.621L8.00958 106.071V106.071L4.89214 108.621ZM79.1695 95.3803C80.6259 86.5557 84.1415 80.4904 90.5477 78.1757C96.418 76.0546 103.423 77.6727 110.316 80.2067C117.38 82.8038 125.556 86.8662 134.124 90.9003C142.805 94.9881 152.098 99.1543 161.814 102.234L159.38 109.912C149.126 106.662 139.43 102.302 130.692 98.1877C121.84 94.0195 114.165 90.2036 107.537 87.7669C100.736 85.2671 96.205 84.6961 93.2849 85.7512C90.9008 86.6126 88.3716 89.0888 87.1168 96.6919L79.1695 95.3803ZM164.532 111.158C154.015 124.173 126.432 156.131 83.1432 156.131V148.077C122.351 148.077 147.796 119.053 158.267 106.095L164.532 111.158ZM79.1695 96.6919C77.9147 89.0888 75.3855 86.6126 73.0014 85.7512C70.0813 84.6961 65.5499 85.2671 58.7498 87.7669C52.1212 90.2036 44.4463 94.0195 35.594 98.1877C26.8559 102.302 17.16 106.662 6.90581 109.912L4.47224 102.234C14.188 99.1543 23.4811 94.9881 32.1627 90.9003C40.7302 86.8662 48.9059 82.8038 55.9706 80.2067C62.8638 77.6727 69.8683 76.0546 75.7386 78.1757C82.1448 80.4904 85.6604 86.5557 87.1168 95.3803L79.1695 96.6919ZM8.00958 106.071C18.5973 119.016 45.3317 148.077 83.1432 148.077V156.131C41.2924 156.131 12.4256 124.193 1.77469 111.171L8.00958 106.071ZM6.90582 109.912C8.36098 109.451 9.19798 107.524 8.00958 106.071L1.77469 111.171C-0.861221 107.948 0.837601 103.386 4.47223 102.234L6.90582 109.912ZM161.814 102.234C165.458 103.389 167.13 107.943 164.532 111.158L158.267 106.095C157.106 107.532 157.916 109.448 159.38 109.912L161.814 102.234Z" fill="black"/>
<path d="M43.6753 118.274C72.551 98.9425 94.5877 98.9425 124.223 118.274C94.5877 137.606 72.551 137.606 43.6753 118.274Z" fill="white"/>
<rect x="75.0884" y="4.70123" width="98.2687" height="57.9946" rx="20.137" fill="white" stroke="black" stroke-width="8.05481"/>
<path d="M138.722 64.3068H133.045L134.92 69.6647L135.756 72.0516C137.477 76.9699 144.377 77.1211 146.313 72.283L147.294 69.83L149.503 64.3068H143.555H138.722Z" fill="white" stroke="black" stroke-width="8.05481" stroke-linecap="round"/>
<path d="M143.538 59.4744L140.776 65.1091L138.373 59.4744H143.538Z" fill="white" stroke="white" stroke-width="8.05481" stroke-linecap="round"/>
<path d="M109.725 21.6169L137.111 45.7814" stroke="#F54923" stroke-width="8.05481" stroke-linecap="round"/>
<path d="M137.111 21.6169L109.724 45.7814" stroke="#F54923" stroke-width="8.05481" stroke-linecap="round"/>
</svg>
