<svg width="391" height="144" viewBox="0 0 391 144" fill="none" xmlns="http://www.w3.org/2000/svg">
<path d="M5.0625 48.7832L54.4281 109.876" stroke="#F54923" stroke-width="1.51312"/>
<path d="M6.97773 49.9553C4.73105 49.9553 3.54352 48.3184 3.41514 45.0447C3.41514 41.8352 4.60267 40.2304 6.97773 40.2304H49.2474C51.3657 40.2304 53.0025 40.5834 54.158 41.2895C55.3134 41.9314 55.9553 42.8301 56.0837 43.9856C56.1479 45.0768 56.1158 46.1359 55.9874 47.163C55.9232 48.1259 55.6986 48.8641 55.3134 49.3776L17.3766 107.053H52.2323C54.6073 107.053 55.7948 108.626 55.7948 111.771C55.9232 115.109 54.7357 116.778 52.2323 116.778H9.09603C4.85944 116.778 2.58066 115.494 2.25971 112.926C2.13133 111.835 2.13133 110.84 2.25971 109.942C2.38809 108.979 2.64485 108.241 3.03 107.727C4.18543 105.93 5.37296 104.068 6.59259 102.142C7.8764 100.217 9.2886 98.0984 10.8292 95.7875C12.3698 93.4767 14.0708 90.8769 15.9323 87.9884C17.8581 85.0998 20.0406 81.826 22.4798 78.1672C24.9191 74.4441 27.6472 70.2717 30.6641 65.65C33.7453 61.0282 37.2116 55.7967 41.063 49.9553H6.97773ZM72.0273 116.778C69.6523 116.778 68.0475 116.168 67.213 114.948C66.3785 113.729 65.9613 112.381 65.9613 110.904V46.0076C65.9613 44.5312 66.3785 43.2153 67.213 42.0598C68.0475 40.8402 69.6523 40.2304 72.0273 40.2304H105.535C107.91 40.2304 109.162 41.8352 109.29 45.0447C109.418 48.3184 108.167 49.9553 105.535 49.9553H77.3231V107.053H107.268C109.643 107.053 110.863 108.626 110.927 111.771C111.055 115.109 109.836 116.778 107.268 116.778H72.0273ZM101.972 76.9154C101.972 79.1621 101.17 81.0557 99.5652 82.5963C98.0246 84.1369 96.131 84.9072 93.8843 84.9072C91.7018 84.9072 89.8403 84.1369 88.2997 82.5963C86.7591 81.0557 85.9888 79.1621 85.9888 76.9154C85.9888 74.6688 86.7591 72.7751 88.2997 71.2346C89.8403 69.694 91.7018 68.9237 93.8843 68.9237C96.131 68.9237 98.0246 69.694 99.5652 71.2346C101.17 72.7751 101.972 74.6688 101.972 76.9154ZM133.186 112.638C133.186 115.719 131.26 117.259 127.408 117.259C123.621 117.259 121.728 115.719 121.728 112.638V44.3707C121.728 41.2895 123.621 39.749 127.408 39.749C131.26 39.749 133.186 41.2895 133.186 44.3707V112.638ZM174.319 112.83C174.319 115.911 172.394 117.452 168.542 117.452C164.755 117.452 162.861 115.911 162.861 112.83V49.9553H146.011C143.7 49.9553 142.481 48.3184 142.352 45.0447C142.352 41.8352 143.572 40.2304 146.011 40.2304H191.169C193.609 40.2304 194.764 41.8352 194.636 45.0447C194.636 48.3184 193.48 49.9553 191.169 49.9553H174.319V112.83Z" fill="black"/>
<circle cx="94.2478" cy="76.574" r="8.45481" fill="#F54923"/>
<circle cx="303.267" cy="69.6088" r="8.455" fill="#F54923"/>
<path d="M368.183 67.7457C368.183 103.408 339.906 132.233 305.129 132.233C270.352 132.233 242.075 103.408 242.075 67.7457C242.075 32.0834 270.352 3.25869 305.129 3.25869C339.906 3.25869 368.183 32.0834 368.183 67.7457Z" stroke="#F54923" stroke-width="4.58575"/>
<path d="M245.515 47.3059C260.735 42.736 281.071 39.9443 303.41 39.9443C327.699 39.9443 349.62 43.2446 365.171 48.5426" stroke="#F54923" stroke-width="1.71965"/>
<path d="M312.294 95.2596C265.124 95.2596 218 83.0992 218 67.7451" stroke="#F54923" stroke-width="2.86609"/>
<path d="M243.098 84.3692C253.121 71.7722 268.767 57.6127 287.835 44.7169C308.57 30.6936 329.185 20.9829 345.254 16.8574" stroke="#F54923" stroke-width="1.71965"/>
<path d="M232.661 115.593C228.257 109.082 232.583 97.5853 243.099 84.3689" stroke="#F54923" stroke-width="2.86609"/>
<path d="M388.819 67.7458C388.819 60.2978 379.821 53.5339 365.171 48.543" stroke="#F54923" stroke-width="2.86609"/>
<path d="M388.819 67.7451C388.819 83.0992 353.732 95.2596 306.562 95.2596" stroke="#F54923" stroke-width="2.86609"/>
<path d="M218 67.7456C218 59.663 228.597 52.3859 245.514 47.3062" stroke="#F54923" stroke-width="2.86609"/>
<path d="M374.158 19.8986C370.121 13.9295 359.466 13.2094 345.254 16.8579" stroke="#F54923" stroke-width="2.86609"/>
<path d="M374.158 19.8978C378.273 25.9822 374.766 36.418 365.71 48.5427C355.836 61.7628 339.365 76.9906 318.984 90.7745C279.911 117.2 241.262 128.312 232.661 115.593" stroke="#F54923" stroke-width="2.86609"/>
</svg>
